<?xml version="1.0" encoding="UTF-8"?>
<svg width="172px" height="33px" viewBox="0 0 172 33" version="1.1" xmlns="http://www.w3.org/2000/svg" xmlns:xlink="http://www.w3.org/1999/xlink">
    <title>Group</title>
    <defs>
        <linearGradient x1="53.46%" y1="38.165%" x2="53.46%" y2="62.205%" id="linearGradient-1">
            <stop stop-color="#FADA17" offset="0%"></stop>
            <stop stop-color="#F76268" offset="100%"></stop>
        </linearGradient>
        <linearGradient x1="49.9640325%" y1="-17.8011968%" x2="49.9640325%" y2="102.373616%" id="linearGradient-2">
            <stop stop-color="#FADA17" offset="11.94%"></stop>
            <stop stop-color="#F76268" offset="96.78%"></stop>
        </linearGradient>
        <linearGradient x1="49.8605024%" y1="3.99100798%" x2="49.8605024%" y2="101.221741%" id="linearGradient-3">
            <stop stop-color="#FADA17" offset="0%"></stop>
            <stop stop-color="#F76268" offset="96.78%"></stop>
        </linearGradient>
        <linearGradient x1="31.1327359%" y1="26.6279846%" x2="69.4742157%" y2="73.1240347%" id="linearGradient-4">
            <stop stop-color="#FADA17" offset="0%"></stop>
            <stop stop-color="#F76268" offset="81.28%"></stop>
        </linearGradient>
        <linearGradient x1="49.9966772%" y1="12.5783705%" x2="49.9966772%" y2="95.0408012%" id="linearGradient-5">
            <stop stop-color="#FADA17" offset="11.94%"></stop>
            <stop stop-color="#F76268" offset="100%"></stop>
        </linearGradient>
        <linearGradient x1="50.0586087%" y1="1.8940488%" x2="50.0586087%" y2="101.352394%" id="linearGradient-6">
            <stop stop-color="#FADA17" offset="11.94%"></stop>
            <stop stop-color="#F76268" offset="96.78%"></stop>
        </linearGradient>
        <linearGradient x1="49.8876769%" y1="-19.6611426%" x2="49.8876769%" y2="103.367181%" id="linearGradient-7">
            <stop stop-color="#FADA17" offset="11.94%"></stop>
            <stop stop-color="#F76268" offset="96.78%"></stop>
        </linearGradient>
    </defs>
    <g id="Page-1" stroke="none" stroke-width="1" fill="none" fill-rule="evenodd">
        <g id="Group">
            <rect id="Rectangle" fill-opacity="0" fill="#BDBABA" x="0" y="0" width="172" height="32"></rect>
            <g id="Logo---Partner" fill-rule="nonzero">
                <polygon id="Path" fill="url(#linearGradient-1)" points="46.212272 29.761504 45.7501653 29.761504 45.7501653 30.0255813 46.212272 30.0255813"></polygon>
                <path d="M38.157168,1.75248507 L15.7446507,14.6694213 L14.9524187,15.13084 L9.07703627,18.5248587 L9.07703627,23.1380133 L43.7686107,3.1364544 C44.4287467,2.74103787 45.1549307,2.60922853 45.8811147,2.74103787 C45.8811147,2.74103787 45.8811147,2.74103787 45.9141387,2.74103787 C46.04612,2.7739816 46.1781013,2.8069368 46.3101973,2.839892 C46.3432213,2.839892 46.3762453,2.839892 46.4092693,2.87283573 C45.1219067,1.5547768 43.3724373,0.862799013 41.5900587,0.862799013 C40.401768,0.862799013 39.2134773,1.12641195 38.157168,1.75248507 Z" id="Path" fill="url(#linearGradient-2)"></path>
                <path d="M2.73967333,3.26867653 C2.7066608,3.26867653 2.7066608,3.26867653 2.67365973,3.26867653 C2.6406472,3.26867653 2.60764613,3.26867653 2.5746336,3.26867653 L2.50862,3.26867653 C2.50862,3.26867653 2.50862,3.26867653 2.47560747,3.26867653 C2.4426064,3.26867653 2.40959387,3.26867653 2.34358027,3.26867653 L2.2775552,3.26867653 C2.24455413,3.26867653 2.2115416,3.26867653 2.17854053,3.30162027 C2.145528,3.30162027 2.145528,3.30162027 2.11251547,3.30162027 C2.0795144,3.30162027 2.04650187,3.30162027 2.0135008,3.33457547 C1.98048827,3.33457547 1.94747573,3.33457547 1.94747573,3.36753067 C1.94747573,3.36753067 1.91447467,3.4004744 1.88146213,3.4004744 C1.8484496,3.4004744 1.8484496,3.4004744 1.81544853,3.4334296 C1.782436,3.4334296 1.782436,3.4334296 1.74943493,3.4663848 C1.7164224,3.4663848 1.7164224,3.49932853 1.68340987,3.49932853 C1.68340987,3.49932853 1.68340987,3.49932853 1.6504088,3.49932853 L1.61739627,3.53228373 C1.55138267,3.53228373 1.51837013,3.56523893 1.48536907,3.59818267 C1.48536907,3.59818267 1.45235653,3.59818267 1.45235653,3.63113787 C1.419344,3.63113787 1.38634293,3.66409307 1.38634293,3.66409307 C1.38634293,3.66409307 1.3533304,3.66409307 1.3533304,3.6970368 C1.2873168,3.729992 1.2213032,3.7629472 1.18829067,3.82884613 C1.18829067,3.82884613 1.18829067,3.82884613 1.1552896,3.82884613 C1.12227592,3.82884613 1.12227592,3.86180133 1.08926797,3.89474507 L1.05626003,3.92770027 C0.95723504,3.9935992 0.891219147,4.0595096 0.825203253,4.15836373 L0.792195307,4.19131893 C0.75918736,4.22426267 0.726178267,4.25721787 0.726178267,4.25721787 C0.660162373,4.3231168 0.627154427,4.3890272 0.561138533,4.45492613 C0.198048827,4.88329787 0,5.44346747 0,6.03659227 L0,26.235848 C0,27.7187173 0.75918736,29.036696 1.94747573,29.7946427 L2.34358027,30.0252373 C2.83869947,30.288856 3.4328448,30.453632 4.02699013,30.486656 L4.02699013,21.9521307 L4.02699013,8.87042987 C4.02699013,8.73862053 4.09300373,8.6068112 4.2250424,8.54091227 C4.3570696,8.47500187 4.48910827,8.47500187 4.62113547,8.54091227 L9.11024373,11.1111312 L15.018696,14.505104 L19.0456747,12.1984693 L12.97224,8.73862053 L4.1590288,3.63113787 C4.1590288,3.63113787 4.12601627,3.63113787 4.12601627,3.59818267 C4.09300373,3.56523893 4.06000267,3.56523893 3.9939776,3.53228373 L3.96097653,3.53228373 C3.927964,3.53228373 3.927964,3.49932853 3.89496293,3.49932853 C3.8619504,3.49932853 3.82893787,3.4663848 3.82893787,3.4663848 L3.7959368,3.4663848 C3.76292427,3.4663848 3.7299232,3.4334296 3.69691067,3.4334296 C3.66389813,3.4334296 3.66389813,3.4334296 3.63089707,3.4004744 C3.59788453,3.4004744 3.53187093,3.36753067 3.4988584,3.36753067 L3.46585733,3.36753067 C3.4328448,3.36753067 3.3668312,3.33457547 3.33381867,3.33457547 L3.3008176,3.33457547 C3.26780507,3.33457547 3.20179147,3.33457547 3.16877893,3.30162027 L3.1357664,3.30162027 C3.10276533,3.30162027 3.0697528,3.30162027 3.03675173,3.30162027 C3.0037392,3.30162027 3.0037392,3.30162027 2.97072667,3.30162027 C2.9377256,3.30162027 2.90471307,3.30162027 2.871712,3.30162027 C2.80568693,3.26867653 2.77268587,3.26867653 2.73967333,3.26867653 Z" id="Path" fill="url(#linearGradient-3)"></path>
                <path d="M1.9148416,2.839376 C2.21192,2.77347707 2.54199947,2.74052187 2.8390664,2.74052187 C2.87207893,2.74052187 2.87207893,2.74052187 2.90509147,2.74052187 L2.93809253,2.74052187 C2.97110507,2.74052187 3.00410613,2.74052187 3.03711867,2.74052187 C3.0701312,2.74052187 3.10313227,2.74052187 3.10313227,2.74052187 L3.16915733,2.74052187 C3.2021584,2.74052187 3.23517093,2.74052187 3.268172,2.74052187 C3.30118453,2.74052187 3.30118453,2.74052187 3.33419707,2.74052187 L3.36719813,2.74052187 C3.36719813,2.74052187 3.36719813,2.74052187 3.40021067,2.74052187 C3.43321173,2.74052187 3.46622427,2.74052187 3.4992368,2.77347707 C3.53223787,2.77347707 3.53223787,2.77347707 3.5652504,2.77347707 L3.59826293,2.77347707 C3.631264,2.77347707 3.66427653,2.77347707 3.6972776,2.80643227 C3.73029013,2.80643227 3.76330267,2.80643227 3.76330267,2.839376 L3.79630373,2.839376 C3.82931627,2.839376 3.86231733,2.8723312 3.86231733,2.8723312 C3.89532987,2.8723312 3.9283424,2.9052864 3.96134347,2.9052864 L3.994356,2.9052864 C4.02736853,2.9052864 4.0603696,2.93823013 4.09338213,2.93823013 C4.1263832,2.93823013 4.1263832,2.97118533 4.15939573,2.97118533 C4.22540933,3.07003947 4.25842187,3.10299467 4.29142293,3.1359384 C4.32443547,3.1688936 4.357448,3.1688936 4.39044907,3.2018488 L19.5081253,11.901024 L22.5779813,10.1216611 L23.535104,9.5944352 L11.2891512,2.5098584 C9.37467653,1.52131707 7.75728027,0.99409464 6.2719112,0.99409464 C4.68752747,0.99409464 3.30118453,1.6201712 1.9148416,2.839376 Z" id="Path" fill="url(#linearGradient-4)"></path>
                <path d="M39.5762827,11.4070629 L39.5762827,18.2279867 L39.5762827,24.060392 L28.5845653,17.7337733 L24.5906107,20.040408 C24.5906107,20.040408 37.5298267,27.6522107 41.91984,30.024664 C42.4149707,30.2882827 42.9761493,30.4200347 43.570352,30.4530587 L43.570352,9.06750747 L39.5762827,11.4070629 Z" id="Path" fill="url(#linearGradient-5)"></path>
                <path d="M6.56822133,10.2868728 L4.52171947,9.1006232 L4.52171947,30.4861973 C4.52171947,30.4861973 5.08285227,30.4861973 5.9080624,30.1895547 C7.36041893,29.76116 43.405232,8.57339733 43.405232,8.57339733 C43.405232,8.57339733 43.6693093,8.4086328 43.8674533,8.54044213 C43.9994347,8.60634107 44.0654827,8.7381504 44.0654827,8.86995973 C44.0654827,9.3971856 44.0654827,30.4861973 44.0654827,30.4861973 C44.0654827,30.4861973 47.5643067,30.420264 48.0924613,26.499008 L48.0924613,5.77251493 C48.0924613,5.77251493 48.0924613,4.25674773 46.5410213,3.49886987 C45.1216773,2.80687947 43.8344293,3.69657813 43.8344293,3.69657813 L8.51569707,24.0606213 L8.51569707,11.4072235 L6.56822133,10.2868728 Z" id="Path" fill="url(#linearGradient-6)"></path>
                <polygon id="Path" fill="url(#linearGradient-7)" points="33.139928 15.0983893 39.0483573 18.525432 39.0483573 23.1385867 29.1459733 17.4379333"></polygon>
                <path d="M56.669872,5.14681333 C56.669872,4.61958747 56.8348773,4.22417093 57.1319787,3.96055227 C57.4289653,3.69694507 57.8911867,3.56513573 58.4522507,3.56513573 C58.8154,3.56513573 59.1123867,3.59809093 59.409488,3.69694507 C59.7065893,3.7957992 59.9046187,3.86169813 60.0036907,3.89465333 L60.0036907,12.297312 C60.4988213,11.671232 61.1589573,11.1439832 62.0171227,10.7156115 C62.8754027,10.2872397 63.8655493,10.0565763 64.9879067,10.0565763 C66.0771253,10.0565763 67.0673867,10.254296 67.958576,10.6167573 C68.8827893,11.0121739 69.6750213,11.5393653 70.3351573,12.2313787 C70.995408,12.923392 71.523448,13.7471573 71.9196213,14.7027893 C72.31568,15.6583067 72.4806853,16.679872 72.4806853,17.8331893 C72.4806853,18.9534827 72.282656,19.9749333 71.8865973,20.9305653 C71.4905387,21.8861973 70.962384,22.7099627 70.2362,23.401976 C69.54304,24.0938747 68.68476,24.621112 67.7275227,25.0165973 C66.7702853,25.411968 65.7140907,25.6096533 64.558824,25.6096533 C63.4034427,25.6096533 62.347248,25.4448773 61.3900107,25.082416 C60.4327733,24.7199547 59.5744933,24.1927173 58.8813333,23.5008187 C58.1881733,22.8088053 57.6271093,21.9191067 57.230936,20.864632 C56.8348773,19.810272 56.636848,18.558112 56.636848,17.141176 L56.636848,5.14681333 L56.669872,5.14681333 Z M64.5258,22.578096 C65.185936,22.578096 65.813048,22.446344 66.3742267,22.2156347 C66.9354053,21.98504 67.397512,21.655488 67.8265947,21.2270933 C68.2226533,20.7988133 68.5197547,20.3044853 68.750808,19.7443387 C68.9818613,19.184192 69.0809333,18.525088 69.0809333,17.8660987 C69.0809333,17.1740853 68.9818613,16.5480053 68.750808,15.9549493 C68.5197547,15.3617787 68.2226533,14.8674507 67.8265947,14.4391707 C67.430536,14.010776 66.9354053,13.681224 66.3742267,13.4506293 C65.813048,13.21992 65.21896,13.088168 64.5258,13.088168 C63.83264,13.088168 63.2054133,13.21992 62.6772587,13.4506293 C62.1161947,13.681224 61.654088,14.0436853 61.2579147,14.47208 C60.861856,14.9004747 60.5647547,15.394688 60.3337013,15.9878587 C60.102648,16.5810293 60.0036907,17.2071093 60.0036907,17.8660987 C60.0036907,18.558112 60.102648,19.2171013 60.3337013,19.810272 C60.5647547,20.403328 60.861856,20.897656 61.2579147,21.2930267 C61.654088,21.688512 62.1492187,22.0179493 62.7102827,22.2486587 C63.2714613,22.446344 63.8655493,22.578096 64.5258,22.578096 Z" id="Shape" fill="#1C1C1C"></path>
                <path d="M87.895784,24.0933013 C87.7307787,24.192144 87.4996107,24.3240107 87.1696,24.4887867 C86.8394747,24.6535627 86.410392,24.818224 85.9152613,24.983 C85.4201307,25.147776 84.8260427,25.2796427 84.198816,25.3784853 C83.53868,25.5102373 82.812496,25.5432613 82.053288,25.5432613 C80.9640693,25.5432613 79.940784,25.3784853 78.9835467,25.0489333 C78.0263093,24.7193813 77.201168,24.225168 76.508008,23.5661787 C75.781824,22.9070747 75.2206453,22.1162187 74.8245867,21.1607013 C74.4284133,20.2050693 74.19736,19.1176853 74.19736,17.8984347 C74.19736,16.712208 74.3953893,15.6577333 74.7915627,14.702216 C75.1876213,13.746584 75.7488,12.9228187 76.474984,12.2308053 C77.201168,11.538792 78.0263093,11.0116005 78.9835467,10.616184 C79.940784,10.2207675 80.9970933,10.0560144 82.15236,10.0560144 C83.1756453,10.0560144 84.0668347,10.1878123 84.8590667,10.4514309 C85.651184,10.7150381 86.31132,11.0775109 86.8394747,11.5058827 C87.3676293,11.9342773 87.796712,12.4615147 88.0607893,13.0545707 C88.3248667,13.6477413 88.456848,14.2738213 88.456848,14.9328107 C88.456848,15.624824 88.3248667,16.250904 88.0607893,16.7781413 C87.796712,17.338288 87.3676293,17.799592 86.7074933,18.2279867 C86.0473573,18.6233573 85.1890773,18.9529093 84.0998587,19.1505947 C83.0105253,19.381304 81.6242053,19.4801467 79.940784,19.4801467 C79.5447253,19.4801467 79.181576,19.4801467 78.8515653,19.4801467 C78.52144,19.4801467 78.1584053,19.4472373 77.762232,19.4472373 C77.927352,20.4357787 78.3894587,21.259544 79.2146,21.8526 C80.039856,22.47868 81.1951227,22.7753227 82.6805147,22.7753227 C83.1756453,22.7753227 83.670776,22.7422987 84.0998587,22.643456 C84.5289413,22.5775227 84.925,22.47868 85.2551253,22.346928 C85.5852507,22.2150613 85.8822373,22.1162187 86.1463147,21.9844667 C86.377368,21.8526 86.5753973,21.7867813 86.6744693,21.720848 L87.895784,24.0933013 Z M77.5972267,17.1406027 C78.0593333,17.173512 78.488416,17.173512 78.8845893,17.173512 L80.105904,17.173512 C81.1951227,17.173512 82.053288,17.1075787 82.7135387,16.9758267 C83.3736747,16.84396 83.9018293,16.6792987 84.264864,16.4485893 C84.6280133,16.2179947 84.891976,15.9872853 84.991048,15.7236667 C85.1230293,15.460048 85.1560533,15.16352 85.1560533,14.8668773 C85.1560533,14.1419547 84.8590667,13.581808 84.264864,13.1864373 C83.670776,12.823976 82.944592,12.626176 82.053288,12.626176 C81.327104,12.626176 80.699992,12.7580427 80.1388133,13.0216613 C79.5777493,13.28528 79.1156427,13.6147173 78.7524933,14.043112 C78.3894587,14.4715067 78.0923573,14.9328107 77.894328,15.4929573 C77.729208,16.0201947 77.5972267,16.580456 77.5972267,17.1406027 Z" id="Shape" fill="#1C1C1C"></path>
                <path d="M90.534608,7.88170507 C90.534608,7.321524 90.6996133,6.92610747 90.9967147,6.695444 C91.2937013,6.464792 91.7228987,6.33298267 92.2839627,6.33298267 C92.647112,6.33298267 92.9771227,6.36593787 93.274224,6.464792 C93.5713253,6.56364613 93.7693547,6.62954507 93.8684267,6.66250027 L93.8684267,10.4848677 L98.1264587,10.4848677 C98.7865947,10.4848677 99.2156773,10.6166771 99.4797547,10.8802843 C99.743832,11.1439029 99.8758133,11.5393653 99.8758133,12.0335787 C99.8758133,12.3631307 99.842904,12.6596587 99.743832,12.9561867 C99.64476,13.2528293 99.5788267,13.4505147 99.5127787,13.5493573 L93.8684267,13.5493573 L93.8684267,20.073776 C93.8684267,20.5679893 93.93436,20.996384 94.066456,21.325936 C94.1984373,21.6553733 94.3964667,21.918992 94.6276347,22.116792 C94.858688,22.3144773 95.1556747,22.4462293 95.4858,22.5121627 C95.8159253,22.578096 96.145936,22.6439147 96.5090853,22.6439147 C97.0701493,22.6439147 97.598304,22.545072 98.0934347,22.3804107 C98.5885653,22.2156347 98.9186907,22.0508587 99.149744,21.8860827 L100.50304,24.126784 C100.338035,24.258536 100.139891,24.3904027 99.842904,24.5551787 C99.5458027,24.7199547 99.2156773,24.884616 98.7865947,25.049392 C98.390536,25.214168 97.9284293,25.3460347 97.4002747,25.4448773 C96.905144,25.54372 96.3439653,25.6096533 95.7168533,25.6096533 C94.000408,25.6096533 92.71316,25.1812587 91.821856,24.29156 C90.9306667,23.4018613 90.501584,22.248544 90.501584,20.7986987 L90.501584,7.88170507 L90.534608,7.88170507 Z" id="Path" fill="#1C1C1C"></path>
                <path d="M101.658536,7.88170507 C101.658536,7.321524 101.823656,6.92610747 102.120643,6.695444 C102.417744,6.464792 102.846827,6.33298267 103.408005,6.33298267 C103.771155,6.33298267 104.101165,6.36593787 104.398267,6.464792 C104.695368,6.56364613 104.893397,6.62954507 104.992355,6.66250027 L104.992355,10.4848677 L109.250387,10.4848677 C109.910637,10.4848677 110.33972,10.6166771 110.603797,10.8802843 C110.867875,11.1439029 110.999856,11.5393653 110.999856,12.0335787 C110.999856,12.3631307 110.966832,12.6596587 110.867875,12.9561867 C110.768803,13.2528293 110.702755,13.4505147 110.636821,13.5493573 L104.992355,13.5493573 L104.992355,20.073776 C104.992355,20.5679893 105.058403,20.996384 105.190499,21.325936 C105.32248,21.6553733 105.520509,21.918992 105.751563,22.116792 C105.982616,22.3144773 106.279717,22.4462293 106.609843,22.5121627 C106.939853,22.578096 107.269979,22.6439147 107.633013,22.6439147 C108.194192,22.6439147 108.722347,22.545072 109.217477,22.3804107 C109.712608,22.2156347 110.042619,22.0508587 110.273672,21.8860827 L111.627083,24.126784 C111.461963,24.258536 111.263933,24.3904027 110.966832,24.5551787 C110.669845,24.7199547 110.33972,24.884616 109.910637,25.049392 C109.514464,25.214168 109.052357,25.3460347 108.524317,25.4448773 C108.029187,25.54372 107.468008,25.6096533 106.840896,25.6096533 C105.124451,25.6096533 103.837088,25.1812587 102.945899,24.29156 C102.054709,23.4018613 101.625627,22.248544 101.625627,20.7986987 L101.625627,7.88170507 L101.658536,7.88170507 Z" id="Path" fill="#1C1C1C"></path>
                <path d="M125.592107,24.0933013 C125.426987,24.192144 125.19536,24.3240107 124.86512,24.4887867 C124.536027,24.6535627 124.106027,24.818224 123.611813,24.983 C123.116453,25.147776 122.52248,25.2796427 121.895253,25.3784853 C121.234773,25.5102373 120.508933,25.5432613 119.74984,25.5432613 C118.660507,25.5432613 117.636533,25.3784853 116.680213,25.0489333 C115.722747,24.7193813 114.897147,24.225168 114.171077,23.5661787 C113.444893,22.9070747 112.883715,22.1162187 112.487656,21.1607013 C112.091483,20.2050693 111.860429,19.1176853 111.860429,17.8984347 C111.860429,16.712208 112.058459,15.6577333 112.454632,14.702216 C112.850691,13.746584 113.411869,12.9228187 114.138053,12.2308053 C114.863893,11.538792 115.689493,11.0116005 116.64696,10.616184 C117.604427,10.2207675 118.660507,10.0560144 119.8152,10.0560144 C120.839173,10.0560144 121.730133,10.1878123 122.52248,10.4514309 C123.314827,10.7150381 123.97416,11.0775109 124.502773,11.5058827 C125.03024,11.9342773 125.46024,12.4615147 125.723973,13.0545707 C125.987707,13.6477413 126.119573,14.2738213 126.119573,14.9328107 C126.119573,15.624824 125.987707,16.250904 125.723973,16.7781413 C125.46024,17.338288 125.03024,17.799592 124.370907,18.2279867 C123.710427,18.6233573 122.85272,18.9529093 121.763387,19.1505947 C120.674053,19.381304 119.287733,19.4801467 117.604427,19.4801467 C117.20768,19.4801467 116.844187,19.4801467 116.515093,19.4801467 C116.184853,19.4801467 115.82136,19.4472373 115.42576,19.4472373 C115.59088,20.4357787 116.052987,21.259544 116.87744,21.8526 C117.70304,22.47868 118.857733,22.7753227 120.343813,22.7753227 C120.839173,22.7753227 121.333387,22.7422987 121.763387,22.643456 C122.19224,22.5775227 122.58784,22.47868 122.91808,22.346928 C123.24832,22.2150613 123.545307,22.1162187 123.80904,21.9844667 C124.040667,21.8526 124.23904,21.7867813 124.337653,21.720848 L125.592107,24.0933013 Z M115.326,17.1406027 C115.788107,17.173512 116.218107,17.173512 116.613707,17.173512 L117.834907,17.173512 C118.92424,17.173512 119.781947,17.1075787 120.442427,16.9758267 C121.102907,16.84396 121.630373,16.6792987 121.993867,16.4485893 C122.35736,16.2179947 122.621093,15.9872853 122.719707,15.7236667 C122.85272,15.460048 122.884827,15.16352 122.884827,14.8668773 C122.884827,14.1419547 122.58784,13.581808 121.993867,13.1864373 C121.399893,12.823976 120.674053,12.626176 119.781947,12.626176 C119.056107,12.626176 118.42888,12.7580427 117.86816,13.0216613 C117.306293,13.28528 116.87744,13.6147173 116.48184,14.043112 C116.118347,14.4715067 115.82136,14.9328107 115.622987,15.4929573 C115.457867,16.0201947 115.326,16.580456 115.326,17.1406027 Z" id="Shape" fill="#1C1C1C"></path>
                <path d="M128.19848,15.7236667 C128.19848,13.9442693 128.7592,12.5273333 129.848533,11.538792 C130.937867,10.5502851 132.489307,10.0560144 134.436347,10.0560144 C135.657547,10.0560144 136.68152,10.2207675 137.440613,10.5832288 C138.199707,10.9127464 138.595307,11.4399723 138.595307,12.164872 C138.595307,12.494424 138.496693,12.823976 138.331573,13.120504 C138.1332,13.417032 138.001333,13.6147173 137.869467,13.7136747 C137.539227,13.5488987 137.110373,13.417032 136.648267,13.28528 C136.152907,13.1534133 135.592187,13.0875947 134.96496,13.0875947 C132.68768,13.0875947 131.53184,14.3067307 131.53184,16.712208 L131.53184,25.2137093 L128.19848,25.2137093 L128.19848,15.7236667 Z" id="Path" fill="#1C1C1C"></path>
                <path d="M140.048133,9.5615488 C140.048133,8.50709707 140.18,7.58446613 140.476987,6.8265768 C140.773973,6.06868747 141.169573,5.44261893 141.73144,4.981292 C142.258907,4.48702133 142.919387,4.15750373 143.645227,3.92684027 C144.372213,3.69618827 145.196667,3.59733413 146.05552,3.59733413 C147.67232,3.59733413 148.794907,3.7950424 149.455387,4.15750373 C150.115867,4.55292027 150.44496,5.0142472 150.44496,5.607372 C150.44496,5.9368896 150.346347,6.233452 150.181227,6.4970592 C149.982853,6.76067787 149.785627,6.95838613 149.587253,7.090184 C149.290267,6.8265768 148.861413,6.62886853 148.299547,6.46411547 C147.77208,6.29935093 147.178107,6.233452 146.582987,6.233452 C145.428293,6.233452 144.602693,6.5300144 144.107333,7.1231392 C143.61312,7.716264 143.381493,8.54005227 143.381493,9.6274592 L143.381493,10.5171464 L147.77208,10.5171464 C148.431413,10.5171464 148.861413,10.6489557 149.125147,10.9125629 C149.38888,11.1761701 149.520747,11.5715867 149.520747,12.0659147 C149.520747,12.395352 149.48864,12.6919947 149.38888,12.9885227 C149.290267,13.2850507 149.22376,13.482736 149.1584,13.5815787 L143.381493,13.5815787 L143.381493,25.21348 L140.048133,25.21348 L140.048133,9.5615488 Z" id="Path" fill="#1C1C1C"></path>
                <path d="M151.303813,5.14681333 C151.303813,4.61958747 151.468933,4.22417093 151.76592,3.96055227 C152.062907,3.69694507 152.525013,3.56513573 153.08688,3.56513573 C153.449227,3.56513573 153.746213,3.59809093 154.0432,3.69694507 C154.340187,3.7957992 154.53856,3.86169813 154.63832,3.89465333 L154.63832,25.1483493 L151.303813,25.1483493 L151.303813,5.14681333 Z" id="Path" fill="#1C1C1C"></path>
                <path d="M157.707947,12.03312 C157.707947,11.5059973 157.873067,11.1105235 158.170053,10.8469163 C158.46704,10.5832976 158.895893,10.4514883 159.456613,10.4514883 C159.820107,10.4514883 160.150347,10.4844435 160.447333,10.5832976 C160.74432,10.6821517 160.942693,10.7480621 161.041307,10.7810059 L161.041307,18.5905627 C161.041307,19.7437653 161.338293,20.666488 161.96552,21.3583867 C162.592747,22.0504 163.550213,22.379952 164.836773,22.379952 C166.025867,22.379952 166.982187,22.0504 167.642667,21.3254773 C168.3364,20.633464 168.66664,19.6120133 168.66664,18.2610107 L168.66664,12.0002107 C168.66664,11.4729733 168.83176,11.0775683 169.128747,10.8139611 C169.425733,10.5503424 169.854587,10.4185445 170.415307,10.4185445 C170.7788,10.4185445 171.10904,10.4514883 171.406027,10.5503424 C171.703013,10.6491965 171.901387,10.7151069 172,10.7480621 L172,23.5661787 C172,24.9502053 171.801627,26.136432 171.43928,27.0919493 C171.075787,28.0475813 170.547173,28.8384373 169.854587,29.4645173 C169.160853,30.0905973 168.3364,30.5519013 167.378933,30.81552 C166.421467,31.112048 165.365387,31.2439147 164.17744,31.2439147 C163.385093,31.2439147 162.659253,31.2108907 161.96552,31.112048 C161.30504,31.0132053 160.711067,30.9143627 160.1836,30.81552 C159.654987,30.6836533 159.226133,30.5848107 158.895893,30.485968 C158.565653,30.3871253 158.335173,30.2882827 158.20216,30.2223493 C158.36728,29.8269787 158.499147,29.398584 158.63216,28.9701893 C158.764027,28.5419093 158.895893,28.146424 159.02776,27.7180293 C159.159627,27.7839627 159.391253,27.849896 159.68824,27.9487387 C159.985227,28.0475813 160.347573,28.146424 160.74432,28.2123573 C161.13992,28.3112 161.602027,28.3771333 162.13064,28.442952 C162.659253,28.5088853 163.18672,28.5419093 163.780693,28.5419093 C164.539787,28.5419093 165.23352,28.442952 165.827493,28.2782907 C166.421467,28.1135147 166.95008,27.816872 167.378933,27.4215013 C167.807787,27.0261307 168.104773,26.4658693 168.3364,25.80688 C168.56688,25.1478907 168.66664,24.2911013 168.66664,23.2696507 C168.269893,23.8297973 167.67592,24.2911013 166.818213,24.6206533 C165.95936,24.9502053 165.0684,25.1478907 164.07768,25.1478907 C163.153467,25.1478907 162.262507,25.016024 161.47016,24.7524053 C160.677813,24.4887867 159.985227,24.093416 159.42336,23.599088 C158.86264,23.1048747 158.400533,22.4787947 158.103547,21.753872 C157.773307,21.0289493 157.608187,20.17216 157.608187,19.2166427 L157.608187,12.03312 L157.707947,12.03312 Z" id="Path" fill="#1C1C1C"></path>
            </g>
        </g>
    </g>
</svg>