<?xml version="1.0" encoding="UTF-8"?>
<svg width="64px" height="64px" viewBox="0 0 64 64" version="1.1" xmlns="http://www.w3.org/2000/svg" xmlns:xlink="http://www.w3.org/1999/xlink">
    <title>betty-01</title>
    <defs>
        <circle id="path-1" cx="32" cy="32" r="32"></circle>
        <path d="M25.44904,9.38928 C25.8732,12.92336 23.04592,22.67744 12.44368,22.67744 C5.8856,22.67744 0.00376,18.0124 0.00376,9.38928 C0.00376,3.29968 5.8856,0.6248 12.44368,0.6248 C19.00176,0.6248 25.44904,3.29968 25.44904,9.38928 Z" id="path-3"></path>
    </defs>
    <g id="Page-1" stroke="none" stroke-width="1" fill="none" fill-rule="evenodd">
        <g id="betty-01">
            <circle id="Oval" fill="#FFE7C7" fill-rule="nonzero" cx="32" cy="32" r="32"></circle>
            <g id="Group-Clipped">
                <mask id="mask-2" fill="white">
                    <use xlink:href="#path-1"></use>
                </mask>
                <g id="path-1"></g>
                <g id="Group" mask="url(#mask-2)">
                    <g transform="translate(4.923077, 6.000000)">
                        <g transform="translate(0.676923, 0.400000)">
                            <path d="M39.84904,22.98928 C40.2732,26.52336 37.44592,36.27744 26.84368,36.27744 C20.2856,36.27744 14.40376,31.6124 14.40376,22.98928 C14.40376,16.89968 20.2856,14.2248 26.84368,14.2248 C33.40176,14.2248 39.84904,16.89968 39.84904,22.98928 Z" id="Path" fill="#E3E3E3" fill-rule="nonzero"></path>
                            <g id="Shape-Clipped" transform="translate(14.400000, 13.600000)">
                                <mask id="mask-4" fill="white">
                                    <use xlink:href="#path-3"></use>
                                </mask>
                                <g id="path-3"></g>
                                <path d="M25.44904,9.38928 L24.8836,9.38928 L24.8836,9.42312 L24.88768,9.45664 L25.44904,9.38928 Z M24.88768,9.45664 C25.08184,11.07488 24.52376,14.26072 22.6152,17.0384 C20.73088,19.78072 17.5404,22.112 12.44368,22.112 L12.44368,23.24288 C17.9492,23.24288 21.47344,20.69704 23.54728,17.67888 C25.59688,14.696 26.2404,11.23784 26.01048,9.32192 L24.88768,9.45664 Z M12.44368,22.112 C9.29824,22.112 6.33488,20.99408 4.16016,18.86312 C1.99016,16.7368 0.5692,13.56608 0.5692,9.38928 L-0.56168,9.38928 C-0.56168,13.83568 0.95824,17.30896 3.36872,19.67088 C5.77448,22.02824 9.03104,23.24288 12.44368,23.24288 L12.44368,22.112 Z M0.5692,9.38928 C0.5692,6.5624 1.9188,4.5424 4.06392,3.20304 C6.2348,1.84768 9.22928,1.19024 12.44368,1.19024 L12.44368,0.05936 C9.1,0.05936 5.87456,0.73936 3.46496,2.24376 C1.02968,3.76432 -0.56168,6.12656 -0.56168,9.38928 L0.5692,9.38928 Z M12.44368,1.19024 C15.65816,1.19024 18.80096,1.84768 21.11904,3.21088 C23.41584,4.56152 24.8836,6.58528 24.8836,9.38928 L26.01456,9.38928 C26.01456,6.1036 24.25864,3.7452 21.69232,2.236 C19.1472,0.73936 15.78728,0.05936 12.44368,0.05936 L12.44368,1.19024 Z" id="Shape" fill="#002154" fill-rule="nonzero" mask="url(#mask-4)"></path>
                            </g>
                            <path d="M53.10184,54.74472 C51.426,48.19944 43.616,45.38528 43.616,45.38528 C43.616,45.38528 17.05552,43.17192 9.71984,45.63824 C3.42752,47.7568 1.08768,53.25856 0.55016,54.74472 C0.55016,54.74472 6.04968,59.07464 26.39992,59.51704 C46.75016,59.95944 53.10184,54.74472 53.10184,54.74472 Z" id="Path" fill="#FFA733" fill-rule="nonzero"></path>
                            <path d="M21.92496,2.60416 C21.92496,2.60416 21.13448,0.106184 22.9052,0.106184 C24.67584,0.074568 23.15816,2.3512 23.15816,2.3512 C23.15816,2.3512 29.51368,-1.696128 35.67944,3.14168 C35.67944,3.14168 40.4224004,5.38664 41.62392,15.53648 C42.82552,25.6864 37.16312,21.38616 37.16312,21.38616 L14.12104,22.42384 L11.86992,21.38616 C11.86992,21.41776 11.52216,3.61592 21.92496,2.60416 Z" id="Path" fill="#E3E3E3" fill-rule="nonzero"></path>
                            <path d="M14.84216,17.9712 C14.84216,17.9712 12.02808,16.89608 11.61704,20.12128 C11.61704,20.12128 11.9016,23.7892 15.06352,23.1568 C15.06352,23.1568 16.73936,29.79688 22.2728,31.69408 C22.2728,31.69408 22.8736,38.1128 20.91312,40.45264 C18.98432,42.76088 17.49824,43.55136 14.20984,44.08888 C10.95296,44.62648 9.75144,45.63832 9.75144,45.63832 C9.75144,45.63832 13.79872,52.2784 26.41496,51.86736 C39.03112,51.45624 43.55272,46.96632 44.53296,45.73312 C44.53296,45.73312 39.56864,43.99408 37.7664,43.77272 C35.96408,43.58304 32.48592,41.2432 32.0432,38.42904 C31.60056,35.61488 31.69544,31.91536 31.69544,31.91536 C31.69544,31.91536 37.7664,28.87992 39.126,23.1884 C39.126,23.1884 42.4144,23.63104 42.3828,19.9 C42.3828,19.9 41.62392,17.08584 39.44224,17.9712 C39.44224,17.9712 36.62808,17.11744 34.06688,10.79352 C31.22112,3.83728 26.47816,3.1416 23.47432,6.17712 C23.47432,6.17712 20.47048,4.62776 19.58512,8.2956 C17.7512,15.82104 14.84216,17.9712 14.84216,17.9712 Z" id="Path" fill="#FFFFFF" fill-rule="nonzero"></path>
                            <path d="M39.18912,23.09352 C38.08248,27.1092 35.26832,30.3344 31.66368,31.85216" id="Path" stroke="#002154" stroke-width="0.83358" stroke-linecap="round" stroke-linejoin="round"></path>
                            <path d="M22.2412,31.69408 C18.79464,30.14472 16.10696,26.95112 15.03192,23.06192" id="Path" stroke="#002154" stroke-width="0.83358" stroke-linecap="round" stroke-linejoin="round"></path>
                            <path d="M0.67648,54.68136 C0.67648,54.68136 2.5104,46.0176 15.88544,43.77264 C15.88544,43.77264 21.82992,42.82408 22.20936,36.12072 C22.27264,34.85592 22.27264,33.43304 22.24096,31.7256" id="Path" stroke="#002154" stroke-width="0.83358" stroke-linecap="round" stroke-linejoin="round"></path>
                            <path d="M53.1968,54.68144 C53.1968,54.68144 51.3628,46.01768 37.98776,43.77272 C37.98776,43.77272 32.04328,42.82416 31.66384,36.1208 C31.60064,34.8876 31.60064,33.528 31.63224,31.85216" id="Path" stroke="#002154" stroke-width="0.83358" stroke-linecap="round" stroke-linejoin="round"></path>
                            <path d="M15.06352,23.06208 C14.96864,23.09368 14.87384,23.12528 14.81056,23.15688 C13.57744,23.50472 12.21776,22.58776 11.80672,21.1016 C11.39568,19.61552 12.09128,18.16104 13.32448,17.8132 C13.76712,17.68672 14.20976,17.71832 14.62088,17.8764" id="Path" stroke="#002154" stroke-width="0.83358" stroke-linecap="round" stroke-linejoin="round"></path>
                            <path d="M39.2524,23.1568 C40.48552,23.50464 41.8452,22.58768 42.25624,21.1016 C42.66728,19.61544 41.97168,18.16096 40.73848,17.81312 C40.39072,17.71824 40.01128,17.71824 39.66344,17.81312" id="Path" stroke="#002154" stroke-width="0.83358" stroke-linecap="round" stroke-linejoin="round"></path>
                            <path d="M22.52568,17.81312 C23.0496,17.81312 23.47424,17.28928 23.47424,16.6432 C23.47424,15.99704 23.0496,15.47328 22.52568,15.47328 C22.00176,15.47328 21.57712,15.99704 21.57712,16.6432 C21.57712,17.28928 22.00176,17.81312 22.52568,17.81312 Z" id="Path" fill="#002154" fill-rule="nonzero"></path>
                            <path d="M31.31592,17.81312 C31.83984,17.81312 32.26448,17.28928 32.26448,16.6432 C32.26448,15.99704 31.83984,15.47328 31.31592,15.47328 C30.79208,15.47328 30.36736,15.99704 30.36736,16.6432 C30.36736,17.28928 30.79208,17.81312 31.31592,17.81312 Z" id="Path" fill="#002154" fill-rule="nonzero"></path>
                            <path d="M22.49248,22.90104 C22.3864,22.75056 22.17832,22.71456 22.02784,22.82064 C21.87736,22.9268 21.84136,23.1348 21.94744,23.28528 L22.49248,22.90104 Z M31.68136,23.33304 C31.7912,23.18528 31.76056,22.9764 31.6128,22.86656 C31.46496,22.75664 31.25616,22.78736 31.14624,22.93512 L31.68136,23.33304 Z M21.94744,23.28528 C22.95576,24.71536 24.98304,25.63856 26.8424,25.63856 L26.8424,24.97168 C25.16248,24.97168 23.35576,24.12536 22.49248,22.90104 L21.94744,23.28528 Z M26.8424,25.63856 C29.4788,25.63856 30.89704,24.3876 31.68136,23.33304 L31.14624,22.93512 C30.45592,23.8632 29.21984,24.97168 26.8424,24.97168 L26.8424,25.63856 Z" id="Shape" fill="#002154" fill-rule="nonzero"></path>
                            <path d="M32.54888,10.35096 C32.64376,10.50904 32.54888,10.60392 32.3592,10.54064 C31.94816,10.38256 31.82168,10.35096 31.41064,10.25608 C30.84144,10.098 30.3672,10.1296 30.462,9.65528 C30.62016,8.99128 31.88488,9.37072 32.54888,10.35096 Z" id="Path" fill="#002154" fill-rule="nonzero"></path>
                            <path d="M21.41904,10.35096 C21.32424,10.50904 21.41904,10.60392 21.6088,10.54064 C22.01984,10.38256 22.14632,10.35096 22.55736,10.25608 C23.12648,10.098 23.6008,10.1296 23.50592,9.65528 C23.37944,8.99128 22.11472,9.37072 21.41904,10.35096 Z" id="Path" fill="#002154" fill-rule="nonzero"></path>
                            <path d="M14.62072,17.87632 C14.62072,17.87632 17.34,16.8012 19.42688,8.51688 C19.42688,8.51688 20.37552,4.65936 23.47416,6.17704 C23.47416,6.17704 28.09064,1.497384 32.07472,7.34696 C36.0588,13.19664 36.40656,16.61152 39.66344,17.81304" id="Path" stroke="#002154" stroke-width="0.83358" stroke-linecap="round" stroke-linejoin="round"></path>
                            <path d="M42.0984,19.01464 C41.84544,16.26368 41.466,13.4812 40.8652,11.26784 C39.37912,5.48144 36.84952,3.39456 33.37136,1.75032 C27.01584,-1.285128 22.93696,2.5408 22.93696,2.5408 C22.93696,2.5408 23.88552,1.276056 23.66416,0.517192 C23.47448,-0.146824 22.17808,0.011272 21.92512,0.643664 C21.67216,1.30768 21.98832,2.63568 21.98832,2.63568 C21.98832,2.63568 17.24544,2.38272 14.11504,8.9912 C13.04,11.29944 12.3444,14.46144 12.02816,18.73008" id="Path" stroke="#002154" stroke-width="0.83358" stroke-linecap="round" stroke-linejoin="round"></path>
                            <path d="M9.6568,45.60664 C9.6568,45.60664 12.9452,51.89896 26.38352,51.83568 C39.82184,51.77248 44.53312,45.70152 44.53312,45.70152" id="Path" stroke="#002154" stroke-width="0.83358" stroke-linecap="round" stroke-linejoin="round"></path>
                        </g>
                    </g>
                </g>
            </g>
        </g>
    </g>
</svg>