<svg width="172" height="32" viewBox="0 0 172 32" fill="none" xmlns="http://www.w3.org/2000/svg">
<path d="M55.9702 4.51162C55.9702 3.95632 56.1359 3.53983 56.4342 3.26218C56.7325 2.98453 57.1966 2.8457 57.76 2.8457C58.1246 2.8457 58.423 2.88041 58.7213 2.98453C59.0196 3.08865 59.2185 3.15806 59.3179 3.19277V12.043C59.8151 11.3835 60.478 10.8282 61.3398 10.377C62.2016 9.92585 63.196 9.68291 64.3229 9.68291C65.4167 9.68291 66.4111 9.89115 67.3061 10.2729C68.2341 10.6894 69.0296 11.2447 69.6926 11.9735C70.3555 12.7024 70.8858 13.5701 71.2836 14.5765C71.6813 15.583 71.847 16.6589 71.847 17.8737C71.847 19.0537 71.6482 20.1296 71.2504 21.1361C70.8527 22.1426 70.3223 23.0103 69.5931 23.7391C68.8971 24.4679 68.0353 25.0232 67.074 25.4397C66.1128 25.8562 65.0521 26.0644 63.892 26.0644C62.7319 26.0644 61.6712 25.8909 60.71 25.5091C59.7488 25.1274 58.887 24.5721 58.1909 23.8432C57.4949 23.1144 56.9314 22.1773 56.5336 21.0667C56.1359 19.9561 55.937 18.6372 55.937 17.1448V4.51162H55.9702ZM63.8589 22.8714C64.5218 22.8714 65.1516 22.7326 65.715 22.4897C66.2785 22.2467 66.7426 21.8996 67.1735 21.4485C67.5712 20.9973 67.8695 20.4767 68.1016 19.8867C68.3336 19.2966 68.433 18.6025 68.433 17.9084C68.433 17.1795 68.3336 16.5201 68.1016 15.8954C67.8695 15.2707 67.5712 14.7501 67.1735 14.2989C66.7757 13.8477 66.2785 13.5006 65.715 13.2577C65.1516 13.0147 64.5549 12.8759 63.8589 12.8759C63.1628 12.8759 62.533 13.0147 62.0027 13.2577C61.4392 13.5006 60.9752 13.8824 60.5774 14.3336C60.1797 14.7848 59.8814 15.3054 59.6493 15.9301C59.4173 16.5548 59.3179 17.2142 59.3179 17.9084C59.3179 18.6372 59.4173 19.3314 59.6493 19.9561C59.8814 20.5808 60.1797 21.1014 60.5774 21.5179C60.9752 21.9343 61.4724 22.2814 62.0359 22.5244C62.5662 22.7326 63.196 22.8714 63.8589 22.8714Z" fill="white"/>
<path d="M87.2936 24.4676C87.1278 24.5718 86.8958 24.7106 86.5644 24.8841C86.2329 25.0576 85.802 25.2312 85.3048 25.4047C84.8076 25.5782 84.211 25.7171 83.5812 25.8212C82.9183 25.96 82.1891 25.9947 81.4267 25.9947C80.3329 25.9947 79.3054 25.8212 78.3442 25.4741C77.3829 25.1271 76.5543 24.6065 75.8582 23.9123C75.129 23.2182 74.5656 22.3852 74.1678 21.3787C73.77 20.3723 73.538 19.2269 73.538 17.9428C73.538 16.6934 73.7369 15.5827 74.1347 14.5763C74.5324 13.5698 75.0959 12.7021 75.8251 11.9733C76.5543 11.2444 77.3829 10.6891 78.3442 10.2726C79.3054 9.85615 80.3661 9.68262 81.5262 9.68262C82.5537 9.68262 83.4486 9.82144 84.2441 10.0991C85.0396 10.3767 85.7026 10.7585 86.2329 11.2097C86.7632 11.6609 87.1941 12.2162 87.4593 12.8409C87.7245 13.4656 87.8571 14.1251 87.8571 14.8192C87.8571 15.548 87.7245 16.2075 87.4593 16.7628C87.1941 17.3528 86.7632 17.8387 86.1003 18.2899C85.4374 18.7063 84.5756 19.0534 83.4818 19.2616C82.388 19.5046 80.9959 19.6087 79.3054 19.6087C78.9077 19.6087 78.5431 19.6087 78.2116 19.6087C77.8801 19.6087 77.5155 19.574 77.1178 19.574C77.2835 20.6152 77.7476 21.4829 78.5762 22.1076C79.4049 22.767 80.565 23.0794 82.0565 23.0794C82.5537 23.0794 83.0509 23.0447 83.4818 22.9405C83.9127 22.8711 84.3104 22.767 84.6419 22.6282C84.9734 22.4894 85.2717 22.3852 85.5368 22.2464C85.7689 22.1076 85.9677 22.0382 86.0672 21.9688L87.2936 24.4676ZM76.9521 17.1792C77.4161 17.214 77.847 17.214 78.2447 17.214H79.4711C80.565 17.214 81.4267 17.1445 82.0897 17.0057C82.7526 16.8669 83.2829 16.6934 83.6475 16.4504C84.0121 16.2075 84.2773 15.9645 84.3767 15.6869C84.5093 15.4092 84.5425 15.0968 84.5425 14.7845C84.5425 14.0209 84.2441 13.4309 83.6475 13.0145C83.0509 12.6327 82.3217 12.4244 81.4267 12.4244C80.6975 12.4244 80.0678 12.5633 79.5043 12.8409C78.9408 13.1186 78.4768 13.4656 78.1122 13.9168C77.7476 14.368 77.4492 14.8539 77.2504 15.4439C77.0846 15.9992 76.9852 16.5545 76.9521 17.1792Z" fill="white"/>
<path d="M89.9453 7.39293C89.9453 6.80292 90.111 6.38644 90.4094 6.14349C90.7077 5.90055 91.1386 5.76172 91.7021 5.76172C92.0667 5.76172 92.3981 5.79643 92.6964 5.90055C92.9947 6.00467 93.1936 6.07408 93.2931 6.10879V10.1348H97.5689C98.2318 10.1348 98.6627 10.2736 98.9278 10.5512C99.193 10.8289 99.3256 11.2454 99.3256 11.766C99.3256 12.113 99.2924 12.4254 99.193 12.7378C99.0936 13.0501 99.0273 13.2584 98.961 13.3625H93.2931V20.2344C93.2931 20.755 93.3593 21.2062 93.4919 21.5532C93.6245 21.9003 93.8234 22.178 94.0554 22.3862C94.2874 22.5944 94.5857 22.7333 94.9172 22.8027C95.2487 22.8721 95.5801 22.9415 95.9447 22.9415C96.5082 22.9415 97.0385 22.8374 97.5357 22.6638C98.0329 22.4903 98.3644 22.3168 98.5964 22.1432L99.9554 24.5033C99.7896 24.6421 99.5908 24.781 99.2925 24.9545C98.9941 25.128 98.6627 25.3016 98.2318 25.4751C97.834 25.6486 97.37 25.7874 96.8397 25.8916C96.3425 25.9957 95.779 26.0651 95.1492 26.0651C93.4256 26.0651 92.1329 25.6139 91.238 24.6768C90.3431 23.7398 89.9122 22.525 89.9122 20.9979V7.39293H89.9453Z" fill="white"/>
<path d="M101.117 7.39293C101.117 6.80292 101.283 6.38644 101.581 6.14349C101.879 5.90055 102.31 5.76172 102.874 5.76172C103.238 5.76172 103.57 5.79643 103.868 5.90055C104.166 6.00467 104.365 6.07408 104.465 6.10879V10.1348H108.74C109.403 10.1348 109.834 10.2736 110.099 10.5512C110.365 10.8289 110.497 11.2454 110.497 11.766C110.497 12.113 110.464 12.4254 110.365 12.7378C110.265 13.0501 110.199 13.2584 110.133 13.3625H104.465V20.2344C104.465 20.755 104.531 21.2062 104.663 21.5532C104.796 21.9003 104.995 22.178 105.227 22.3862C105.459 22.5944 105.757 22.7333 106.089 22.8027C106.42 22.8721 106.752 22.9415 107.116 22.9415C107.68 22.9415 108.21 22.8374 108.707 22.6638C109.204 22.4903 109.536 22.3168 109.768 22.1432L111.127 24.5033C110.961 24.6421 110.762 24.781 110.464 24.9545C110.166 25.128 109.834 25.3016 109.403 25.4751C109.006 25.6486 108.542 25.7874 108.011 25.8916C107.514 25.9957 106.951 26.0651 106.321 26.0651C104.597 26.0651 103.305 25.6139 102.41 24.6768C101.515 23.7398 101.084 22.525 101.084 20.9979V7.39293H101.117Z" fill="white"/>
<path d="M125.181 24.4676C125.015 24.5718 124.783 24.7106 124.451 24.8841C124.12 25.0576 123.689 25.2312 123.192 25.4047C122.695 25.5782 122.098 25.7171 121.468 25.8212C120.805 25.96 120.076 25.9947 119.314 25.9947C118.22 25.9947 117.192 25.8212 116.231 25.4741C115.27 25.1271 114.441 24.6065 113.712 23.9123C112.983 23.2182 112.419 22.3852 112.022 21.3787C111.624 20.3723 111.392 19.2269 111.392 17.9428C111.392 16.6934 111.591 15.5827 111.988 14.5763C112.386 13.5698 112.95 12.7021 113.679 11.9733C114.408 11.2444 115.237 10.6891 116.198 10.2726C117.159 9.85615 118.22 9.68262 119.38 9.68262C120.408 9.68262 121.302 9.82144 122.098 10.0991C122.893 10.3767 123.556 10.7585 124.087 11.2097C124.617 11.6609 125.048 12.2162 125.313 12.8409C125.578 13.4656 125.711 14.1251 125.711 14.8192C125.711 15.548 125.578 16.2075 125.313 16.7628C125.048 17.3528 124.617 17.8387 123.954 18.2899C123.291 18.7063 122.429 19.0534 121.336 19.2616C120.242 19.5046 118.85 19.6087 117.159 19.6087C116.761 19.6087 116.397 19.6087 116.065 19.6087C115.734 19.6087 115.369 19.574 114.972 19.574C115.137 20.6152 115.601 21.4829 116.43 22.1076C117.259 22.767 118.419 23.0794 119.91 23.0794C120.408 23.0794 120.905 23.0447 121.336 22.9405C121.767 22.8711 122.164 22.767 122.496 22.6282C122.827 22.4894 123.125 22.3852 123.391 22.2464C123.623 22.1076 123.822 22.0382 123.921 21.9688L125.181 24.4676ZM114.839 17.1792C115.303 17.214 115.734 17.214 116.132 17.214H117.358C118.452 17.214 119.314 17.1445 119.977 17.0057C120.64 16.8669 121.17 16.6934 121.534 16.4504C121.899 16.2075 122.164 15.9645 122.264 15.6869C122.396 15.4092 122.429 15.0968 122.429 14.7845C122.429 14.0209 122.131 13.4309 121.534 13.0145C120.938 12.6327 120.209 12.4244 119.314 12.4244C118.585 12.4244 117.955 12.5633 117.391 12.8409C116.828 13.1186 116.397 13.4656 115.999 13.9168C115.635 14.368 115.336 14.8539 115.137 15.4439C114.972 15.9992 114.872 16.5545 114.839 17.1792Z" fill="white"/>
<path d="M127.798 15.6522C127.798 13.778 128.362 12.2856 129.456 11.2444C130.549 10.2032 132.107 9.68262 134.063 9.68262C135.289 9.68262 136.317 9.85615 137.079 10.2379C137.841 10.585 138.239 11.1403 138.239 11.9038C138.239 12.2509 138.14 12.598 137.974 12.9103C137.775 13.2227 137.643 13.4309 137.51 13.5351C137.179 13.3615 136.748 13.2227 136.284 13.0839C135.786 12.945 135.223 12.8756 134.593 12.8756C132.306 12.8756 131.146 14.1598 131.146 16.6934V25.6477H127.798V15.6522Z" fill="white"/>
<path d="M139.697 9.1984C139.697 8.08779 139.829 7.11601 140.128 6.31775C140.426 5.5195 140.824 4.86007 141.387 4.37418C141.917 3.85358 142.58 3.50652 143.31 3.26357C144.039 3.02062 144.867 2.9165 145.729 2.9165C147.353 2.9165 148.48 3.12474 149.143 3.50652C149.806 3.92299 150.138 4.40889 150.138 5.03361C150.138 5.38068 150.038 5.69303 149.872 5.97069C149.674 6.24834 149.475 6.45658 149.276 6.59541C148.978 6.31775 148.547 6.10951 147.983 5.93598C147.453 5.76245 146.856 5.69303 146.26 5.69303C145.099 5.69303 144.271 6.00539 143.774 6.63011C143.276 7.25483 143.044 8.1225 143.044 9.26782V10.2049H147.453C148.116 10.2049 148.547 10.3437 148.812 10.6214C149.077 10.899 149.21 11.3155 149.21 11.8361C149.21 12.1832 149.176 12.4955 149.077 12.8079C148.978 13.1203 148.911 13.3285 148.845 13.4326H143.044V25.684H139.697V9.1984Z" fill="white"/>
<path d="M151 4.51162C151 3.95632 151.165 3.53983 151.464 3.26218C151.762 2.98453 152.226 2.8457 152.789 2.8457C153.154 2.8457 153.452 2.88041 153.751 2.98453C154.049 3.08865 154.248 3.15806 154.347 3.19277V25.5785H151V4.51162Z" fill="white"/>
<path d="M157.428 11.7661C157.428 11.2107 157.594 10.7943 157.892 10.5166C158.19 10.239 158.621 10.1001 159.185 10.1001C159.549 10.1001 159.881 10.1348 160.179 10.239C160.477 10.3431 160.676 10.4125 160.776 10.4472V18.6727C160.776 19.8874 161.074 20.8592 161.704 21.588C162.333 22.3169 163.295 22.6639 164.587 22.6639C165.781 22.6639 166.742 22.3169 167.405 21.5533C168.101 20.8245 168.432 19.7486 168.432 18.3256V11.7313C168.432 11.176 168.598 10.7596 168.896 10.4819C169.195 10.2043 169.626 10.0654 170.189 10.0654C170.554 10.0654 170.885 10.1001 171.183 10.2043C171.482 10.3084 171.681 10.3778 171.78 10.4125V23.9134C171.78 25.371 171.581 26.6205 171.217 27.627C170.852 28.6335 170.322 29.4664 169.626 30.1259C168.929 30.7853 168.101 31.2712 167.14 31.5488C166.178 31.8612 165.118 32 163.924 32C163.129 32 162.4 31.9653 161.704 31.8612C161.041 31.7571 160.444 31.6529 159.914 31.5488C159.383 31.41 158.953 31.3059 158.621 31.2018C158.29 31.0976 158.058 30.9935 157.925 30.9241C158.091 30.5076 158.223 30.0564 158.356 29.6053C158.488 29.1541 158.621 28.7376 158.754 28.2864C158.886 28.3558 159.118 28.4252 159.417 28.5293C159.715 28.6335 160.079 28.7376 160.477 28.807C160.875 28.9111 161.339 28.9805 161.869 29.0499C162.4 29.1194 162.93 29.1541 163.527 29.1541C164.289 29.1541 164.985 29.0499 165.582 28.8764C166.178 28.7029 166.709 28.3905 167.14 27.9741C167.57 27.5576 167.869 26.9676 168.101 26.2734C168.333 25.5793 168.432 24.6769 168.432 23.601C168.035 24.191 167.438 24.6769 166.576 25.024C165.714 25.371 164.819 25.5793 163.825 25.5793C162.897 25.5793 162.002 25.4405 161.206 25.1628C160.411 24.8852 159.715 24.4687 159.151 23.9481C158.588 23.4275 158.124 22.7681 157.826 22.0045C157.494 21.241 157.328 20.3386 157.328 19.3321V11.7661H157.428Z" fill="white"/>
<path d="M136.316 0H135.852V0.277648H136.316V0Z" fill="url(#paint0_linear)"/>
<path d="M46.4042 30.8887H45.9401V31.1663H46.4042V30.8887Z" fill="white"/>
<path d="M38.2838 1.38825L15.8109 14.9932L15.0154 15.4791L9.08234 19.0539V23.9128L43.9186 2.84593C44.5815 2.42945 45.3108 2.29063 46.04 2.42945C46.04 2.42945 46.04 2.42945 46.0731 2.42945C46.2057 2.46416 46.3383 2.49886 46.4709 2.53357C46.504 2.53357 46.5371 2.53357 46.5703 2.56828C45.2776 1.18001 43.5209 0.451172 41.731 0.451172C40.5378 0.451172 39.3776 0.763536 38.2838 1.38825Z" fill="white"/>
<path d="M2.75111 2.98413C2.71796 2.98413 2.71797 2.98413 2.68482 2.98413C2.65167 2.98413 2.61853 2.98413 2.58538 2.98413H2.51909C2.51909 2.98413 2.51909 2.98413 2.48594 2.98413C2.4528 2.98413 2.41965 2.98413 2.35336 2.98413H2.28707C2.25392 2.98413 2.22078 2.98413 2.18763 3.01884C2.15448 3.01884 2.15448 3.01884 2.12134 3.01884C2.08819 3.01884 2.05505 3.01884 2.0219 3.05354C1.98875 3.05354 1.95561 3.05355 1.95561 3.08825C1.92246 3.08825 1.88932 3.12296 1.82303 3.12296C1.78988 3.12296 1.78988 3.12296 1.75673 3.15766C1.72359 3.15766 1.72359 3.15767 1.69044 3.19237C1.6573 3.19237 1.6573 3.22708 1.62415 3.22708C1.62415 3.22708 1.62415 3.22708 1.591 3.22708V3.26178C1.55786 3.29649 1.49157 3.29649 1.45842 3.3312C1.45842 3.3312 1.42527 3.3312 1.42527 3.36591C1.39213 3.36591 1.35898 3.40061 1.35898 3.40061C1.35898 3.40061 1.32584 3.40061 1.32584 3.43532C1.25954 3.47002 1.19325 3.50473 1.16011 3.57414C1.16011 3.57414 1.16011 3.57414 1.12696 3.57414C1.09382 3.57414 1.09382 3.60885 1.06067 3.64356L1.02752 3.67826C0.928086 3.74768 0.861794 3.81709 0.795502 3.92121L0.762356 3.95592C0.696064 3.92121 0.696064 3.95592 0.662918 3.99063C0.596627 4.06004 0.563481 4.12945 0.497189 4.19886C0.16573 4.68476 0 5.27477 0 5.89949V27.1746C0 28.7364 0.762356 30.1247 1.95561 30.923L2.35336 31.1659C2.85055 31.4436 3.44718 31.6171 4.0438 31.6518V22.6975V8.91897C4.0438 8.78014 4.11009 8.64131 4.24268 8.5719C4.37526 8.50249 4.50784 8.50249 4.64043 8.5719L9.14827 11.279L15.0814 14.8538L19.1252 12.4243L13.0926 8.78014L4.20953 3.43532C4.20953 3.43532 4.17639 3.43532 4.17639 3.40061C4.14324 3.3659 4.11009 3.3659 4.0438 3.3312H4.01066C3.97751 3.3312 3.97751 3.29649 3.94436 3.29649C3.91122 3.29649 3.87807 3.26178 3.87807 3.26178H3.84493C3.81178 3.26178 3.77863 3.22708 3.74549 3.22708C3.71234 3.22708 3.71234 3.22708 3.6792 3.19237C3.64605 3.19237 3.57976 3.15766 3.54661 3.15766H3.51347C3.48032 3.15766 3.41403 3.12296 3.38088 3.12296H3.34774C3.31459 3.12296 3.2483 3.12296 3.21515 3.08825H3.18201C3.14886 3.08825 3.11572 3.08825 3.08257 3.08825C3.04942 3.08825 3.04942 3.08825 3.01628 3.08825C2.98313 3.08825 2.94999 3.08825 2.91684 3.08825C2.8174 2.98413 2.78426 2.98413 2.75111 2.98413Z" fill="white"/>
<path d="M1.92126 2.53321C2.21958 2.4638 2.55104 2.39439 2.84935 2.4291C2.8825 2.4291 2.8825 2.4291 2.91564 2.4291H2.94879C2.98193 2.4291 3.01508 2.4291 3.04823 2.4291C3.08137 2.4291 3.11452 2.4291 3.11452 2.4291H3.18081C3.21395 2.4291 3.2471 2.4291 3.28025 2.4291C3.31339 2.4291 3.31339 2.4291 3.34654 2.4291H3.37968C3.37968 2.4291 3.37968 2.4291 3.41283 2.4291C3.44598 2.4291 3.47912 2.42909 3.51227 2.4638C3.54541 2.4638 3.54541 2.4638 3.57856 2.4638H3.61171C3.64485 2.4638 3.678 2.4638 3.71114 2.49851C3.74429 2.49851 3.77743 2.49851 3.77743 2.53321H3.81058C3.84373 2.53321 3.87687 2.56792 3.87687 2.56792C3.91002 2.56792 3.94316 2.60263 3.97631 2.60263H4.00946C4.0426 2.60263 4.07575 2.63733 4.10889 2.63733C4.14204 2.63733 4.14204 2.67204 4.17519 2.67204C4.20833 2.70675 4.24148 2.70675 4.30777 2.74146C4.34091 2.77616 4.37406 2.77616 4.40721 2.81087L19.588 12.0775L22.6706 10.2034L23.6318 9.64807L11.3347 2.22086C9.41224 1.17966 7.78809 0.624349 6.29652 0.624349C4.70552 0.589643 3.28025 1.24907 1.92126 2.53321Z" fill="white"/>
<path d="M39.7059 11.5579V18.7422V24.8853L28.7014 18.2216L24.6908 20.6511C24.6908 20.6511 37.684 28.6683 42.0924 31.1672C42.5895 31.4448 43.153 31.5837 43.7497 31.6184V9.09375L39.7059 11.5579Z" fill="white"/>
<path d="M6.59569 10.3768L4.54065 9.12737V31.652C4.54065 31.652 5.10413 31.652 5.93278 31.3396C7.39119 30.8884 43.5865 8.57207 43.5865 8.57207C43.5865 8.57207 43.8517 8.39854 44.0505 8.53736C44.1831 8.60678 44.2494 8.7456 44.2494 8.88443C44.2494 9.43973 44.2494 31.652 44.2494 31.652C44.2494 31.652 47.7629 31.5826 48.2932 27.4525V5.62201C48.2932 5.62201 48.2932 4.0255 46.7354 3.22725C45.3101 2.49841 44.0174 3.43549 44.0174 3.43549L8.5513 24.8842V11.5915L6.59569 10.3768Z" fill="white"/>
<path d="M33.2788 15.479L39.1787 19.0538V23.9127L29.235 17.9085L33.2788 15.479Z" fill="white"/>
<defs>
<linearGradient id="paint0_linear" x1="136.099" y1="0.00272644" x2="136.099" y2="0.292533" gradientUnits="userSpaceOnUse">
<stop stop-color="#FADA17"/>
<stop offset="1" stop-color="#F76268"/>
</linearGradient>
</defs>
</svg>
