<svg width="321" height="321" viewBox="0 0 321 321" fill="none" xmlns="http://www.w3.org/2000/svg">
<circle cx="160.5" cy="160.5" r="160.5" fill="#FFE7C7"/>
<mask id="mask0_759_7294" style="mask-type:alpha" maskUnits="userSpaceOnUse" x="0" y="0" width="321" height="321">
<circle cx="160.5" cy="160.5" r="160.5" fill="#FFE7C7"/>
</mask>
<g mask="url(#mask0_759_7294)">
<path d="M48.2944 294.528L127.999 321.5C150.999 300.5 157.02 267.695 157.64 265.834C158.416 263.508 173.926 209.998 173.15 190.611C172.375 171.223 140.579 140.203 102.58 162.693C72.1799 180.684 53.723 258.079 48.2944 294.528Z" fill="#F0F0F0"/>
<path d="M50.217 293.994C50.0832 295.057 49.1135 295.809 48.0512 295.676C46.9888 295.542 46.2361 294.572 46.3698 293.51L50.217 293.994ZM106.456 157.264L107.606 158.825C107.596 158.832 107.585 158.84 107.575 158.847L106.456 157.264ZM165.394 147.958L166.146 146.171L165.394 147.958ZM161.517 256.528L159.695 255.866C159.778 255.635 159.905 255.423 160.068 255.24L161.517 256.528ZM131.351 320.887C130.585 321.635 129.358 321.621 128.61 320.855C127.861 320.089 127.876 318.861 128.642 318.113L131.351 320.887ZM46.3698 293.51C48.5816 275.946 54.1546 248.043 63.7031 221.308C73.2177 194.669 86.8242 168.767 105.337 155.681L107.575 158.847C90.1045 171.197 76.827 196.091 67.3547 222.612C57.9164 249.038 52.3997 276.661 50.217 293.994L46.3698 293.51ZM105.306 155.703C110.407 151.945 119.475 147.022 130.294 144.294C141.123 141.564 153.857 140.997 166.146 146.171L164.642 149.745C153.355 144.993 141.532 145.46 131.242 148.054C120.942 150.651 112.328 155.345 107.606 158.825L105.306 155.703ZM166.146 146.171C174.381 149.639 178.825 157.878 180.864 167.803C182.913 177.77 182.646 189.884 181.082 201.912C179.514 213.962 176.626 226.053 173.343 236.026C171.701 241.014 169.952 245.495 168.208 249.191C166.478 252.856 164.7 255.865 162.966 257.816L160.068 255.24C161.435 253.702 163.025 251.088 164.701 247.537C166.362 244.017 168.054 239.69 169.66 234.814C172.871 225.06 175.702 213.208 177.237 201.411C178.774 189.592 178.993 177.957 177.066 168.584C175.132 159.171 171.141 152.481 164.642 149.745L166.146 146.171ZM163.339 257.191C162.586 259.261 161.611 262.818 160.161 267.578C158.732 272.267 156.887 277.96 154.457 284.056C149.605 296.224 142.377 310.117 131.351 320.887L128.642 318.113C139.116 307.883 146.097 294.555 150.855 282.62C153.229 276.664 155.039 271.085 156.452 266.448C157.843 261.883 158.896 258.061 159.695 255.866L163.339 257.191Z" fill="#002154"/>
<rect x="-2.3265" y="2.3265" width="120.978" height="204.732" rx="16.2855" transform="matrix(-1 0 0 1 218.128 58)" fill="#FFA733" stroke="#002154" stroke-width="4.65301"/>
<path d="M121.967 210.774C137.477 216.357 121.192 256.011 111.11 275.14C106.974 279.793 100.253 293.752 84.7432 285.222C74.5878 279.636 76.4712 268.936 79.3147 262.732C87.0697 243.086 106.457 205.19 121.967 210.774Z" fill="#F0F0F0"/>
<path d="M139.711 139.542C137.726 137.557 137.726 134.338 139.711 132.353C141.696 130.368 144.914 130.368 146.9 132.353L139.711 139.542ZM178.616 164.07C180.601 166.055 180.601 169.274 178.616 171.259C176.631 173.244 173.413 173.244 171.427 171.259L178.616 164.07ZM146.9 132.353L178.616 164.07L171.427 171.259L139.711 139.542L146.9 132.353Z" fill="white"/>
<path d="M178.616 139.542C180.601 137.557 180.601 134.338 178.616 132.353C176.631 130.368 173.413 130.368 171.428 132.353L178.616 139.542ZM139.711 164.07C137.726 166.055 137.726 169.274 139.711 171.259C141.696 173.244 144.915 173.244 146.9 171.259L139.711 164.07ZM171.428 132.353L139.711 164.07L146.9 171.259L178.616 139.542L171.428 132.353Z" fill="white"/>
<path d="M115.185 271.153C114.818 271.927 113.892 272.256 113.119 271.889C112.345 271.521 112.016 270.596 112.383 269.822L115.185 271.153ZM122.312 210.642L121.766 212.094L122.312 210.642ZM83.0619 259.27C82.7193 260.056 81.8051 260.414 81.02 260.072C80.2349 259.729 79.8762 258.815 80.2188 258.03L83.0619 259.27ZM112.383 269.822C116.733 260.665 122.24 247.106 124.956 235.246C126.318 229.299 126.947 223.911 126.452 219.761C125.957 215.612 124.409 213.088 121.766 212.094L122.858 209.19C127.068 210.773 128.974 214.716 129.532 219.394C130.09 224.071 129.37 229.869 127.98 235.938C125.192 248.109 119.582 261.896 115.185 271.153L112.383 269.822ZM121.766 212.094C118.507 210.869 115.028 211.747 111.299 214.438C107.559 217.138 103.804 221.51 100.221 226.728C93.0677 237.146 86.8849 250.51 83.0619 259.27L80.2188 258.03C84.0491 249.253 90.3301 235.653 97.6635 224.972C101.324 219.641 105.318 214.929 109.484 211.923C113.661 208.908 118.245 207.456 122.858 209.19L121.766 212.094Z" fill="#002154"/>
<rect width="60.4891" height="10.857" rx="5.42851" transform="matrix(-1 0 0 1 191.762 220.855)" fill="white"/>
<rect width="23.265" height="6.2039" rx="3.10195" transform="matrix(-1 0 0 1 171.599 70.4082)" fill="white"/>
<path d="M57.5404 179.525C58.7828 179.525 59.4604 178.621 59.5734 177.377C59.7993 173.308 61.2675 170.256 63.3005 168.448C65.8982 166.187 68.27 165.622 68.7218 165.622H68.8347H68.9477C70.0771 165.622 70.9807 165.17 71.2065 164.04C71.2065 163.927 71.2065 163.701 71.2065 163.588C71.0936 162.344 70.1901 161.666 68.9477 161.666H68.7218C68.27 161.666 65.8982 161.327 63.3005 158.954C61.2675 157.032 59.6863 154.093 59.5734 149.911C59.5734 148.781 58.7828 147.877 57.5404 147.877C56.298 147.877 55.7333 148.781 55.7333 150.024C55.5074 154.093 53.9262 157.145 51.7803 159.067C49.1826 161.327 46.8108 161.779 46.359 161.779H46.1331C45.5684 161.779 45.0037 162.005 44.5519 162.344C44.1001 162.797 43.8742 163.136 43.8742 163.701C43.8742 164.379 44.1001 164.492 44.5519 164.944C45.0037 165.396 45.5684 165.622 46.0202 165.622H46.246C46.6978 165.622 49.0696 166.187 51.6673 168.448C53.7003 170.369 55.3945 173.308 55.6204 177.49C55.7333 178.621 56.411 179.525 57.5404 179.525Z" fill="white"/>
<path d="M254.945 106.209C256.122 106.209 256.764 105.346 256.871 104.159C257.085 100.275 258.476 97.3624 260.402 95.6361C262.863 93.4783 265.11 92.9388 265.538 92.9388H265.645H265.752C266.822 92.9388 267.678 92.5073 267.892 91.4284C267.892 91.3205 267.892 91.1047 267.892 90.9968C267.785 89.81 266.929 89.1627 265.752 89.1627H265.538C265.11 89.1627 262.863 88.839 260.402 86.5733C258.476 84.7391 256.978 81.934 256.871 77.942C256.871 76.8631 256.122 76 254.945 76C253.768 76 253.233 76.8631 253.233 78.0499C253.019 81.934 251.521 84.847 249.488 86.6812C247.027 88.839 244.78 89.2706 244.352 89.2706H244.138C243.603 89.2706 243.068 89.4863 242.64 89.81C242.212 90.2416 241.998 90.5652 241.998 91.1047C241.998 91.752 242.212 91.8599 242.64 92.2915C243.068 92.7231 243.603 92.9388 244.031 92.9388H244.245C244.673 92.9388 246.92 93.4783 249.381 95.6361C251.307 97.4703 252.912 100.275 253.126 104.267C253.233 105.346 253.875 106.209 254.945 106.209Z" fill="white"/>
</g>
</svg>
