<svg width="56" height="56" viewBox="0 0 56 56" fill="none" xmlns="http://www.w3.org/2000/svg">
<path d="M51.5398 45.9513C54.0022 45.9484 55.9971 43.953 56 41.4911V14.4953C55.9971 12.0329 54.0022 10.0381 51.5398 10.0352H4.46018C1.99827 10.0381 0.00290376 12.0334 0 14.4953V41.4911C0.00290376 43.953 1.99827 45.9484 4.46018 45.9513H51.5398ZM54.5133 22.3529H1.48673V18.1013H54.5133V22.3529ZM4.46018 11.5219H51.5398C53.1814 11.5238 54.5113 12.8537 54.5133 14.4953V16.6141H1.48673V14.4953C1.48866 12.8537 2.81858 11.5238 4.46018 11.5219ZM1.48673 41.4911V23.8396H54.5133V41.4911C54.5113 43.1327 53.1814 44.4626 51.5398 44.4646H4.46018C2.81858 44.4626 1.48866 43.1327 1.48673 41.4911Z" fill="#396FC7"/>
<path d="M5.74336 34.6814H42.9115C43.3219 34.6814 43.6549 34.3489 43.6549 33.9381V27.7434C43.6549 27.333 43.3219 27 42.9115 27H5.74336C5.33296 27 5 27.333 5 27.7434V33.9381C5 34.3489 5.33296 34.6814 5.74336 34.6814ZM42.1681 33.1947H29.2571V28.4867H42.1681V33.1947ZM6.48673 28.4867H27.7703V33.1947H6.48673V28.4867Z" fill="#FFC64D"/>
<path d="M39.5772 32.2042C40.3302 32.2042 40.94 31.5944 40.94 30.8413C40.94 30.0888 40.3302 29.4785 39.5772 29.4785C38.8246 29.4785 38.2144 30.0888 38.2144 30.8413C38.2153 31.5939 38.8251 32.2037 39.5772 32.2042ZM39.5772 30.7175C39.6459 30.7175 39.7011 30.7731 39.7011 30.8413C39.7011 30.9101 39.6459 30.9652 39.5772 30.9652C39.5089 30.9652 39.4533 30.9101 39.4533 30.8413C39.4533 30.7731 39.5089 30.7175 39.5772 30.7175Z" fill="#FFC64D"/>
<path d="M35.6123 32.2042C36.3654 32.2042 36.9752 31.5944 36.9752 30.8413C36.9752 30.0888 36.3654 29.4785 35.6123 29.4785C34.8598 29.4785 34.2495 30.0888 34.2495 30.8413C34.2505 31.5939 34.8603 32.2037 35.6123 32.2042ZM35.6123 30.7175C35.6811 30.7175 35.7362 30.7731 35.7362 30.8413C35.7362 30.9101 35.6811 30.9652 35.6123 30.9652C35.5441 30.9652 35.4884 30.9101 35.4884 30.8413C35.4884 30.7731 35.5441 30.7175 35.6123 30.7175Z" fill="#FFC64D"/>
<path d="M31.7715 32.2042C32.5246 32.2042 33.1344 31.5944 33.1344 30.8413C33.1344 30.0888 32.5246 29.4785 31.7715 29.4785C31.019 29.4785 30.4087 30.0888 30.4087 30.8413C30.4097 31.5939 31.0194 32.2037 31.7715 32.2042ZM31.7715 30.7175C31.8402 30.7175 31.8954 30.7731 31.8954 30.8413C31.8954 30.9101 31.8402 30.9652 31.7715 30.9652C31.7033 30.9652 31.6476 30.9101 31.6476 30.8413C31.6476 30.7731 31.7033 30.7175 31.7715 30.7175Z" fill="#FFC64D"/>
</svg>
