<svg width="69" height="117" viewBox="0 0 69 117" fill="none" xmlns="http://www.w3.org/2000/svg">
<path d="M19.9863 14.6172H34.1611C37.6339 14.6172 42.1698 14.6172 44.5087 16.0227C47.0601 17.5688 49.1155 20.3096 49.1155 24.1045C49.1155 28.2508 46.9184 31.3429 43.3038 32.7484V32.889C48.1232 33.8729 50.7456 37.4569 50.7456 42.2357C50.7456 47.9281 46.6349 53.3394 38.9096 53.3394H19.9863V14.6172ZM25.1601 31.2024H35.5786C41.4611 31.2024 43.8708 29.0941 43.8708 25.0181C43.8708 19.6771 40.0436 18.904 35.5786 18.904H25.1601V31.2024ZM25.1601 48.9822H38.2009C42.6659 48.9822 45.5009 46.2415 45.5009 42.0249C45.5009 36.965 41.3902 35.5595 36.996 35.5595H25.1601V48.9822Z" fill="#002154"/>
<path d="M63.999 33.9438C63.999 50.1779 50.6747 63.39 34.3028 63.39C17.931 63.39 4.60672 50.1779 4.60672 33.9438C4.60672 17.7098 17.931 4.49774 34.3028 4.49774C50.6747 4.49774 63.999 17.7098 63.999 33.9438ZM34.3028 0C15.3795 0 0.0708008 15.1799 0.0708008 33.9438C0.0708008 52.7078 15.3795 67.8877 34.3028 67.8877C53.2261 67.8877 68.5349 52.7078 68.5349 33.9438C68.464 15.1799 53.1553 0 34.3028 0Z" fill="#002154"/>
<path d="M68.3223 74.9858H0.0708008V79.4126H68.3223V74.9858Z" fill="#002154"/>
<path d="M66.1959 70.136C66.2668 70.136 66.3376 70.136 66.4085 70.136C66.4794 70.136 66.5503 70.136 66.6211 70.0657C66.692 70.0657 66.7629 69.9954 66.7629 69.9252C66.8338 69.8549 66.8338 69.7846 66.8338 69.7143C66.8338 69.644 66.8338 69.5737 66.7629 69.5034C66.7629 69.4331 66.692 69.4331 66.6211 69.3629C66.5503 69.3629 66.5503 69.2926 66.4794 69.2926C66.4085 69.2926 66.3376 69.2926 66.2668 69.2926H65.7706V70.0657H66.1959V70.136ZM66.4085 69.0817C66.692 69.0817 66.9046 69.152 67.0464 69.2223C67.1881 69.3629 67.259 69.5034 67.259 69.7143C67.259 69.9252 67.1881 70.0657 67.0464 70.2063C66.9046 70.2766 66.7629 70.3469 66.6211 70.4172L67.3299 71.4715H66.9046L66.2668 70.4874H65.8415V71.4715H65.4872V69.0817H66.4085ZM64.7075 70.9092C64.7784 71.12 64.9202 71.3309 65.0619 71.4715C65.2037 71.612 65.4163 71.7526 65.6289 71.8229C65.8415 71.8932 66.0541 71.9635 66.2668 71.9635C66.4794 71.9635 66.7629 71.8932 66.9046 71.8229C67.1173 71.7526 67.259 71.612 67.4716 71.4715C67.6134 71.3309 67.7551 71.12 67.826 70.9092C67.8969 70.6983 67.9677 70.4874 67.9677 70.2063C67.9677 69.9252 67.8969 69.7143 67.826 69.5034C67.7551 69.2926 67.6134 69.0817 67.4716 68.9411C67.3299 68.8006 67.1173 68.66 66.9046 68.5897C66.692 68.5194 66.4794 68.4491 66.2668 68.4491C66.0541 68.4491 65.7707 68.5194 65.6289 68.5897C65.4163 68.66 65.2745 68.8006 65.0619 68.9411C64.9202 69.0817 64.7784 69.2926 64.7075 69.5034C64.6367 69.7143 64.5658 69.9252 64.5658 70.2063C64.5658 70.4874 64.6367 70.6983 64.7075 70.9092ZM64.3532 69.4332C64.4949 69.2223 64.6367 69.0114 64.7784 68.8006C64.991 68.5897 65.2037 68.4491 65.4163 68.3789C65.6289 68.3086 65.9124 68.2383 66.1959 68.2383C66.4794 68.2383 66.7629 68.3086 66.9755 68.3789C67.1881 68.5194 67.4008 68.5897 67.6134 68.8006C67.826 69.0114 67.9677 69.2223 68.0386 69.4332C68.1804 69.7143 68.1804 69.9252 68.1804 70.2063C68.1804 70.4874 68.1095 70.7686 68.0386 70.9795C67.9677 71.2606 67.7551 71.4715 67.6134 71.612C67.4008 71.8229 67.1881 71.9635 66.9755 72.0337C66.692 72.104 66.4794 72.1743 66.1959 72.1743C65.9124 72.1743 65.6289 72.104 65.4163 72.0337C65.1328 71.9635 64.9202 71.8229 64.7784 71.612C64.5658 71.4012 64.424 71.1903 64.3532 70.9795C64.2114 70.7686 64.2114 70.4874 64.2114 70.2063C64.2114 69.9252 64.2114 69.7143 64.3532 69.4332Z" fill="#002154"/>
<path d="M9.0014 85.4126V87.5911H2.69362V90.121H8.50528V92.159H2.69362V95.1105H9.14314V97.2891H0.0712891V85.4126H9.0014Z" fill="#002154"/>
<path d="M12.9696 88.7157V89.9104C13.2531 89.4888 13.6784 89.1374 14.1036 88.8563C14.5288 88.6454 15.025 88.5049 15.5919 88.5049C16.1589 88.5049 16.6551 88.6454 17.0803 88.786C17.5055 88.9968 17.8599 89.3482 18.1434 89.9104C18.4269 89.559 18.7813 89.2077 19.2065 88.9265C19.6317 88.6454 20.1987 88.5049 20.7657 88.5049C21.191 88.5049 21.6162 88.5752 22.0415 88.6454C22.4667 88.786 22.7502 88.9265 23.0337 89.2077C23.3172 89.4185 23.5298 89.7699 23.6716 90.1915C23.8133 90.6132 23.8842 91.0349 23.8842 91.5971V97.3599H21.4745V92.3702C21.4745 92.089 21.4745 91.8079 21.4745 91.5268C21.4745 91.2457 21.4036 91.0349 21.2618 90.8943C21.191 90.6835 20.9783 90.5429 20.8366 90.4727C20.7657 90.3321 20.4822 90.3321 20.1279 90.3321C19.7735 90.3321 19.49 90.4024 19.3483 90.5429C19.1356 90.6835 18.9939 90.824 18.8521 91.0349C18.7104 91.2457 18.6395 91.4565 18.6395 91.7377C18.5686 92.0188 18.5686 92.2296 18.5686 92.5107V97.2896H16.1589V92.4404C16.1589 92.1593 16.1589 91.9485 16.1589 91.6674C16.1589 91.3863 16.0881 91.1754 16.0172 90.9646C15.9463 90.7538 15.8046 90.6132 15.5919 90.4727C15.3793 90.4024 15.0958 90.3321 14.7415 90.3321C14.5997 90.3321 14.458 90.3321 14.3162 90.4024C14.1036 90.4727 13.9619 90.5429 13.7492 90.6835C13.5366 90.824 13.3949 91.0349 13.324 91.2457C13.1822 91.5268 13.1114 91.8782 13.1114 92.2999V97.2896H10.7017V88.7157H12.9696Z" fill="#002154"/>
<path d="M27.7822 88.7157V89.8402C28.0657 89.3482 28.4201 89.0671 28.9162 88.8563C29.3414 88.6455 29.8375 88.5752 30.4045 88.5752C31.1133 88.5752 31.6803 88.7158 32.1764 88.9266C32.6725 89.2077 33.0977 89.4888 33.3812 89.9105C33.7356 90.3321 33.9482 90.8241 34.09 91.3863C34.2317 91.9485 34.3026 92.5107 34.3026 93.1432C34.3026 93.7054 34.2317 94.2677 34.09 94.8299C33.9482 95.3921 33.6647 95.8138 33.3812 96.2354C33.0977 96.6571 32.6725 96.9382 32.1764 97.2193C31.6803 97.4301 31.1133 97.5707 30.4754 97.5707C29.9084 97.5707 29.4123 97.4301 28.987 97.2193C28.5618 97.0085 28.1366 96.6571 27.8531 96.2354V100.312H25.4434V88.7157H27.7822ZM30.8298 95.4624C31.1133 95.3218 31.3259 95.111 31.4676 94.8299C31.6094 94.5488 31.7511 94.2677 31.822 93.9866C31.8929 93.6352 31.8929 93.2838 31.8929 93.0027C31.8929 92.6513 31.822 92.2999 31.7511 92.0188C31.6803 91.6674 31.5385 91.3863 31.3968 91.1052C31.255 90.8241 31.0424 90.6132 30.7589 90.4727C30.5463 90.3321 30.2628 90.2619 29.8375 90.2619C29.4123 90.2619 29.1288 90.3321 28.8453 90.4727C28.5618 90.6132 28.3492 90.8241 28.2074 91.1052C28.0657 91.3863 27.9239 91.6674 27.8531 92.0188C27.7822 92.3702 27.7822 92.7216 27.7822 93.0729C27.7822 93.4243 27.8531 93.7757 27.9239 94.0568C27.9948 94.4082 28.1366 94.6893 28.2783 94.9002C28.4201 95.1813 28.6327 95.3218 28.9162 95.5327C29.1997 95.6732 29.4832 95.7435 29.9084 95.7435C30.2628 95.7435 30.6171 95.6732 30.8298 95.4624Z" fill="#002154"/>
<path d="M37.6338 88.7152V90.3317C37.7755 90.0505 37.9172 89.8397 38.059 89.5586C38.3425 89.2775 38.5551 89.1369 38.8386 88.926C39.0512 88.7855 39.3347 88.6449 39.6182 88.5746C39.9017 88.5044 40.1852 88.4341 40.4687 88.4341C40.6104 88.4341 40.8231 88.4341 40.9648 88.5044V90.6831C40.8231 90.6831 40.7522 90.6128 40.5396 90.6128C40.3978 90.6128 40.2561 90.6128 40.1143 90.6128C39.6891 90.6128 39.3347 90.6831 38.9804 90.8236C38.6969 90.9642 38.4134 91.175 38.2716 91.3859C38.059 91.667 37.9881 91.9481 37.8464 92.2293C37.7755 92.5807 37.7046 92.9321 37.7046 93.2835V97.1489H35.2949V88.7152H37.6338Z" fill="#002154"/>
<path d="M44.1544 95.1816C44.5087 95.533 45.0048 95.6736 45.7136 95.6736C46.2097 95.6736 46.6349 95.533 46.9184 95.3222C47.2728 95.1113 47.4854 94.8302 47.5563 94.5491H49.6825C49.3281 95.6033 48.832 96.3061 48.1233 96.7278C47.4145 97.1495 46.5641 97.3604 45.6427 97.3604C44.934 97.3604 44.367 97.2198 43.8 97.0089C43.233 96.7981 42.8078 96.517 42.3825 96.0953C42.0281 95.6736 41.7447 95.2519 41.532 94.6896C41.3194 94.1274 41.2485 93.4948 41.2485 92.8623C41.2485 92.2297 41.3194 91.5972 41.532 91.035C41.7447 90.4727 42.0281 89.9807 42.4534 89.6293C42.8786 89.2076 43.3039 88.9265 43.8709 88.6454C44.4379 88.4345 45.0048 88.2939 45.6427 88.2939C46.3514 88.2939 46.9893 88.4345 47.5563 88.7156C48.1233 88.9968 48.5485 89.3482 48.9029 89.8402C49.2573 90.4727 49.4699 91.035 49.6825 91.6675C49.8242 92.3 49.8951 92.9326 49.8242 93.5651H43.5874C43.5874 94.3382 43.8 94.9005 44.1544 95.1816ZM46.8476 90.6835C46.5641 90.4024 46.1388 90.1916 45.5718 90.1916C45.2175 90.1916 44.8631 90.2618 44.6505 90.4024C44.367 90.543 44.2252 90.6835 44.0835 90.8944C43.9417 91.1052 43.8 91.3161 43.8 91.5269C43.7291 91.7378 43.7291 91.9486 43.6582 92.0892H47.5563C47.3437 91.4566 47.131 91.035 46.8476 90.6835Z" fill="#002154"/>
<path d="M53.2258 95.1113C53.2966 95.3222 53.4384 95.4627 53.651 95.533C53.7928 95.6736 54.0054 95.7439 54.218 95.8141C54.4306 95.8844 54.6433 95.8844 54.9267 95.8844C55.0685 95.8844 55.2811 95.8844 55.4229 95.8141C55.6355 95.7439 55.7772 95.7439 55.919 95.6033C56.0607 95.533 56.2025 95.3925 56.2734 95.2519C56.3442 95.1113 56.4151 94.9708 56.4151 94.7599C56.4151 94.4085 56.2025 94.1274 55.7064 93.9868C55.2102 93.776 54.5724 93.6354 53.7219 93.4246C53.3675 93.3543 53.0132 93.284 52.7297 93.1434C52.3753 93.0732 52.0918 92.9326 51.8792 92.7217C51.5957 92.5812 51.3831 92.3 51.2413 92.0892C51.0996 91.8081 51.0287 91.5269 51.0287 91.1053C51.0287 90.543 51.1704 90.1213 51.3831 89.7699C51.5957 89.4185 51.8792 89.1374 52.2335 88.9265C52.5879 88.7157 53.0132 88.5751 53.4384 88.5048C53.8636 88.4345 54.3598 88.3643 54.785 88.3643C55.2811 88.3643 55.7064 88.4345 56.1316 88.5048C56.5568 88.5751 56.9821 88.7157 57.3365 88.9265C57.6908 89.1374 57.9743 89.4185 58.1869 89.7699C58.3996 90.1213 58.5413 90.543 58.6122 91.1053H56.3442C56.3442 90.6836 56.1316 90.3322 55.8481 90.1916C55.5646 90.051 55.1394 89.9807 54.7141 89.9807C54.5724 89.9807 54.4306 89.9807 54.2889 89.9807C54.1471 89.9807 54.0054 90.051 53.8636 90.1213C53.7219 90.1916 53.651 90.2619 53.5093 90.3322C53.4384 90.4727 53.3675 90.6133 53.3675 90.7538C53.3675 90.9647 53.4384 91.1053 53.5801 91.2458C53.7219 91.3864 53.9345 91.4567 54.218 91.5972C54.5015 91.6675 54.785 91.7378 55.0685 91.8081C55.4229 91.8784 55.7064 91.9486 56.0607 92.0189C56.4151 92.0892 56.7695 92.1595 57.053 92.3C57.4073 92.4406 57.6908 92.5812 57.9034 92.7217C58.1869 92.9326 58.3996 93.1434 58.5413 93.4246C58.6831 93.7057 58.7539 94.0571 58.7539 94.4085C58.7539 94.9708 58.6122 95.4627 58.3996 95.8141C58.1869 96.1656 57.9034 96.517 57.4782 96.7278C57.1238 96.9387 56.6986 97.1495 56.2025 97.2198C55.7064 97.2901 55.2811 97.3604 54.785 97.3604C54.2889 97.3604 53.7928 97.2901 53.2966 97.2198C52.8005 97.1495 52.3753 96.9387 52.0209 96.7278C51.6666 96.517 51.3122 96.1656 51.0996 95.8141C50.8869 95.4627 50.7452 94.9708 50.6743 94.4085H52.9423C53.084 94.7599 53.1549 94.9708 53.2258 95.1113Z" fill="#002154"/>
<path d="M60.5261 89.9802C60.7387 89.6288 61.0931 89.3477 61.4475 89.0666C61.8018 88.8558 62.2271 88.7152 62.7232 88.5746C63.2193 88.5044 63.6446 88.4341 64.1407 88.4341C64.5659 88.4341 64.9912 88.4341 65.4873 88.5044C65.9834 88.5746 66.3378 88.7152 66.763 88.926C67.1174 89.0666 67.4009 89.3477 67.6135 89.6288C67.8261 89.9099 67.9679 90.3316 67.9679 90.8938V95.3916C67.9679 95.8133 67.9679 96.1647 68.0387 96.5161C68.1096 96.8675 68.1805 97.1486 68.2513 97.2892H65.8416C65.7708 97.1486 65.7708 97.008 65.6999 96.8675C65.6999 96.7269 65.629 96.5864 65.629 96.4458C65.2747 96.8675 64.7785 97.0783 64.2824 97.2892C63.7863 97.4297 63.2193 97.5 62.7232 97.5C62.298 97.5 61.9436 97.4297 61.5892 97.3594C61.2349 97.2892 60.9514 97.0783 60.6679 96.8675C60.3844 96.6567 60.1717 96.3755 60.03 96.0944C59.8883 95.743 59.8174 95.3916 59.8174 94.97C59.8174 94.478 59.8883 94.0564 60.1009 93.7752C60.2426 93.4941 60.5261 93.213 60.7387 93.0022C61.0222 92.7913 61.3057 92.6508 61.6601 92.5805C62.0145 92.5102 62.3688 92.44 62.7232 92.3697C63.0776 92.2994 63.4319 92.2994 63.7863 92.2291C64.1407 92.2291 64.4242 92.1588 64.7077 92.0886C64.9912 92.0183 65.2038 91.948 65.3455 91.8074C65.4873 91.6669 65.5581 91.5263 65.5581 91.2452C65.5581 90.9641 65.4873 90.7533 65.4164 90.6127C65.4164 90.4019 65.2747 90.3316 65.1329 90.2613C64.9912 90.191 64.8494 90.1208 64.6368 90.1208C64.4242 90.1208 64.2824 90.0505 64.0698 90.0505C63.5737 90.0505 63.2193 90.1208 62.9358 90.3316C62.6523 90.5424 62.5106 90.8938 62.4397 91.3155H60.03C60.1717 90.7533 60.3135 90.3316 60.5261 89.9802ZM65.2038 93.2833C65.062 93.3536 64.9203 93.3536 64.7077 93.4239C64.5659 93.4239 64.3533 93.4941 64.1407 93.4941C63.9281 93.4941 63.7863 93.5644 63.5737 93.5644C63.3611 93.5644 63.2193 93.6347 63.0776 93.705C62.9358 93.7752 62.7232 93.8455 62.6523 93.9158C62.5106 93.9861 62.4397 94.1266 62.3688 94.2672C62.298 94.4077 62.2271 94.6186 62.2271 94.8294C62.2271 95.0403 62.298 95.2511 62.3688 95.3916C62.4397 95.5322 62.5815 95.6728 62.6523 95.743C62.7941 95.8133 62.9358 95.8836 63.1484 95.8836C63.3611 95.8836 63.5028 95.9539 63.7154 95.9539C64.2115 95.9539 64.5659 95.8836 64.7785 95.743C65.062 95.6025 65.2038 95.3916 65.3455 95.1808C65.4873 94.97 65.5581 94.7591 65.5581 94.5483C65.5581 94.3375 65.629 94.1266 65.629 93.9861V93.0725C65.4873 93.1427 65.4164 93.213 65.2038 93.2833Z" fill="#002154"/>
<path d="M6.73301 109.052C6.59127 108.841 6.44952 108.701 6.2369 108.49C6.02428 108.35 5.81165 108.209 5.59903 108.139C5.38641 108.068 5.10292 107.998 4.81942 107.998C4.3233 107.998 3.89806 108.068 3.61457 108.279C3.2602 108.49 2.9767 108.701 2.83495 109.052C2.62233 109.333 2.48058 109.685 2.40971 110.106C2.26796 110.458 2.19709 110.879 2.19709 111.301C2.19709 111.723 2.26796 112.074 2.33884 112.496C2.40971 112.847 2.55146 113.198 2.76408 113.55C2.9767 113.831 3.2602 114.112 3.54369 114.253C3.89806 114.463 4.25243 114.534 4.74855 114.534C5.38641 114.534 5.88253 114.323 6.30777 113.971C6.66214 113.55 6.87476 113.058 6.94564 112.425H9.00098C8.9301 113.058 8.78835 113.55 8.57573 114.042C8.36311 114.534 8.07962 114.955 7.65437 115.307C7.3 115.658 6.87476 115.939 6.37864 116.08C5.88253 116.291 5.31554 116.361 4.74855 116.361C4.03981 116.361 3.33107 116.22 2.76408 116.009C2.19709 115.728 1.70097 115.377 1.27573 114.955C0.850486 114.534 0.566991 113.971 0.354369 113.339C0.141748 112.707 0 112.074 0 111.371C0 110.669 0.141748 109.966 0.354369 109.404C0.566991 108.771 0.850486 108.279 1.27573 107.787C1.70097 107.295 2.19709 106.944 2.76408 106.733C3.33107 106.452 4.03981 106.312 4.74855 106.312C5.31554 106.312 5.81165 106.382 6.2369 106.522C6.73301 106.663 7.15826 106.874 7.51263 107.155C7.86699 107.436 8.22136 107.787 8.43399 108.209C8.64661 108.631 8.85923 109.123 8.9301 109.685H6.94564C6.94564 109.474 6.87476 109.263 6.73301 109.052Z" fill="#002154"/>
<path d="M12.1905 114.394C12.474 114.675 12.8993 114.816 13.4663 114.816C13.8206 114.816 14.175 114.745 14.4585 114.535C14.742 114.324 14.8838 114.113 14.9546 113.902H16.6556C16.3721 114.745 15.9469 115.308 15.3799 115.729C14.8129 116.081 14.1041 116.292 13.3245 116.292C12.7575 116.292 12.2614 116.221 11.8362 116.01C11.4109 115.87 10.9857 115.589 10.7022 115.237C10.4187 114.886 10.1352 114.535 9.99346 114.113C9.85171 113.691 9.70996 113.199 9.70996 112.637C9.70996 112.145 9.78083 111.653 9.99346 111.161C10.1352 110.739 10.4187 110.318 10.7022 109.966C10.9857 109.615 11.4109 109.404 11.8362 109.193C12.2614 108.982 12.7575 108.912 13.3245 108.912C13.8915 108.912 14.4585 109.053 14.8838 109.264C15.309 109.474 15.6634 109.826 15.9469 110.177C16.2304 110.529 16.443 111.021 16.5847 111.512C16.7265 112.004 16.7265 112.496 16.7265 113.059H11.6236C11.6944 113.691 11.8362 114.113 12.1905 114.394ZM14.3168 110.739C14.1041 110.458 13.7498 110.388 13.2537 110.388C12.9702 110.388 12.6867 110.458 12.474 110.529C12.2614 110.599 12.1197 110.739 11.9779 110.88C11.8362 111.021 11.7653 111.161 11.6944 111.372C11.6236 111.512 11.6236 111.723 11.6236 111.864H14.742C14.742 111.372 14.6003 111.021 14.3168 110.739Z" fill="#002154"/>
<path d="M19.2066 109.123V110.388C19.2774 110.177 19.4192 109.966 19.5609 109.755C19.7027 109.545 19.9153 109.404 20.057 109.263C20.2697 109.123 20.4823 109.053 20.6949 108.982C20.9075 108.912 21.191 108.842 21.4036 108.842C21.5454 108.842 21.6871 108.842 21.8289 108.912V110.669C21.758 110.669 21.6163 110.669 21.4745 110.599C21.3328 110.599 21.191 110.599 21.1202 110.599C20.7658 110.599 20.4823 110.669 20.1988 110.739C19.9862 110.88 19.7735 111.02 19.6318 111.231C19.4901 111.442 19.3483 111.653 19.2774 111.934C19.2066 112.215 19.2066 112.496 19.2066 112.777V115.94H17.293V108.982H19.2066V109.123Z" fill="#002154"/>
<path d="M27.0027 109.123V110.388H25.5852V113.831C25.5852 114.183 25.6561 114.393 25.727 114.464C25.8687 114.604 26.0814 114.604 26.3649 114.604C26.5066 114.604 26.5775 114.604 26.6483 114.604C26.7192 114.604 26.861 114.604 26.9318 114.534V116.01C26.7901 116.01 26.5775 116.08 26.3649 116.08C26.1522 116.08 25.9396 116.08 25.7979 116.08C25.5144 116.08 25.2309 116.08 24.9474 116.01C24.6639 115.94 24.4513 115.869 24.2386 115.799C24.026 115.658 23.8843 115.518 23.7425 115.307C23.6008 115.096 23.6008 114.815 23.6008 114.464V110.388H22.4668V109.123H23.6008V107.015H25.5852V109.123H27.0027Z" fill="#002154"/>
<path d="M27.9951 106.453H29.9087V107.999H27.9951V106.453ZM29.9087 116.081H27.9951V109.124H29.9087V116.081Z" fill="#002154"/>
<path d="M30.6885 110.389V109.124H31.8225V108.562C31.8225 107.929 32.0351 107.437 32.3894 107.016C32.8147 106.594 33.3817 106.453 34.1613 106.453C34.303 106.453 34.5156 106.453 34.6574 106.453C34.7991 106.453 35.0118 106.453 35.1535 106.453V107.859C34.9409 107.859 34.6574 107.789 34.4448 107.789C34.1613 107.789 34.0195 107.859 33.8778 107.999C33.736 108.14 33.736 108.351 33.736 108.632V109.054H35.0826V110.319H33.736V116.011H31.8225V110.319H30.6885V110.389Z" fill="#002154"/>
<path d="M36.0039 106.453H37.9175V107.999H36.0039V106.453ZM37.9884 116.081H36.0748V109.124H37.9884V116.081Z" fill="#002154"/>
<path d="M42.3117 110.387C42.0282 110.387 41.7447 110.457 41.5321 110.598C41.3194 110.739 41.1777 110.949 41.036 111.16C40.8942 111.371 40.8233 111.652 40.7525 111.863C40.6816 112.144 40.6816 112.425 40.6816 112.636C40.6816 112.917 40.6816 113.128 40.7525 113.409C40.8233 113.69 40.8942 113.901 41.036 114.112C41.1777 114.323 41.3194 114.464 41.5321 114.604C41.7447 114.745 42.0282 114.815 42.3117 114.815C42.8078 114.815 43.1622 114.674 43.3748 114.464C43.6583 114.182 43.8 113.831 43.8709 113.409H45.7136C45.5719 114.323 45.2175 115.026 44.6505 115.518C44.0835 116.01 43.3039 116.221 42.3826 116.221C41.8864 116.221 41.3903 116.15 40.9651 115.94C40.5398 115.799 40.1855 115.518 39.8311 115.237C39.5476 114.956 39.2641 114.534 39.1224 114.112C38.9806 113.69 38.8389 113.198 38.8389 112.707C38.8389 112.144 38.9097 111.652 39.0515 111.231C39.1932 110.739 39.4767 110.387 39.7602 110.036C40.0437 109.684 40.469 109.403 40.8942 109.263C41.3194 109.052 41.8156 108.981 42.3826 108.981C42.8078 108.981 43.233 109.052 43.5874 109.122C43.9418 109.263 44.2961 109.403 44.6505 109.614C44.934 109.825 45.2175 110.106 45.3593 110.457C45.5719 110.809 45.6427 111.16 45.7136 111.652H43.8C43.5874 110.809 43.0913 110.387 42.3117 110.387Z" fill="#002154"/>
<path d="M46.7057 110.176C46.9183 109.895 47.1309 109.614 47.4853 109.473C47.7688 109.263 48.1231 109.192 48.5484 109.122C48.9027 109.052 49.328 108.981 49.6823 108.981C50.0367 108.981 50.3911 108.981 50.7454 109.052C51.0998 109.122 51.4542 109.192 51.7377 109.333C52.0212 109.473 52.3047 109.684 52.4464 109.965C52.659 110.247 52.7299 110.528 52.7299 110.949V114.604C52.7299 114.885 52.7299 115.237 52.8008 115.518C52.8717 115.799 52.8717 116.01 53.0134 116.15H51.0289C50.9581 116.01 50.9581 115.94 50.9581 115.799C50.9581 115.658 50.8872 115.588 50.8872 115.448C50.6037 115.729 50.2493 116.01 49.8241 116.08C49.3988 116.221 48.9736 116.291 48.5484 116.291C48.194 116.291 47.9105 116.221 47.627 116.15C47.3435 116.08 47.06 115.94 46.8474 115.799C46.6348 115.658 46.493 115.448 46.3513 115.166C46.2095 114.885 46.1387 114.604 46.1387 114.253C46.1387 113.831 46.2095 113.55 46.3513 113.269C46.493 112.988 46.7057 112.777 46.9183 112.636C47.1309 112.496 47.4144 112.355 47.6979 112.285C47.9814 112.215 48.2649 112.144 48.5484 112.074C48.8319 112.004 49.1154 112.004 49.3989 111.933C49.6823 111.933 49.895 111.863 50.1785 111.793C50.3911 111.723 50.5328 111.652 50.6746 111.582C50.8163 111.512 50.8872 111.301 50.8163 111.16C50.8163 110.949 50.8163 110.809 50.7454 110.668C50.6746 110.528 50.6037 110.457 50.462 110.387C50.3202 110.317 50.2493 110.247 50.0367 110.247C49.895 110.247 49.7532 110.247 49.5406 110.247C49.1862 110.247 48.8319 110.317 48.6192 110.457C48.4066 110.598 48.2649 110.879 48.2649 111.301H46.3513C46.4222 110.809 46.493 110.457 46.7057 110.176ZM50.5328 112.847C50.3911 112.917 50.2493 112.917 50.1076 112.917C49.9658 112.917 49.8241 112.988 49.6823 112.988C49.5406 112.988 49.3989 113.058 49.1862 113.058C49.0445 113.058 48.9027 113.128 48.761 113.199C48.6192 113.269 48.4775 113.339 48.4066 113.409C48.3357 113.48 48.194 113.55 48.1231 113.69C48.0523 113.831 48.0523 113.972 48.0523 114.112C48.0523 114.253 48.0523 114.393 48.1231 114.534C48.194 114.674 48.2649 114.745 48.4066 114.815C48.5484 114.885 48.6192 114.956 48.761 114.956C48.9027 114.956 49.0445 115.026 49.1862 115.026C49.5406 115.026 49.895 114.956 50.0367 114.815C50.2493 114.674 50.3911 114.534 50.5328 114.393C50.6037 114.253 50.6746 114.042 50.7454 113.831C50.7454 113.62 50.7454 113.48 50.7454 113.409V112.707C50.7454 112.777 50.6746 112.847 50.5328 112.847Z" fill="#002154"/>
<path d="M58.6833 115.236C58.4707 115.588 58.1872 115.869 57.7619 116.08C57.4076 116.22 56.9823 116.361 56.4862 116.361C55.9901 116.361 55.494 116.291 55.0687 116.08C54.6435 115.869 54.36 115.588 54.0765 115.236C53.793 114.885 53.6512 114.463 53.5095 114.042C53.3678 113.62 53.2969 113.128 53.2969 112.636C53.2969 112.144 53.3678 111.723 53.5095 111.301C53.6512 110.88 53.8639 110.458 54.0765 110.177C54.36 109.825 54.6435 109.544 55.0687 109.404C55.4231 109.193 55.9192 109.123 56.4153 109.123C56.8406 109.123 57.1949 109.193 57.6202 109.404C57.9746 109.544 58.2581 109.825 58.5415 110.177V106.663H60.4551V116.291H58.6124L58.6833 115.236ZM58.6124 111.793C58.5415 111.512 58.4707 111.301 58.3289 111.09C58.1872 110.88 58.0454 110.739 57.8328 110.598C57.6202 110.458 57.3367 110.388 57.0532 110.388C56.7697 110.388 56.4862 110.458 56.2736 110.598C56.061 110.739 55.8483 110.88 55.7775 111.09C55.6357 111.301 55.5648 111.512 55.494 111.793C55.4231 112.074 55.4231 112.355 55.4231 112.636C55.4231 112.917 55.4231 113.199 55.494 113.409C55.5648 113.69 55.6357 113.901 55.7775 114.112C55.9192 114.323 56.061 114.463 56.2736 114.604C56.4862 114.745 56.7697 114.815 57.0532 114.815C57.3367 114.815 57.6202 114.745 57.8328 114.604C58.0454 114.463 58.1872 114.323 58.3289 114.112C58.4707 113.901 58.5415 113.69 58.6124 113.409C58.6833 113.128 58.6833 112.847 58.6833 112.566C58.6833 112.285 58.6833 112.004 58.6124 111.793Z" fill="#002154"/>
<path d="M62.0147 110.176C62.2274 109.895 62.44 109.614 62.7944 109.473C63.0779 109.263 63.4322 109.192 63.8575 109.122C64.2118 109.052 64.6371 108.981 64.9915 108.981C65.3458 108.981 65.7002 108.981 66.0546 109.052C66.4089 109.122 66.7633 109.192 67.0468 109.333C67.3303 109.473 67.6138 109.684 67.7555 109.965C67.9682 110.247 68.039 110.528 68.039 110.949V114.604C68.039 114.885 68.039 115.237 68.1099 115.518C68.1808 115.799 68.1808 116.01 68.3225 116.15H66.3381C66.2672 116.01 66.2672 115.94 66.2672 115.799C66.2672 115.658 66.1963 115.588 66.1963 115.448C65.9128 115.729 65.5585 116.01 65.1332 116.08C64.708 116.221 64.2827 116.291 63.8575 116.291C63.5031 116.291 63.2196 116.221 62.9361 116.15C62.6526 116.08 62.3691 115.94 62.1565 115.799C61.9439 115.658 61.8021 115.448 61.6604 115.166C61.5186 114.885 61.4478 114.604 61.4478 114.253C61.4478 113.831 61.5186 113.55 61.6604 113.269C61.8021 112.988 62.0147 112.777 62.2274 112.636C62.44 112.496 62.7235 112.355 63.007 112.285C63.2905 112.215 63.574 112.144 63.8575 112.074C64.141 112.004 64.4245 112.004 64.708 111.933C64.9915 111.933 65.2041 111.863 65.4876 111.793C65.7002 111.723 65.8419 111.652 65.9837 111.582C66.1254 111.512 66.1963 111.301 66.1254 111.16C66.1254 110.949 66.1254 110.809 66.0546 110.668C65.9837 110.528 65.9128 110.457 65.7711 110.387C65.6293 110.317 65.5584 110.247 65.3458 110.247C65.2041 110.247 65.0623 110.247 64.8497 110.247C64.4953 110.247 64.141 110.317 63.9283 110.457C63.7157 110.598 63.574 110.879 63.574 111.301H61.6604C61.6604 110.809 61.8021 110.457 62.0147 110.176ZM65.8419 112.847C65.7002 112.917 65.5584 112.917 65.4167 112.917C65.275 112.917 65.1332 112.988 64.9915 112.988C64.8497 112.988 64.708 113.058 64.4953 113.058C64.3536 113.058 64.2118 113.128 64.0701 113.199C63.9283 113.269 63.7866 113.339 63.7157 113.409C63.6449 113.48 63.5031 113.55 63.4322 113.69C63.3614 113.831 63.3614 113.972 63.3614 114.112C63.3614 114.253 63.3614 114.393 63.4322 114.534C63.5031 114.674 63.574 114.745 63.7157 114.815C63.8575 114.885 63.9283 114.956 64.0701 114.956C64.2118 114.956 64.3536 115.026 64.4953 115.026C64.8497 115.026 65.2041 114.956 65.3458 114.815C65.5584 114.674 65.7002 114.534 65.8419 114.393C65.9128 114.253 65.9837 114.042 66.0546 113.831C66.0546 113.62 66.0546 113.48 66.0546 113.409V112.707C66.0546 112.777 65.9128 112.847 65.8419 112.847Z" fill="#002154"/>
</svg>
