<svg width="188" height="188" viewBox="0 0 188 188" fill="none" xmlns="http://www.w3.org/2000/svg">
<path d="M104.44 153.34L24.6437 73.5432C21.4925 70.3919 21.4925 65.2829 24.6437 62.1317L72.4495 14.3263C75.6008 11.1751 80.7098 11.1751 83.861 14.3263L163.657 94.1227C166.809 97.2739 166.809 102.383 163.657 105.534L115.851 153.34L116.205 153.693L115.851 153.34C112.7 156.491 107.591 156.491 104.44 153.34Z" fill="#CEDBF1" stroke="#324AB1"/>
<path d="M55.3682 31.4004L67.9804 18.7882L159.174 109.982L146.562 122.594L55.3682 31.4004Z" fill="#92B0F5" stroke="#324AB1"/>
<path d="M50.306 64.5495C47.73 61.9735 47.73 57.797 50.306 55.221C52.882 52.6451 57.0585 52.6451 59.6345 55.221L91.0282 86.6148C93.6042 89.1908 93.6042 93.3673 91.0282 95.9433C88.4523 98.5193 84.2758 98.5193 81.6998 95.9433L50.306 64.5495Z" fill="white" stroke="#324AB1"/>
<path d="M177.123 148.154C177.025 149.165 176.288 149.647 175.404 150.033C173.341 150.9 171.278 151.815 169.165 152.683C168.232 153.068 167.642 153.598 167.299 154.514C166.414 157.019 165.481 159.476 164.499 161.934C164.253 162.56 164.056 163.476 163.172 163.476C162.19 163.476 161.895 162.656 161.6 161.934C160.716 159.621 159.783 157.356 159.046 154.995C158.653 153.791 157.965 153.068 156.835 152.586C154.625 151.671 152.463 150.707 150.302 149.744C149.614 149.455 149.024 149.069 149.024 148.202C149.024 147.286 149.663 146.949 150.351 146.66C152.66 145.648 154.919 144.636 157.228 143.673C158.161 143.287 158.653 142.661 158.997 141.745C159.783 139.433 160.667 137.12 161.551 134.807C161.797 133.988 162.091 132.928 163.221 132.976C164.253 133.024 164.4 134.084 164.695 134.855C165.579 137.216 166.513 139.577 167.348 141.938C167.692 142.854 168.281 143.384 169.214 143.769C171.327 144.588 173.341 145.504 175.453 146.419C176.239 146.756 176.927 147.19 177.123 148.154Z" fill="#FFD680"/>
<g filter="url(#filter0_f_3596:119968)">
<ellipse cx="109.98" cy="165.189" rx="30.08" ry="2.79085" fill="#CEDBF1"/>
</g>
<path d="M37.8265 21.2488C37.8684 21.9208 37.3653 22.1308 36.9042 22.3408C35.6885 22.8868 34.4728 23.5168 33.2152 23.9788C32.4607 24.2728 32.0415 24.7348 31.7899 25.4908C31.3288 26.9607 30.7838 28.4307 30.197 29.9007C30.0293 30.3627 29.8616 30.9507 29.1909 30.9507C28.604 30.9507 28.5201 30.4047 28.3525 29.9847C28.1848 29.4807 27.8494 29.0187 27.8075 28.5147C27.3464 25.1128 25.1246 23.4328 22.1063 22.5088C21.4775 22.2988 20.723 22.1728 20.6391 21.3328C20.5553 20.3248 21.4775 20.2408 22.0644 19.9048C22.2321 19.7788 22.4417 19.6948 22.6094 19.6528C25.8372 18.8968 27.2625 16.5868 27.9752 13.5209C28.1429 12.7229 28.2686 11.4629 29.3166 11.4629C30.4066 11.4629 30.4485 12.7229 30.6162 13.5209C31.2869 16.8388 33.0895 18.9808 36.4431 19.8208C37.4492 20.0728 37.8265 20.6188 37.8265 21.2488Z" fill="#FFD680"/>
<defs>
<filter id="filter0_f_3596:119968" x="75.9004" y="158.398" width="68.1602" height="13.582" filterUnits="userSpaceOnUse" color-interpolation-filters="sRGB">
<feFlood flood-opacity="0" result="BackgroundImageFix"/>
<feBlend mode="normal" in="SourceGraphic" in2="BackgroundImageFix" result="shape"/>
<feGaussianBlur stdDeviation="2" result="effect1_foregroundBlur_3596:119968"/>
</filter>
</defs>
</svg>
