<svg width="154" height="132" viewBox="0 0 154 132" fill="none" xmlns="http://www.w3.org/2000/svg">
<path d="M100.723 132C71.2983 132 47.4453 108.106 47.4453 78.6316C47.4453 49.1571 71.2983 25.2633 100.723 25.2633C130.147 25.2633 154 49.1571 154 78.6316C154 108.106 130.147 132 100.723 132Z" fill="white"/>
<mask id="mask0_7589_43329" style="mask-type:alpha" maskUnits="userSpaceOnUse" x="0" y="0" width="154" height="132">
<path d="M1.52588e-05 76.5788C1.52588e-05 93.4419 56.7451 114.473 67.4637 120.316C76.5744 127.61 88.1441 132 100.723 132C130.136 132 154 108.095 154 78.6314C154 49.1683 135.495 0 106.082 0C76.669 0 1.52588e-05 47.1157 1.52588e-05 76.5788Z" fill="white"/>
</mask>
<g mask="url(#mask0_7589_43329)">
<path fill-rule="evenodd" clip-rule="evenodd" d="M117.557 143.558L116.926 89.305C116.453 82.3892 114.656 67.4524 111.315 62.8103C109.707 61.7366 104.757 60.1261 97.6958 62.1787C94.5433 65.4945 87.4502 75.9787 84.2346 91.3892V91.4208C78.4025 97.6418 72.5704 99.4102 70.269 99.5365C62.4508 98.905 54.1912 86.6523 51.0387 80.5892C48.3276 76.8945 41.7388 80.5892 39.6582 83.6524C39.5951 83.7155 39.5636 83.8102 39.5006 83.8734C37.546 86.7155 37.1362 87.3155 44.7968 99.2208C52.6465 111.41 60.3386 115.61 64.6576 117.031C68.9765 118.484 74.588 117.031 79.5689 115.105C80.4516 114.758 81.3343 114.347 82.154 113.873L80.893 143.589H117.557V143.558Z" fill="#FF9100"/>
<path d="M103.875 10.895C103.875 10.895 94.2602 10.7055 86.9149 27.8528C79.5695 45.0002 97.791 52.0423 97.791 52.0423L97.5388 62.9686C97.5388 62.9686 100.439 64.4212 105.231 64.4212C107.784 64.4212 111.378 63.8212 111.631 63.2844C111.631 63.2844 110.37 60.2844 111.41 52.8317C111.41 52.8317 115.319 51.9791 117.936 50.0212C117.936 50.0212 110.969 46.1686 109.644 38.4002C109.644 38.4002 114.752 37.4528 113.648 32.6844C113.648 32.6844 111.599 28.5476 107.564 31.0739C107.564 31.0739 104.348 26.0529 109.676 21.2213C109.676 21.1897 104.443 15.0318 103.875 10.895Z" fill="white"/>
<path d="M42.0862 67.9583C46.4367 72.853 47.54 77.4951 47.54 79.2004C43.8201 79.2004 39.911 82.8319 38.3978 84.6635C36.7269 82.4846 31.9351 78.6319 29.7284 76.9583C19.861 71.432 17.9065 66.1899 18.1902 64.2635L38.8706 72.7583C37.7357 70.0741 35.8127 64.5793 37.1052 63.9162C38.3978 63.2846 40.9513 66.3478 42.0862 67.9583Z" fill="white"/>
<path d="M46.1525 74.7788C46.2471 74.7788 46.3732 74.7472 46.4363 74.684C46.8146 74.3682 47.0983 73.9893 47.2875 73.5156C47.918 71.9998 47.1929 70.2314 45.6481 69.5998L43.0631 68.5261C42.8109 68.4314 42.5587 68.5577 42.4641 68.7788C42.3695 69.0314 42.4956 69.284 42.7163 69.3788L45.3014 70.4525C46.3417 70.8946 46.8461 72.0946 46.4363 73.1367C46.3102 73.4525 46.121 73.7051 45.8688 73.9261C45.6797 74.084 45.6481 74.3998 45.8058 74.5893C45.9003 74.7156 46.0264 74.7788 46.1525 74.7788ZM38.9964 73.2946C39.1855 73.2946 39.3431 73.1998 39.4377 73.0104C39.5323 72.7577 39.4062 72.5051 39.1855 72.4104L11.4434 61.0104C10.939 60.7893 10.5292 60.4104 10.3085 59.9051C10.0879 59.3998 10.0879 58.8314 10.3085 58.3262C10.5292 57.8209 10.9075 57.4104 11.4119 57.1893C11.9163 56.9683 12.4838 56.9683 12.9882 57.1893L36.4113 66.8209C36.6635 66.9156 36.9157 66.7893 37.0103 66.5683C37.1049 66.3156 36.9788 66.063 36.7581 65.9683L13.3349 56.3367C12.5783 56.0209 11.7902 56.0209 11.0336 56.3367C10.277 56.6525 9.74109 57.2209 9.42584 57.9788C9.11059 58.7051 9.11059 59.5262 9.42584 60.2841C9.74109 61.0104 10.3085 61.5788 11.0651 61.8946L38.8072 73.2946C38.9018 73.2946 38.9333 73.2946 38.9964 73.2946Z" fill="#002154"/>
<path d="M96.0563 14.242C96.0563 14.242 91.895 8.33672 97.9478 4.38936C97.9478 4.38936 100.943 2.30515 104.663 5.33673C104.663 5.33673 108.162 0.820948 112.481 2.77884C116.8 4.73673 120.961 14.1788 120.961 14.1788C120.961 14.1788 127.518 18.3157 129 25.7051C129 25.7051 132.941 19.6735 133.414 24.2209C133.414 24.2209 134.202 27.9472 129.599 28.3577C129.599 28.3577 131.049 41.9367 117.84 50.084C117.84 50.084 110.968 46.0103 109.549 38.463C109.549 38.463 114.183 37.8946 113.868 33.5998C113.553 29.3051 108.635 29.7472 107.5 31.1367C107.5 31.1367 104.158 26.3683 109.612 21.2841C109.612 21.2841 104.316 15.1578 103.78 11.0209C103.875 10.8946 100.785 10.6736 96.0563 14.242Z" fill="#E3E3E3"/>
<path d="M95.0162 25.453C95.4891 25.7056 96.2457 25.2635 96.6871 24.4109C97.16 23.5898 97.1284 22.7056 96.6556 22.453C96.1827 22.2003 95.4261 22.6424 94.9847 23.4951C94.5434 24.2846 94.5434 25.1688 95.0162 25.453Z" fill="#002154"/>
<path d="M86.7256 30.0318L93.6611 31.5792C93.6611 31.5792 92.0218 38.4949 86.4734 39.0002C86.5049 38.9686 85.0863 35.116 86.7256 30.0318Z" fill="white"/>
<path d="M86.5349 39.3792C88.6471 39.3792 90.6017 38.0529 92.2094 35.5266C93.4389 33.6319 94.0064 31.7372 94.0379 31.6424C94.0694 31.5477 94.0694 31.4529 94.0064 31.3582C93.9433 31.2635 93.8803 31.2003 93.7857 31.2003L86.6925 29.5898C86.5034 29.5582 86.3142 29.6529 86.2827 29.8424C86.2512 30.0319 86.3458 30.2214 86.5349 30.2529L93.2498 31.7687C92.7138 33.2529 90.444 38.7477 86.4403 38.6214C86.2512 38.6214 86.0936 38.7792 86.0936 38.9687C86.0936 39.1582 86.2512 39.3161 86.4403 39.3161C86.4403 39.3792 86.5034 39.3792 86.5349 39.3792Z" fill="#002154"/>
<path d="M109.677 38.7785C111.253 38.7785 112.829 37.8943 113.68 36.3469C114.279 35.2732 114.437 34.0417 114.153 32.9048C113.87 31.7364 113.113 30.789 112.104 30.2206C110.528 29.3364 108.479 29.589 107.06 30.8522C106.871 31.0101 106.839 31.3259 107.029 31.5153C107.186 31.7048 107.501 31.7364 107.691 31.5469C108.826 30.5364 110.402 30.3469 111.663 31.0101C112.482 31.4522 113.05 32.2101 113.271 33.1259C113.491 34.0417 113.365 35.0206 112.892 35.8732C111.915 37.6417 109.771 38.3364 108.132 37.4206C107.911 37.2943 107.628 37.389 107.501 37.6101C107.375 37.8311 107.47 38.1153 107.691 38.2417C108.29 38.6206 108.983 38.7785 109.677 38.7785Z" fill="#002154"/>
<path d="M107.374 31.674C107.437 31.674 107.532 31.6424 107.595 31.6108C107.815 31.4845 107.91 31.2003 107.784 30.9792C104.884 25.295 109.865 21.7898 110.085 21.6635C110.211 21.6003 110.274 21.474 110.274 21.3477C110.274 21.2214 110.243 21.095 110.148 20.9687C110.117 20.9056 105.451 15.7266 104.348 10.8003C104.285 10.5477 104.032 10.3898 103.78 10.453C103.528 10.5161 103.37 10.7687 103.433 11.0214C104.442 15.4424 108.036 19.9266 109.14 21.2214C107.847 22.295 104.19 26.0213 106.933 31.4213C107.027 31.5792 107.216 31.674 107.374 31.674Z" fill="#002154"/>
<path d="M96.1498 14.4633C96.2444 14.4633 96.339 14.4318 96.402 14.3686C96.6227 14.2107 96.6542 13.9265 96.5281 13.737C96.5281 13.737 95.8661 12.7581 95.5193 11.4002C95.078 9.63176 95.3302 8.05282 96.3074 6.69492C97.4108 5.17914 98.6718 4.32651 100.059 4.16861C102.329 3.91598 104.22 5.58966 104.252 5.58966C104.441 5.74756 104.725 5.74756 104.914 5.55808C105.071 5.36861 105.071 5.0844 104.882 4.89493C104.788 4.80019 102.675 2.96861 99.9959 3.25282C98.325 3.4423 96.8434 4.38966 95.5824 6.1265C92.8397 9.88439 95.74 14.2107 95.7715 14.2423C95.8346 14.3686 95.9922 14.4633 96.1498 14.4633Z" fill="#002154"/>
<path d="M111.221 53.3688C111.252 53.3688 111.284 53.3688 111.315 53.3688C117.368 51.9793 122.633 48.3162 126.163 43.0741C128.78 39.1583 130.262 33.6952 130.104 28.6741C131.46 28.611 132.595 27.9794 133.288 26.8741C134.076 25.5794 134.108 23.8425 133.351 22.5794C133.099 22.1689 132.721 21.9478 132.311 21.9478C131.207 21.9794 129.978 23.5899 129.253 24.632C127.834 20.1162 124.997 16.2004 121.403 13.832C120.899 13.011 120.394 12.0952 119.89 11.1478C117.652 7.1373 115.13 2.58994 111.504 1.83205C109.707 1.4531 107.753 2.0531 105.735 3.60047C105.136 4.04257 104.663 4.57941 104.348 5.02152C104.19 5.21099 104.222 5.52678 104.411 5.68467C104.6 5.84257 104.916 5.81099 105.073 5.62152C105.388 5.24257 105.798 4.73731 106.303 4.35836C108.131 2.96889 109.77 2.43205 111.347 2.77942C114.562 3.44257 116.99 7.80046 119.102 11.6215C119.638 12.6005 120.174 13.5478 120.71 14.4004C120.741 14.4636 120.804 14.5268 120.867 14.5583C124.587 16.9899 127.456 21.1268 128.717 25.8952C128.78 26.0846 128.906 26.211 129.095 26.2425C129.284 26.2741 129.474 26.1794 129.568 26.0215C130.388 24.5689 131.743 22.9268 132.374 22.8952C132.405 22.8952 132.5 22.8952 132.595 23.0531C133.162 24.0004 133.13 25.3899 132.531 26.3689C131.932 27.3162 130.955 27.7899 129.694 27.6952C129.568 27.6952 129.442 27.7267 129.347 27.8215C129.253 27.9162 129.19 28.0425 129.221 28.1688C129.505 33.1267 128.086 38.5899 125.501 42.4741C122.097 47.5267 117.021 51.0635 111.221 52.3899C110.968 52.453 110.811 52.7057 110.874 52.9583C110.842 53.2109 111.031 53.3688 111.221 53.3688Z" fill="#002154"/>
<path d="M97.6955 62.6208C97.9477 62.6208 98.1684 62.4314 98.1684 62.1787L98.3575 51.9787C98.3575 51.7893 98.2314 51.5998 98.0738 51.5366C97.9162 51.4735 97.7901 51.4103 97.6324 51.3472C97.4748 51.2524 97.2857 51.1893 97.128 51.1261C91.8633 48.8208 88.3325 45.0945 86.8824 40.4209C85.2431 35.084 86.378 28.4525 89.9718 22.7051C94.6375 15.1893 98.6728 11.8735 103.811 11.2735C104.064 11.242 104.253 11.0209 104.221 10.7683C104.19 10.5156 103.969 10.3262 103.717 10.3578C98.2314 10.9893 94.0386 14.4314 89.1837 22.2314C85.4007 28.2946 84.2343 35.0209 85.9997 40.7051C87.5129 45.663 91.2644 49.5787 96.7813 52.0103C96.9389 52.0735 97.0965 52.1366 97.2541 52.1998C97.3172 52.2314 97.3802 52.263 97.4433 52.2945L97.2541 62.1787C97.2226 62.4314 97.4433 62.6208 97.6955 62.6208Z" fill="#002154"/>
<path d="M117.872 50.3678C118.029 50.3678 118.187 50.273 118.282 50.1467C118.408 49.9257 118.345 49.6415 118.093 49.5152C111.535 45.7888 110.054 38.5257 110.022 38.4625C109.959 38.2099 109.738 38.052 109.486 38.0836C109.234 38.1468 109.076 38.3678 109.108 38.6204C109.171 38.9362 110.716 46.3573 117.62 50.3046C117.714 50.3362 117.777 50.3678 117.872 50.3678Z" fill="#002154"/>
<path d="M111.693 63.9162C111.724 63.9162 111.756 63.9162 111.819 63.9162C112.071 63.853 112.229 63.6004 112.166 63.3478C111.535 60.7899 111.63 53.1162 111.63 53.0215C111.63 52.7688 111.441 52.5478 111.189 52.5478C110.936 52.5478 110.716 52.7373 110.716 52.9899C110.716 53.3057 110.59 60.853 111.283 63.5372C111.315 63.7899 111.504 63.9162 111.693 63.9162Z" fill="#002154"/>
<path d="M102.299 16.5474C102.519 16.6106 102.74 16.2632 102.645 16.0106C102.362 15.158 101.889 14.0527 101.132 14.8106C100.659 15.3159 101.479 16.358 102.299 16.5474Z" fill="#002154"/>
<path d="M117.526 143.874C117.778 143.874 117.999 143.653 117.999 143.4C117.841 131.179 117.621 109.611 117.495 94.453C117.305 75.4741 112.293 63.5688 112.261 63.4425C112.167 63.2215 111.883 63.0952 111.662 63.1899C111.442 63.2846 111.316 63.5689 111.41 63.7899C111.473 63.9162 116.423 75.6636 116.58 94.4214C116.706 109.579 116.927 131.148 117.085 143.369C117.053 143.653 117.274 143.874 117.526 143.874Z" fill="#002154"/>
<path d="M80.8625 143.874C81.1147 143.874 81.3039 143.684 81.3354 143.431C81.7137 130.989 82.3442 118.579 82.6279 113.747C82.6279 113.495 82.4388 113.274 82.1866 113.242C81.9344 113.21 81.7137 113.432 81.6822 113.684C81.3985 118.516 80.7679 130.958 80.3896 143.4C80.3896 143.653 80.6103 143.874 80.8625 143.874Z" fill="#002154"/>
<path d="M68.3466 118.074C68.5673 118.074 68.788 118.074 69.0086 118.074C76.5116 117.726 84.3929 114.031 92.4633 107.021C99.6825 100.768 105.01 93.6631 107.564 90C107.721 89.7789 107.658 89.4947 107.438 89.3684C107.217 89.2105 106.933 89.2736 106.807 89.4947C104.285 93.1263 99.0205 100.168 91.8643 106.358C83.9515 113.21 76.2594 116.842 68.9771 117.189C52.5526 117.916 39.0914 89.2105 38.9337 88.8947C38.9337 88.8631 38.9022 88.8315 38.9022 88.8C38.8707 88.7684 38.2087 87.821 38.4924 86.3684C38.7761 84.7579 40.0371 83.2105 42.2754 81.6947C44.8289 79.9895 47.0357 79.2631 48.7065 79.6421C50.0306 79.9579 50.535 80.8105 50.5665 80.8421C50.8502 81.4421 58.2271 95.9999 67.5585 99.6631C77.0791 103.389 94.008 81.0947 94.7016 80.1473C94.8592 79.9579 94.8277 79.6421 94.607 79.4842C94.4179 79.3263 94.1026 79.3579 93.945 79.5789C93.7874 79.8 76.7323 102.253 67.8737 98.7789C63.1765 96.9473 58.9521 92.0526 56.2095 88.2631C53.2461 84.1579 51.3546 80.4316 51.3546 80.4C51.3231 80.3368 50.6295 79.1368 48.9272 78.7263C46.9726 78.2526 44.5452 78.9789 41.7395 80.9052C39.2805 82.5473 37.8934 84.3473 37.5782 86.2105C37.2944 87.8842 37.988 89.0526 38.1456 89.2736C38.3978 89.8421 41.8025 96.9473 47.0672 103.895C54.0973 113.179 61.4426 118.074 68.3466 118.074Z" fill="#002154"/>
<path d="M84.1403 91.7367C84.3294 91.7367 84.5186 91.6104 84.5816 91.3893C87.6396 79.9578 91.1389 72.7578 93.5348 68.7473C96.1198 64.3894 98.0113 62.7157 98.0113 62.7157C98.2005 62.5578 98.232 62.242 98.0428 62.0526C97.8852 61.8631 97.57 61.8315 97.3808 62.021C97.0656 62.3052 89.6256 68.9683 83.6674 91.1683C83.6044 91.4209 83.762 91.6736 83.9827 91.7367C84.0457 91.7051 84.0772 91.7367 84.1403 91.7367Z" fill="#002154"/>
<path d="M105.548 64.7684C108.448 64.7684 110.749 64.2315 111.947 63.7263C112.105 63.6631 112.2 63.4736 112.137 63.3158C112.073 63.1579 111.884 63.0631 111.727 63.1263C109.614 64.0105 103.877 65.021 97.3828 62.6526C97.2251 62.5894 97.036 62.6842 96.9729 62.8421C96.9099 63 97.0045 63.1894 97.1621 63.2526C100.157 64.3894 103.089 64.7684 105.548 64.7684Z" fill="#002154"/>
<path d="M47.4137 79.5164C47.6028 79.5164 47.792 79.3901 47.855 79.169C47.8865 79.0427 48.6116 76.0112 43.0632 68.5585C40.4151 64.9901 38.5551 63.2849 37.3572 63.3796C36.9473 63.4112 36.7582 63.6322 36.6636 63.7585C36.3484 64.1375 35.0558 66.2217 38.7127 73.2322C38.8388 73.4533 39.1226 73.548 39.3432 73.4217C39.5639 73.2954 39.6585 73.0112 39.5324 72.7901C36.0646 66.0638 37.3256 64.3585 37.3572 64.3585C37.3887 64.327 37.3887 64.327 37.4202 64.2954C37.5463 64.2638 38.6812 64.1691 42.3381 69.0954C47.5398 76.0743 46.9723 78.9164 46.9723 78.9164C46.9093 79.169 47.0669 79.4217 47.3191 79.4848C47.3506 79.5164 47.3821 79.5164 47.4137 79.5164Z" fill="#002154"/>
<path d="M38.6806 85.0107C38.8067 85.0107 38.9328 84.9791 38.9958 84.8844C39.185 84.6949 39.185 84.4107 38.9958 84.2212C38.9643 84.1896 34.3932 79.6423 30.8939 77.2107C30.4525 76.8949 29.822 76.516 29.0654 76.0739C25.5031 73.9265 18.8828 69.8844 18.6306 64.6423C18.6306 64.3897 18.41 64.2002 18.1578 64.2002C17.9056 64.2002 17.7164 64.4212 17.7164 64.6739C18.0001 70.4212 24.9041 74.5896 28.6241 76.8633C29.3492 77.3054 29.9797 77.6844 30.3895 77.9686C33.8257 80.3686 38.3023 84.8212 38.3653 84.8844C38.4599 84.9475 38.5545 85.0107 38.6806 85.0107Z" fill="#002154"/>
</g>
<path d="M13.0834 41.7473C9.26888 38.2105 6.71535 33.5053 5.80112 28.3579C4.88689 23.2105 5.70655 17.9369 8.07093 13.2948C10.4353 8.65267 14.2814 4.92636 18.9786 2.65268C23.6758 0.410578 28.9721 -0.252579 34.0791 0.789524C39.1862 1.83163 43.7888 4.54741 47.2251 8.46319C50.6613 12.379 52.7104 17.3369 53.0572 22.5474C53.404 27.7579 52.0799 32.9368 49.2112 37.2947C46.3424 41.6526 42.1495 44.9684 37.2632 46.7052C36.9479 48 35.9706 51.7894 35.876 51.6947C35.7815 51.6315 33.2595 48.7263 32.5029 47.8421C29.0036 48.3158 25.4728 48.0315 22.0996 46.9579C18.7579 45.9158 15.6685 44.1473 13.0834 41.7473Z" fill="white"/>
<path d="M29.2229 36.126C43.756 26.6208 42.6841 16.9261 37.5455 14.684C33.069 12.7261 29.6958 16.2313 29.6958 16.2313C29.6012 16.2313 29.5066 16.1682 29.4436 16.105C28.8446 15.505 25.8182 12.7577 21.783 14.3682C16.4868 16.4524 15.0681 26.1155 29.2229 36.126Z" fill="#FFA733"/>
</svg>
