<svg width="165" height="165" viewBox="0 0 165 165" fill="none" xmlns="http://www.w3.org/2000/svg">
<path d="M82.5 165C128.063 165 165 128.063 165 82.5C165 36.9365 128.063 0 82.5 0C36.9365 0 0 36.9365 0 82.5C0 128.063 36.9365 165 82.5 165Z" fill="#FFE7C7"/>
<mask id="mask0_7953_44157" style="mask-type:alpha" maskUnits="userSpaceOnUse" x="0" y="0" width="165" height="165">
<path d="M82.5 165C128.063 165 165 128.063 165 82.5C165 36.9365 128.063 0 82.5 0C36.9365 0 0 36.9365 0 82.5C0 128.063 36.9365 165 82.5 165Z" fill="#FFE7DA"/>
</mask>
<g mask="url(#mask0_7953_44157)">
<path d="M132.179 185.896V82.4998C132.179 78.6122 129.039 75.4722 125.152 75.4722H39.8108C35.9232 75.4722 32.7832 78.6122 32.7832 82.4998V186.382L132.179 185.896Z" fill="#FFA733" stroke="#002154" stroke-width="2.24286" stroke-miterlimit="10"/>
<path d="M118.871 85.0044C118.871 84.7801 118.871 84.5558 118.909 84.3315H46.4644C46.4644 84.5558 46.5018 84.7801 46.5018 85.0044C46.5018 89.0416 43.6234 92.3685 39.8105 93.1161V177.523L125.114 177.56V93.0413C121.526 92.1442 118.871 88.892 118.871 85.0044Z" stroke="#002154" stroke-width="1.3831" stroke-miterlimit="10"/>
<path d="M54.502 107.919H68.6694" stroke="#002154" stroke-width="2.61667" stroke-miterlimit="10" stroke-linecap="round" stroke-linejoin="round"/>
<path d="M60.1094 134.272H106.125" stroke="#002154" stroke-width="2.61667" stroke-miterlimit="10" stroke-linecap="round" stroke-linejoin="round"/>
<path d="M95.6582 107.919H109.826" stroke="#002154" stroke-width="2.61667" stroke-miterlimit="10" stroke-linecap="round" stroke-linejoin="round"/>
<path d="M56.6323 54.5759C56.6323 55.0993 55.9594 55.3236 55.6604 54.9124C53.2306 51.8097 47.2123 43.4738 51.8101 41.9411C56.3706 40.4085 56.6697 50.6509 56.6323 54.5759Z" fill="white" stroke="#002154" stroke-width="1.3831" stroke-miterlimit="10"/>
<path d="M108.331 54.5759C108.331 55.0993 109.003 55.3236 109.302 54.9124C111.732 51.8097 117.751 43.4738 113.153 41.9411C108.63 40.4085 108.293 50.6509 108.331 54.5759Z" fill="white" stroke="#002154" stroke-width="1.3831" stroke-miterlimit="10"/>
<path d="M82.9857 49.6419C82.7988 50.1279 82.126 50.1279 81.9391 49.6419C80.6307 45.9038 77.6402 36.0726 82.4998 36.11C87.3219 36.1474 84.3314 45.9412 82.9857 49.6419Z" fill="white" stroke="#002154" stroke-width="1.3831" stroke-miterlimit="10"/>
</g>
</svg>
