<?xml version="1.0" encoding="UTF-8"?>
<svg width="392px" height="448px" viewBox="0 0 392 448" version="1.1" xmlns="http://www.w3.org/2000/svg" xmlns:xlink="http://www.w3.org/1999/xlink">
    <title>Group</title>
    <g id="Page-1" stroke="none" stroke-width="1" fill="none" fill-rule="evenodd">
        <g id="Group" transform="translate(1.000000, 0.000000)">
            <path d="M356.618,129.959 C368.619,118.924 376.656,104.288 379.5,88.288 C382.345,72.287 379.84,55.801 372.369,41.348 C364.899,26.8949 352.872,15.2694 338.128,8.2474 C323.383,1.2254 306.731,-0.807 290.714,2.4605 C274.698,5.7281 260.198,14.1161 249.43,26.3431 C238.662,38.57 232.218,53.964 231.081,70.173 C229.945,86.382 234.179,102.515 243.137,116.108 C252.095,129.701 265.284,140.006 280.689,145.449 C281.708,149.51 284.71,161.251 285.024,161.018 C285.337,160.784 293.248,151.741 295.611,149.004 C306.565,150.516 317.719,149.591 328.269,146.298 C338.82,143.004 348.502,137.423 356.618,129.959 Z" id="Path" fill="#FFE8C5" fill-rule="nonzero"></path>
            <path d="M50.5841,447 L52.5967,278 C54.1061,256.5 59.741,209.9 70.206,195.5 C75.238,192.167 90.835,187.1 112.973,193.5 C122.868,203.834 145.174,236.5 155.237,284.5 C155.241,284.526 155.244,284.552 155.248,284.578 C173.604,303.933 191.903,309.499 199.063,309.815 C223.616,307.815 249.545,269.648 259.44,250.815 C267.993,239.315 288.622,250.815 295.162,260.315 C295.328,260.555 295.49,260.79 295.649,261.019 C301.788,269.889 303.093,271.775 279.062,308.815 C254.408,346.815 230.258,359.815 216.673,364.315 C203.088,368.815 185.478,364.315 169.881,358.315 C167.088,357.241 164.376,355.974 161.799,354.492 L165.803,447 L50.5841,447 Z" id="Path" fill="#FFA528"></path>
            <path d="M93.592,33.8097362 C93.592,33.8097362 123.82,33.229 146.834,86.602 C169.848,139.975 112.655,161.952 112.655,161.952 L113.476,196 C113.476,196 104.42,200.5 89.326,200.5 C81.276,200.5 69.983,198.637 69.2,197 C69.2,197 73.114,187.609 69.885,164.465 C69.885,164.465 57.61,161.796 49.4232,155.728 C49.4232,155.728 71.309,143.719 75.452,119.5 C75.452,119.5 59.394,116.597 62.878,101.65 C62.878,101.65 69.307,88.717 81.992,96.606 C81.992,96.606 92.085,81.003 75.395,65.906 C75.395,65.906 91.78,46.685 93.592,33.8097362 Z" id="Path" fill="#FFFFFF" fill-rule="nonzero"></path>
            <path d="M287.562,211.5 C273.877,226.7 270.455,241.167 270.455,246.5 C282.128,246.5 294.438,257.833 299.134,263.5 C304.367,256.7 319.428,244.667 326.304,239.5 C357.297,222.3 363.368,206 362.53,200 L297.625,226.5 C301.147,218.167 307.185,201 303.159,199 C299.134,197 291.084,206.5 287.562,211.5 Z" id="Path" fill="#FFFFFF" fill-rule="nonzero"></path>
            <path d="M285.046,214.651 L276.9,217.976 C272.837,219.628 270.898,224.216 272.56,228.254 C273.063,229.476 273.837,230.505 274.784,231.3 M297.234,226.717 L384.29,191.182 C388.353,189.53 390.292,184.942 388.63,180.904 C386.968,176.867 382.351,174.939 378.288,176.591 L304.767,206.602" id="Shape" stroke="#002154" stroke-width="2.89" stroke-linecap="round" stroke-linejoin="round"></path>
            <path d="M118.158,44.256 C118.158,44.256 131.194,25.8824 112.21,13.5292 C112.21,13.5292 102.768,6.99384142 91.124,16.5193 C91.124,16.5193 80.134,2.419 66.593,8.5291 C53.0526,14.6393 40.0154,44.068 40.0154,44.068 C40.0154,44.068 19.398,56.866 14.7495,79.877 C14.7495,79.877 2.3325,61.116 0.8978,75.268 C0.8978,75.268 -1.6172,86.878 12.8785,88.164 C12.8785,88.164 8.3067,130.439 49.8176,155.841 C49.8176,155.841 71.352,143.2 75.847,119.613 C75.847,119.613 61.268,117.878 62.277,104.454 C63.286,91.03 78.699,92.473 82.26,96.789 C82.26,96.789 92.774,81.945 75.662,66.089 C75.662,66.089 92.314,47.051 93.929,34.12 C93.591,33.81 103.321,33.092 118.158,44.256 Z" id="Path" fill="#E3E3E3" fill-rule="nonzero"></path>
            <path d="M121.413,79.1 C119.937,79.91 117.577,78.471 116.141,75.887 C114.706,73.304 114.738,70.552 116.214,69.743 C117.69,68.933 120.05,70.371 121.486,72.955 C122.921,75.539 122.889,78.29 121.413,79.1 Z" id="Path" fill="#002154" fill-rule="nonzero"></path>
            <path d="M131.013,97.548 C131.013,97.548 138.147,105.032 148.982,101.582" id="Path" stroke="#002154" stroke-width="3.04056" stroke-linecap="round" stroke-linejoin="round"></path>
            <path d="M147.471,93.426 L125.745,98.252 C125.745,98.252 130.926,119.829 148.358,121.319 C148.161,121.263 152.611,109.251 147.471,93.426 Z" id="Path" fill="#FFFFFF" fill-rule="nonzero"></path>
            <path d="M147.853,93.216 L125.548,98.195 C125.548,98.195 132.898,121.883 148.428,121.446" id="Path" stroke="#002154" stroke-width="2.16669" stroke-linecap="round" stroke-linejoin="round"></path>
            <path d="M82.597,97.099 C78.681,93.638 73.05,92.767 68.47,95.281 C62.489,98.563 60.592,106.204 64.034,112.4 C67.477,118.596 75.123,121.001 80.976,117.789" id="Path" stroke="#002154" stroke-width="2.88892" stroke-linecap="round" stroke-linejoin="round"></path>
            <path d="M93.466,33.88 C89.824,49.738 74.887,66.185 74.887,66.185 C74.887,66.185 92.419,78.015 82.599,97.098" id="Path" stroke="#002154" stroke-width="2.88892" stroke-linecap="round" stroke-linejoin="round"></path>
            <path d="M91.436,16.1833 C91.436,16.1833 106.252,3.1036 118.519,19.8027 C126.65,30.8512 117.864,43.427 117.864,43.427" id="Path" stroke="#002154" stroke-width="2.88892" stroke-linecap="round" stroke-linejoin="round"></path>
            <path d="M70.479,164.636 C52.4188,160.52 35.9011,149.619 24.7486,133.133 C16.2262,120.484 11.9239,102.879 12.7965,87.715 C2.0931,88.473 -1.5487,77.437 2.3505,71.007 C5.2146,66.3 12.2616,76.294 14.4397,80.214 C17.8759,67.273 26.003,52.913 39.6922,44.082 C51.3329,24.9891 62.948,-5.8046 86.985,12.356 C88.662,13.5809 90.028,15.1417 91.125,16.5195" id="Path" stroke="#002154" stroke-width="2.88892" stroke-linecap="round" stroke-linejoin="round"></path>
            <path d="M93.973,33.601 C112.406,35.697 125.304,48.75 138.534,69.871 C157.401,99.943 157.955,141.88 115.327,160.486 C114.366,160.848 113.348,161.407 112.387,161.769 L112.973,193.5" id="Path" stroke="#002154" stroke-width="2.88892" stroke-linecap="round" stroke-linejoin="round"></path>
            <path d="M75.662,119.879 C75.662,119.879 71.027,143.213 49.6635,155.265" id="Path" stroke="#002154" stroke-width="2.88892" stroke-linecap="round" stroke-linejoin="round"></path>
            <path d="M70.689,165.015 C70.689,165.015 71.074,189.218 68.997,197.5" id="Path" stroke="#002154" stroke-width="2.88892" stroke-linecap="round" stroke-linejoin="round"></path>
            <path d="M98.544,51.389 C97.838,51.612 97.205,50.474 97.433,49.688 C98.301,47.067 99.849,43.578 102.158,45.941 C103.721,47.558 101.058,50.834 98.544,51.389 Z" id="Path" fill="#002154" fill-rule="nonzero"></path>
            <path d="M68.697,198 C68.697,198 52.8978,234.546 52.3438,294.009 C52.0298,327.707 51.3006,405.185 50.7277,446.5" id="Path" stroke="#002154" stroke-width="2.89" stroke-linecap="round" stroke-linejoin="round"></path>
            <path d="M161.778,354 C162.616,368.5 164.595,407.3 165.803,446.5" id="Path" stroke="#002154" stroke-width="2.89" stroke-linecap="round"></path>
            <path d="M123.628,248.678 C123.628,248.678 178.016,320.345 207.195,308.966 C236.375,297.587 259.829,250.972 259.829,250.972 C259.829,250.972 266.662,238.859 287.9,253.082 C307.106,265.929 298.796,277.216 298.796,277.216 C298.796,277.216 256.32,368.52 203.132,366.135 C149.945,363.749 102.298,306.672 83.276,279.327" id="Path" stroke="#002154" stroke-width="2.89" stroke-linecap="round" stroke-linejoin="round"></path>
            <path d="M112.973,194 C112.973,194 136.741,214.542 155.579,284.098" id="Path" stroke="#002154" stroke-width="2.89" stroke-linecap="round" stroke-linejoin="round"></path>
            <path d="M68.697,197.5 C75.238,200.167 93.552,203.6 114.483,196" id="Path" stroke="#002154" stroke-width="2" stroke-linecap="round"></path>
            <path d="M270.819,246.108 C270.819,246.108 268.418,237.207 285.593,214.266 C300.644,194.078 303.414,199.309 303.414,199.309 C303.414,199.309 308.77,204.447 296.858,227.296" id="Path" stroke="#002154" stroke-width="2.89" stroke-linecap="round" stroke-linejoin="round"></path>
            <path d="M298.244,263.176 C298.244,263.176 312.464,249.136 323.453,241.52 C331.763,235.739 361.589,221.699 362.604,201.236" id="Path" stroke="#002154" stroke-width="2.89" stroke-linecap="round" stroke-linejoin="round"></path>
            <path d="M315.399,30.6601 L295.718,104.302 C295.718,104.302 294.167,111.515 290.188,109.733 C286.208,107.95 287.799,104.513 283.794,105.638 C279.806,106.696 280.268,115.836 288.901,118.718 C297.534,121.599 302.03,113.492 303.815,106.48 C305.601,99.468 323.463,32.688 323.463,32.688 C323.463,32.688 323.977,29.5484 320.129,28.652 C316.215,27.7386 315.399,30.6601 315.399,30.6601 Z" id="Path" stroke="#002154" stroke-width="2" fill="#FFFFFF" fill-rule="nonzero"></path>
            <path d="M278.893,61.09 C283.939,62.427 287.989,65.437 290.467,69.323 C291.074,70.273 292.193,70.611 293.222,70.194 C298.13,68.197 304.256,67.809 310.439,69.415 C316.621,71.021 321.638,74.406 324.834,78.535 C325.459,79.416 326.68,79.631 327.66,79.128 C331.815,77.028 336.938,76.403 341.984,77.741 C344.975,78.52 347.655,79.96 349.809,81.788 C351.268,83.013 353.562,82.087 353.791,80.087 C355.85,59.886 343.01,40.277 322.17,33.891 C300.162,27.0827 276.808,37.416 267.543,57.237 C266.712,59.095 268.127,61.043 270.061,60.692 C272.885,60.185 275.92,60.241 278.893,61.09 Z" id="Path" stroke="#002154" stroke-width="2" fill="#FFFFFF" fill-rule="nonzero"></path>
        </g>
    </g>
</svg>