<?xml version="1.0" encoding="UTF-8"?>
<svg width="320px" height="308px" viewBox="0 0 320 308" version="1.1" xmlns="http://www.w3.org/2000/svg" xmlns:xlink="http://www.w3.org/1999/xlink">
    <title>Group 14253</title>
    <defs>
        <rect id="path-1" x="0" y="0" width="320" height="308"></rect>
        <path d="M117.746,235.6 C182.686,235.6 235.33,182.959 235.33,118.022 C235.33,53.0858 182.686,0.4443 117.746,0.4443 C52.8059,0.4443 0.1616,53.0858 0.1616,118.022 C0.1616,182.959 52.8059,235.6 117.746,235.6 Z" id="path-3"></path>
    </defs>
    <g id="Page-1" stroke="none" stroke-width="1" fill="none" fill-rule="evenodd">
        <g id="Group-14253">
            <mask id="mask-2" fill="white">
                <use xlink:href="#path-1"></use>
            </mask>
            <g id="Rectangle"></g>
            <g id="Group" mask="url(#mask-2)">
                <g transform="translate(43.000000, 12.000000)">
                    <path d="M117.746,235.6 C182.686,235.6 235.331,182.959 235.331,118.022 C235.331,53.0858 182.686,0.4443 117.746,0.4443 C52.8064,0.4443 0.1621,53.0858 0.1621,118.022 C0.1621,182.959 52.8064,235.6 117.746,235.6 Z" id="Path" fill="#FFA733" fill-rule="nonzero"></path>
                    <g id="Clipped" stroke-width="1" fill="none" fill-rule="evenodd">
                        <mask id="mask-4" fill="white">
                            <use xlink:href="#path-3"></use>
                        </mask>
                        <g id="Path"></g>
                        <path d="M235.331,-27.1897 C162.179,-79.7476 109.835,-60.3499 32.6738,-39.977 C-4.6064,-30.224 -33,34.1459 -33,34.1459 C-33,34.1459 -28.4484,126.258 40.9101,150.207 C40.9101,150.207 73.205,166.895 133.894,126.149 C177.568,96.782 217.016,100.358 241.183,107.51 L235.331,-27.1897 Z" id="Path" fill="#FFA733" fill-rule="nonzero" mask="url(#mask-4)"></path>
                    </g>
                    <path d="M108.426,186.076 C107.993,186.076 107.667,186.076 107.234,186.076 C98.239,185.534 92.929,179.899 91.628,174.481 C90.761,171.013 91.737,167.979 94.121,166.57 C95.421,165.812 96.505,165.487 97.372,165.487 C98.998,165.487 99.973,166.462 100.948,167.437 C102.032,168.521 103.333,169.713 105.825,170.146 C106.042,170.146 106.259,170.255 106.475,170.255 C107.234,170.255 107.993,169.93 108.534,169.388 C110.377,167.437 110.594,162.669 110.594,160.935 L110.702,42.8154 C110.702,40.7564 112.327,36.9636 117.963,36.8552 L118.288,36.8552 C123.598,36.8552 125.441,40.5397 125.657,42.4903 L125.657,42.5987 C125.657,43.6823 125.549,149.773 125.549,160.935 C125.549,166.354 124.79,176.432 119.155,182.067 C116.337,184.668 112.761,186.076 108.426,186.076 Z" id="Path" fill="#FFE7C7" fill-rule="nonzero"></path>
                    <path d="M118.18,37.7223 C123.924,37.7223 124.466,42.382 124.466,42.382 C124.466,42.382 124.357,149.448 124.357,160.719 C124.466,171.664 121.214,184.993 108.318,184.993 C107.993,184.993 107.56,184.993 107.126,184.993 C93.363,184.126 89.028,170.688 94.446,167.437 C95.639,166.787 96.506,166.462 97.156,166.462 C99.757,166.462 100.299,170.255 105.392,171.122 C105.717,171.122 105.934,171.23 106.259,171.23 C111.894,171.23 111.461,160.827 111.461,160.827 L111.569,42.7071 C111.569,42.7071 111.678,38.0474 117.747,37.8306 C117.963,37.7223 118.072,37.7223 118.18,37.7223 Z M118.18,35.5549 C118.072,35.5549 117.963,35.5549 117.747,35.5549 C111.353,35.7717 109.51,40.2147 109.51,42.5988 L109.402,160.719 C109.51,162.886 109.077,166.895 107.668,168.304 C107.343,168.629 106.909,168.846 106.367,168.846 C106.259,168.846 106.042,168.846 105.826,168.846 C103.658,168.521 102.574,167.437 101.491,166.462 C100.515,165.487 99.215,164.186 97.156,164.186 C95.964,164.186 94.772,164.62 93.363,165.487 C90.545,167.112 89.353,170.688 90.328,174.589 C91.737,180.333 97.373,186.401 107.018,187.052 C107.451,187.052 107.885,187.052 108.318,187.052 C112.87,187.052 116.771,185.535 119.806,182.5 C125.766,176.54 126.525,166.137 126.525,160.61 C126.416,149.448 126.633,43.3573 126.633,42.2737 L126.633,42.1653 L126.633,42.0569 C126.416,39.8896 124.357,35.5549 118.18,35.5549 Z" id="Shape" fill="#002154" fill-rule="nonzero"></path>
                    <path d="M68.004,100.575 C76.24,100.683 83.609,103.717 89.028,108.377 C90.328,109.461 92.171,109.678 93.58,108.702 C100.299,104.042 109.402,101.117 119.481,101.333 C129.559,101.442 138.663,104.584 145.165,109.461 C146.574,110.436 148.416,110.436 149.717,109.352 C155.244,104.801 162.721,101.983 170.958,102.092 C175.834,102.2 180.494,103.284 184.613,105.126 C187.43,106.427 190.465,104.151 190.031,101.117 C184.938,70.6655 157.303,46.4997 122.949,44.6575 C86.535,42.8152 55.1073,66.5475 49.1468,99.166 C48.605,102.2 51.6394,104.476 54.4571,103.284 C58.467,101.442 63.127,100.466 68.004,100.575 Z" id="Path" fill="#FFE7C7" fill-rule="nonzero"></path>
                    <path d="M47.9309,98.944 C54.0147,65.6505 86.046,41.5529 123.011,43.4231 L123.015,43.4233 C157.895,45.2938 186.053,69.8411 191.25,100.913 L191.253,100.927 L191.255,100.942 C191.827,104.946 187.804,107.954 184.102,106.252 C180.137,104.479 175.644,103.433 170.936,103.328 C162.995,103.224 155.805,105.941 150.505,110.304 C148.735,111.777 146.278,111.735 144.461,110.477 L144.442,110.464 L144.423,110.45 C138.15,105.745 129.307,102.675 119.467,102.569 L119.454,102.569 L119.454,102.569 C109.625,102.358 100.78,105.213 94.284,109.718 L94.283,109.718 C92.351,111.056 89.899,110.712 88.237,109.327 L88.229,109.321 L88.222,109.314 C83.019,104.84 75.928,101.915 67.987,101.811 L67.976,101.81 L67.976,101.81 C63.279,101.706 58.806,102.646 54.9729,104.407 L54.9558,104.415 L54.9385,104.422 C51.2809,105.97 47.2037,103.016 47.93,98.949 L47.9309,98.944 Z M50.363,99.385 C50.0084,101.381 51.9878,102.974 53.9597,102.152 C58.141,100.235 62.979,99.228 68.025,99.339 C76.551,99.452 84.194,102.593 89.827,107.434 C90.765,108.211 91.992,108.298 92.876,107.686 C99.817,102.873 109.175,99.877 119.501,100.098 C129.804,100.21 139.157,103.418 145.886,108.457 C146.883,109.136 148.099,109.091 148.925,108.403 L148.931,108.398 C154.684,103.661 162.446,100.744 170.974,100.856 L170.985,100.856 C176.026,100.968 180.848,102.088 185.117,103.998 L185.124,104.001 L185.13,104.004 C187.057,104.893 189.093,103.36 188.809,101.305 C183.813,71.4821 156.705,47.7062 122.884,45.8918 C87.025,44.0784 56.2013,67.4439 50.363,99.385 Z" id="Shape" fill="#002154" fill-rule="evenodd"></path>
                    <path d="M49.0679,219.561 C49.0679,219.561 40.1814,233.54 85.481,254.347 C130.781,275.153 168.169,276.562 184.1,286.207 C184.1,286.207 217.804,297.26 232.543,281.33 C247.281,265.4 240.779,247.086 236.878,243.185 C232.976,239.284 208.376,221.728 197.322,219.995 C197.322,219.995 175.647,214.143 134.357,222.27 C134.357,222.27 127.963,223.246 127.313,228.447 C127.313,228.447 126.771,231.373 128.83,233.54 C128.83,233.54 104.013,233.54 92.309,229.639 C80.604,225.738 54.1614,210.567 49.0679,219.561 Z" id="Path" fill="#FFFFFF" fill-rule="nonzero"></path>
                    <path d="M76.15,222.049 C80.747,224.034 85.745,226.159 91.092,228.04 C99.558,231.002 114.979,232.305 128.328,232.739 C129.011,232.761 129.546,233.332 129.524,234.014 C129.501,234.697 128.93,235.232 128.248,235.209 C114.939,234.777 99.149,233.478 90.275,230.373 L90.273,230.372 C84.837,228.46 79.771,226.305 75.17,224.318 C74.752,224.137 74.337,223.958 73.927,223.781 C69.809,222 66.108,220.399 62.829,219.251 C59.201,217.982 56.2612,217.332 53.9698,217.53 C51.8137,217.716 50.2203,218.647 49.1004,220.745 C49.0938,220.762 49.0836,220.789 49.071,220.828 C49.0387,220.925 48.9907,221.092 48.9494,221.326 C48.8671,221.792 48.8091,222.531 48.9591,223.523 C49.2578,225.5 50.3971,228.58 53.995,232.563 C61.228,240.572 78.238,252.057 117.414,265.313 L117.414,265.314 C126.474,268.383 138.209,271.342 149.68,274.235 C150.691,274.49 151.699,274.744 152.704,274.998 C165.051,278.119 176.833,281.176 184.037,284.2 C184.666,284.465 184.962,285.189 184.698,285.818 C184.434,286.448 183.709,286.744 183.08,286.48 C176.087,283.544 164.515,280.533 152.098,277.395 C151.088,277.139 150.072,276.883 149.053,276.626 C137.612,273.741 125.78,270.758 116.621,267.655 C77.336,254.361 59.829,242.71 52.1605,234.22 C48.3077,229.954 46.9003,226.444 46.5149,223.893 C46.3229,222.622 46.3885,221.612 46.5153,220.896 C46.5785,220.538 46.6565,220.256 46.724,220.052 C46.7577,219.95 46.7888,219.867 46.814,219.805 C46.8267,219.774 46.8378,219.748 46.8471,219.727 L46.8597,219.699 L46.8648,219.688 L46.8671,219.683 C46.8681,219.681 46.8691,219.679 47.9842,220.212 L46.8691,219.679 C46.8761,219.664 46.8833,219.65 46.8908,219.635 C48.4248,216.724 50.7937,215.323 53.757,215.067 C56.5999,214.822 59.959,215.628 63.646,216.918 C67.014,218.097 70.799,219.734 74.894,221.505 C75.309,221.685 75.728,221.866 76.15,222.049 Z" id="Path" fill="#002154" fill-rule="evenodd"></path>
                    <path d="M185.217,219.468 C176.007,218.906 163.743,219.654 144.23,221.551 C144.208,221.553 144.186,221.554 144.163,221.555 L144.163,221.555 L144.163,221.555 L144.162,221.555 L144.155,221.556 L144.121,221.557 C144.09,221.559 144.044,221.561 143.982,221.565 C143.858,221.572 143.675,221.583 143.44,221.601 C142.97,221.636 142.296,221.695 141.488,221.79 C139.866,221.981 137.73,222.314 135.627,222.882 C133.505,223.455 131.521,224.241 130.131,225.286 C128.773,226.307 128.103,227.466 128.219,228.886 C128.367,230.604 128.817,231.862 129.746,232.918 C130.703,234.006 132.275,234.999 134.902,235.956 C140.191,237.882 149.18,239.464 164.343,241.747 C165.018,241.848 165.483,242.478 165.381,243.153 C165.28,243.828 164.65,244.293 163.975,244.191 C148.903,241.922 139.631,240.308 134.056,238.279 C131.251,237.257 129.239,236.083 127.89,234.551 C126.513,232.986 125.934,231.17 125.756,229.095 L125.756,229.091 C125.547,226.557 126.855,224.656 128.646,223.31 C130.406,221.987 132.743,221.1 134.983,220.495 C137.243,219.885 139.508,219.534 141.199,219.335 C142.047,219.235 142.757,219.173 143.256,219.136 C143.506,219.117 143.703,219.105 143.84,219.097 C143.908,219.093 143.961,219.09 143.998,219.088 L144.022,219.087 C163.505,217.194 175.942,216.425 185.367,217.001 C194.856,217.58 201.29,219.52 208.774,222.986 L208.8,222.997 C208.825,223.008 208.86,223.024 208.907,223.045 C209,223.087 209.135,223.15 209.313,223.233 C209.667,223.4 210.188,223.653 210.865,224.001 C212.219,224.696 214.198,225.77 216.723,227.295 C221.771,230.346 229.001,235.203 237.773,242.45 C238.299,242.884 238.373,243.663 237.939,244.19 C237.504,244.716 236.725,244.79 236.199,244.355 C227.523,237.189 220.393,232.401 215.444,229.411 C212.97,227.916 211.041,226.87 209.736,226.2 C209.084,225.865 208.588,225.624 208.258,225.469 C208.093,225.391 207.969,225.334 207.889,225.298 C207.848,225.28 207.819,225.266 207.8,225.258 L207.78,225.249 L207.776,225.248 L207.776,225.247 L207.776,225.247 C207.766,225.243 207.757,225.239 207.747,225.235 C200.498,221.877 194.363,220.026 185.217,219.468 Z" id="Path" fill="#002154" fill-rule="evenodd"></path>
                </g>
            </g>
        </g>
    </g>
</svg>