<?xml version="1.0" encoding="UTF-8"?>
<svg width="180px" height="172px" viewBox="0 0 180 172" version="1.1" xmlns="http://www.w3.org/2000/svg" xmlns:xlink="http://www.w3.org/1999/xlink">
    <title>Group 2</title>
    <g id="Page-1" stroke="none" stroke-width="1" fill="none" fill-rule="evenodd">
        <g id="Group-2" transform="translate(0.153357, 0.152300)">
            <g id="Group" opacity="0" fill-rule="nonzero">
                <path d="M178.511643,133.2417 C178.426643,134.1237 177.783643,134.5447 177.011643,134.8807 C175.212643,135.6367 173.412643,136.4357 171.569643,137.1927 C170.755643,137.5287 170.241643,137.9907 169.941643,138.7897 C169.169643,140.9747 168.355643,143.1187 167.498643,145.2627 C167.284643,145.8087 167.112643,146.6077 166.341643,146.6077 C165.484643,146.6077 165.227643,145.8927 164.970643,145.2627 C164.198643,143.2447 163.384643,141.2697 162.741643,139.2097 C162.399643,138.1587 161.799643,137.5287 160.813643,137.1077 C158.885643,136.3097 156.999643,135.4687 155.113643,134.6287 C154.514643,134.3757 153.999643,134.0397 153.999643,133.2837 C153.999643,132.4847 154.556643,132.1907 155.156643,131.9387 C157.170643,131.0557 159.142643,130.1727 161.156643,129.3327 C161.970643,128.9957 162.399643,128.4497 162.698643,127.6507 C163.384643,125.6337 164.155643,123.6157 164.927643,121.5987 C165.141643,120.8837 165.398643,119.9597 166.384643,120.0017 C167.284643,120.0437 167.412643,120.9677 167.669643,121.6407 C168.441643,123.6997 169.255643,125.7597 169.983643,127.8197 C170.283643,128.6177 170.798643,129.0797 171.612643,129.4167 C173.455643,130.1307 175.212643,130.9297 177.054643,131.7277 C177.740643,132.0227 178.340643,132.4007 178.511643,133.2417 Z" id="Path" fill="#FFD680"></path>
                <path d="M19.4270434,68.8253 C19.4744434,69.5686 18.9059434,69.8009 18.3849434,70.0332 C17.0112434,70.6372 15.6375434,71.3341 14.2165434,71.8452 C13.3638434,72.1704 12.8902434,72.6815 12.6059434,73.5177 C12.0849434,75.1438 11.4691434,76.77 10.8059434,78.3961 C10.6165434,78.9071 10.4270434,79.5576 9.66914335,79.5576 C9.00594335,79.5576 8.91124335,78.9536 8.72174335,78.489 C8.53234335,77.9315 8.15334335,77.4204 8.10594335,76.8629 C7.58494335,73.0996 5.07444335,71.2412 1.66384335,70.2191 C0.953343353,69.9868 0.100743353,69.8474 0.0060433528,68.9182 C-0.0887566472,67.8031 0.953343353,67.7102 1.61654335,67.3385 C1.80604335,67.1992 2.04284335,67.1062 2.23234335,67.0598 C5.87964335,66.2235 7.49024335,63.6682 8.29544335,60.2766 C8.48494335,59.3938 8.62704335,58 9.81124335,58 C11.0428434,58 11.0902434,59.3938 11.2796434,60.2766 C12.0375434,63.9469 14.0744434,66.3164 17.8638434,67.2456 C19.0007434,67.5244 19.4270434,68.1284 19.4270434,68.8253 Z" id="Path" fill="#FFD680"></path>
                <path d="M85.5789434,1.77635684e-15 C88.1846434,0.0762 89.9996434,2.0573 89.9996434,4.7242 C89.9206434,7.3149 87.9476434,9.1436 85.2631434,8.9912 C82.7368434,8.915 80.9999434,7.0101 80.9999434,4.4956 C80.9999434,1.9811 83.0525434,1.77635684e-15 85.5789434,1.77635684e-15 Z" id="Path" fill="#CEDBF1"></path>
            </g>
            <g id="Group-14117" transform="translate(24.846643, 29.847700)">
                <path d="M71.6494726,123.815304 L2.18483901,54.3504145 C-0.728279672,51.4371778 -0.728279672,46.7140145 2.18483901,43.8007778 L43.8009967,2.18491978 C46.7142183,-0.728306594 51.4372543,-0.728306594 54.3504759,2.18491978 L123.815315,71.6498094 C126.728228,74.5630461 126.728228,79.2862094 123.815315,82.199446 L82.1985401,123.815304 C79.2857302,126.728232 74.5626942,126.728232 71.6494726,123.815304 Z" id="Path" fill="#FFA733" fill-rule="nonzero"></path>
                <polygon id="Path" fill="#FFE7C7" fill-rule="nonzero" points="29 17.5192113 40.5191983 6 120 85.4807887 108.480495 97"></polygon>
                <path d="M23.8237643,36.8236864 C21.3920786,39.2553721 21.3920786,43.1978611 23.8237643,45.6295467 L51.3704533,73.1762357 C53.8021389,75.6079214 57.7446279,75.6079214 60.1763136,73.1762357 C62.6078955,70.7445501 62.6078955,66.8020611 60.1763136,64.3704792 L32.6295208,36.8236864 C30.1979389,34.3921045 26.2554499,34.3921045 23.8237643,36.8236864 Z" id="Path" fill="#FFFFFF" fill-rule="nonzero"></path>
                <path d="M72.0194854,122.944811 L2.07177467,53.5518686 C-0.690591558,50.8114112 -0.690591558,46.3685017 2.07177467,43.6281471 L43.9773016,2.05528907 C46.7395642,-0.685096356 51.2179929,-0.685096356 53.9803591,2.05528907 L123.928381,71.4482317 C126.69054,74.1886891 126.69054,78.6315986 123.928381,81.3719532 L82.0221284,122.944811 L82.3320291,123.252254 L82.0221284,122.944811 C79.2601767,125.685063 74.7818516,125.685063 72.0194854,122.944811 Z" id="Path" stroke="#002154" stroke-width="0.845745"></path>
                <ellipse id="Oval" fill="#C5DDFF" fill-rule="nonzero" cx="66" cy="138.5" rx="26" ry="2.5"></ellipse>
                <path d="M100.5,18 C92.505,18 86,24.5049 86,32.5 C86,40.4951 92.505,47 100.5,47 C108.495,47 115,40.4951 115,32.5 C115,24.5049 108.495,18 100.5,18 Z" id="Path" fill="#F06065" fill-rule="nonzero"></path>
                <path d="M94.4592077,27.4590389 C93.8469308,28.0710909 93.8469308,29.0633505 94.4592077,29.6754025 L97.783892,33 L94.4592077,36.3245975 C93.8469308,36.9366495 93.8469308,37.9289091 94.4592077,38.5409611 C95.0714845,39.153013 96.0630387,39.153013 96.6753156,38.5409611 L100,35.2163635 L103.324684,38.5409611 C103.936961,39.153013 104.92956,39.153013 105.540792,38.5409611 C106.153069,37.9289091 106.153069,36.9366495 105.540792,36.3245975 L102.216108,33 L105.540792,29.6754025 C106.153069,29.0633505 106.153069,28.0710909 105.540792,27.4590389 C104.92956,26.846987 103.936961,26.846987 103.324684,27.4590389 L100,30.7836365 L96.6753156,27.4590389 C96.0630387,26.846987 95.0714845,26.846987 94.4592077,27.4590389 Z" id="Path" fill="#FFFFFF"></path>
            </g>
        </g>
    </g>
</svg>