<svg width="40" height="37" viewBox="0 0 40 37" fill="none" xmlns="http://www.w3.org/2000/svg">
<path d="M5.86784 1.23201L35.5777 1.02959C37.9725 1.01327 39.8914 2.8954 39.8562 5.22974L39.456 31.814C39.4209 34.1456 37.4449 36.0523 35.0501 36.0686L5.34043 36.271C2.94562 36.2873 1.02875 34.4072 1.06385 32.0756L1.4641 5.49133C1.49912 3.15698 3.47303 1.24833 5.86784 1.23201ZM14.9988 7.45959C12.6829 7.47537 10.7772 9.31687 10.7433 11.5715C10.7093 13.8261 12.5601 15.6421 14.8759 15.6263C17.1924 15.6105 19.0975 13.769 19.1314 11.5144C19.1654 9.25972 17.3154 7.4438 14.9988 7.45959ZM6.76092 32.3538L20.2555 32.2619L33.1488 32.174C34.3071 32.1661 34.8353 31.3467 34.3283 30.3436L27.3395 16.5125C26.8331 15.5095 25.8405 15.4265 25.1231 16.3268L17.7468 25.5848C17.0295 26.4853 15.798 26.5699 14.9958 25.773L13.2515 24.0394C12.4499 23.2425 11.2496 23.35 10.5716 24.2781L5.89074 30.6856C5.21405 31.6151 5.60258 32.3617 6.76092 32.3538Z" fill="white"/>
</svg>
