<svg width="36" height="36" viewBox="0 0 36 36" fill="none" xmlns="http://www.w3.org/2000/svg">
<g clip-path="url(#clip0)">
<path d="M6.2264 26.8732C4.90382 26.8715 3.83217 25.7998 3.83047 24.4776V6.44531H3.61858C2.296 6.44667 1.22435 7.51832 1.22266 8.8409V27.0854C1.22435 28.4076 2.296 29.4793 3.61858 29.481H32.3806C33.7032 29.4793 34.7748 28.4076 34.7765 27.0854V26.8732H6.2264Z" fill="#CEDBF1"/>
<path d="M18.0001 20.0738C17.8881 20.0738 17.7784 20.0429 17.683 19.9845L0.297578 9.36C0.109123 9.24795 -0.00428995 9.04319 0.000124314 8.82418C0.00487814 8.60516 0.12678 8.4055 0.319649 8.3016C0.512519 8.19735 0.746475 8.20516 0.931874 8.32163L18.0001 18.7522L35.0684 8.32163C35.2538 8.20516 35.4878 8.19735 35.6806 8.3016C35.8735 8.4055 35.9954 8.60516 35.9998 8.82418C36.0046 9.04319 35.8912 9.24795 35.7027 9.36L18.3173 19.9845C18.2219 20.0429 18.1122 20.0738 18.0001 20.0738Z" fill="#FFC64D"/>
<path d="M32.3808 5.22852H3.61877C1.6242 5.23089 0.00823628 6.84685 0.00585938 8.84108V27.0856C0.00823628 29.0798 1.6242 30.6958 3.61877 30.6981H32.3808C34.375 30.6958 35.9913 29.0798 35.9937 27.0856V8.84108C35.9913 6.84685 34.375 5.23089 32.3808 5.22852ZM34.7767 27.0856C34.775 28.4078 33.7034 29.4795 32.3808 29.4812H3.61877C2.29619 29.4795 1.22454 28.4078 1.22284 27.0856V8.84108C1.22454 7.5185 2.29619 6.44685 3.61877 6.44549H32.3808C33.7034 6.44685 34.775 7.5185 34.7767 8.84108V27.0856Z" fill="#084BB9"/>
</g>
<defs>
<clipPath id="clip0">
<rect width="36" height="36" fill="white"/>
</clipPath>
</defs>
</svg>
