<svg width="36" height="36" viewBox="0 0 36 36" fill="none" xmlns="http://www.w3.org/2000/svg">
<path d="M4.49968 27.8575V3.42895C0.0425407 2.22895 0.0711142 7.35752 0.642544 10.0718C0.785401 15.5004 0.985401 27.2575 0.642544 30.8575C0.299686 34.4575 1.92826 35.5004 2.7854 35.5718H29.5711C29.7425 32.1432 27.6425 31.4289 26.5711 31.5004H8.7854C4.49968 31.5004 4.49968 29.7861 4.49968 27.8575Z" fill="#CEDBF1"/>
<path d="M33 2.4H29.4V1.8C29.4 1.32261 29.2104 0.864773 28.8728 0.527208C28.5352 0.189642 28.0774 0 27.6 0C27.1226 0 26.6648 0.189642 26.3272 0.527208C25.9896 0.864773 25.8 1.32261 25.8 1.8V2.4H19.8V1.8C19.8 1.32261 19.6104 0.864773 19.2728 0.527208C18.9352 0.189642 18.4774 0 18 0C17.5226 0 17.0648 0.189642 16.7272 0.527208C16.3896 0.864773 16.2 1.32261 16.2 1.8V2.4H10.2V1.8C10.2 1.32261 10.0104 0.864773 9.67279 0.527208C9.33523 0.189642 8.87739 0 8.4 0C7.92261 0 7.46477 0.189642 7.12721 0.527208C6.78964 0.864773 6.6 1.32261 6.6 1.8V2.4H3C2.20462 2.40089 1.44208 2.71725 0.879666 3.27967C0.317251 3.84208 0.000893291 4.60462 0 5.4V33C0.000893291 33.7954 0.317251 34.5579 0.879666 35.1203C1.44208 35.6828 2.20462 35.9991 3 36H33C33.7954 35.9991 34.5579 35.6828 35.1203 35.1203C35.6828 34.5579 35.9991 33.7954 36 33V5.4C35.9991 4.60462 35.6828 3.84208 35.1203 3.27967C34.5579 2.71725 33.7954 2.40089 33 2.4ZM27 1.8C27 1.64087 27.0632 1.48826 27.1757 1.37574C27.2883 1.26321 27.4409 1.2 27.6 1.2C27.7591 1.2 27.9117 1.26321 28.0243 1.37574C28.1368 1.48826 28.2 1.64087 28.2 1.8V5.4C28.2 5.55913 28.1368 5.71174 28.0243 5.82426C27.9117 5.93679 27.7591 6 27.6 6C27.4409 6 27.2883 5.93679 27.1757 5.82426C27.0632 5.71174 27 5.55913 27 5.4V1.8ZM17.4 1.8C17.4 1.64087 17.4632 1.48826 17.5757 1.37574C17.6883 1.26321 17.8409 1.2 18 1.2C18.1591 1.2 18.3117 1.26321 18.4243 1.37574C18.5368 1.48826 18.6 1.64087 18.6 1.8V5.4C18.6 5.55913 18.5368 5.71174 18.4243 5.82426C18.3117 5.93679 18.1591 6 18 6C17.8409 6 17.6883 5.93679 17.5757 5.82426C17.4632 5.71174 17.4 5.55913 17.4 5.4V1.8ZM7.8 1.8C7.8 1.64087 7.86321 1.48826 7.97574 1.37574C8.08826 1.26321 8.24087 1.2 8.4 1.2C8.55913 1.2 8.71174 1.26321 8.82426 1.37574C8.93679 1.48826 9 1.64087 9 1.8V5.4C9 5.55913 8.93679 5.71174 8.82426 5.82426C8.71174 5.93679 8.55913 6 8.4 6C8.24087 6 8.08826 5.93679 7.97574 5.82426C7.86321 5.71174 7.8 5.55913 7.8 5.4V1.8ZM3 3.6H6.6V5.4C6.6 5.87739 6.78964 6.33523 7.12721 6.67279C7.46477 7.01036 7.92261 7.2 8.4 7.2C8.87739 7.2 9.33523 7.01036 9.67279 6.67279C10.0104 6.33523 10.2 5.87739 10.2 5.4V3.6H16.2V5.4C16.2 5.87739 16.3896 6.33523 16.7272 6.67279C17.0648 7.01036 17.5226 7.2 18 7.2C18.4774 7.2 18.9352 7.01036 19.2728 6.67279C19.6104 6.33523 19.8 5.87739 19.8 5.4V3.6H25.8V5.4C25.8 5.87739 25.9896 6.33523 26.3272 6.67279C26.6648 7.01036 27.1226 7.2 27.6 7.2C28.0774 7.2 28.5352 7.01036 28.8728 6.67279C29.2104 6.33523 29.4 5.87739 29.4 5.4V3.6H33C33.4772 3.60056 33.9347 3.79038 34.2722 4.12782C34.6096 4.46527 34.7994 4.92278 34.8 5.4V9.6H1.2V5.4C1.20056 4.92278 1.39038 4.46527 1.72782 4.12782C2.06527 3.79038 2.52278 3.60056 3 3.6ZM33 34.8H3C2.52278 34.7994 2.06527 34.6096 1.72782 34.2722C1.39038 33.9347 1.20056 33.4772 1.2 33V10.8H34.8V33C34.7994 33.4772 34.6096 33.9347 34.2722 34.2722C33.9347 34.6096 33.4772 34.7994 33 34.8Z" fill="#084BB9"/>
<path d="M26.4905 17.4746L23.4905 17.0162L22.1431 14.1459C22.0946 14.0427 22.0178 13.9555 21.9217 13.8943C21.8255 13.8332 21.7139 13.8008 21.5999 13.8008C21.4859 13.8008 21.3743 13.8332 21.2782 13.8943C21.182 13.9555 21.1052 14.0427 21.0568 14.1459L19.7099 17.0162L16.7099 17.4746C16.6008 17.4912 16.4984 17.5376 16.4139 17.6086C16.3295 17.6797 16.2662 17.7727 16.2312 17.8773C16.1962 17.982 16.1907 18.0943 16.2154 18.2019C16.2401 18.3095 16.2939 18.4081 16.3711 18.4871L18.5596 20.7301L18.0421 23.9046C18.0242 24.0155 18.0379 24.1293 18.0815 24.2329C18.1251 24.3365 18.1969 24.4258 18.2888 24.4905C18.3807 24.5553 18.4889 24.5929 18.6011 24.5992C18.7134 24.6054 18.8251 24.58 18.9236 24.5259L21.5999 23.0466L24.2762 24.5259C24.3748 24.5803 24.4866 24.606 24.5991 24.5999C24.7115 24.5937 24.82 24.5561 24.912 24.4912C25.0041 24.4264 25.076 24.3369 25.1196 24.2331C25.1633 24.1293 25.1768 24.0153 25.1587 23.9042L24.6412 20.7297L26.8297 18.4867C26.9069 18.4078 26.9607 18.3091 26.9854 18.2015C27.0101 18.0939 27.0046 17.9816 26.9696 17.877C26.9345 17.7723 26.8713 17.6793 26.7869 17.6083C26.7024 17.5372 26.6 17.4908 26.4909 17.4742L26.4905 17.4746ZM23.5705 20.1084C23.5049 20.1756 23.456 20.2572 23.4277 20.3468C23.3994 20.4364 23.3926 20.5313 23.4077 20.624L23.7752 22.8778L21.89 21.8353C21.8011 21.7862 21.7013 21.7604 21.5998 21.7604C21.4982 21.7604 21.3984 21.7862 21.3095 21.8353L19.4243 22.8778L19.7918 20.624C19.8069 20.5313 19.8001 20.4364 19.7718 20.3468C19.7435 20.2572 19.6946 20.1756 19.6291 20.1084L18.0449 18.4845L20.2074 18.1545C20.3048 18.1396 20.397 18.1009 20.4759 18.0419C20.5548 17.983 20.618 17.9055 20.6599 17.8163L21.5999 15.813L22.54 17.8159C22.5819 17.9051 22.6451 17.9826 22.724 18.0416C22.8029 18.1006 22.8951 18.1392 22.9925 18.1541L25.155 18.4841L23.5705 20.1084Z" fill="#FFC64D"/>
<path fill-rule="evenodd" clip-rule="evenodd" d="M13.7998 15H11.3998C11.2406 15 11.088 15.0632 10.9755 15.1757C10.863 15.2883 10.7998 15.4409 10.7998 15.6V18C10.7998 18.1591 10.863 18.3117 10.9755 18.4243C11.088 18.5368 11.2406 18.6 11.3998 18.6H13.7998C13.9589 18.6 14.1115 18.5368 14.224 18.4243C14.3365 18.3117 14.3998 18.1591 14.3998 18V15.6C14.3998 15.4409 14.3365 15.2883 14.224 15.1757C14.1115 15.0632 13.9589 15 13.7998 15ZM13.1998 17.4H11.9998V16.2H13.1998V17.4ZM29.3996 15H31.7996C31.9587 15 32.1113 15.0632 32.2239 15.1757C32.3364 15.2883 32.3996 15.4409 32.3996 15.6V18C32.3996 18.1591 32.3364 18.3117 32.2239 18.4243C32.1113 18.5368 31.9587 18.6 31.7996 18.6H29.3996C29.2405 18.6 29.0878 18.5368 28.9753 18.4243C28.8628 18.3117 28.7996 18.1591 28.7996 18V15.6C28.7996 15.4409 28.8628 15.2883 28.9753 15.1757C29.0878 15.0632 29.2405 15 29.3996 15ZM29.9996 17.4H31.1996V16.2H29.9996V17.4ZM17.3997 26.9999H19.7997C19.9588 26.9999 20.1114 27.0631 20.224 27.1756C20.3365 27.2881 20.3997 27.4407 20.3997 27.5999V29.9999C20.3997 30.159 20.3365 30.3116 20.224 30.4241C20.1114 30.5367 19.9588 30.5999 19.7997 30.5999H17.3997C17.2406 30.5999 17.088 30.5367 16.9754 30.4241C16.8629 30.3116 16.7997 30.159 16.7997 29.9999V27.5999C16.7997 27.4407 16.8629 27.2881 16.9754 27.1756C17.088 27.0631 17.2406 26.9999 17.3997 26.9999ZM17.9997 29.3999H19.1997V28.1999H17.9997V29.3999ZM5.3998 21H7.7998C7.95893 21 8.11155 21.0632 8.22407 21.1757C8.33659 21.2883 8.3998 21.4409 8.3998 21.6V24C8.3998 24.1591 8.33659 24.3117 8.22407 24.4243C8.11155 24.5368 7.95893 24.6 7.7998 24.6H5.3998C5.24067 24.6 5.08806 24.5368 4.97554 24.4243C4.86302 24.3117 4.7998 24.1591 4.7998 24V21.6C4.7998 21.4409 4.86302 21.2883 4.97554 21.1757C5.08806 21.0632 5.24067 21 5.3998 21ZM5.9998 23.4H7.1998V22.2H5.9998V23.4ZM13.7998 21H11.3998C11.2406 21 11.088 21.0632 10.9755 21.1757C10.863 21.2883 10.7998 21.4409 10.7998 21.6V24C10.7998 24.1591 10.863 24.3117 10.9755 24.4243C11.088 24.5368 11.2406 24.6 11.3998 24.6H13.7998C13.9589 24.6 14.1115 24.5368 14.224 24.4243C14.3365 24.3117 14.3998 24.1591 14.3998 24V21.6C14.3998 21.4409 14.3365 21.2883 14.224 21.1757C14.1115 21.0632 13.9589 21 13.7998 21ZM13.1998 23.4H11.9998V22.2H13.1998V23.4ZM5.3998 26.9999H7.7998C7.95893 26.9999 8.11155 27.0631 8.22407 27.1756C8.33659 27.2881 8.3998 27.4407 8.3998 27.5999V29.9999C8.3998 30.159 8.33659 30.3116 8.22407 30.4241C8.11155 30.5367 7.95893 30.5999 7.7998 30.5999H5.3998C5.24067 30.5999 5.08806 30.5367 4.97554 30.4241C4.86302 30.3116 4.7998 30.159 4.7998 29.9999V27.5999C4.7998 27.4407 4.86302 27.2881 4.97554 27.1756C5.08806 27.0631 5.24067 26.9999 5.3998 26.9999ZM5.9998 29.3999H7.1998V28.1999H5.9998V29.3999ZM13.7998 26.9999H11.3998C11.2406 26.9999 11.088 27.0631 10.9755 27.1756C10.863 27.2881 10.7998 27.4407 10.7998 27.5999V29.9999C10.7998 30.159 10.863 30.3116 10.9755 30.4241C11.088 30.5367 11.2406 30.5999 11.3998 30.5999H13.7998C13.9589 30.5999 14.1115 30.5367 14.224 30.4241C14.3365 30.3116 14.3998 30.159 14.3998 29.9999V27.5999C14.3998 27.4407 14.3365 27.2881 14.224 27.1756C14.1115 27.0631 13.9589 26.9999 13.7998 26.9999ZM13.1998 29.3999H11.9998V28.1999H13.1998V29.3999ZM29.3996 21H31.7996C31.9587 21 32.1113 21.0632 32.2239 21.1757C32.3364 21.2883 32.3996 21.4409 32.3996 21.6V24C32.3996 24.1591 32.3364 24.3117 32.2239 24.4243C32.1113 24.5368 31.9587 24.6 31.7996 24.6H29.3996C29.2405 24.6 29.0878 24.5368 28.9753 24.4243C28.8628 24.3117 28.7996 24.1591 28.7996 24V21.6C28.7996 21.4409 28.8628 21.2883 28.9753 21.1757C29.0878 21.0632 29.2405 21 29.3996 21ZM29.9996 23.4H31.1996V22.2H29.9996V23.4ZM31.7996 26.9999H29.3996C29.2405 26.9999 29.0878 27.0631 28.9753 27.1756C28.8628 27.2881 28.7996 27.4407 28.7996 27.5999V29.9999C28.7996 30.159 28.8628 30.3116 28.9753 30.4241C29.0878 30.5367 29.2405 30.5999 29.3996 30.5999H31.7996C31.9587 30.5999 32.1113 30.5367 32.2239 30.4241C32.3364 30.3116 32.3996 30.159 32.3996 29.9999V27.5999C32.3996 27.4407 32.3364 27.2881 32.2239 27.1756C32.1113 27.0631 31.9587 26.9999 31.7996 26.9999ZM31.1996 29.3999H29.9996V28.1999H31.1996V29.3999ZM23.3996 26.9999H25.7996C25.9588 26.9999 26.1114 27.0631 26.2239 27.1756C26.3364 27.2881 26.3996 27.4407 26.3996 27.5999V29.9999C26.3996 30.159 26.3364 30.3116 26.2239 30.4241C26.1114 30.5367 25.9588 30.5999 25.7996 30.5999H23.3996C23.2405 30.5999 23.0879 30.5367 22.9754 30.4241C22.8629 30.3116 22.7996 30.159 22.7996 29.9999V27.5999C22.7996 27.4407 22.8629 27.2881 22.9754 27.1756C23.0879 27.0631 23.2405 26.9999 23.3996 26.9999ZM23.9996 29.3999H25.1996V28.1999H23.9996V29.3999Z" fill="#396FC7"/>
</svg>
