<?xml version="1.0" encoding="UTF-8"?>
<svg width="109px" height="166px" viewBox="0 0 109 166" version="1.1" xmlns="http://www.w3.org/2000/svg" xmlns:xlink="http://www.w3.org/1999/xlink">
    <title>Group 2</title>
    <g id="Page-1" stroke="none" stroke-width="1" fill="none" fill-rule="evenodd">
        <g id="Group" stroke="#324AB1">
            <rect id="Rectangle" fill="#92B0F5" x="0.5" y="16.1235294" width="80.5868263" height="133.752941" rx="8"></rect>
            <path d="M62.1736527,3.34222279 C62.9236269,3.34222279 63.6693596,3.45471155 64.3859637,3.67593506 L64.3859637,3.67593506 L103.212311,15.6620511 C104.784097,16.1472786 106.106019,17.1163608 107.034995,18.375381 C107.963971,19.6344012 108.5,21.1833594 108.5,22.8283388 L108.5,22.8283388 L108.5,146.657677 C108.5,148.394983 107.903359,150.018554 106.884142,151.308147 C105.864926,152.59774 104.423135,153.553355 102.732835,153.954751 L102.732835,153.954751 L63.9064881,163.17484 C61.8914569,163.653349 59.8732343,163.269805 58.2391422,162.262876 C56.6050501,161.255947 55.3550885,159.625633 54.8765792,157.610602 C54.7417555,157.042851 54.6736527,156.461306 54.6736527,155.877766 L54.6736527,155.877766 L54.6736527,10.8422228 C54.6736527,8.77115498 55.5131188,6.89615498 56.8703518,5.53892193 C58.2275849,4.18168889 60.1025849,3.34222279 62.1736527,3.34222279 Z" id="Rectangle" fill="#CEDBF1"></path>
        </g>
    </g>
</svg>