<svg width="339" height="374" viewBox="0 0 339 374" fill="none" xmlns="http://www.w3.org/2000/svg">
<path d="M243.104 354.377C243.104 354.377 264.57 340.251 262.576 312.337C260.582 284.422 250.104 272.502 250.104 272.502L204.966 151.428C204.966 151.428 188.124 117.405 187.7 77.3578C187.276 37.3109 187.403 27.893 170.137 13.3845C152.871 -1.12401 128.181 0.148668 116.6 12.1967C116.6 12.1967 116.388 10.7543 117.533 7.44535C118.679 4.13639 119.951 0.912277 118.382 1.20924C116.812 1.50619 110.406 5.62119 114.267 13.4269C114.267 13.4269 91.1038 22.2508 92.5461 57.3343L92.1219 143.41C92.1219 143.41 94.9644 362.523 178.198 371.262C178.198 371.262 212.051 370.752 243.104 354.377Z" fill="#E3E3E3"/>
<path d="M81.8123 206.365C81.8123 206.365 65.3949 188.251 50.7166 177.857C50.7166 177.857 76.2126 149.519 106.927 134.12C138.404 118.338 175.609 133.356 175.609 133.356C175.609 133.356 212.516 147.525 232.582 188.59C232.582 188.59 217.819 207.85 199.662 209.505C199.662 209.505 198.432 227.025 196.905 240.473C195.335 253.921 193.766 286.798 216.801 364.22C216.801 364.22 216.843 364.771 216.673 364.983C197.753 370.753 177.518 373.425 156.73 373.425C129.919 373.425 104.296 368.25 80.8367 358.874C83.4245 345.13 95.557 279.12 95.557 252.097C95.557 221.85 90.8483 199.917 90.8483 199.917L81.8123 206.365Z" fill="#FFA528"/>
<path d="M183.499 69.9345C183.499 69.9345 178.196 97.5941 156.009 105.23L156.348 125.381C156.348 125.381 168.82 128.86 175.608 133.356C175.608 133.356 164.366 155.586 153.506 162.373C153.506 162.373 120.459 138.532 106.926 134.12C106.926 134.12 122.113 126.823 127.289 125.381L127.204 105.145C127.204 105.145 106.077 94.1578 103.023 76.2131C103.023 76.2131 91.6535 83.637 87.7082 70.6133C84.3144 59.4137 94.0292 54.0685 101.58 59.3713C101.58 59.3713 119.907 37.1843 122.707 14.9549C122.707 14.9549 146.506 4.05226 165.384 18.3911C165.384 18.3911 170.941 30.524 172.85 41.7659C175.141 54.7897 183.499 69.9345 183.499 69.9345Z" fill="white"/>
<path d="M226.177 195.548C226.177 195.548 248.067 252.564 268.599 251.546C290.574 250.443 280.817 172.003 276.575 164.198C273.223 158.046 270.89 154.78 270.381 152.913C270.084 151.81 270.89 150.707 272.036 150.665C277.169 150.495 283.575 155.755 286.332 157.834C289.429 160.167 297.107 153.931 306.186 146.38C315.264 138.829 322.858 135.18 324.512 137.302C326.167 139.423 324.385 142.392 324.385 142.392C324.385 142.392 327.906 139.889 330.282 141.968C332.106 143.58 329.476 148.077 329.476 148.077C329.476 148.077 332.912 145.701 335.076 148.331C336.645 150.198 333.294 154.737 333.294 154.737C336.051 153.422 337.578 155.84 337.578 155.84C339.487 159.786 330.324 166.7 323.622 172.937C314.289 181.676 312.676 190.457 312.634 195.675C312.549 216.25 318.531 282.726 275.472 289.302C229.359 296.344 199.196 221.807 199.196 221.807L199.62 209.505C199.663 209.547 210.056 210.226 226.177 195.548Z" fill="white"/>
<path d="M90.2111 305.718C90.2111 305.718 38.2859 280.01 38.1162 254.26C38.1162 254.26 40.7039 231.861 78.757 203.353C78.757 203.353 59.3699 183.244 53.6004 180.487C53.6004 180.487 -7.36083 228.255 2.69332 267.411C10.9657 299.694 67.515 329.051 67.515 329.051C67.515 329.051 69.3815 335.075 71.4602 337.747C71.4602 337.747 69.8483 348.014 83.0841 351.959L90.2111 305.718Z" fill="white"/>
<path d="M132.704 52.0343C131.041 52.0254 129.703 49.9479 129.717 47.3941C129.731 44.8403 131.09 42.7773 132.754 42.7862C134.417 42.7951 135.755 44.8726 135.741 47.4264C135.727 49.9802 134.368 52.0433 132.704 52.0343Z" fill="#002154"/>
<path d="M159.686 52.204C158.022 52.1951 156.685 50.1176 156.698 47.5638C156.712 45.01 158.072 42.947 159.735 42.9559C161.399 42.9648 162.736 45.0423 162.722 47.5961C162.708 50.1499 161.349 52.2129 159.686 52.204Z" fill="#002154"/>
<path d="M128.902 28.1051C128.478 28.2324 128.138 27.6809 128.435 27.2991C129.623 25.6871 132.211 22.4205 135.647 24.4144C135.647 24.4144 136.878 25.0083 136.368 25.6022C135.944 26.0689 131.151 27.4264 128.902 28.1051Z" fill="#002154"/>
<path d="M164.24 28.2765C164.664 28.3614 164.792 27.6826 164.41 27.3008C162.883 25.7312 159.616 22.5919 157.283 25.4342C157.283 25.4342 156.392 26.3251 157.028 26.8766C157.537 27.3008 162.119 27.9371 164.24 28.2765Z" fill="#002154"/>
<path d="M126.994 105.909C127.418 105.909 127.842 105.655 128.012 105.231C128.224 104.679 127.97 104.043 127.418 103.788C116.049 99.0369 107.267 88.7706 103.916 76.3832C103.746 75.7893 103.152 75.4499 102.558 75.6196C101.964 75.7893 101.625 76.3832 101.795 76.9771C105.316 90.0433 114.564 100.819 126.57 105.867C126.697 105.867 126.867 105.909 126.994 105.909Z" fill="#002154"/>
<path d="M155.925 106.29C156.052 106.29 156.179 106.247 156.306 106.205C168.566 101.496 178.197 90.8055 182.015 77.6545C182.1 77.3576 182.99 74.7698 183.669 70.9942L183.924 69.3397C184.009 68.7458 183.584 68.1943 182.99 68.1094C182.396 68.0246 181.845 68.4488 181.76 69.0427L181.548 70.6548C180.869 74.388 179.978 76.9758 179.978 77.0182V77.0606C176.33 89.5753 167.209 99.7143 155.543 104.211C154.991 104.423 154.694 105.06 154.906 105.611C155.076 106.035 155.501 106.29 155.925 106.29Z" fill="#002154"/>
<path d="M96.6173 79.6061C98.5687 79.6061 100.945 79.0122 103.66 77.2305C104.169 76.8911 104.296 76.2123 103.957 75.7033C103.617 75.1942 102.938 75.0669 102.429 75.4063C98.7809 77.782 95.2601 78.0365 92.5026 76.1275C89.1512 73.7942 87.5389 68.6611 88.6419 63.8674C89.2358 61.322 90.3815 59.6675 92.0784 58.9039C95.7692 57.2494 101.029 60.1766 101.072 60.1766C101.581 60.4735 102.259 60.3039 102.556 59.7524C102.853 59.2433 102.684 58.5645 102.132 58.2676C101.878 58.1403 95.8962 54.7889 91.1873 56.8676C88.8116 57.9282 87.2421 60.0917 86.4785 63.3159C85.1634 69.0005 87.115 74.9821 91.23 77.8668C92.4178 78.7153 94.2416 79.6061 96.6173 79.6061Z" fill="#002154"/>
<path d="M205.729 154.185C205.898 154.185 206.026 154.143 206.196 154.1C206.747 153.846 207.002 153.209 206.747 152.658C187.911 111.635 188.42 83.0849 188.675 69.34C188.717 67.4734 188.76 65.8613 188.717 64.5038C188.675 62.9342 188.675 61.2797 188.675 59.7101C188.632 46.4318 188.59 32.7293 177.688 19.2389C163.221 1.379 145.022 1.03962 137.853 1.71838C124.532 2.99105 116.302 11.1786 115.963 11.5604C115.538 11.9846 115.538 12.6634 115.963 13.0876C116.387 13.5119 117.066 13.5119 117.49 13.0876C117.575 13.0028 125.508 5.06976 138.022 3.92435C144.81 3.28801 162.161 3.6274 175.948 20.6389C186.384 33.5353 186.427 46.856 186.469 59.7525C186.469 61.3221 186.469 62.9766 186.511 64.5462C186.511 65.8613 186.512 67.4734 186.469 69.2976C186.215 83.2122 185.663 112.102 204.711 153.591C204.923 153.973 205.305 154.185 205.729 154.185Z" fill="#002154"/>
<path d="M92.3327 58.3964H92.375C92.9689 58.354 93.4357 57.8449 93.3933 57.251C92.8842 47.409 94.1994 33.4944 103.235 22.9311C108.665 16.6102 114.35 14.489 114.435 14.4466C114.986 14.2345 115.283 13.5982 115.071 13.0467C114.859 12.4952 114.223 12.1982 113.671 12.4103C113.417 12.4952 107.435 14.7436 101.666 21.4039C96.3628 27.5552 90.2539 38.7548 91.1872 57.3783C91.272 57.9298 91.7388 58.3964 92.3327 58.3964Z" fill="#002154"/>
<path d="M92.2476 144.09C92.8415 144.09 93.3508 143.624 93.3508 143.03L94.4114 77.8261C94.4114 77.2322 93.9447 76.7231 93.3508 76.7231C92.7569 76.7231 92.2476 77.1898 92.2476 77.7837L91.187 142.987C91.1446 143.581 91.6537 144.09 92.2476 144.09Z" fill="#002154"/>
<path d="M199.832 210.437C199.874 210.437 199.916 210.437 200.001 210.437C220.237 207.552 232.836 189.777 233.388 189.014C233.6 188.674 233.643 188.25 233.473 187.911C219.898 161.015 199.705 145.276 185.196 136.834C171.578 128.901 160.506 125.762 157.409 124.956L157.069 106.205C157.069 105.611 156.561 105.144 155.967 105.144C155.373 105.144 154.864 105.653 154.906 106.247L155.288 125.847C155.288 126.356 155.67 126.78 156.137 126.907C156.264 126.949 168.736 129.749 184.178 138.743C198.304 146.973 217.904 162.288 231.225 188.293C228.976 191.262 217.14 205.813 199.747 208.274C199.153 208.358 198.729 208.91 198.813 209.504C198.813 210.055 199.28 210.437 199.832 210.437Z" fill="#002154"/>
<path d="M81.8125 207.47C82.0246 207.47 82.2791 207.385 82.4488 207.258C82.4488 207.258 93.7756 198.985 97.7209 196.101C98.23 195.761 98.3147 195.04 97.9753 194.574C97.6359 194.064 96.9149 193.98 96.4483 194.319C93.0969 196.78 84.5698 203.016 81.9396 204.925C66.7524 188.846 55.6376 180.15 52.371 177.689C86.0546 141.036 127.162 126.697 127.586 126.528C128.01 126.358 128.307 125.976 128.307 125.51V105.147C128.307 104.553 127.799 104.044 127.205 104.044C126.611 104.044 126.101 104.553 126.101 105.147V124.746C123.429 125.722 113.842 129.455 101.327 136.497C87.7516 144.133 67.7705 157.411 49.9106 177.138C49.6985 177.35 49.6135 177.689 49.6135 177.986C49.656 178.283 49.8259 178.58 50.0804 178.75C50.2077 178.835 62.6373 187.616 81.0063 207.131C81.2608 207.385 81.5155 207.47 81.8125 207.47Z" fill="#002154"/>
<path d="M119.907 128.095C119.949 128.095 120.034 128.095 120.077 128.052C120.374 127.968 120.543 127.671 120.416 127.374C116.174 113.841 114.816 96.4476 114.816 96.2779C114.774 95.9809 114.519 95.7688 114.222 95.7688C113.925 95.8112 113.713 96.0658 113.713 96.3627C113.713 96.5324 115.071 114.011 119.356 127.713C119.44 127.925 119.695 128.095 119.907 128.095Z" fill="#002154"/>
<path d="M177.094 133.485C177.179 133.485 177.264 133.442 177.349 133.4C177.604 133.23 177.689 132.933 177.561 132.636C167.295 114.861 167.677 99.2071 167.677 99.0798C167.677 98.7829 167.465 98.5283 167.168 98.5283C166.871 98.5283 166.616 98.7404 166.616 99.0374C166.616 99.2071 166.192 115.116 176.628 133.188C176.713 133.4 176.882 133.485 177.094 133.485Z" fill="#002154"/>
<path d="M122.75 14.8694C122.75 14.8694 121.689 35.2322 103.278 59.2858C101.708 61.3645 101.75 58.7768 101.072 59.2858C101.114 59.2858 116.174 40.9593 122.75 14.8694Z" fill="#002154"/>
<path d="M116.048 12.3673C116.26 12.3249 121.478 1.42226 120.375 0.192001C119.272 -1.03825 112.442 3.92519 112.06 7.06446C111.721 10.2037 112.824 12.9612 114.394 13.046C115.963 13.1309 112.23 10.8825 113.842 6.59781C113.842 6.59781 114.903 3.62823 118.381 2.22828C118.424 2.18586 114.606 12.7491 116.048 12.3673Z" fill="#002154"/>
<path d="M92.2915 51.2258C92.2915 51.2258 109.685 44.8624 117.448 30.6509C117.448 30.6509 106.97 44.3534 92.9701 49.5289L92.2915 51.2258Z" fill="#002154"/>
<path d="M165.341 69.298L126.78 69.2556C126.78 69.2556 131.361 84.1035 147.312 83.3823C162.245 82.746 165.341 69.298 165.341 69.298Z" fill="white"/>
<path d="M146.251 84.1885C146.633 84.1885 146.973 84.1885 147.355 84.1461C162.712 83.4674 166.063 69.5952 166.105 69.4679C166.148 69.2558 166.105 69.0013 165.978 68.8316C165.851 68.6619 165.596 68.5346 165.384 68.5346L126.822 68.4922C126.567 68.4922 126.355 68.6194 126.228 68.7891C126.101 69.0013 126.058 69.2134 126.101 69.4679C126.101 69.6376 130.767 84.1885 146.251 84.1885ZM164.324 70.0618C163.348 73.0314 159.318 82.1098 147.27 82.6613C134.288 83.2128 129.198 73.2859 127.882 70.0194L164.324 70.0618Z" fill="#002154"/>
<path d="M155.628 5.28362C159.87 6.25934 169.882 17.1619 173.446 28.3615C177.561 41.3428 183.076 47.7911 187.148 50.9303L187.233 52.4151C181.676 49.5304 177.136 42.1913 172.13 28.9554C165.64 11.6894 153.549 5.32603 153.549 5.32603C153.549 5.32603 153.592 4.81697 155.628 5.28362Z" fill="#002154"/>
<path d="M216.717 365.238C216.844 365.238 216.929 365.238 217.056 365.196C217.65 365.026 217.947 364.39 217.777 363.838C217.735 363.626 211.583 343.773 206.068 318.955C198.814 286.205 196.014 259.776 197.923 242.467C202.59 200.681 200.978 188.803 193.851 174.379C193.596 173.828 192.917 173.616 192.366 173.87C191.814 174.125 191.602 174.803 191.857 175.355C198.305 188.336 200.596 198.602 195.717 242.213C193.257 264.357 198.814 296.429 203.863 319.422C209.378 344.324 215.529 364.263 215.613 364.432C215.825 364.941 216.25 365.238 216.717 365.238Z" fill="#002154"/>
<path d="M153.676 163.561C153.931 163.561 154.185 163.476 154.397 163.307C168.185 151.556 176.627 134.672 176.712 134.502C176.967 133.95 176.754 133.314 176.203 133.017C175.651 132.762 175.015 132.975 174.718 133.526C174.633 133.696 166.658 149.647 153.592 161.101C148.84 157.749 122.665 139.508 108.581 133.569C108.03 133.314 107.394 133.611 107.139 134.162C106.884 134.714 107.181 135.35 107.733 135.605C122.708 141.926 152.743 163.179 153.04 163.392C153.21 163.519 153.464 163.561 153.676 163.561Z" fill="#002154"/>
<path d="M269.406 290.871C271.484 290.871 273.605 290.702 275.684 290.405C292.865 287.775 304.404 275.472 309.961 253.837C314.543 236.061 314.119 216.123 313.864 202.929C313.822 200.13 313.779 197.711 313.779 195.718C313.822 190.203 315.688 181.93 324.427 173.785C325.658 172.64 326.973 171.452 328.245 170.349C334.566 164.707 340.548 159.404 338.639 155.416C338.639 155.374 338.597 155.331 338.597 155.331C338.13 154.568 337.07 153.55 335.585 153.337C336.518 151.598 337.282 149.222 336.009 147.695C334.736 146.168 333.124 145.913 331.639 146.126C332.191 144.471 332.445 142.392 331.046 141.205C329.518 139.889 327.736 139.974 326.294 140.399C326.464 139.253 326.337 137.896 325.403 136.708C325.106 136.326 324.512 135.817 323.452 135.732C320.143 135.393 313.27 139.168 305.507 145.659C298.38 151.556 289.514 158.937 287.011 157.071C286.756 156.901 286.502 156.689 286.205 156.477C283.065 154.101 277.338 149.689 272.332 149.689C272.248 149.689 272.12 149.689 272.035 149.689C271.145 149.731 270.339 150.156 269.83 150.877C269.321 151.598 269.151 152.489 269.363 153.337C269.702 154.61 270.72 156.307 272.248 158.895C273.181 160.464 274.326 162.458 275.641 164.834C278.865 170.731 286.459 226.432 276.108 244.97C274.114 248.576 271.654 250.4 268.599 250.57C260.624 250.994 251.037 241.661 240.77 223.716C232.922 209.929 227.492 195.76 227.407 195.633C227.195 195.081 226.558 194.784 226.007 194.996C225.455 195.208 225.158 195.845 225.371 196.396C226.261 198.73 247.176 252.734 268.09 252.776C268.302 252.776 268.472 252.776 268.684 252.776C272.502 252.564 275.642 250.315 278.017 246.073C288.708 226.941 281.368 170.731 277.55 163.816C276.235 161.398 275.048 159.404 274.114 157.792C272.714 155.459 271.739 153.762 271.484 152.743C271.399 152.447 271.526 152.234 271.611 152.15C271.696 152.065 271.866 151.895 272.163 151.853C276.448 151.683 281.963 155.925 284.932 158.174C285.229 158.386 285.526 158.598 285.738 158.81C289.429 161.567 296.174 156.265 306.95 147.313C315.137 140.526 321.161 137.683 323.282 137.896C323.41 137.896 323.621 137.938 323.749 138.065C324.937 139.55 323.579 141.926 323.537 141.926C323.282 142.392 323.367 142.944 323.749 143.283C324.131 143.623 324.725 143.665 325.106 143.368C325.149 143.368 327.949 141.374 329.646 142.859C330.367 143.495 329.518 146.083 328.627 147.61C328.373 148.035 328.458 148.628 328.839 148.968C329.221 149.307 329.773 149.35 330.197 149.053C330.282 148.968 332.827 147.271 334.354 149.095C334.991 149.859 333.676 152.574 332.53 154.143C332.233 154.568 332.233 155.119 332.573 155.501C332.912 155.883 333.421 156.01 333.888 155.798C335.542 154.992 336.518 156.095 336.73 156.477C337.79 158.98 331.724 164.41 326.846 168.779C325.573 169.925 324.215 171.112 322.985 172.258C313.652 180.955 311.701 189.863 311.658 195.802C311.658 197.839 311.701 200.257 311.743 203.057C312.252 228.85 313.313 282.557 275.387 288.326C265.163 289.896 254.854 287.393 244.758 280.902C236.613 275.684 228.637 267.836 220.959 257.655C207.893 240.219 200.299 221.723 200.257 221.51C200.045 220.959 199.408 220.662 198.814 220.917C198.263 221.129 197.966 221.765 198.22 222.359C198.305 222.529 205.983 241.322 219.219 258.97C227.025 269.363 235.213 277.381 243.57 282.769C252.055 288.114 260.751 290.871 269.406 290.871Z" fill="#002154"/>
<path d="M318.955 167.039C319.252 167.039 319.506 166.912 319.718 166.7C325.488 160.761 334.481 155.288 334.566 155.246C335.075 154.949 335.245 154.27 334.948 153.761C334.651 153.252 333.972 153.082 333.463 153.379C333.082 153.591 324.13 159.064 318.149 165.173C317.724 165.597 317.724 166.318 318.149 166.7C318.403 166.954 318.658 167.039 318.955 167.039Z" fill="#002154"/>
<path d="M313.355 161.398C313.652 161.398 313.907 161.27 314.119 161.058C317.597 157.58 329.985 149.053 330.112 148.968C330.621 148.629 330.749 147.95 330.409 147.441C330.07 146.932 329.391 146.804 328.882 147.144C328.373 147.483 316.198 155.883 312.592 159.489C312.167 159.913 312.167 160.592 312.592 161.016C312.804 161.27 313.101 161.398 313.355 161.398Z" fill="#002154"/>
<path d="M308.137 156.094C308.434 156.094 308.689 156.009 308.901 155.797C313.991 150.749 324.936 143.41 325.021 143.367C325.53 143.028 325.658 142.349 325.318 141.84C324.979 141.331 324.3 141.204 323.791 141.543C323.324 141.84 312.591 149.052 307.331 154.27C306.907 154.694 306.907 155.373 307.331 155.797C307.585 155.967 307.84 156.094 308.137 156.094Z" fill="#002154"/>
<path d="M216.717 365.239C216.802 365.239 216.887 365.239 216.929 365.197C237.165 360.954 251.079 351.961 258.248 338.386C261.685 331.895 265.333 320.78 263.085 304.744C261.77 295.199 259.012 288.497 258.885 288.2C258.673 287.648 257.994 287.394 257.443 287.606C256.891 287.818 256.636 288.497 256.849 289.048C256.976 289.303 267.667 315.859 256.255 337.41C249.382 350.349 235.977 359.003 216.42 363.118C215.826 363.245 215.444 363.839 215.571 364.433C215.741 364.857 216.208 365.239 216.717 365.239Z" fill="#002154"/>
<path d="M207.256 328.967C207.383 328.967 207.468 328.924 207.552 328.882C215.061 323.749 219.176 315.688 219.813 304.913C220.322 296.386 218.667 286.162 214.849 274.496C208.401 254.685 197.88 237.376 197.753 237.206C197.583 236.952 197.244 236.867 196.989 237.037C196.735 237.206 196.65 237.546 196.82 237.8C196.904 237.97 207.383 255.194 213.789 274.835C217.522 286.374 219.176 296.428 218.667 304.828C218.031 315.222 214.086 322.985 206.874 327.948C206.619 328.118 206.577 328.457 206.747 328.712C206.916 328.882 207.086 328.967 207.256 328.967Z" fill="#002154"/>
<path d="M82.4484 356.839C82.9575 356.839 83.4241 356.457 83.509 355.948C87.7088 331.937 96.8297 271.018 96.4478 246.243C96.1509 225.711 94.0721 214.766 92.5449 206.79C92.1631 204.839 91.8238 203.015 91.5692 201.275C91.4844 200.681 90.9329 200.257 90.2966 200.384C89.7027 200.469 89.2782 201.021 89.4054 201.657C89.7024 203.439 90.042 205.263 90.4238 207.257C91.9085 215.19 93.9447 226.008 94.284 246.328C94.6659 270.933 85.5877 331.682 81.3878 355.609C81.303 356.203 81.6846 356.754 82.2785 356.881C82.321 356.839 82.406 356.839 82.4484 356.839Z" fill="#002154"/>
<path d="M89.2368 306.313C89.6186 306.313 90.0005 306.101 90.1702 305.762C90.4671 305.253 90.255 304.574 89.746 304.319C57.5048 286.884 39.0083 268.769 39.0083 254.6C39.0083 248.449 45.0325 238.267 56.02 225.923C64.8439 215.953 74.9826 206.917 78.8855 204.669C79.3946 204.372 79.5644 203.735 79.2675 203.226C78.9705 202.717 78.334 202.548 77.825 202.845C69.8071 207.426 36.8449 238.946 36.8449 254.6C36.8449 263.382 43.5902 281.793 88.6854 306.228C88.8975 306.271 89.0671 306.313 89.2368 306.313Z" fill="#002154"/>
<path d="M78.3343 345.257C78.6737 345.257 79.0129 345.087 79.225 344.79C79.5644 344.281 79.4375 343.645 78.9284 343.305C70.6136 337.663 68.4922 328.924 68.4922 328.797C68.4074 328.5 68.2377 328.245 67.9408 328.076C67.7711 327.991 51.5657 319.591 35.4875 306.907C20.7669 295.283 3.11922 277.593 2.77985 259.309C2.52531 246.327 9.60972 230.631 23.8213 212.686C35.9117 197.414 49.6992 184.942 54.2384 180.827C54.6626 180.445 54.7051 179.766 54.3233 179.3C53.9415 178.875 53.2625 178.833 52.7958 179.215C48.2142 183.33 34.3421 195.887 22.1244 211.329C7.61585 229.698 0.404175 245.818 0.658714 259.309C0.828407 267.793 4.43407 276.829 11.4338 286.12C16.9912 293.459 24.6273 301.053 34.2148 308.561C49.0203 320.228 63.9106 328.288 66.5832 329.73C67.1771 331.767 69.8499 339.657 77.7829 345.002C77.9526 345.172 78.1646 345.257 78.3343 345.257Z" fill="#002154"/>
<path d="M174.039 43.0386C176.797 55.3836 182.057 66.0741 187.19 74.1768C187.19 75.1101 187.191 76.4676 187.233 77.8676C180.064 66.668 174.252 53.3049 172.215 42.0205C168.609 22.1243 161.78 12.1125 161.78 12.1125C161.78 12.1125 167.888 15.3791 174.039 43.0386Z" fill="#002154"/>
<path d="M82.322 352.893C82.7887 352.893 83.2126 352.596 83.3399 352.129C83.5096 351.578 83.2128 350.984 82.6613 350.772C82.6189 350.772 79.7342 349.839 77.0192 347.675C73.4981 344.918 71.886 341.524 72.2678 337.579C72.3102 336.985 71.8861 336.476 71.2921 336.433C70.6982 336.391 70.1891 336.815 70.1467 337.409C69.1709 348.608 81.8977 352.766 82.025 352.808C82.1098 352.851 82.1948 352.893 82.322 352.893Z" fill="#002154"/>
</svg>
