<svg width="137" height="155" viewBox="0 0 137 155" fill="none" xmlns="http://www.w3.org/2000/svg">
<path d="M68.5836 154.391C106.369 154.391 137 123.76 137 85.9743C137 48.1889 106.369 17.5579 68.5836 17.5579C30.7982 17.5579 0.167145 48.1889 0.167145 85.9743C0.167145 123.76 30.7982 154.391 68.5836 154.391Z" fill="#FFE8C5"/>
<mask id="mask0_148_2684" style="mask-type:alpha" maskUnits="userSpaceOnUse" x="0" y="0" width="137" height="155">
<path d="M68.5834 154.391C106.369 154.391 137 123.76 137 85.9746C137 48.1893 106.369 0 68.5834 0C30.798 0 0.166932 48.1893 0.166932 85.9746C-2.65854 138.649 30.798 154.391 68.5834 154.391Z" fill="#EFE3FF"/>
</mask>
<g mask="url(#mask0_148_2684)">
<path d="M23.1201 112.605C23.1201 112.605 33.8042 89.1446 45.8199 81.0919C57.8355 73.0391 72.2924 73.5781 72.2924 73.5781C72.2924 73.5781 90.3952 72.5319 102.125 95.0732C113.856 117.614 113.761 137.588 113.761 137.588C113.761 137.588 94.6117 156.039 66.3638 154.454C38.1159 152.869 26.6709 139.807 26.6709 139.807C26.6709 139.807 16.6525 139.87 23.1201 112.605Z" fill="#FFA528"/>
<path d="M56.9478 19.7138C56.9478 19.7138 52.3691 4.87502 62.9315 1.42189C70.6501 -1.42178 74.4165 7.53965 76.0017 10.71C76.0017 10.71 75.8748 7.34943 79.7427 6.52513C83.6105 5.70084 86.2997 10.3224 88.9311 17.2655C91.5625 24.2086 99.177 28.1787 95.4994 41.5893C95.4994 41.5893 88.6514 53.6367 67.3466 49.7372C46.0417 45.8376 56.9478 19.7138 56.9478 19.7138Z" fill="#E3E3E3"/>
<path d="M89.0319 26.8788C84.7519 20.3161 77.682 16.0361 69.6927 16.0361C56.6308 16.0361 46.0417 27.4494 46.0417 41.5575C46.0417 52.7172 53.3653 61.3723 61.957 65.684L61.7033 73.388L60.1182 74.8464C60.1182 74.8464 61.0693 78.6508 68.2343 78.841C68.2343 78.841 72.9264 78.841 75.3042 77.8582L79.4257 74.4025L77.8722 72.2784L77.8405 65.5572C77.8405 65.5572 87.0979 62.0698 91.473 51.354C91.473 51.354 96.0384 52.7489 97.4967 46.5033C97.4967 46.5033 98.0674 41.9697 93.6923 40.9869C93.6923 40.9869 91.5047 40.765 90.0147 42.5404C90.0147 42.5404 87.5418 38.5457 87.3833 34.551C87.1931 29.6053 89.0319 26.8788 89.0319 26.8788Z" fill="white"/>
<path d="M71.373 119.454C71.373 119.454 79.3306 119.612 79.1403 121.926C78.9501 124.241 73.2118 124.685 73.2118 124.685C73.2118 124.685 79.4891 125.446 79.4257 127.665C79.3623 129.884 73.2435 129.63 73.2435 129.63C73.2435 129.63 79.2989 130.201 79.2354 132.389C79.172 134.576 73.3703 134.798 73.3703 134.798C73.3703 134.798 78.6648 135.21 78.4746 137.366C78.316 139.49 70.1365 140.283 70.1365 140.283C70.1365 140.283 68.8684 133.942 69.2805 129.092C69.978 121.926 71.373 119.454 71.373 119.454Z" fill="white"/>
<path d="M23.1203 112.606C23.1203 112.606 24.0714 115.237 28.0343 115.142L57.8358 114.857C57.8358 114.857 68.9003 114.064 71.5 118.851C71.5 118.851 67.3151 129.631 70.3904 140.759C70.3904 140.759 67.2517 143.39 58.2162 144.278C49.1807 145.165 30.8877 143.422 28.6367 142.851C26.3858 142.28 17.699 140.822 18.1111 129.377C18.0794 129.377 19.411 119.2 23.1203 112.606Z" fill="white"/>
<path d="M49.9094 114.983C49.9094 114.983 60.657 89.7152 79.6474 74.4341C79.6474 74.4341 83.1031 75.3535 85.6711 77.2874C85.6711 77.2874 70.4851 88.7324 58.2792 114.793L49.9094 114.983Z" fill="white"/>
<path d="M89.0319 26.8788C84.7519 20.3161 77.682 16.0361 69.6927 16.0361C56.6308 16.0361 46.2003 26.7203 46.2003 40.8284C46.2003 51.988 52.4142 60.3261 61.957 65.684V71.7711C61.957 73.2929 60.9425 74.5927 59.4841 75.0049C54.3798 76.3681 42.5544 80.553 35.7698 91.2054C26.9245 105.028 3.08337 140.283 31.7434 143.421C65.6029 147.131 70.2951 140.853 70.2951 140.853" stroke="#002154" stroke-width="1.01561" stroke-miterlimit="10" stroke-linecap="round" stroke-linejoin="round"/>
<path d="M91.5046 51.4487C88.9683 57.948 84.1176 62.3548 77.8403 65.4934V71.1367C77.8403 72.6902 78.7914 74.0851 80.2498 74.6241C87.7002 77.3506 109.988 89.4931 113.761 137.809" stroke="#002154" stroke-width="1.01561" stroke-miterlimit="10" stroke-linecap="round" stroke-linejoin="round"/>
<path d="M23.2472 112.574C23.2472 112.574 23.7544 115.237 28.2564 115.173C32.7583 115.078 60.0551 114.825 60.0551 114.825C60.0551 114.825 68.7736 114.571 71.4684 118.883C71.4684 118.883 67.2518 128.204 70.2954 140.853" stroke="#002154" stroke-width="1.01561" stroke-miterlimit="10" stroke-linecap="round" stroke-linejoin="round"/>
<path d="M59.1038 39.6238C59.1038 39.6238 60.2154 43.4334 64.6202 43.9355C69.025 44.4376 71.4625 40.0152 71.4625 40.0152" stroke="#002154" stroke-width="1.01561" stroke-miterlimit="10" stroke-linecap="round" stroke-linejoin="round"/>
<path d="M71.9439 28.9076C72.0708 29.0661 72.6414 29.9538 74.1315 29.8904C75.4313 29.8587 76.1288 29.2247 76.3507 28.2736C76.3507 28.2736 76.319 27.8297 75.685 28.3053C75.0509 28.7808 73.751 29.2564 72.6414 28.4004C72.0391 27.9248 72.0073 28.0199 71.8805 28.0516C71.6269 28.115 71.8805 28.7491 71.9439 28.8759C71.9122 28.8759 71.9122 28.9076 71.9439 28.9076Z" fill="#002154"/>
<path d="M57.9944 28.559C58.1212 28.7175 58.5334 29.6052 59.8649 29.6369C61.0063 29.6686 61.672 29.0345 61.894 28.1151C61.894 28.1151 61.894 27.6713 61.2916 28.1151C60.6892 28.559 59.5479 28.9711 58.5968 28.0834C58.0895 27.5762 58.0578 27.6713 57.931 27.703C57.6774 27.7664 57.8993 28.4005 57.931 28.5273C57.9627 28.5273 57.9627 28.5273 57.9944 28.559Z" fill="#002154"/>
<path d="M89.6974 50.0543C90.2681 50.7517 90.9973 51.2273 91.885 51.4175C94.2945 51.9565 96.7357 50.086 97.3697 47.2643C98.0038 44.4427 96.5771 41.6845 94.1677 41.1455C92.6776 40.7968 91.1558 41.3992 90.0462 42.6039C90.0462 42.6039 84.6883 35.5974 89 26.8789" stroke="#002154" stroke-width="1.01561" stroke-miterlimit="10" stroke-linecap="round"/>
<path d="M56.9479 19.7138C56.9479 19.7138 52.5443 5.49286 62.1188 1.62502C71.0563 -1.98549 74.4166 7.53964 76.0018 10.71C76.0018 10.71 75.875 7.34942 79.7428 6.52512C83.6107 5.70083 86.2995 10.5255 88.9309 17.4686C91.5623 24.4117 99.1771 28.1787 95.4995 41.5893" stroke="#002154" stroke-width="1.01561" stroke-miterlimit="10" stroke-linecap="round" stroke-linejoin="round"/>
<path d="M71.3732 119.454C71.3732 119.454 79.3308 119.612 79.1406 121.926C78.9503 124.241 73.212 124.685 73.212 124.685C73.212 124.685 79.4893 125.446 79.4259 127.665C79.3625 129.884 73.2437 129.63 73.2437 129.63C73.2437 129.63 79.2991 130.201 79.2357 132.389C79.1723 134.576 73.3705 134.798 73.3705 134.798C73.3705 134.798 78.665 135.21 78.4748 137.366C78.3163 139.49 70.1367 140.283 70.1367 140.283" stroke="#002154" stroke-width="1.01561" stroke-miterlimit="10" stroke-linecap="round" stroke-linejoin="round"/>
<path d="M79.616 74.5928C79.616 74.5928 59.2623 89.8105 50.1633 114.698" stroke="#002154" stroke-width="1.01561" stroke-miterlimit="10" stroke-linecap="round" stroke-linejoin="round"/>
<path d="M86.0834 77.541C86.0834 77.541 71.4046 87.496 58.1525 114.571" stroke="#002154" stroke-width="1.01561" stroke-miterlimit="10" stroke-linecap="round" stroke-linejoin="round"/>
<path d="M58.0258 114.983C58.0258 114.983 53.0801 132.103 58.6916 144.024" stroke="#002154" stroke-width="1.01561" stroke-miterlimit="10" stroke-linecap="round" stroke-linejoin="round"/>
<path d="M60.0865 74.9415C60.0865 74.9415 60.9425 78.4289 68.5514 78.746C72.1022 78.9045 76.0335 78.3021 79.4258 74.4026" stroke="#002154" stroke-width="1.01561" stroke-miterlimit="10" stroke-linecap="round" stroke-linejoin="round"/>
</g>
</svg>
