<svg width="74" height="17" viewBox="0 0 74 17" fill="none" xmlns="http://www.w3.org/2000/svg">
<g clip-path="url(#clip0)">
<path d="M9.41053 16.9998C5.31587 16.9998 1.84501 14.3977 0.917319 10.5972C0.101587 7.20663 1.04528 4.27342 3.76438 2.01832C6.86736 -0.583724 11.3139 -0.662574 14.5288 1.73446C14.7528 1.90793 14.8008 2.01832 14.5768 2.2391C12.7374 4.09995 10.898 5.97657 9.05864 7.85319C8.85071 8.07397 8.73875 8.10551 8.49883 7.86896C7.73108 7.11201 6.94734 6.40236 6.16359 5.66117C5.71574 5.23538 5.12394 5.20384 4.74006 5.58232C4.3242 5.99234 4.35619 6.54429 4.83603 7.00162C5.93967 8.04243 7.0433 9.06748 8.14694 10.0925C8.59479 10.5025 9.12262 10.471 9.58647 10.0137C11.6658 7.88473 13.7451 5.77156 15.8244 3.65839C16.1763 3.31145 16.1603 3.31145 16.4482 3.72147C17.4719 5.20384 17.9837 6.84392 17.9517 8.62592C17.8717 12.805 14.7688 16.227 10.7221 16.8894C10.2423 16.9682 9.76241 16.984 9.41053 16.9998Z" fill="#69E2B3"/>
<path d="M51.5081 8.51584C51.5081 7.36464 51.5081 6.21343 51.5081 5.06223C51.5081 4.54182 51.764 4.16334 52.1959 4.02141C52.8997 3.78486 53.5555 4.21065 53.6034 4.96761C53.6354 5.69303 53.6354 6.43421 53.6034 7.15963C53.6034 7.45926 53.6994 7.53811 53.9873 7.52234C54.883 7.50657 55.7627 7.50657 56.6584 7.52234C56.9304 7.52234 57.0263 7.45926 57.0263 7.1754C57.0103 6.48152 57.0103 5.78764 57.0263 5.09377C57.0263 4.39989 57.4422 3.95833 58.066 3.94256C58.6898 3.92679 59.1216 4.35258 59.1376 5.06223C59.1536 7.38041 59.1536 9.68282 59.1376 12.001C59.1376 12.7106 58.7058 13.1364 58.082 13.1207C57.4582 13.1207 57.0423 12.6633 57.0423 11.9695C57.0423 11.2125 57.0263 10.4555 57.0423 9.69859C57.0423 9.44627 56.9783 9.39896 56.7224 9.39896C55.7947 9.41473 54.867 9.41473 53.9233 9.39896C53.6674 9.39896 53.6034 9.47781 53.6194 9.71436C53.6354 10.5029 53.6354 11.2756 53.6194 12.0641C53.6034 12.6476 53.2516 13.0418 52.7397 13.1049C52.0679 13.1995 51.5401 12.7422 51.5241 12.0168C51.4921 10.8656 51.5081 9.69859 51.5081 8.51584Z" fill="white"/>
<path d="M64.048 9.47774C64.048 10.3451 64.064 11.2124 64.048 12.064C64.032 12.6948 63.6321 13.1206 63.0723 13.1364C62.5125 13.1679 62.0647 12.8052 61.9847 12.2533C61.9687 12.0956 61.9527 11.9379 61.9527 11.7802C61.9527 9.6039 61.9527 7.44342 61.9527 5.26717C61.9527 5.20409 61.9527 5.14101 61.9527 5.07793C61.9847 4.35251 62.3846 3.92672 63.0243 3.92672C63.6481 3.92672 64.048 4.36828 64.048 5.07793C64.064 5.83488 64.048 6.59184 64.048 7.3488C64.224 7.39611 64.2559 7.25418 64.3359 7.17533C65.2476 6.29221 66.1433 5.39333 67.039 4.51021C67.231 4.32097 67.4229 4.1475 67.6628 4.02134C68.0627 3.81633 68.5265 3.89518 68.8304 4.21058C69.1503 4.52598 69.1983 4.95177 68.9904 5.36179C68.8784 5.5668 68.7185 5.74026 68.5425 5.91373C67.7588 6.67069 66.991 7.41188 66.2073 8.15307C66.0154 8.32654 66.0154 8.43692 66.2073 8.61039C67.103 9.39889 67.9987 10.2189 68.8784 11.0232C69.0864 11.2124 69.2783 11.4017 69.4223 11.6382C69.6462 12.0325 69.5982 12.4425 69.3103 12.7579C69.0064 13.0891 68.5585 13.1837 68.1427 13.0102C67.9028 12.8998 67.6948 12.7263 67.5029 12.5529C66.4632 11.5909 65.4396 10.6289 64.3999 9.68275C64.3039 9.63544 64.2399 9.50928 64.048 9.47774Z" fill="white"/>
<path d="M39.848 7.69583C39.8 8.42124 39.9599 9.38321 39.768 10.3294C39.4161 12.0956 37.7047 13.3415 35.8813 13.1838C33.9139 13.0103 32.4264 11.5279 32.4104 9.68284C32.3944 8.15316 32.3944 6.62347 32.4104 5.09379C32.4104 4.41568 32.8423 3.97412 33.4661 3.97412C34.0739 3.97412 34.4897 4.39991 34.5057 5.07802C34.5217 6.54462 34.5057 8.01123 34.5217 9.47783C34.5217 10.4556 35.1455 11.1337 36.0252 11.181C37.0329 11.2441 37.7367 10.5344 37.7367 9.44629C37.7527 7.99546 37.7367 6.54462 37.7367 5.09379C37.7367 4.27375 38.3605 3.81642 39.1122 4.0372C39.5441 4.16336 39.784 4.49453 39.816 5.01494C39.816 5.04648 39.816 5.09379 39.816 5.12533C39.848 5.89805 39.848 6.68655 39.848 7.69583Z" fill="white"/>
<path d="M45.766 13.1836C44.6944 13.1521 43.6547 12.8998 42.839 12.064C42.5511 11.7801 42.3751 11.4332 42.3751 11.0074C42.3751 10.2662 43.0469 9.80887 43.7507 10.077C44.0226 10.1874 44.2625 10.3608 44.4864 10.5501C44.8223 10.8339 45.1742 11.0862 45.6221 11.1809C45.9899 11.2597 46.3418 11.1966 46.6297 10.9601C47.1576 10.5343 47.0776 9.76156 46.4378 9.4777C46.0219 9.28847 45.5581 9.16231 45.1262 9.03615C44.7264 8.90999 44.3105 8.78383 43.9266 8.59459C42.4391 7.90071 42.0872 6.03986 43.2229 4.85711C43.9906 4.05284 44.9663 3.83206 46.0219 3.89514C46.8537 3.94245 47.6214 4.16323 48.2452 4.73095C48.5651 5.03058 48.6931 5.39329 48.6131 5.83485C48.4851 6.48142 47.7974 6.78104 47.2375 6.41834C46.9496 6.2291 46.6937 6.00832 46.3898 5.81908C45.974 5.56676 45.5421 5.53522 45.0942 5.74023C44.8223 5.86639 44.6464 6.08717 44.6304 6.3868C44.6144 6.70219 44.8063 6.89143 45.0623 7.03336C45.3342 7.19106 45.6541 7.26991 45.958 7.34876C46.5338 7.49069 47.0936 7.6957 47.6374 7.94802C49.4608 8.7996 49.3488 11.0705 48.3572 12.1271C47.7014 12.884 46.8217 13.1679 45.766 13.1836Z" fill="white"/>
<path d="M31.9306 16.3692C31.5787 16.3849 31.3228 16.243 31.0829 16.0222C29.6433 14.666 28.2038 13.294 26.7643 11.9378C25.8366 11.0547 24.9089 10.1716 23.9812 9.28846C23.3894 8.72074 23.3894 8.1688 23.9492 7.58531C25.0848 6.41833 26.2205 5.23559 27.3721 4.06861C27.692 3.73744 28.0759 3.62705 28.4917 3.73744C28.9236 3.84783 29.1635 4.14746 29.2435 4.57325C29.3234 4.9675 29.1475 5.2829 28.8756 5.56675C28.0599 6.40256 27.2441 7.25414 26.4124 8.07418C26.1725 8.31073 26.1565 8.45265 26.4124 8.6892C28.4597 10.6131 30.5071 12.5528 32.5384 14.4768C33.0502 14.9656 33.1142 15.5491 32.6983 16.0065C32.5064 16.2588 32.2345 16.3849 31.9306 16.3692Z" fill="#69E2B3"/>
<path d="M73.6129 8.57888C73.6129 9.69854 73.6129 10.8182 73.6129 11.9536C73.6129 12.6791 73.197 13.1364 72.5732 13.1522C71.9334 13.1679 71.4856 12.7106 71.4856 11.9694C71.4696 10.8498 71.4856 9.73008 71.4856 8.59465C71.4856 7.44344 71.4696 6.29223 71.4856 5.14103C71.5016 4.30522 72.1094 3.80058 72.8611 4.00559C73.341 4.13175 73.6129 4.54177 73.6129 5.1568C73.6289 6.308 73.6129 7.44344 73.6129 8.57888Z" fill="white"/>
<path d="M23.2134 8.56307C23.2134 9.66696 23.2134 10.7551 23.2134 11.859C23.2134 12.5844 22.7816 13.0575 22.1258 13.0575C21.502 13.0417 21.0702 12.5844 21.0702 11.8748C21.0702 9.66696 21.0702 7.45917 21.0702 5.25138C21.0702 4.52596 21.518 4.03709 22.1578 4.05286C22.7816 4.06863 23.1974 4.54173 23.2134 5.23561C23.2294 6.3395 23.2134 7.45917 23.2134 8.56307Z" fill="white"/>
<path d="M8.94612 12.5685C7.92246 12.5685 6.8988 12.5685 5.87513 12.5685C5.25134 12.5685 4.78749 12.1585 4.78749 11.6066C4.78749 11.0861 5.25134 10.6919 5.85914 10.6919C7.90647 10.6919 9.95379 10.6919 12.0011 10.6919C12.6409 10.6919 13.0888 11.1019 13.0888 11.6381C13.0728 12.1743 12.6249 12.5527 12.0171 12.5685C10.9935 12.5685 9.96979 12.5685 8.94612 12.5685Z" fill="#FEFEFE"/>
</g>
<defs>
<clipPath id="clip0">
<rect width="73" height="17" fill="white" transform="translate(0.62886)"/>
</clipPath>
</defs>
</svg>
