<?xml version="1.0" encoding="UTF-8"?>
<svg width="127px" height="156px" viewBox="0 0 127 156" version="1.1" xmlns="http://www.w3.org/2000/svg" xmlns:xlink="http://www.w3.org/1999/xlink">
    <title>Group(2)</title>
    <g id="Page-1" stroke="none" stroke-width="1" fill="none" fill-rule="evenodd">
        <g id="Group(2)" fill-rule="nonzero">
            <path d="M55.6305,10.2294 C63.8938,7.70455 72.2335,15.8913 72.6926,17.192 C79.0431,21.9357 80.4203,35.0957 96.2582,45.2717 C112.096,55.5243 130.382,70.8266 125.409,90.7196 C125.409,90.7196 122.196,112.143 94.8044,115.815 C63.5112,119.182 55.554,91.5612 55.554,91.5612 C55.554,91.5612 47.9029,60.727 46.4492,50.704 C45.225,41.7522 44.1538,40.2985 43.0061,26.3734 C43.0061,26.3734 40.1752,18.0336 47.5203,13.5194 C49.4331,12.2952 52.1875,10.5355 55.6305,10.2294 Z" id="Path" fill="#E3E3E3"></path>
            <path d="M89.0671,116.504 C72.0816,116.504 59.4572,106.481 54.2544,88.118 C45.7616,58.2785 42.3186,24.3073 42.2421,23.9248 C41.936,20.6348 42.7776,17.7274 44.6904,15.432 C49.0516,10.2292 57.3913,9.54062 57.8504,9.46411 C65.8841,8.62248 75.6011,17.9569 80.0388,26.9852 C83.7113,34.4834 89.2201,40.3748 97.4069,45.5775 C108.195,52.4636 122.962,63.3282 126.175,78.554 C128.93,91.714 122.044,108.24 103.681,114.285 C98.478,115.815 93.5813,116.504 89.0671,116.504 Z M58.8451,10.1527 C58.539,10.1527 58.233,10.1527 57.9269,10.2292 C57.8504,10.2292 49.4341,10.9178 45.3025,15.8911 C43.4662,18.0334 42.7011,20.7113 43.0072,23.8483 C43.0072,24.1543 46.4502,58.1254 54.943,87.8884 C57.8504,98.2175 63.3592,106.098 70.7809,110.842 C79.5032,116.351 90.4443,117.269 103.298,113.596 C116.917,109.082 128.853,95.6926 125.334,78.707 C122.197,63.7873 107.659,52.9992 96.9478,46.1896 C88.6846,40.9103 83.0992,34.9424 79.3501,27.2913 C75.2185,18.875 66.3432,10.1527 58.8451,10.1527 Z" id="Shape" fill="#002154"></path>
            <path d="M84.3227,109.388 C80.7267,109.388 76.8246,108.852 72.999,107.322 C64.5062,103.955 58.0028,96.5337 53.6416,85.363 C53.6416,85.2865 53.6416,85.1334 53.7181,85.1334 C53.7946,85.1334 53.9476,85.1334 53.9476,85.2099 C58.2323,96.2276 64.6593,103.573 73.0755,106.939 C85.853,112.065 98.9364,106.098 99.0129,106.021 C108.347,101.124 113.55,93.5497 113.627,84.6744 C113.78,73.5037 105.669,62.027 92.5095,54.7584 C72.4634,43.2816 70.2446,25.7605 70.2446,25.6075 C70.2446,25.531 70.3211,25.3779 70.3976,25.3779 C70.5507,25.3779 70.6272,25.4544 70.6272,25.531 C70.6272,25.684 72.9225,43.0521 92.739,54.3758 C106.052,61.7209 114.162,73.3507 114.086529,84.6744 C114.009,93.7027 108.73,101.43 99.2425,106.404 C99.166,106.404 92.6625,109.388 84.3227,109.388 Z" id="Path" fill="#002154"></path>
            <path d="M85.7002,95.6926 C85.6237,95.6926 85.5472,95.6926 85.4707,95.6926 C80.9565,95.616 76.4423,92.8616 71.9281,87.5823 C61.5225,75.4935 55.6312,45.348 54.0244,31.1168 C54.0244,31.0403 54.1009,30.8873 54.1774,30.8873 C54.3305,30.8873 54.407,30.9638 54.407,31.0403 C56.0902,45.2715 61.9051,75.3405 72.2342,87.3528 C76.6718,92.5556 81.1095,95.2335 85.4707,95.31 C90.2909,95.3865 93.2748,92.2495 93.2748,92.2495 C96.3353,89.0361 97.636,85.3635 97.3299,81.4614 C96.5648,71.821 85.8532,63.4812 85.7767,63.4047 C85.5472,63.2517 63.2823,45.8836 63.1293,30.5812 C63.1293,30.5047 63.2058,30.4282 63.2823,30.4282 C63.3588,30.4282 63.4353,30.5047 63.4353,30.5812 C63.5884,45.7305 85.7002,62.9456 85.9297,63.1752 C86.0062,63.2517 96.8709,71.7444 97.636,81.5379 C97.942,85.593 96.5648,89.3421 93.4279,92.6321 C93.5044,92.5556 90.5204,95.6926 85.7002,95.6926 Z" id="Path" fill="#002154"></path>
            <path d="M41.7054,21.1696 C41.7054,21.1696 40.0986,8.39215 51.9579,4.56657 C51.9579,4.56657 50.5807,2.65378 52.0344,1.35308 C53.4881,0.0523882 53.6412,0.51146 53.5646,0.817506 C53.4881,1.12355 52.417,3.80146 52.876,3.87797 C52.876,3.87797 63.8172,-3.00807 71.6979,6.93843 C71.6979,6.93843 74.6053,11.2231 76.4416,18.7212 C78.3544,26.2193 81.3383,30.1214 81.3383,30.1214 C81.3383,30.1214 78.0483,28.6677 73.6872,23.6945 L41.7054,21.1696 Z" id="Path" fill="#E3E3E3"></path>
            <path d="M29.4634,71.2093 L41.4757,75.6469 C41.4757,75.6469 43.1589,86.0525 42.0878,97.1467 C41.0931,107.399 36.8085,117.499 36.8085,117.499 C36.8085,117.499 49.1268,122.931 62.7459,122.013 C76.3649,121.171 82.4859,117.575 82.4859,117.575 C82.4859,117.575 76.9005,101.737 76.824,89.572 C76.824,89.572 77.2066,82.9155 77.3596,79.6255 C77.5126,76.3355 77.7422,75.6469 77.7422,75.6469 L89.1424,71.2093 C89.1424,71.2093 83.098,56.213 80.8026,54.0707 C78.5838,51.9284 72.3098,48.8679 72.3098,48.8679 C72.3098,48.8679 49.8154,47.6437 45.3778,49.1739 C41.0166,50.7042 36.6555,53.3821 34.5131,58.8144 C32.5238,64.2467 29.4634,71.2093 29.4634,71.2093 Z" id="Path" fill="#FFA733"></path>
            <path d="M26.5552,121.783 C26.5552,121.783 36.4252,117.728 36.8077,117.422 C36.8077,117.422 47.9019,122.319 62.7452,121.936 C77.8179,121.553 82.4851,117.498 82.4851,117.498 C82.4851,117.498 119.976,128.746 116.839,142.518 C113.778,155.448 97.0988,157.82 78.9656,153.229 L61.7505,147.261 C61.7505,147.261 40.1743,156.978 23.2652,155.372 C23.2652,155.372 5.59104,154.836 3.83127,141.676 C2.14802,128.516 26.5552,121.783 26.5552,121.783 Z" id="Path" fill="#F0F0F0"></path>
            <path d="M44.6886,21.1701 C44.6886,21.1701 39.7154,19.4869 40.1745,24.4601 C40.1745,24.4601 40.7866,28.8978 45.3007,27.3676 C45.3007,27.3676 47.6726,34.8657 54.4056,37.3141 L54.4056,44.0471 C54.4056,44.0471 54.2526,46.5719 52.1868,47.184 C50.121,47.7196 46.9075,48.5612 45.6068,49.1733 C45.6068,49.1733 49.9679,56.6715 59.5319,56.4419 C69.0958,56.2124 72.3858,49.4794 72.4623,48.8673 C72.4623,48.8673 66.877,47.3371 65.9588,47.031 C65.0407,46.725 64.2756,45.4243 64.1991,43.741 C64.1226,42.2108 64.2756,37.008 64.2756,37.008 C64.2756,37.008 73.8395,31.6522 73.8395,23.848 C73.8395,23.848 70.014,18.1097 68.9428,14.0545 C67.8716,9.92292 65.9589,7.09199 65.6528,6.63293 C65.3468,6.32688 57.7721,2.19526 51.9572,5.63828 C51.9572,5.63828 50.274,12.9834 47.9786,16.5029 C45.6833,19.7929 44.6886,21.1701 44.6886,21.1701 Z" id="Path" fill="#FFFFFF"></path>
            <path d="M87.3066,72.2036 C87.3066,72.2036 95.1873,109.771 112.326,126.144 C112.326,126.144 118.217,131.041 118.294,134.637 C118.37,138.233 117.223,138.845 116.457,136.167 C116.457,136.167 116.151,138.157 115.233,138.157 C114.239,138.157 113.703,136.856 113.703,136.856 C113.703,136.856 113.627,138.692 112.479,138.769 C111.331,138.845 110.949,137.391 110.949,137.391 C110.949,137.391 110.796,139.304 109.801,139.304 C108.806,139.381 108.041,138.08 107.506,136.703 C106.97,135.326 105.593,132.801 105.134,132.648 C105.134,132.648 103.298,135.861 102.15,135.708 C101.079,135.555 101.308,131.424 101.538,130.505 C101.538,130.505 85.8529,113.596 78.2017,78.7836 C78.2017,78.7836 77.8957,75.9527 78.0487,75.6466 C77.8957,75.3406 87.3066,72.2036 87.3066,72.2036 Z" id="Path" fill="#FFFFFF"></path>
            <path d="M31.4537,72.3564 C31.4537,72.3564 23.573,109.924 6.43443,126.297 C6.43443,126.297 0.543039,131.194 0.466528,134.79 C0.390016,138.386 1.53769,138.998 2.30281,136.32 C2.30281,136.32 2.60885,138.309 3.52699,138.309 C4.44513,138.309 5.05722,137.009 5.05722,137.009 C5.05722,137.009 5.13373,138.845 6.28141,138.921 C7.42908,138.998 7.81164,137.544 7.81164,137.544 C7.81164,137.544 7.96466,139.457 8.95931,139.457 C9.95396,139.534 10.7191,138.233 11.2547,136.856 C11.7902,135.478 13.1674,132.954 13.6265,132.801 C13.6265,132.801 15.4628,136.014 16.6105,135.861 C17.6816,135.708 17.4521,131.576 17.2226,130.658 C17.2226,130.658 32.9074,113.749 40.5586,78.9364 C40.5586,78.9364 41.4002,76.1055 41.2472,75.7995 C41.4002,75.4934 31.4537,72.3564 31.4537,72.3564 Z" id="Path" fill="#FFFFFF"></path>
            <path d="M54.2542,37.6203 C54.1777,37.6203 54.1777,37.6203 54.1012,37.6203 C48.4394,35.3249 45.7615,29.4336 45.0728,27.8268 C44.5373,28.0563 43.5426,28.2859 42.3949,27.9033 C41.2473,27.5973 40.0231,26.5261 39.717,24.5368 C39.411,22.5475 40.3291,21.4764 40.9412,21.0173 C42.4715,19.8696 44.5373,20.4052 45.3024,21.3233 C45.4554,21.4764 45.3789,21.7059 45.2259,21.8589 C45.0728,22.0119 44.8433,21.9354 44.6903,21.7824 C44.1547,21.0938 42.548,20.7878 41.4003,21.6294 C40.9412,22.0119 40.2526,22.8536 40.4822,24.4603 C40.7117,26.4496 42.1654,27.0617 42.6245,27.2147 C44.0017,27.6738 45.0728,27.0617 45.0728,26.9852 C45.1494,26.9087 45.3024,26.9087 45.3789,26.9852 C45.4554,27.0617 45.6084,27.1382 45.6084,27.2147 C45.6084,27.2912 48.2098,34.4833 54.3307,36.9317 C54.5603,37.0082 54.6368,37.2377 54.5603,37.3908 C54.4838,37.4673 54.4073,37.6203 54.2542,37.6203 Z" id="Path" fill="#002154"></path>
            <path d="M51.8047,5.48584 C51.8047,5.48584 51.4987,12.5249 45.3012,20.9412 C44.7657,21.6298 44.7657,20.7881 44.5361,20.9412 C44.5361,20.9412 49.6624,14.4377 51.8047,5.48584 Z" id="Path" fill="#002154"></path>
            <path d="M60.604,1.65963 C60.604,1.65963 65.0417,3.26637 68.0256,8.92823 C71.0861,14.5901 73.3814,16.7324 76.2124,16.5029 C76.2124,16.5029 72.0807,16.2733 68.4847,8.69869 C66.8014,5.02614 62.8228,1.73614 61.3691,1.65963 C60.604,1.4301 60.604,1.65963 60.604,1.65963 Z" id="Path" fill="#002154"></path>
            <path d="M52.5698,3.95554 C52.6463,3.95554 54.253,0.436011 53.8705,0.0534532 C53.4879,-0.329104 51.116,1.43066 51.0395,2.50182 C50.963,3.57298 51.3456,4.49112 51.8812,4.49112 C52.4167,4.49112 51.116,3.80252 51.6516,2.27229 C51.6516,2.27229 51.9577,1.27764 53.1819,0.742055 C53.1053,0.742055 52.1107,4.10856 52.5698,3.95554 Z" id="Path" fill="#002154"></path>
            <path d="M41.8589,18.8754 C41.8589,18.8754 47.4442,16.5035 49.8926,11.5303 C49.8926,11.5303 46.6026,16.427 42.1649,18.3398 L41.8589,18.8754 Z" id="Path" fill="#002154"></path>
            <path d="M64.3536,37.2379 C64.2006,37.2379 64.0476,37.1614 64.0476,37.0084 C63.9711,36.8554 64.0476,36.6258 64.2006,36.4728 C64.2771,36.3963 73.076,31.9586 73.382,23.6189 C73.382,23.3894 73.535,23.2363 73.7646,23.2363 C73.9941,23.2363 74.1471,23.3894 74.1471,23.6189 C73.8411,32.4177 64.6597,37.0849 64.5832,37.0849 C64.4302,37.2379 64.3536,37.2379 64.3536,37.2379 Z" id="Path" fill="#002154"></path>
            <path d="M41.6298,21.247 C41.4003,21.247 41.2472,21.094 41.2472,20.8644 C40.5586,7.93397 49.74,4.64397 51.5763,4.1849 C51.8058,4.10839 51.9589,4.26141 52.0354,4.41444 C52.1119,4.64397 51.9589,4.797 51.8058,4.87351 C50.0461,5.33258 41.3238,8.46955 42.0124,20.7879 C42.0124,21.094 41.8593,21.247 41.6298,21.247 Z" id="Path" fill="#002154"></path>
            <path d="M41.5518,76.0287 C41.4753,76.0287 41.4753,76.0287 41.3988,76.0287 L29.31,71.6675 C29.0805,71.591 29.0039,71.3615 29.0804,71.2085 C29.0804,71.132 31.9114,63.1748 35.2779,56.7478 C37.6497,52.1571 43.1586,48.8671 51.5748,46.9543 L51.7279,46.9543 C53.7937,46.4952 53.9467,44.1999 53.9467,44.1234 L53.9467,37.3904 C53.9467,37.1608 54.0997,37.0078 54.3293,37.0078 C54.5588,37.0078 54.7118,37.1608 54.7118,37.3904 L54.7118,44.1234 C54.7118,45.118 54.0997,47.1838 51.9574,47.6429 L51.8044,47.6429 C43.6176,49.4792 38.2618,52.6927 35.9665,57.0538 C32.9825,62.7157 30.4577,69.5252 29.9221,71.132 L41.7049,75.3401 C41.9344,75.4166 42.0109,75.6461 41.9344,75.7992 C41.8579,75.8757 41.7049,76.0287 41.5518,76.0287 Z" id="Path" fill="#002154"></path>
            <path d="M59.2266,56.8247 C49.5862,56.8247 45.072,49.4031 44.9955,49.3266 C44.919,49.1736 44.919,48.9441 45.1485,48.791 C45.378,48.638 45.531,48.7145 45.6841,48.9441 C45.7606,49.0206 50.0452,56.0596 59.2266,56.0596 C69.0201,56.0596 71.851,49.1736 71.851,49.0971 C71.9275,48.8675 72.1571,48.791 72.3101,48.8675 C72.5396,48.9441 72.6161,49.1736 72.5396,49.3266 C72.5396,49.4031 71.7745,51.2394 69.7852,53.0757 C67.8724,54.8354 64.5824,56.8247 59.2266,56.8247 Z" id="Path" fill="#002154"></path>
            <path d="M112.479,126.91 C112.402,126.91 112.249,126.91 112.249,126.833 C94.9578,109.618 86.9241,72.5866 86.8475,72.2041 C86.771,71.9745 86.924,71.8215 87.1536,71.745 C87.3831,71.6685 87.5361,71.8215 87.6127,72.051 C87.6892,72.4336 95.7229,109.236 112.785,126.298 C112.938,126.451 112.938,126.68 112.785,126.833 C112.632,126.91 112.555,126.91 112.479,126.91 Z" id="Path" fill="#002154"></path>
            <path d="M61.9805,122.319 C61.5214,122.319 61.0624,122.319 60.5268,122.319 C45.9896,122.013 36.5022,118.034 36.4257,118.034 C36.2726,117.958 36.1196,117.728 36.1961,117.575 C36.2726,117.345 36.5022,117.269 36.6552,117.345 C36.7317,117.422 46.0661,121.248 60.5268,121.554 C73.4572,121.86 80.6493,118.187 82.0265,117.422 C81.1084,114.897 74.8345,96.4578 76.5942,82.8387 C78.507,68.4546 74.4519,62.0276 74.3754,61.9511 C74.2989,61.7981 74.2989,61.5685 74.4519,61.4155 C74.6049,61.339 74.8345,61.339 74.9875,61.492 C75.1405,61.7215 79.2721,68.1485 77.2828,82.8387 C75.37,97.2229 82.7151,117.192 82.7917,117.345 C82.8682,117.498 82.7917,117.728 82.6386,117.804 C82.4856,118.034 75.7526,122.319 61.9805,122.319 Z" id="Path" fill="#002154"></path>
            <path d="M21.8885,135.02 C21.8885,135.02 22.8066,130.429 28.698,131.118 C34.5894,131.806 34.2068,131.424 36.8082,130.965 C39.3331,130.506 46.2191,127.522 48.6675,128.057 C51.1159,128.593 52.034,129.664 52.7226,131.041 C53.4112,132.342 54.3294,134.714 54.3294,134.714 C54.3294,134.714 55.7831,135.555 57.0838,135.555 C57.0838,135.555 56.3952,140.911 53.0287,143.742 L35.0485,137.851 C35.0485,137.851 30.7638,136.78 28.698,136.933 C27.2443,137.009 23.8013,136.703 22.8831,136.244 C21.965,135.708 21.6589,135.479 21.8885,135.02 Z" id="Path" fill="#FFFFFF"></path>
            <path d="M62.4404,135.861 L63.2055,134.79 C63.2055,134.79 67.4137,128.21 70.0151,128.21 C73.9172,128.134 76.9776,129.052 76.9776,129.052 C76.9776,129.052 83.3281,130.811 86.5416,130.276 C89.7551,129.817 91.6678,128.899 93.7336,129.74 C95.7995,130.582 95.876,130.965 95.876,130.965 C95.876,130.965 86.312,134.178 78.2783,135.173 C71.0862,136.014 64.7358,136.397 62.4404,135.861 Z" id="Path" fill="#FFFFFF"></path>
            <path d="M62.1336,136.32 C61.9806,136.32 61.9041,136.244 61.8276,136.167 C61.6745,136.014 61.751,135.785 61.9041,135.632 C62.7457,135.02 63.5108,133.949 64.3524,132.724 C65.8061,130.659 67.4894,128.287 69.9378,127.828 C71.621,127.445 73.9929,128.057 76.7473,128.669 C80.6494,129.587 85.0105,130.659 88.9126,129.511 C92.8147,128.363 95.1866,129.664 96.4873,131.041 C96.6403,131.194 96.6403,131.424 96.4873,131.577 C96.3343,131.73 96.1047,131.73 95.9517,131.577 C94.804,130.429 92.6617,129.205 89.0657,130.276 C85.0105,131.424 80.4964,130.353 76.5178,129.434 C73.8399,128.822 71.5445,128.287 70.0908,128.593 C67.9485,129.052 66.3417,131.271 64.9645,133.183 C64.0464,134.408 63.2048,135.632 62.2866,136.244 C62.2866,136.32 62.2101,136.32 62.1336,136.32 Z" id="Path" fill="#002154"></path>
            <path d="M77.5893,76.0287 C77.4363,76.0287 77.2833,75.9522 77.2067,75.7992 C77.1302,75.5697 77.2067,75.4166 77.4363,75.3401 L88.6835,71.132 C87.9949,69.5253 85.2405,62.7157 82.2565,57.0539 C79.9612,52.6162 74.6054,49.4792 66.5716,47.643 L66.4951,47.643 C64.3528,47.1839 63.7407,45.1181 63.7407,44.1234 L63.7407,37.1609 C63.7407,36.9313 63.8937,36.7783 64.1233,36.7783 C64.3528,36.7783 64.5058,36.9313 64.5058,37.1609 L64.5058,44.1234 C64.5058,44.1999 64.5823,46.4953 66.7247,46.9544 L66.8012,46.9544 C75.1409,48.8671 80.5733,52.1571 83.0216,56.7478 C86.3881,63.1748 89.6016,71.132 89.6016,71.2085 C89.6016,71.285 89.6016,71.438 89.6016,71.5146 C89.5251,71.5911 89.4486,71.6676 89.3721,71.7441 L77.7423,76.1053 C77.6658,76.0287 77.6658,76.0287 77.5893,76.0287 Z" id="Path" fill="#002154"></path>
            <path d="M109.342,139.764 C108.117,139.764 107.505,138.233 107.199,137.468 L107.123,137.239 C107.046,137.162 107.046,137.009 106.97,136.78 C106.664,135.938 106.052,134.102 104.904,133.03 C104.292,134.025 102.915,136.014 101.843,135.938 C101.614,135.938 101.384,135.785 101.155,135.555 C100.313,134.484 100.849,130.888 100.925,130.2 C100.925,129.97 101.155,129.817 101.384,129.894 C101.614,129.894 101.69,130.123 101.69,130.353 C101.461,131.883 101.231,134.484 101.767,135.096 C101.843,135.173 101.843,135.173 101.92,135.173 C102.455,135.173 103.68,133.719 104.521,132.265 C104.598,132.189 104.674,132.112 104.751,132.112 C104.827,132.112 104.98,132.112 105.057,132.189 C106.511,133.26 107.276,135.479 107.658,136.55 C107.735,136.703 107.735,136.856 107.811,136.933 L107.888,137.162 C108.117,137.774 108.576,138.922 109.342,138.922 C110.26,138.922 110.26,136.856 110.26,136.78 C110.26,136.627 110.413,136.397 110.566,136.397 C110.795,136.397 110.948,136.474 110.948,136.703 C111.025,137.162 111.484,138.463 112.172,138.386 C112.325,138.386 112.478,138.31 112.555,138.157 C112.938,137.698 112.938,136.703 112.938,136.32 C112.938,136.167 113.014,135.938 113.244,135.938 C113.397,135.861 113.626,136.014 113.703,136.167 C114.085,137.009 114.697,137.927 115.003,137.851 C115.309,137.774 115.615,136.78 115.692,135.861 C115.692,135.708 115.845,135.555 115.998,135.479 C116.151,135.479 116.381,135.555 116.381,135.785 C116.534,136.474 116.993,137.315 117.299,137.239 C117.681,137.162 117.834,136.091 117.834,135.402 C118.064,131.118 112.172,126.833 112.096,126.757 C111.943,126.604 111.866,126.374 112.019,126.221 C112.172,126.068 112.402,125.991 112.555,126.144 C112.785,126.297 118.829,130.735 118.599,135.402 C118.599,135.785 118.599,137.698 117.528,138.004 C116.916,138.157 116.534,137.774 116.151,137.239 C115.998,137.851 115.615,138.539 115.08,138.616 C114.468,138.692 113.932,138.157 113.55,137.621 C113.473,138.004 113.32,138.386 113.091,138.616 C112.861,138.922 112.555,139.075 112.172,139.075 C111.484,139.151 111.025,138.692 110.719,138.157 C110.642,139.075 110.183,139.764 109.342,139.764 Z" id="Path" fill="#002154"></path>
            <path d="M110.642,137.314 C110.413,137.314 110.26,137.161 110.26,136.932 C110.03,134.024 108.729,132.341 108.729,132.341 C108.576,132.188 108.653,131.959 108.806,131.806 C108.959,131.653 109.188,131.729 109.341,131.882 C109.418,131.959 110.795,133.718 111.025,136.932 C111.025,137.161 110.872,137.314 110.642,137.314 Z" id="Path" fill="#002154"></path>
            <path d="M113.473,136.78 C113.32,136.78 113.09,136.627 113.09,136.474 C112.708,133.413 111.866,131.806 111.866,131.806 C111.789,131.653 111.866,131.424 112.019,131.271 C112.172,131.194 112.402,131.271 112.555,131.424 C112.555,131.5 113.473,133.184 113.855,136.397 C113.855,136.55 113.702,136.78 113.473,136.78 Z" id="Path" fill="#002154"></path>
            <path d="M116.227,136.397 C115.997,136.397 115.844,136.244 115.844,136.014 C115.768,132.954 114.467,131.194 114.467,131.194 C114.314,131.041 114.391,130.812 114.544,130.659 C114.697,130.506 114.926,130.582 115.079,130.735 C115.156,130.812 116.533,132.648 116.61,136.014 C116.61,136.244 116.456,136.397 116.227,136.397 Z" id="Path" fill="#002154"></path>
            <path d="M101.308,130.658 C101.232,130.658 101.079,130.582 101.002,130.505 C86.0824,114.744 78.8904,85.8225 77.0541,77.4062 C76.9776,77.1767 77.1306,77.0237 77.3601,76.9471 C77.5897,76.8706 77.7427,77.0237 77.8192,77.2532 C79.6555,85.6695 86.771,114.361 101.538,130.046 C101.691,130.199 101.691,130.429 101.538,130.582 C101.538,130.658 101.461,130.658 101.308,130.658 Z" id="Path" fill="#002154"></path>
            <path d="M6.35651,126.909 C6.28,126.909 6.12697,126.909 6.12697,126.833 C5.97395,126.68 5.97395,126.45 6.12697,126.297 C23.2656,109.235 31.2228,72.4332 31.2993,72.0507 C31.3758,71.8211 31.5288,71.7446 31.7583,71.7446 C31.9879,71.8211 32.0644,71.9742 32.0644,72.2037 C31.9879,72.5862 23.9542,109.618 6.66256,126.833 C6.50953,126.909 6.43302,126.909 6.35651,126.909 Z" id="Path" fill="#002154"></path>
            <path d="M9.41729,139.763 C8.57567,139.763 8.1166,139.075 7.88706,138.31 C7.58102,138.845 7.12195,139.228 6.43334,139.228 C6.05079,139.228 5.74474,139.075 5.51521,138.769 C5.28567,138.463 5.13265,138.157 5.05613,137.774 C4.67358,138.31 4.138,138.845 3.5259,138.769 C2.91381,138.692 2.60777,138.004 2.45474,137.392 C2.1487,137.927 1.68963,138.31 1.07754,138.157 C0.00637541,137.851 0.00637423,135.938 0.00637423,135.555 C-0.22316,130.965 5.82125,126.527 6.05079,126.374 C6.20381,126.221 6.43334,126.297 6.58637,126.45 C6.73939,126.603 6.66288,126.833 6.50985,126.986 C6.43334,127.063 0.541955,131.347 0.77149,135.555 C0.77149,136.32 0.924513,137.392 1.30707,137.468 C1.61312,137.545 2.07219,136.703 2.22521,136.014 C2.30172,135.861 2.45474,135.708 2.60777,135.708 C2.76079,135.708 2.91381,135.861 2.91381,136.091 C2.99032,137.009 3.29637,138.004 3.60242,138.08 C3.90846,138.157 4.52056,137.239 4.90311,136.397 C4.97963,136.244 5.13265,136.091 5.36218,136.167 C5.5152,136.244 5.66823,136.397 5.66823,136.55 C5.66823,136.933 5.66823,137.927 6.05079,138.386 C6.1273,138.539 6.28032,138.616 6.43334,138.616 C7.12195,138.616 7.58102,137.392 7.65753,136.933 C7.73404,136.78 7.88706,136.626 8.04008,136.626 C8.19311,136.626 8.34613,136.78 8.34613,137.009 C8.34613,137.545 8.49915,139.151 9.26427,139.151 C9.95287,139.151 10.4885,137.927 10.718,137.392 L10.7945,137.162 C10.7945,137.086 10.871,136.933 10.9475,136.78 C11.3301,135.708 12.0952,133.49 13.5489,132.418 C13.6254,132.342 13.7784,132.342 13.855,132.342 C13.9315,132.342 14.0845,132.418 14.0845,132.495 C14.9261,133.949 16.2268,135.479 16.6859,135.402 C16.6859,135.402 16.7624,135.402 16.8389,135.326 C17.3745,134.714 17.145,132.036 16.9154,130.582 C16.9154,130.353 16.9919,130.2 17.2215,130.123 C17.451,130.123 17.604,130.2 17.6805,130.429 C17.8336,131.118 18.2926,134.714 17.451,135.785 C17.298,136.014 17.0684,136.167 16.7624,136.167 C15.6912,136.244 14.314,134.255 13.7019,133.26 C12.6308,134.255 11.9422,136.167 11.6361,137.009 C11.5596,137.239 11.4831,137.392 11.4831,137.468 L11.4066,137.698 C11.2536,138.233 10.6415,139.763 9.41729,139.763 Z" id="Path" fill="#002154"></path>
            <path d="M8.11742,137.314 C7.88789,137.314 7.73486,137.085 7.73486,136.932 C7.9644,133.718 9.41812,131.959 9.41812,131.882 C9.57114,131.729 9.80068,131.729 9.9537,131.806 C10.1067,131.959 10.1067,132.188 10.0302,132.341 C10.0302,132.341 8.72951,134.024 8.49998,136.932 C8.49998,137.161 8.27044,137.314 8.11742,137.314 Z" id="Path" fill="#002154"></path>
            <path d="M5.36303,136.779 C5.13349,136.779 4.98047,136.549 4.98047,136.32 C5.36303,133.106 6.20465,131.423 6.28117,131.347 C6.35768,131.194 6.58721,131.117 6.81675,131.194 C6.96977,131.27 7.04628,131.5 6.96977,131.729 C6.96977,131.729 6.12814,133.336 5.74558,136.396 C5.74558,136.626 5.59256,136.779 5.36303,136.779 Z" id="Path" fill="#002154"></path>
            <path d="M2.53295,136.397 C2.30341,136.397 2.15039,136.244 2.15039,136.014 C2.2269,132.648 3.68062,130.812 3.68062,130.735 C3.83364,130.582 4.06318,130.506 4.2162,130.659 C4.36923,130.812 4.44574,131.041 4.29271,131.194 C4.29271,131.194 2.99202,132.954 2.91551,136.014 C2.91551,136.244 2.76248,136.397 2.53295,136.397 Z" id="Path" fill="#002154"></path>
            <path d="M17.4507,130.659 C17.3742,130.659 17.2977,130.659 17.2212,130.582 C17.0682,130.429 17.0682,130.199 17.2212,130.046 C33.1356,113.061 40.5572,80.773 41.3223,77.1005 C41.3989,76.871 41.5519,76.7944 41.7814,76.7944 C42.011,76.8709 42.0875,77.024 42.0875,77.2535 C41.3223,80.9261 33.8242,113.367 17.7568,130.506 C17.6038,130.659 17.5273,130.659 17.4507,130.659 Z" id="Path" fill="#002154"></path>
            <path d="M95.4174,155.601 C85.3944,155.601 76.213,152.693 76.06,152.693 L59.61,146.649 C53.1065,144.201 35.2794,137.927 31.9894,137.544 C31.5303,137.468 30.9947,137.468 30.4591,137.391 C28.6228,137.162 26.557,136.932 24.1852,136.856 C24.0322,136.856 23.9556,136.856 23.8026,136.779 C23.7261,136.779 23.6496,136.779 23.5731,136.779 C22.808,136.703 22.2724,136.244 21.9663,135.631 C21.6603,135.019 21.7368,134.254 22.1959,133.719 C23.0375,132.418 25.1798,130.352 29.6175,131.041 C33.5196,131.576 37.8042,130.276 41.6298,129.128 C44.3842,128.286 46.7561,127.521 48.4393,127.751 C51.8058,128.133 52.9535,130.964 53.8717,133.183 C54.0247,133.642 54.2542,134.025 54.4072,134.484 C54.5603,134.56 55.0958,134.79 56.9321,135.172 C60.2986,135.861 79.503,136.55 96.259,130.811 C96.4886,130.735 96.6416,130.811 96.7181,131.041 C96.7946,131.27 96.7181,131.423 96.4886,131.5 C78.2023,137.774 58.8449,136.32 56.7791,135.861 C54.0247,135.249 53.8717,134.943 53.7951,134.79 C53.5656,134.331 53.4126,133.872 53.1831,133.413 C52.2649,131.27 51.2703,128.745 48.3628,128.439 C46.8326,128.286 44.5372,128.975 41.8593,129.74 C38.0338,130.888 33.6726,132.265 29.541,131.653 C25.4859,131.041 23.5731,132.8 22.808,133.948 C22.5784,134.331 22.5019,134.713 22.6549,135.172 C22.808,135.555 23.1905,135.861 23.5731,135.861 C23.6496,135.861 23.8026,135.861 23.8791,135.937 C23.9556,135.937 24.0322,135.937 24.1087,135.937 C26.557,136.014 28.6228,136.244 30.4591,136.473 C30.9947,136.55 31.5303,136.626 31.9894,136.626 C35.3559,137.085 53.2596,143.359 59.763,145.807 L76.213,151.852 C76.3661,151.928 91.2093,156.596 103.757,153.918 C108.807,152.847 112.786,150.092 114.928,146.114 C116.611,143.053 116.917,139.61 115.846,136.703 C115.769,136.473 115.846,136.32 116.076,136.244 C116.305,136.167 116.458,136.244 116.535,136.473 C117.682,139.534 117.376,143.206 115.54,146.496 C113.245,150.628 109.113,153.535 103.91,154.683 C101.156,155.371 98.2483,155.601 95.4174,155.601 Z" id="Path" fill="#002154"></path>
            <path d="M53.2584,144.2 C53.1818,144.2 53.1053,144.2 53.0288,144.124 C52.8758,143.971 52.8758,143.741 53.0288,143.588 C56.6249,139.839 56.8544,135.937 56.8544,135.937 C56.8544,135.708 57.0074,135.555 57.237,135.555 C57.4665,135.555 57.6195,135.708 57.6195,135.937 C57.6195,136.09 57.3135,140.145 53.5644,144.124 C53.4879,144.124 53.4114,144.2 53.2584,144.2 Z" id="Path" fill="#002154"></path>
            <path d="M27.7813,155.908 C24.1087,155.908 20.5892,155.525 17.1462,154.76 C7.27616,152.694 2.37942,144.661 3.45059,138.463 C3.45059,138.234 3.68012,138.157 3.90965,138.157 C4.13919,138.157 4.2157,138.387 4.2157,138.616 C3.14454,144.508 7.88826,152.082 17.3757,154.072 C26.0215,155.984 35.5089,155.449 45.6084,152.465 C51.8059,150.705 59.7631,147.798 61.5994,146.956 C61.7524,146.88 61.9819,146.956 62.0584,147.186 C62.1349,147.339 62.0584,147.568 61.8289,147.645 C59.9161,148.486 51.9589,151.394 45.6849,153.153 C39.564,154.99 33.5196,155.908 27.7813,155.908 Z" id="Path" fill="#002154"></path>
            <path d="M23.0367,123.696 C22.8837,123.696 22.7307,123.62 22.6542,123.467 C22.5777,123.314 22.6542,123.084 22.8837,123.008 C22.9602,123.008 30.3818,119.794 36.3497,117.346 C37.0383,115.433 43.6183,96.7641 41.7821,82.992 C39.8693,68.3018 43.9244,61.8748 44.0774,61.6453 C44.1539,61.4922 44.46,61.4157 44.613,61.5688 C44.766,61.6453 44.8425,61.9513 44.6895,62.1043 C44.613,62.1809 40.6344,68.5313 42.4707,82.992 C44.3835,97.6822 37.0384,117.652 36.9618,117.881 C36.9618,117.958 36.8853,118.034 36.7323,118.111 C30.7644,120.559 23.2663,123.849 23.1898,123.849 C23.1133,123.696 23.0367,123.696 23.0367,123.696 Z" id="Path" fill="#002154"></path>
            <path d="M95.1875,122.778 C95.111,122.778 95.111,122.778 95.0345,122.778 C92.0505,121.324 82.4866,117.957 82.4101,117.881 C82.1805,117.804 82.104,117.575 82.1805,117.422 C82.2571,117.192 82.4866,117.116 82.6396,117.192 C83.0222,117.345 92.3566,120.635 95.3405,122.089 C95.4936,122.166 95.5701,122.395 95.4936,122.625 C95.4936,122.701 95.3405,122.778 95.1875,122.778 Z" id="Path" fill="#002154"></path>
            <path d="M80.4959,29.3573 L80.3428,29.2043 C80.3428,29.2043 72.3856,24.9196 68.8661,13.6724 C65.8822,4.33802 63.2808,3.64941 63.2808,3.64941 C63.2808,3.64941 66.3412,6.40383 68.254,13.1368 C70.8554,22.0887 75.4461,27.2915 81.261,30.7345 L80.4959,29.3573 Z" id="Path" fill="#002154"></path>
            <path d="M81.4145,30.8111 C81.2615,30.8111 81.185,30.7346 81.1084,30.6581 C78.201,25.8379 76.7473,21.0942 75.4466,16.9625 C73.9929,12.3719 72.7687,8.39325 69.9378,5.71535 C62.2101,-1.70627 53.4113,3.87907 53.0287,4.10861 C52.8757,4.18512 52.6462,4.18512 52.4931,4.03209 C52.4166,3.87907 52.4166,3.64954 52.5696,3.49652 C52.6462,3.42 62.2101,-2.70092 70.3968,5.17977 C73.3043,8.01069 74.605,12.0658 76.0587,16.733 C77.3594,20.8646 78.8131,25.4553 81.644,30.2756 C81.7205,30.4286 81.7205,30.6581 81.491,30.8111 C81.5675,30.7346 81.491,30.8111 81.4145,30.8111 Z" id="Path" fill="#002154"></path>
            <path d="M54.2532,19.2579 C53.6411,19.2579 53.029,18.9518 52.723,18.7223 C52.5699,18.5693 52.5699,18.3398 52.6464,18.1867 C52.7995,18.0337 53.029,18.0337 53.182,18.1102 C53.2585,18.1867 54.2532,18.9519 55.2478,18.0337 C55.4009,17.8807 55.6304,17.8807 55.7834,18.0337 C55.9364,18.1867 55.9364,18.4163 55.7834,18.5693 C55.3244,19.1049 54.7888,19.2579 54.2532,19.2579 Z" id="Path" fill="#002154"></path>
            <path d="M64.3528,19.2579 C63.7407,19.2579 63.1286,18.9518 62.8226,18.7223 C62.6695,18.5693 62.6695,18.3398 62.7461,18.1867 C62.8991,18.0337 63.1286,18.0337 63.2816,18.1102 C63.3581,18.1867 64.3528,18.9519 65.3475,18.0337 C65.5005,17.8807 65.73,17.8807 65.883,18.0337 C66.0361,18.1867 66.0361,18.4163 65.883,18.5693 C65.424,19.1049 64.8884,19.2579 64.3528,19.2579 Z" id="Path" fill="#002154"></path>
            <path d="M59.6086,27.6745 C56.3951,27.6745 54.5588,25.0732 54.4823,24.9201 C54.3293,24.7671 54.4058,24.5376 54.5589,24.3845 C54.7119,24.2315 54.9414,24.308 55.0944,24.4611 C55.0944,24.4611 56.9307,26.9094 59.7616,26.8329 C63.0516,26.7564 64.2758,24.3845 64.3523,24.308 C64.4288,24.155 64.6584,24.0785 64.8879,24.155 C65.0409,24.2315 65.1174,24.4611 65.0409,24.6906 C64.9644,24.8436 63.5872,27.5215 59.8381,27.598 C59.6851,27.6745 59.6086,27.6745 59.6086,27.6745 Z" id="Path" fill="#002154"></path>
            <path d="M52.6464,10.4583 C52.4934,10.5348 52.4169,10.3818 52.4934,10.2288 C52.7994,9.76968 53.4115,8.85155 54.4827,9.2341 C54.4827,9.2341 54.8653,9.38713 54.7122,9.54015 C54.7122,9.61666 53.2585,10.0757 52.6464,10.4583 Z" id="Path" fill="#002154"></path>
            <path d="M65.2708,10.0766 C65.4239,10.0766 65.5004,9.92356 65.4239,9.84705 C65.0413,9.46449 64.2762,8.62286 63.2815,9.23496 C63.2815,9.23496 62.899,9.38798 63.1285,9.541 C63.1285,9.69402 64.5822,9.92356 65.2708,10.0766 Z" id="Path" fill="#002154"></path>
        </g>
    </g>
</svg>