<svg width="74" height="17" viewBox="0 0 74 17" fill="none" xmlns="http://www.w3.org/2000/svg">
<g clip-path="url(#clip0_3206:25184)">
<path d="M8.80334 17.0005C4.69857 17.0005 1.21914 14.3985 0.289158 10.5979C-0.528588 7.20736 0.417432 4.27415 3.14325 2.01905C6.25389 -0.582992 10.7114 -0.661841 13.9343 1.73519C14.1588 1.90866 14.2069 2.01905 13.9824 2.23983C12.1385 4.10068 10.2945 5.9773 8.45058 7.85393C8.24214 8.07471 8.1299 8.10625 7.88938 7.8697C7.11974 7.11274 6.33406 6.40309 5.54839 5.66191C5.09943 5.23612 4.50616 5.20458 4.12134 5.58306C3.70445 5.99307 3.73652 6.54502 4.21755 7.00235C5.32391 8.04317 6.43027 9.06821 7.53663 10.0933C7.98559 10.5033 8.51472 10.4717 8.97971 10.0144C11.0642 7.88547 13.1486 5.77229 15.2331 3.65912C15.5858 3.31218 15.5698 3.31218 15.8584 3.7222C16.8846 5.20458 17.3977 6.84465 17.3656 8.62665C17.2854 12.8057 14.1748 16.2278 10.1181 16.8901C9.63712 16.969 9.15609 16.9847 8.80334 17.0005Z" fill="#69E2B3"/>
<path d="M51.0049 8.51511C51.0049 7.36391 51.0049 6.2127 51.0049 5.0615C51.0049 4.54109 51.2615 4.16261 51.6944 4.02068C52.3999 3.78413 53.0573 4.20992 53.1054 4.96688C53.1375 5.69229 53.1375 6.43348 53.1054 7.1589C53.1054 7.45853 53.2016 7.53738 53.4902 7.52161C54.3882 7.50584 55.27 7.50584 56.168 7.52161C56.4405 7.52161 56.5367 7.45853 56.5367 7.17467C56.5207 6.48079 56.5207 5.78691 56.5367 5.09304C56.5367 4.39916 56.9536 3.9576 57.579 3.94183C58.2043 3.92606 58.6372 4.35185 58.6533 5.0615C58.6693 7.37968 58.6693 9.68209 58.6533 12.0003C58.6533 12.7099 58.2203 13.1357 57.595 13.1199C56.9697 13.1199 56.5528 12.6626 56.5528 11.9687C56.5528 11.2118 56.5367 10.4548 56.5528 9.69786C56.5528 9.44554 56.4886 9.39823 56.2321 9.39823C55.3021 9.414 54.3721 9.414 53.4261 9.39823C53.1695 9.39823 53.1054 9.47708 53.1214 9.71363C53.1375 10.5021 53.1375 11.2749 53.1214 12.0633C53.1054 12.6468 52.7527 13.0411 52.2396 13.1042C51.5661 13.1988 51.037 12.7415 51.021 12.016C50.9889 10.8648 51.0049 9.69786 51.0049 8.51511Z" fill="#113361"/>
<path d="M63.5758 9.47799C63.5758 10.3453 63.5918 11.2127 63.5758 12.0643C63.5597 12.6951 63.1589 13.1208 62.5977 13.1366C62.0365 13.1682 61.5875 12.8054 61.5074 12.2535C61.4913 12.0958 61.4753 11.9381 61.4753 11.7804C61.4753 9.60414 61.4753 7.44366 61.4753 5.26741C61.4753 5.20433 61.4753 5.14125 61.4753 5.07817C61.5073 4.35275 61.9082 3.92696 62.5496 3.92696C63.1749 3.92696 63.5758 4.36852 63.5758 5.07817C63.5918 5.83513 63.5758 6.59209 63.5758 7.34904C63.7521 7.39635 63.7842 7.25442 63.8644 7.17557C64.7783 6.29246 65.6763 5.39357 66.5742 4.51045C66.7666 4.32121 66.959 4.14774 67.1995 4.02158C67.6004 3.81658 68.0654 3.89543 68.37 4.21082C68.6907 4.52622 68.7388 4.95201 68.5303 5.36203C68.4181 5.56704 68.2578 5.74051 68.0814 5.91398C67.2957 6.67094 66.5261 7.41212 65.7404 8.15331C65.548 8.32678 65.548 8.43717 65.7404 8.61064C66.6383 9.39914 67.5362 10.2192 68.4181 11.0234C68.6266 11.2127 68.819 11.4019 68.9633 11.6385C69.1878 12.0327 69.1396 12.4427 68.851 12.7581C68.5464 13.0893 68.0974 13.1839 67.6805 13.0105C67.44 12.9001 67.2316 12.7266 67.0392 12.5531C65.9969 11.5912 64.9707 10.6292 63.9285 9.68299C63.8323 9.63568 63.7682 9.50953 63.5758 9.47799Z" fill="#113361"/>
<path d="M39.316 7.69632C39.2679 8.42173 39.4282 9.3837 39.2358 10.3299C38.8831 12.0961 37.1674 13.342 35.3395 13.1843C33.3673 13.0108 31.8761 11.5284 31.86 9.68333C31.844 8.15364 31.844 6.62396 31.86 5.09427C31.86 4.41617 32.293 3.97461 32.9183 3.97461C33.5276 3.97461 33.9445 4.4004 33.9605 5.07851C33.9766 6.54511 33.9605 8.01171 33.9766 9.47832C33.9766 10.4561 34.6019 11.1342 35.4838 11.1815C36.4939 11.2446 37.1995 10.5349 37.1995 9.44678C37.2155 7.99594 37.1995 6.54511 37.1995 5.09427C37.1995 4.27424 37.8248 3.81691 38.5784 4.03769C39.0113 4.16385 39.2518 4.49502 39.2839 5.01543C39.2839 5.04697 39.2839 5.09427 39.2839 5.12581C39.316 5.89854 39.316 6.68704 39.316 7.69632Z" fill="#113361"/>
<path d="M45.2486 13.1834C44.1743 13.1519 43.1321 12.8995 42.3144 12.0637C42.0257 11.7799 41.8494 11.4329 41.8494 11.0071C41.8494 10.266 42.5228 9.80863 43.2283 10.0767C43.5009 10.1871 43.7414 10.3606 43.9659 10.5498C44.3026 10.8337 44.6554 11.086 45.1043 11.1806C45.4731 11.2595 45.8259 11.1964 46.1145 10.9598C46.6436 10.534 46.5634 9.76132 45.9221 9.47746C45.5052 9.28822 45.0402 9.16206 44.6073 9.0359C44.2064 8.90974 43.7895 8.78358 43.4047 8.59434C41.9135 7.90047 41.5607 6.03961 42.6992 4.85687C43.4688 4.0526 44.4469 3.83182 45.5052 3.8949C46.3389 3.94221 47.1086 4.16299 47.7339 4.73071C48.0546 5.03034 48.1829 5.39305 48.1027 5.8346C47.9744 6.48117 47.285 6.7808 46.7238 6.41809C46.4352 6.22885 46.1786 6.00807 45.874 5.81883C45.4571 5.56651 45.0241 5.53497 44.5752 5.73998C44.3026 5.86614 44.1262 6.08692 44.1102 6.38655C44.0942 6.70195 44.2866 6.89119 44.5431 7.03312C44.8157 7.19082 45.1364 7.26967 45.441 7.34852C46.0183 7.49045 46.5795 7.69546 47.1246 7.94778C48.9525 8.79935 48.8403 11.0702 47.8462 12.1268C47.1888 12.8838 46.3069 13.1676 45.2486 13.1834Z" fill="#113361"/>
<path d="M31.379 16.3684C31.0262 16.3842 30.7697 16.2423 30.5292 16.0215C29.0861 14.6653 27.643 13.2933 26.1999 11.9371C25.2699 11.054 24.34 10.1708 23.41 9.28773C22.8167 8.72001 22.8167 8.16806 23.3779 7.58457C24.5163 6.4176 25.6548 5.23485 26.8092 4.06788C27.1299 3.73671 27.5147 3.62632 27.9316 3.73671C28.3646 3.8471 28.6051 4.14673 28.6852 4.57252C28.7654 4.96676 28.589 5.28216 28.3165 5.56602C27.4987 6.40183 26.681 7.25341 25.8472 8.07344C25.6067 8.30999 25.5906 8.45192 25.8472 8.68847C27.8996 10.6124 29.9519 12.5521 31.9883 14.476C32.5014 14.9649 32.5655 15.5484 32.1486 16.0057C31.9562 16.258 31.6836 16.3842 31.379 16.3684Z" fill="#69E2B3"/>
<path d="M73.1642 8.5779C73.1642 9.69757 73.1642 10.8172 73.1642 11.9527C73.1642 12.6781 72.7473 13.1354 72.122 13.1512C71.4806 13.167 71.0317 12.7096 71.0317 11.9684C71.0156 10.8488 71.0317 9.72911 71.0317 8.59367C71.0317 7.44246 71.0156 6.29126 71.0317 5.14005C71.0477 4.30424 71.657 3.79961 72.4106 4.00462C72.8916 4.13077 73.1642 4.54079 73.1642 5.15582C73.1802 6.30703 73.1642 7.44246 73.1642 8.5779Z" fill="#113361"/>
<path d="M22.6403 8.56331C22.6403 9.66721 22.6403 10.7553 22.6403 11.8592C22.6403 12.5846 22.2074 13.0577 21.55 13.0577C20.9247 13.042 20.4918 12.5846 20.4918 11.875C20.4918 9.66721 20.4918 7.45941 20.4918 5.25162C20.4918 4.5262 20.9407 4.03734 21.5821 4.05311C22.2074 4.06887 22.6243 4.54197 22.6403 5.23585C22.6564 6.33975 22.6403 7.45941 22.6403 8.56331Z" fill="#113361"/>
<path d="M8.33779 12.568C7.31159 12.568 6.2854 12.568 5.25921 12.568C4.63388 12.568 4.16888 12.158 4.16888 11.6061C4.16888 11.0857 4.63388 10.6914 5.24318 10.6914C7.29556 10.6914 9.34794 10.6914 11.4003 10.6914C12.0417 10.6914 12.4907 11.1014 12.4907 11.6376C12.4746 12.1738 12.0257 12.5523 11.4164 12.568C10.3902 12.568 9.36398 12.568 8.33779 12.568Z" fill="#FEFEFE"/>
</g>
<defs>
<clipPath id="clip0_3206:25184">
<rect width="73.1802" height="17" fill="white"/>
</clipPath>
</defs>
</svg>
