<svg width="425" height="362" viewBox="0 0 425 362" fill="none" xmlns="http://www.w3.org/2000/svg">
<path d="M197.049 361.954C297 361.954 378.026 280.928 378.026 180.977C378.026 81.0262 297 0 197.049 0C97.0978 0 16.0715 81.0262 16.0715 180.977C16.0715 280.928 97.0978 361.954 197.049 361.954Z" fill="#FFE7C7"/>
<path d="M300.448 280.295H93.6117C87.0515 280.295 81.6737 274.917 81.6737 268.357V94.6265C81.6737 88.0663 87.0515 82.6885 93.6117 82.6885H300.41C306.97 82.6885 312.348 88.0663 312.348 94.6265V268.357C312.386 274.917 307.008 280.295 300.448 280.295Z" fill="white"/>
<path d="M300.448 281.058H93.6118C86.594 281.058 80.911 275.375 80.911 268.357V94.6266C80.911 87.6087 86.594 81.9258 93.6118 81.9258H300.41C307.428 81.9258 313.111 87.6087 313.111 94.6266V268.357C313.149 275.375 307.428 281.058 300.448 281.058ZM93.6118 83.4514C87.433 83.4514 82.4366 88.4478 82.4366 94.6266V268.357C82.4366 274.536 87.433 279.532 93.6118 279.532H300.41C306.589 279.532 311.585 274.536 311.585 268.357V94.6266C311.585 88.4478 306.589 83.4514 300.41 83.4514H93.6118Z" fill="#002154"/>
<path d="M312.386 102.522V94.6265C312.386 88.0663 307.008 82.6885 300.448 82.6885H93.6117C87.0515 82.6885 81.6737 88.0663 81.6737 94.6265V102.522H312.386Z" fill="#E3E3E3"/>
<path d="M312.386 103.285H81.6738C81.2543 103.285 80.911 102.941 80.911 102.522V94.6266C80.911 87.6087 86.594 81.9258 93.6118 81.9258H300.41C307.428 81.9258 313.111 87.6087 313.111 94.6266V102.522C313.149 102.941 312.806 103.285 312.386 103.285ZM82.4366 101.759H311.624V94.6266C311.624 88.4478 306.627 83.4514 300.448 83.4514H93.6118C87.433 83.4514 82.4366 88.4478 82.4366 94.6266V101.759Z" fill="#002154"/>
<path d="M312.386 103.246H81.6738C81.2543 103.246 80.911 102.903 80.911 102.484C80.911 102.064 81.2543 101.721 81.6738 101.721H312.386C312.806 101.721 313.149 102.064 313.149 102.484C313.149 102.903 312.806 103.246 312.386 103.246Z" fill="#002154"/>
<path d="M97.8831 97.144C100.411 97.144 102.46 95.0948 102.46 92.5671C102.46 90.0394 100.411 87.9902 97.8831 87.9902C95.3554 87.9902 93.3063 90.0394 93.3063 92.5671C93.3063 95.0948 95.3554 97.144 97.8831 97.144Z" fill="white"/>
<path d="M97.8833 97.9069C94.9464 97.9069 92.5436 95.5041 92.5436 92.5672C92.5436 89.6304 94.9464 87.2275 97.8833 87.2275C100.82 87.2275 103.223 89.6304 103.223 92.5672C103.223 95.5041 100.82 97.9069 97.8833 97.9069ZM97.8833 88.7532C95.7855 88.7532 94.0692 90.4695 94.0692 92.5672C94.0692 94.665 95.7855 96.3813 97.8833 96.3813C99.981 96.3813 101.697 94.665 101.697 92.5672C101.697 90.4695 99.981 88.7532 97.8833 88.7532Z" fill="#002154"/>
<path d="M112.949 97.144C115.477 97.144 117.526 95.0948 117.526 92.5671C117.526 90.0394 115.477 87.9902 112.949 87.9902C110.421 87.9902 108.372 90.0394 108.372 92.5671C108.372 95.0948 110.421 97.144 112.949 97.144Z" fill="white"/>
<path d="M112.949 97.9069C110.012 97.9069 107.609 95.5041 107.609 92.5672C107.609 89.6304 110.012 87.2275 112.949 87.2275C115.886 87.2275 118.289 89.6304 118.289 92.5672C118.289 95.5041 115.886 97.9069 112.949 97.9069ZM112.949 88.7532C110.851 88.7532 109.135 90.4695 109.135 92.5672C109.135 94.665 110.851 96.3813 112.949 96.3813C115.047 96.3813 116.763 94.665 116.763 92.5672C116.763 90.4695 115.047 88.7532 112.949 88.7532Z" fill="#002154"/>
<path d="M128.014 97.144C130.542 97.144 132.591 95.0948 132.591 92.5671C132.591 90.0394 130.542 87.9902 128.014 87.9902C125.487 87.9902 123.438 90.0394 123.438 92.5671C123.438 95.0948 125.487 97.144 128.014 97.144Z" fill="white"/>
<path d="M128.015 97.9069C125.078 97.9069 122.675 95.5041 122.675 92.5672C122.675 89.6304 125.078 87.2275 128.015 87.2275C130.951 87.2275 133.354 89.6304 133.354 92.5672C133.354 95.5041 130.99 97.9069 128.015 97.9069ZM128.015 88.7532C125.917 88.7532 124.201 90.4695 124.201 92.5672C124.201 94.665 125.917 96.3813 128.015 96.3813C130.112 96.3813 131.829 94.665 131.829 92.5672C131.829 90.4695 130.112 88.7532 128.015 88.7532Z" fill="#002154"/>
<path d="M146.017 170.488C145.826 170.488 145.635 170.45 145.483 170.336C145.063 170.031 144.949 169.459 145.254 169.001L147.848 165.225C148.153 164.805 148.725 164.691 149.183 164.996C149.602 165.301 149.717 165.873 149.411 166.331L146.818 170.107C146.627 170.336 146.322 170.488 146.017 170.488Z" fill="#002154"/>
<path d="M140.601 170.488C140.41 170.488 140.219 170.45 140.067 170.336C139.647 170.031 139.533 169.459 139.838 169.001L142.432 165.225C142.737 164.805 143.309 164.691 143.767 164.996C144.186 165.301 144.3 165.873 143.995 166.331L141.402 170.107C141.173 170.336 140.906 170.488 140.601 170.488Z" fill="#002154"/>
<path d="M249.034 170.488C248.844 170.488 248.653 170.45 248.5 170.336C248.081 170.031 247.967 169.459 248.272 169.001L250.865 165.225C251.17 164.805 251.742 164.691 252.2 164.996C252.62 165.301 252.734 165.873 252.429 166.331L249.835 170.107C249.645 170.336 249.34 170.488 249.034 170.488Z" fill="#002154"/>
<path d="M243.618 170.488C243.428 170.488 243.237 170.45 243.084 170.336C242.665 170.031 242.55 169.459 242.856 169.001L245.449 165.225C245.754 164.805 246.326 164.691 246.784 164.996C247.204 165.301 247.318 165.873 247.013 166.331L244.419 170.107C244.191 170.336 243.885 170.488 243.618 170.488Z" fill="#002154"/>
<path d="M154.484 116.405C155.438 117.129 157.574 115.794 162.608 113.735C169.626 110.836 166.575 107.709 166.575 107.709C166.575 107.709 164.477 105.497 160.205 108.815C156.315 111.79 153.34 115.527 154.484 116.405Z" fill="#002154"/>
<path d="M239.614 116.787C238.66 117.511 236.524 116.176 231.49 114.117C224.472 111.218 227.523 108.091 227.523 108.091C227.523 108.091 229.621 105.878 233.893 109.197C237.745 112.172 240.758 115.909 239.614 116.787Z" fill="#002154"/>
<path d="M176.911 182.655C179.009 200.963 187.209 214.617 197.011 214.617C206.813 214.617 215.014 200.963 217.111 182.655H176.911Z" fill="white"/>
<path d="M197.049 215.609C186.866 215.609 178.208 202.107 175.996 182.77C175.958 182.503 176.034 182.236 176.225 182.045C176.415 181.854 176.682 181.74 176.949 181.74H217.149C217.416 181.74 217.683 181.854 217.874 182.045C218.065 182.236 218.141 182.503 218.103 182.77C215.853 202.107 207.195 215.609 197.049 215.609ZM178.017 183.609C180.267 201.115 188.201 213.663 197.049 213.663C205.898 213.663 213.831 201.077 216.082 183.609H178.017Z" fill="#002154"/>
<path d="M165.469 162.936C160.282 162.936 155.857 159.122 155.209 154.05C155.133 153.516 155.514 153.058 156.048 152.982C156.582 152.905 156.963 153.325 157.116 153.821C157.917 156.185 160.358 159.504 165.469 159.504C169.855 159.504 172.448 156.986 173.821 153.821C174.012 153.325 174.355 152.944 174.889 152.982C175.423 153.058 175.767 153.516 175.728 154.05C175.08 159.122 170.656 162.936 165.469 162.936Z" fill="#002154"/>
<path d="M228.592 162.936C223.405 162.936 218.98 159.122 218.332 154.05C218.256 153.516 218.637 153.058 219.171 152.982C219.705 152.905 220.086 153.325 220.239 153.821C221.04 156.185 223.481 159.504 228.592 159.504C232.978 159.504 235.571 156.986 236.944 153.821C237.135 153.325 237.478 152.944 238.012 152.982C238.546 153.058 238.89 153.516 238.852 154.05C238.203 159.122 233.817 162.936 228.592 162.936Z" fill="#002154"/>
<path d="M113.864 231.628C117.03 239.943 121.53 238.913 125.726 237.616C129.921 236.319 140.105 229.759 142.927 226.708C146.398 222.97 144.414 215.304 144.414 215.304C141.668 203.175 131.828 182.808 128.434 176.858C125.039 170.908 120.691 170.412 117.106 171.671C113.521 172.93 101.087 179.299 96.3954 182.693C91.7042 186.088 96.0903 194.632 96.0903 194.632L113.864 231.628Z" fill="white"/>
<path d="M0.777344 206.836C0.777344 206.836 39.4138 228.272 97.7689 193.831C97.7689 193.831 109.707 186.317 112.3 188.758C115.733 192 102.994 201.726 102.994 201.726C102.994 201.726 115.542 193.907 118.25 196.539C121.569 199.78 112.834 206.989 108.448 210.117C108.448 210.117 121.912 202.183 124.429 205.959C126.946 209.697 114.513 218.469 114.513 218.469C114.513 218.469 125.573 210.841 128.587 213.816C129.769 214.96 128.472 218.012 124.734 221.635C108.105 237.73 57.6069 279.838 1.73086 268.777" fill="#F7FAFD"/>
<path d="M121.339 239.294C118.441 239.294 115.389 237.807 113.177 231.933C113.025 231.552 113.215 231.094 113.635 230.941C114.016 230.789 114.474 230.98 114.627 231.399C117.64 239.37 121.873 238.074 125.573 236.929C129.73 235.633 139.761 229.111 142.431 226.25C145.559 222.894 143.728 215.609 143.728 215.533C141.02 203.556 131.256 183.304 127.823 177.278C125.993 174.036 122.674 170.527 117.449 172.434C114.093 173.654 101.583 179.947 96.9676 183.304C92.8484 186.279 96.8532 194.212 96.8913 194.288C97.082 194.67 96.9294 195.127 96.548 195.318C96.1666 195.509 95.7089 195.356 95.5182 194.975C95.3275 194.593 90.9032 185.783 96.0903 182.045C100.934 178.536 113.444 172.243 116.953 170.946C119.776 169.916 125.115 169.268 129.196 176.438C132.667 182.541 142.546 203.022 145.292 215.113C145.368 215.418 147.351 223.237 143.614 227.204C140.791 230.255 130.531 236.929 126.107 238.303C124.62 238.798 123.018 239.294 121.339 239.294Z" fill="#002154"/>
<path d="M20.5721 271.37C14.1263 271.37 7.79499 270.76 1.57807 269.54C1.15853 269.463 0.891544 269.044 0.967825 268.662C1.04411 268.243 1.46365 267.976 1.84506 268.052C25.7211 272.782 51.2371 268.281 77.5923 254.703C99.6757 243.337 116.229 228.729 124.162 221.063C127.137 218.164 128.205 215.99 128.205 214.922C128.205 214.541 128.052 214.388 128.014 214.35C126.26 212.596 119.28 216.066 114.894 219.08C114.551 219.308 114.093 219.232 113.826 218.889C113.597 218.546 113.673 218.088 114.017 217.821C118.937 214.35 125.192 208.515 123.742 206.341C122.293 204.167 114.131 207.599 108.791 210.765C108.448 210.956 107.99 210.879 107.762 210.536C107.533 210.193 107.609 209.735 107.952 209.506C112.529 206.226 117.945 201.382 118.174 198.484C118.212 197.912 118.059 197.492 117.678 197.111C116.152 195.623 108.219 199.399 103.375 202.412C103.032 202.641 102.574 202.527 102.346 202.183C102.117 201.84 102.193 201.382 102.498 201.153C105.13 199.132 111.957 193.296 112.11 190.245C112.148 189.864 112.033 189.559 111.766 189.292C110.431 188.033 103.68 190.97 98.1501 194.441C67.8283 212.329 42.8843 214.96 27.323 213.969C10.4267 212.939 0.815263 207.714 0.395716 207.485C0.0143103 207.294 -0.100112 206.798 0.0905915 206.455C0.281294 206.074 0.777122 205.959 1.12039 206.15C1.23481 206.188 10.8844 211.451 27.5137 212.481C42.8462 213.397 67.4469 210.841 97.3491 193.144C99.4087 191.847 109.897 185.478 112.796 188.186C113.368 188.72 113.673 189.482 113.635 190.322C113.521 192.457 111.232 195.28 108.829 197.645C112.643 195.814 117.068 194.326 118.746 195.966C119.433 196.653 119.776 197.53 119.7 198.56C119.623 199.59 118.899 202.069 114.589 206.074C118.708 204.319 123.399 203.06 125.001 205.463C126.45 207.637 124.2 210.879 121.378 213.664C125.154 212.024 127.671 211.871 129.044 213.206C129.464 213.625 129.692 214.198 129.692 214.884C129.692 216.715 128.052 219.347 125.192 222.131C117.22 229.873 100.515 244.596 78.2788 256.038C58.4838 266.259 39.1466 271.37 20.5721 271.37Z" fill="#002154"/>
<path d="M414.336 92.0332C414.336 92.0332 398.202 102.56 378.484 106.488C358.765 110.379 347.971 94.2835 331.761 96.0761C322.608 97.0678 314.941 106.679 314.941 106.679C314.941 106.679 295.718 129.754 305.559 133.149L315.857 150.121C315.857 150.121 319.251 154.927 324.209 153.173C329.168 151.418 328.481 147.108 328.481 147.108C328.481 147.108 345.034 155.652 367.118 156.186C389.201 156.72 415.899 148.977 421.468 145.049C421.468 145.049 427.151 129.678 424.1 112.324C421.048 94.97 414.336 92.0332 414.336 92.0332Z" fill="#F7FAFD"/>
<path d="M298.732 137.954C298.732 137.954 299.685 149.32 306.283 152.105C306.283 152.105 318.832 148.558 324.133 144.629C324.133 144.629 317.344 140.586 320.014 135.857C322.684 131.127 337.635 133.416 341.411 134.445C341.411 134.445 354.531 123.842 356.438 119.151C356.438 119.151 357.621 115.108 353.768 114.803C349.878 114.536 329.091 118.732 319.976 124.796C319.976 124.796 311.204 135.246 305.482 133.187L298.732 137.954Z" fill="#F0F0F0"/>
<path d="M255.709 151.647C255.709 151.647 260.247 153.287 265.892 149.549C271.537 145.811 274.779 142.913 281.034 144.324C281.034 144.324 279.89 158.283 290.073 160.915C290.073 160.915 285.268 176.133 267.38 169.84C267.38 169.84 257.768 165.835 255.709 151.647Z" fill="#FF9100"/>
<path d="M281.034 144.324C281.034 144.324 278.631 157.902 290.074 160.915C290.074 160.915 290.989 158.169 291.027 156.414C291.027 156.414 303.499 153.325 305.788 152.181C305.788 152.181 299.456 147.642 298.693 137.954L287.709 146.688C287.747 146.726 284.505 144.591 281.034 144.324Z" fill="#F0F0F0"/>
<path d="M266.007 251.232C266.96 257.411 262.536 257.373 262.536 257.373C254.87 257.334 253.954 249.478 253.954 249.478C251.59 213.015 276.839 194.746 285.954 196.271C295.108 197.797 298.579 207.79 298.579 207.79C298.579 207.79 304.3 227.776 301.211 243.756C301.211 243.756 297.74 255.351 283.475 257.601C283.475 257.601 276.877 257.868 272.262 253.94C272.262 253.94 268.982 251.423 267.113 251.385L266.007 251.232Z" fill="white"/>
<path d="M398.927 223.199C398.927 223.199 360.29 244.634 301.935 210.193C301.935 210.193 289.997 202.679 287.404 205.12C283.971 208.362 296.71 218.088 296.71 218.088C296.71 218.088 284.162 210.269 281.454 212.901C278.136 216.143 286.87 223.351 291.256 226.479C291.256 226.479 277.792 218.546 275.275 222.322C272.758 226.059 285.192 234.832 285.192 234.832C285.192 234.832 274.131 227.204 271.118 230.179C269.935 231.323 271.232 234.374 274.97 237.997C291.561 254.131 342.021 296.238 397.935 285.177" fill="#F7FAFD"/>
<path d="M379.132 287.733C360.557 287.733 341.22 282.622 321.387 272.4C299.113 260.92 282.445 246.236 274.474 238.493C271.614 235.709 269.974 233.077 269.974 231.246C269.974 230.56 270.202 229.988 270.622 229.568C271.995 228.233 274.512 228.348 278.288 230.026C275.504 227.242 273.215 224.038 274.665 221.826C276.267 219.423 280.996 220.681 285.115 222.436C282.522 220.033 280.157 217.211 279.966 214.884C279.89 213.892 280.233 212.977 280.92 212.291C282.636 210.65 287.022 212.138 290.836 213.969C288.434 211.604 286.145 208.782 286.031 206.646C285.993 205.807 286.26 205.082 286.87 204.51C289.73 201.802 300.257 208.171 302.317 209.468C332.219 227.127 356.82 229.721 372.152 228.767C388.782 227.737 398.431 222.512 398.546 222.436C398.927 222.245 399.385 222.36 399.575 222.741C399.766 223.122 399.652 223.58 399.27 223.771C398.851 224 389.277 229.225 372.343 230.255C356.782 231.208 331.838 228.615 301.516 210.727C295.985 207.256 289.235 204.319 287.9 205.578C287.633 205.807 287.518 206.112 287.556 206.531C287.709 209.544 294.536 215.418 297.168 217.44C297.473 217.668 297.549 218.126 297.32 218.469C297.091 218.813 296.634 218.889 296.291 218.698C291.447 215.685 283.513 211.909 281.988 213.397C281.606 213.778 281.454 214.198 281.492 214.77C281.721 217.668 287.137 222.512 291.714 225.792C292.057 226.021 292.133 226.479 291.904 226.822C291.676 227.165 291.218 227.28 290.875 227.051C285.535 223.923 277.373 220.453 275.923 222.627C274.474 224.801 280.729 230.636 285.649 234.107C285.993 234.336 286.069 234.832 285.84 235.175C285.611 235.518 285.115 235.594 284.772 235.366C280.386 232.352 273.444 228.882 271.652 230.636C271.614 230.674 271.461 230.827 271.461 231.208C271.461 232.276 272.529 234.45 275.504 237.349C283.399 245.053 299.99 259.623 322.074 270.989C348.429 284.567 373.907 289.068 397.821 284.338C398.24 284.262 398.622 284.529 398.698 284.948C398.774 285.368 398.507 285.749 398.088 285.826C391.909 287.122 385.578 287.733 379.132 287.733Z" fill="#002154"/>
<path d="M307.389 134.178C306.703 134.178 306.016 134.064 305.33 133.835C303.69 133.263 302.66 132.195 302.24 130.67C300.181 123.308 313.797 106.87 314.369 106.183C314.674 105.802 322.302 96.343 331.685 95.3132C339.313 94.4741 345.644 97.449 352.319 100.538C359.985 104.124 367.88 107.823 378.331 105.726C397.668 101.911 413.763 91.4991 413.916 91.3847C414.259 91.1558 414.755 91.2703 414.984 91.6135C415.213 91.9568 415.098 92.4526 414.755 92.6815C414.603 92.7959 398.278 103.323 378.636 107.213C367.69 109.387 359.566 105.573 351.671 101.911C345.187 98.8984 339.046 96.0378 331.837 96.8006C323.103 97.7542 315.628 107.022 315.551 107.099C315.513 107.137 312.043 111.332 308.839 116.29C304.72 122.736 302.927 127.542 303.69 130.212C303.995 131.242 304.681 131.966 305.826 132.348C310.479 133.95 316.619 127.847 320.929 122.431C325.735 116.405 329.396 109.845 329.435 109.807C329.625 109.425 330.121 109.311 330.464 109.501C330.846 109.692 330.96 110.188 330.77 110.531C330.197 111.599 317.497 134.178 307.389 134.178Z" fill="#002154"/>
<path d="M371.122 156.91C362.121 156.91 351.938 155.499 342.364 152.868C331.189 149.816 322.76 145.583 319.785 141.578C318.527 139.9 318.221 138.26 318.793 136.734C322.379 127.313 347.513 135.094 348.581 135.437C349.001 135.552 349.192 136.009 349.077 136.391C348.963 136.81 348.543 137.001 348.124 136.887C348.047 136.848 341.716 134.903 335.08 134.026C329.168 133.263 321.768 133.187 320.205 137.306C319.823 138.336 320.052 139.442 321.006 140.701C326.689 148.367 354.646 156.796 376.5 155.232C401.978 153.402 419.599 145.201 419.79 145.125C420.171 144.934 420.629 145.125 420.82 145.506C421.01 145.888 420.82 146.346 420.438 146.536C420.248 146.612 402.36 154.927 376.615 156.796C374.822 156.834 372.991 156.91 371.122 156.91Z" fill="#002154"/>
<path d="M289.921 161.639C289.845 161.639 289.768 161.639 289.692 161.601C277.945 157.673 280.271 144.667 280.31 144.552C280.386 144.133 280.805 143.866 281.187 143.942C281.606 144.018 281.873 144.438 281.797 144.819C281.797 144.858 281.225 147.871 282.026 151.227C283.056 155.689 285.802 158.664 290.15 160.152C290.531 160.305 290.76 160.724 290.646 161.105C290.569 161.449 290.264 161.639 289.921 161.639Z" fill="#002154"/>
<path d="M306.016 152.791C305.864 152.791 305.711 152.753 305.597 152.677C298.655 148.1 298.121 138.794 298.083 138.412C298.045 137.993 298.388 137.649 298.808 137.611C299.227 137.573 299.571 137.916 299.609 138.336C299.609 138.412 300.143 147.299 306.436 151.418C306.779 151.647 306.894 152.105 306.665 152.486C306.512 152.677 306.283 152.791 306.016 152.791Z" fill="#002154"/>
<path d="M262.536 258.097C254.26 258.059 253.192 249.592 253.192 249.516V249.477C251.475 222.626 264.443 207.828 270.088 202.717C275.733 197.606 281.988 194.784 286.107 195.432C295.604 196.996 299.151 207.027 299.304 207.446C299.456 207.828 299.227 208.286 298.846 208.4C298.465 208.553 298.007 208.324 297.892 207.942C297.854 207.828 294.46 198.369 285.878 196.958C282.903 196.462 277.182 198.407 271.156 203.861C265.664 208.82 253.077 223.199 254.755 249.363C254.832 249.821 255.785 256.533 262.574 256.572C262.651 256.572 263.795 256.572 264.596 255.618C265.359 254.741 265.587 253.291 265.282 251.346C264.367 245.396 264.825 234.526 265.854 231.094C265.969 230.674 266.388 230.445 266.808 230.56C267.227 230.674 267.456 231.094 267.342 231.513C266.388 234.793 265.969 245.473 266.808 251.117C267.189 253.558 266.808 255.427 265.74 256.648C264.481 258.059 262.765 258.097 262.536 258.097Z" fill="#002154"/>
<path d="M282.979 258.135C277.411 258.135 273.025 255.313 270.889 253.635C268.448 251.69 266.236 251.957 266.121 251.995C265.702 252.033 265.32 251.766 265.244 251.346C265.168 250.927 265.473 250.545 265.892 250.469C266.007 250.469 268.829 250.049 271.804 252.452C274.97 254.97 283.323 260.042 292.896 253.177C293.239 252.948 293.697 253.024 293.964 253.368C294.193 253.711 294.116 254.169 293.773 254.436C289.959 257.182 286.259 258.135 282.979 258.135Z" fill="#002154"/>
<path d="M274.627 172.243C269.096 172.243 264.443 169.993 260.744 165.568C257.12 161.22 255.671 156.147 255.175 154.164C254.412 150.922 254.908 150.693 255.289 150.541C255.595 150.388 256.052 150.465 256.319 150.884C256.395 150.998 256.662 151.151 257.12 151.227C259.485 151.609 264.405 150.121 270.164 145.888C277.335 140.586 285.306 144.553 287.366 145.735C289.082 144.286 295.985 138.641 305.368 132.577C305.711 132.348 306.207 132.462 306.436 132.805C306.665 133.149 306.55 133.645 306.207 133.873C295.451 140.815 288.014 147.223 287.938 147.261C287.671 147.49 287.289 147.49 287.022 147.299C286.679 147.07 278.479 141.616 271.08 147.108C264.558 151.914 259.332 153.134 256.891 152.753C256.701 152.715 256.548 152.677 256.396 152.639C256.815 155.118 258.493 160.915 262.498 165.301C265.969 169.153 270.355 170.946 275.542 170.717C289.502 170.069 290.188 156.872 290.226 156.3C290.226 155.957 290.493 155.652 290.836 155.575C303.118 152.867 314.369 149.015 324.171 144.133C324.553 143.942 325.01 144.095 325.201 144.476C325.392 144.858 325.239 145.316 324.858 145.506C315.056 150.388 303.919 154.24 291.714 156.948C291.409 159.771 289.273 171.594 275.618 172.243C275.275 172.243 274.932 172.243 274.627 172.243Z" fill="#002154"/>
<path d="M341.563 135.017C341.334 135.017 341.106 134.903 340.953 134.712C340.686 134.369 340.762 133.911 341.106 133.644C348.505 127.961 353.044 122.622 355.599 119.151C356.095 118.426 356.171 117.549 355.79 116.786C355.37 116.023 354.607 115.566 353.73 115.566C344.081 115.794 332.791 119.227 320.166 125.711C319.785 125.902 319.327 125.749 319.137 125.368C318.946 124.986 319.099 124.529 319.48 124.338C332.295 117.701 343.814 114.231 353.692 114.002C355.141 113.964 356.438 114.727 357.125 116.023C357.811 117.32 357.697 118.808 356.82 119.99C354.226 123.537 349.573 129.029 342.021 134.788C341.868 134.979 341.716 135.017 341.563 135.017Z" fill="#002154"/>
<path d="M322.302 154.317C317.535 154.317 314.56 149.74 314.522 149.663C314.293 149.32 314.407 148.824 314.75 148.595C315.094 148.367 315.589 148.481 315.818 148.824C315.971 149.053 319.442 154.393 324.781 152.257C326.688 151.494 327.68 149.74 327.794 147.07C327.794 146.65 328.176 146.307 328.595 146.345C329.015 146.345 329.358 146.727 329.32 147.146C329.206 150.464 327.833 152.715 325.353 153.706C324.247 154.126 323.218 154.317 322.302 154.317Z" fill="#002154"/>
</svg>
