<svg width="216" height="188" viewBox="0 0 216 188" fill="none" xmlns="http://www.w3.org/2000/svg">
<mask id="mask0_3206:25075" style="mask-type:alpha" maskUnits="userSpaceOnUse" x="12" y="9" width="190" height="179">
<path d="M12.1406 17.2004C12.1406 12.7114 15.7797 9.07227 20.2688 9.07227H193.708C198.197 9.07227 201.836 12.7114 201.836 17.2004V179.871C201.836 184.36 198.197 188 193.708 188H20.2688C15.7797 188 12.1406 184.36 12.1406 179.871V17.2004Z" fill="white"/>
</mask>
<g mask="url(#mask0_3206:25075)">
</g>
<path d="M165.83 81.8584C165.83 81.8584 173.084 67.408 164.873 37.1425C164.873 37.1425 144.056 38.4938 119.232 53.2415C119.232 53.2415 109.219 74.468 129.334 91.6711C153.345 112.218 165.83 81.8584 165.83 81.8584Z" fill="#66EAFF" stroke="white" stroke-width="0.756344" stroke-miterlimit="10"/>
<path d="M49.5535 80.9804C49.5535 80.9804 42.8582 66.2643 52.2245 36.3336C52.2245 36.3336 72.9737 38.4763 97.2147 54.1582C97.2147 54.1582 106.407 75.7504 85.6464 92.1752C60.8644 111.793 49.5535 80.9804 49.5535 80.9804Z" fill="#66EAFF" stroke="white" stroke-width="0.756344" stroke-miterlimit="10"/>
<path d="M143.348 78.8055C143.348 78.8055 137.348 32.3554 107.197 2.28906C77.0465 32.3554 71.0465 78.8055 71.0465 78.8055C71.0465 78.8055 68.1595 107.346 110.411 107.346C149.95 107.346 143.348 78.8055 143.348 78.8055Z" fill="#99F1FF" stroke="white" stroke-width="0.756344" stroke-miterlimit="10"/>
<path d="M92.7209 48.4798V58.6853C92.7209 58.6853 97.2649 61.8871 108.035 61.4118C118.78 60.9366 122.495 58.4852 122.495 58.4852V47.029C122.495 47.029 120.035 39.4499 107.608 39.0247C95.2063 38.5744 92.7209 48.4798 92.7209 48.4798Z" fill="#98B4FF" stroke="#36369E" stroke-width="0.68071" stroke-miterlimit="10"/>
<path d="M72.4007 148.839C72.4007 148.839 32.1405 132.089 27.09 77.5875C27.09 77.5875 66.0427 73.5275 107.707 109.852C107.707 109.852 127.753 129.009 113.2 147.563C98.6461 166.117 72.4007 148.839 72.4007 148.839Z" fill="#99F1FF" stroke="white" stroke-width="0.756344" stroke-miterlimit="10"/>
<path d="M143.514 148.843C143.514 148.843 183.816 132.195 189.004 77.7057C189.004 77.7057 150.061 73.5484 108.305 109.769C108.305 109.769 88.2114 128.876 102.718 147.466C117.225 166.056 143.514 148.843 143.514 148.843Z" fill="#99F1FF" stroke="white" stroke-width="0.756344" stroke-miterlimit="10"/>
<path d="M48.8792 155.534C48.8792 155.534 47.7244 149.656 54.6532 146.58C61.5821 143.503 74.8122 136.574 74.8122 136.574C74.8122 136.574 86.8624 131.596 88.5947 130.996C88.5947 130.996 97.8834 136.749 108.302 135.849C118.72 134.948 121.005 135.549 127.431 130.996C127.431 130.996 141.289 136.899 144.427 138.45C147.565 140.001 163.632 146.955 163.632 146.955C163.632 146.955 169.406 150.807 165.892 158.511C162.377 166.215 149.147 168.091 139.08 166.966C139.08 166.966 128.712 165.79 123.239 163.439C117.766 161.062 107.925 158.186 107.925 158.186C107.925 158.186 101.85 161.813 96.603 163.339C91.3562 164.864 79.3562 167.591 68.3603 167.091C57.3896 166.64 49.4817 162.363 48.8792 155.534Z" fill="#D99EF4"/>
<path d="M92.1089 41.547L93.6654 41.8221L119.975 41.4719C119.975 41.4719 121.406 43.1728 123.791 43.8232C123.791 43.8232 124.695 40.3463 121.456 32.9673C118.218 25.5883 110.134 20.7107 102.904 25.4382L101.95 25.8384C101.95 25.8384 102.552 22.1865 102.05 22.1114C101.523 22.0364 99.5148 24.0375 101.347 26.0386C101.347 26.0386 90.929 27.6144 91.0796 41.697L92.1089 41.547Z" fill="#98B4FF"/>
<path d="M167.975 138.624C166.971 138.249 163.632 136.973 163.632 136.973C163.632 136.973 165.741 132.571 163.055 130.72C163.055 130.72 160.946 128.844 160.369 130.345C160.369 130.345 160.946 131.295 161.021 132.121C161.097 132.971 160.921 135.773 157.984 134.497C157.984 134.497 155.95 133.021 157.708 131.47C157.708 131.47 159.013 131.045 159.691 130.695C160.369 130.32 159.515 129.119 158.235 128.919C156.955 128.719 155.272 128.719 154.093 130.47C152.913 132.221 152.913 132.221 152.913 132.221C152.913 132.221 146.812 129.019 143.348 121.365C139.883 113.711 138.402 106.057 138.402 106.057L135.365 91.5488L132.929 77.5662C132.929 77.5662 131.021 70.0621 126.252 68.4612C126.252 68.4612 122.637 67.0855 120.226 66.6853C117.791 66.2851 113.323 64.6592 112.57 63.3835V57.1301C112.57 57.1301 118.62 55.4792 120.603 47.9251C120.829 48.2253 121.155 48.4254 121.657 48.4254C123.189 48.4254 125.699 47.5749 125.699 44.9485C125.699 43.1475 125.348 41.4716 122.938 41.6717C122.26 41.7217 121.733 41.8968 121.331 42.147C121.155 41.9218 120.955 41.6967 120.703 41.4716C117.942 38.8702 114.628 31.066 114.051 29.7402L113.724 29.34C113.724 29.34 109.934 24.5124 100.695 27.489C100.695 27.489 99.2892 35.0431 93.6407 41.7968C93.6407 41.7968 89.6491 40.4961 89.5235 44.3231C89.398 48.1502 92.8374 49.1758 94.7955 47.9251C94.7955 47.9251 96.101 54.8539 103.055 57.2301V63.5336C103.055 63.5336 102.001 65.5847 97.6825 66.26C97.6825 66.26 90.2265 67.0605 87.7411 69.787C85.2558 72.5134 83.9252 74.2144 83.2474 76.9659C82.5696 79.7173 82.2934 82.4438 82.2934 82.4438L79.783 95.9261L77.3478 107.232L74.7369 116.437C74.7369 116.437 72.2265 122.841 69.9671 125.967C67.7077 129.094 63.239 132.446 63.239 132.446C63.239 132.446 61.2558 127.868 57.7411 128.944C54.2265 130.02 56.8123 130.945 56.8123 130.945C56.8123 130.945 58.6951 131.295 58.8708 132.121C59.0466 132.946 59.0717 134.372 57.465 134.847C55.8583 135.322 54.7537 133.897 54.9294 132.296C55.08 130.67 56.0089 130.52 55.306 129.769C54.603 129.019 52.193 131.02 52.0424 131.996C51.8917 132.971 50.9629 134.647 52.4189 137.048L46.0424 139.425C46.0424 139.425 44.8625 139.85 45.4399 141.176C46.0173 142.526 47.3227 142.076 47.3227 142.076C47.3227 142.076 46.1177 142.777 46.5194 143.577C46.8959 144.402 50.2348 144.928 52.0926 144.327C52.0926 144.327 50.2348 145.278 51.0884 146.378C51.942 147.479 57.6658 147.304 63.0884 144.427C68.511 141.551 70.2683 140.4 70.2683 140.4C70.2683 140.4 76.8457 135.398 78.7537 131.771C78.7537 131.771 82.0675 127.318 84.0256 120.965C85.9838 114.611 87.239 110.384 87.239 110.384C87.239 110.384 90.0005 99.428 90.4273 95.601C90.8541 91.7989 91.2558 89.3976 91.2558 89.3976L90.7286 86.521C90.7286 86.521 99.1135 89.9229 106.394 90.173C113.674 90.4482 124.896 88.397 124.896 88.397C124.896 88.397 125.498 97.8772 127.055 103.855C128.611 109.859 131.724 120.139 131.724 120.139C131.724 120.139 134.185 128.244 138.302 133.221C142.419 138.199 146.285 140.825 149.398 142.501C152.511 144.177 161.498 148.855 165.013 146.178C165.013 146.178 165.365 145.053 164.235 144.327C164.235 144.327 168.603 145.328 169.457 143.502C169.457 143.502 169.858 142.701 168.653 142.001C168.653 142.001 170.21 141.976 170.511 140.7C170.837 139.525 169.005 138.999 167.975 138.624Z" fill="#FFE7DA"/>
<path d="M66.8032 147.079C66.8032 147.079 68.435 142.051 74.686 142.802C80.9622 143.552 80.5856 143.177 83.322 142.702C86.0584 142.227 93.4141 139.35 96.025 139.925C98.6358 140.501 99.6149 141.551 100.318 142.902C101.021 144.253 102.05 146.554 102.05 146.554C102.05 146.554 103.607 147.404 104.987 147.454C104.987 147.454 104.184 152.807 100.569 155.534L82.1923 150.156C82.1923 150.156 76.117 148.355 74.5605 148.43C73.004 148.48 68.7111 148.805 67.7321 148.355C66.8032 147.93 66.6526 147.529 66.8032 147.079Z" fill="#FFE7DA"/>
<path d="M109.506 147.904L112.92 146.929C112.92 146.929 114.954 140.275 119.146 140.25C123.339 140.225 126.853 141.851 126.853 141.851C126.853 141.851 133.355 143.877 136.795 143.602C140.234 143.327 142.067 142.602 144.251 143.577C146.435 144.553 146.786 145.453 146.786 145.453C146.786 145.453 136.067 148.58 127.481 148.705C119.698 148.83 111.841 148.605 109.506 147.904Z" fill="#FFE7DA"/>
<path d="M90.7527 86.5962C90.7527 86.5962 96.5268 80.1677 95.3468 66.8855C95.3468 66.8855 97.1544 66.3852 97.7318 66.2852C97.7318 66.2852 98.9619 83.8197 107.698 83.4194C116.435 83.0192 116.56 73.5891 118.016 66.2852L120.828 66.8355C120.828 66.8355 119.799 73.8393 122.008 79.5423C124.192 85.2454 125.196 86.8213 125.196 86.8213C125.196 86.8213 123.188 99.7283 123.715 106.882C124.242 114.036 125.02 121.215 125.874 124.292C126.728 127.368 127.481 131.02 127.481 131.02C127.481 131.02 119.322 136.198 107.774 135.748C96.2255 135.298 88.6439 131.02 88.6439 131.02C88.6439 131.02 91.2799 120.515 91.9326 113.761C92.5853 107.007 92.3594 99.4781 91.8573 93.9502C91.305 88.3971 90.7527 86.5962 90.7527 86.5962Z" fill="white"/>
<path d="M100.268 32.8421C100.118 32.8921 99.9921 32.742 100.067 32.6169C100.394 32.0917 101.122 31.0161 102.352 31.4913C102.352 31.4913 102.779 31.6164 102.628 31.8165C102.528 31.9666 100.996 32.5419 100.268 32.8421Z" fill="#36369E"/>
<path d="M113.372 31.5926C113.523 31.6427 113.648 31.4676 113.548 31.3425C113.171 30.8422 112.318 29.8417 111.163 30.442C111.163 30.442 110.736 30.6171 110.912 30.8172C111.012 30.9673 112.619 31.3925 113.372 31.5926Z" fill="#36369E"/>
<path d="M112.594 57.4062V63.4095" stroke="#36369E" stroke-width="0.68071" stroke-miterlimit="10" stroke-linecap="round" stroke-linejoin="round"/>
<path d="M103.079 63.4095V57.4062" stroke="#36369E" stroke-width="0.68071" stroke-miterlimit="10" stroke-linecap="round" stroke-linejoin="round"/>
<path d="M103.079 63.5586C103.079 63.5586 102.05 65.3846 97.707 66.2851C93.3639 67.1856 85.7321 67.5357 83.0961 77.6162C83.0961 77.6162 81.4894 88.8473 77.9497 104.781C74.8618 118.714 71.6735 126.743 63.2886 132.496C63.2886 132.496 60.753 126.493 56.2091 129.82C56.2091 129.82 55.5061 130.77 57.4141 131.12C59.3471 131.47 59.799 133.697 57.8158 134.747C55.8325 135.798 53.7739 133.396 55.6819 130.57C55.6819 130.57 55.6819 129.169 54.1254 129.92C52.5689 130.67 50.3848 133.296 52.4685 137.073L46.9455 139.1C46.9455 139.1 44.912 139.65 45.3388 140.876C45.7405 142.076 46.6442 142.076 47.6233 142.026C47.6233 142.026 46.1672 142.476 46.5689 143.627C46.9706 144.778 49.958 144.878 52.1421 144.377C52.1421 144.377 50.435 145.178 51.0375 146.303C51.64 147.404 57.3137 148.179 66.6526 142.626C66.6526 142.626 79.1045 137.499 84.276 120.364C87.2384 110.559 90.3011 102.23 91.1296 88.9474" stroke="#36369E" stroke-width="0.68071" stroke-miterlimit="10" stroke-linecap="round" stroke-linejoin="round"/>
<path d="M89.8745 82.5449C89.8745 82.5449 92.5607 92.2002 92.4101 105.307C92.2594 118.414 88.6193 131.021 88.6193 131.021C88.6193 131.021 96.5272 135.874 108.854 135.799" stroke="#36369E" stroke-width="0.68071" stroke-miterlimit="10" stroke-linecap="round" stroke-linejoin="round"/>
<path d="M47.7491 142.227C47.7491 142.227 53.6487 140.426 53.4478 139.951C53.247 139.475 47.724 141.802 47.0713 141.827C46.3934 141.827 47.7491 142.227 47.7491 142.227Z" fill="#36369E"/>
<path d="M51.8406 144.679C51.9661 144.704 52.0916 144.704 52.2172 144.654C53.0958 144.354 56.9619 143.003 56.6607 142.678C56.3343 142.302 51.9912 144.128 51.2883 144.229C50.7109 144.354 51.5142 144.604 51.8406 144.679Z" fill="#36369E"/>
<path d="M147.012 145.378C128.109 151.281 107.774 148.004 104.987 147.454C102.201 146.904 102.05 146.554 102.05 146.554C100.845 144.127 100.017 140.45 95.9245 139.925C91.8324 139.375 83.1211 144.403 75.7906 142.977C68.46 141.576 66.778 147.079 66.778 147.079C66.778 147.079 66.4517 148.78 69.7906 148.58C73.1295 148.38 75.8659 148.48 78.0751 149.08C80.3094 149.68 101.397 155.709 108.05 158.11L125.648 164.313C125.648 164.313 139.104 169.041 152.761 166.439C166.418 163.813 170.56 154.008 163.983 147.079" stroke="#36369E" stroke-width="0.68071" stroke-miterlimit="10" stroke-linecap="round" stroke-linejoin="round"/>
<path d="M108.829 148.031C111.615 147.481 112.921 146.905 112.921 146.905C114.126 144.479 114.954 140.802 119.046 140.277C123.138 139.726 131.85 144.754 139.18 143.328C143.222 142.553 145.532 143.879 146.812 145.229" stroke="#36369E" stroke-width="0.68071" stroke-miterlimit="10" stroke-linecap="round" stroke-linejoin="round"/>
<path d="M108.075 158.111C108.075 158.111 95.0208 167.141 72.2761 167.241C49.5313 167.341 48.4016 156.685 49.0041 153.559C49.6066 150.432 52.1924 147.255 54.025 147.08" stroke="#36369E" stroke-width="0.68071" stroke-miterlimit="10" stroke-linecap="round" stroke-linejoin="round"/>
<path d="M104.987 147.453C104.987 147.453 104.51 151.78 100.468 155.633" stroke="#36369E" stroke-width="0.68071" stroke-miterlimit="10" stroke-linecap="round" stroke-linejoin="round"/>
<path d="M95.3477 66.7109C95.3477 66.7109 97.1803 76.6913 90.8289 86.8969" stroke="#36369E" stroke-width="0.68071" stroke-miterlimit="10" stroke-linecap="round" stroke-linejoin="round"/>
<path d="M97.707 66.2606C97.707 66.2606 98.6108 83.7951 108.125 83.3949C117.64 82.9947 117.992 66.1855 117.992 66.1855" stroke="#36369E" stroke-width="0.68071" stroke-miterlimit="10" stroke-linecap="round" stroke-linejoin="round"/>
<path d="M88.5936 131.021C88.5936 131.021 79.3552 134.223 74.4849 136.95" stroke="#36369E" stroke-width="0.68071" stroke-miterlimit="10" stroke-linecap="round" stroke-linejoin="round"/>
<path d="M112.594 63.4082C112.594 63.4082 113.975 65.3593 118.343 66.2597C122.687 67.1602 130.318 67.5104 132.954 77.5909C132.954 77.5909 134.561 88.822 138.101 104.756C141.189 118.688 144.377 126.718 152.762 132.471C152.762 132.471 155.297 126.467 159.841 129.794C159.841 129.794 160.544 130.745 158.636 131.095C156.703 131.445 156.251 133.671 158.235 134.722C160.218 135.772 162.276 133.371 160.369 130.545C160.369 130.545 160.369 129.144 161.925 129.894C163.482 130.645 165.666 133.271 163.582 137.048L169.105 139.074C169.105 139.074 171.138 139.625 170.712 140.85C170.31 142.051 169.406 142.051 168.427 142.001C168.427 142.001 169.883 142.451 169.481 143.602C169.08 144.752 166.092 144.852 163.908 144.352C163.908 144.352 165.615 145.153 165.013 146.278C164.41 147.379 158.737 148.154 149.398 142.601C149.398 142.601 136.946 137.473 131.774 120.339C128.812 110.534 125.749 102.204 124.921 88.922" stroke="#36369E" stroke-width="0.68071" stroke-miterlimit="10" stroke-linecap="round" stroke-linejoin="round"/>
<path d="M126.176 82.5449C126.176 82.5449 123.49 92.2002 123.64 105.307C123.791 118.414 127.431 131.021 127.431 131.021C127.431 131.021 119.674 136.049 107.197 135.799" stroke="#36369E" stroke-width="0.68071" stroke-miterlimit="10" stroke-linecap="round" stroke-linejoin="round"/>
<path d="M168.302 142.227C168.302 142.227 162.402 140.426 162.603 139.951C162.804 139.475 168.327 141.802 168.979 141.827C169.657 141.827 168.302 142.227 168.302 142.227Z" fill="#36369E"/>
<path d="M164.184 144.679C164.058 144.704 163.933 144.704 163.807 144.654C162.928 144.354 159.062 143.003 159.364 142.678C159.69 142.302 164.033 144.128 164.736 144.229C165.338 144.354 164.51 144.604 164.184 144.679Z" fill="#36369E"/>
<path d="M120.678 66.7109C120.678 66.7109 118.845 76.6913 125.197 86.8969" stroke="#36369E" stroke-width="0.68071" stroke-miterlimit="10" stroke-linecap="round" stroke-linejoin="round"/>
<path d="M127.431 131.021C127.431 131.021 136.971 134.523 141.866 137.25" stroke="#36369E" stroke-width="0.68071" stroke-miterlimit="10" stroke-linecap="round" stroke-linejoin="round"/>
<path d="M100.846 26.4648C100.846 26.4648 100.494 33.3436 94.243 41.473C93.7158 42.1734 93.7409 41.2979 93.4899 41.473C93.515 41.473 98.6112 35.2696 100.846 26.4648Z" fill="#36369E"/>
<path d="M113.398 26.4648C113.398 26.4648 113.398 32.5098 120.899 42.0862C121.427 42.7866 121.407 41.6591 121.658 41.8342C121.658 41.8342 115.632 35.2696 113.398 26.4648Z" fill="#36369E"/>
<path d="M101.975 25.8647C102.05 25.8397 103.004 21.8625 102.552 21.5374C102.1 21.2122 100.167 23.3383 100.268 24.3889C100.368 25.4395 100.945 26.2899 101.473 26.2149C102 26.1399 100.594 25.6396 100.845 24.1138C100.845 24.1138 100.996 23.0632 102.05 22.3378C102.05 22.3378 101.523 26.0898 101.975 25.8647Z" fill="#36369E"/>
<path d="M100.343 39.1719C100.343 39.1719 100.368 38.8467 100.845 39.1719C101.348 39.497 102.327 39.8222 103.13 39.1719C103.582 38.8217 103.607 38.8717 103.707 38.8967C103.908 38.9467 103.707 39.397 103.682 39.497C103.682 39.5221 103.657 39.5221 103.657 39.5221C103.557 39.6471 103.155 40.2975 102.025 40.2975C101.046 40.2975 100.519 39.8472 100.343 39.1719Z" fill="#36369E"/>
<path d="M113.749 38.6706C113.749 38.6706 113.699 38.3454 113.247 38.6956C112.77 39.0458 111.816 39.446 110.962 38.8457C110.51 38.5205 110.46 38.5955 110.36 38.6206C110.159 38.6706 110.385 39.1208 110.435 39.2209C110.435 39.2459 110.46 39.2459 110.46 39.2459C110.561 39.346 111.013 39.9713 112.142 39.8963C113.121 39.8462 113.623 39.371 113.749 38.6706Z" fill="#36369E"/>
<path d="M102.953 47.3244C102.953 47.3244 104.736 49.2004 107.799 49.0253C110.861 48.8502 112.644 46.9492 112.644 46.9492" stroke="#36369E" stroke-width="0.68071" stroke-miterlimit="10" stroke-linecap="round" stroke-linejoin="round"/>
<path d="M94.0423 41.9484C94.0423 41.9484 89.7745 40.0974 89.5486 44.3247C89.3478 48.2518 93.1888 49.1773 94.6699 48.0017" stroke="#36369E" stroke-width="0.68071" stroke-miterlimit="10" stroke-linecap="round" stroke-linejoin="round"/>
<path d="M121.23 41.9484C121.23 41.9484 125.498 40.0974 125.724 44.3247C125.924 48.2518 122.083 49.1773 120.602 48.0017" stroke="#36369E" stroke-width="0.68071" stroke-miterlimit="10" stroke-linecap="round" stroke-linejoin="round"/>
<path d="M103.079 57.2562C98.9622 55.7304 95.799 52.2535 94.8199 47.9512" stroke="#36369E" stroke-width="0.68071" stroke-miterlimit="10" stroke-linecap="round" stroke-linejoin="round"/>
<path d="M112.594 57.1558C116.598 55.5982 119.617 52.1923 120.599 48.0098" stroke="#36369E" stroke-width="0.68071" stroke-miterlimit="10" stroke-linecap="round" stroke-linejoin="round"/>
<path d="M91.105 41.5479C91.105 41.5479 90.4021 29.3913 101.147 26.0645" stroke="#36369E" stroke-width="0.68071" stroke-miterlimit="10" stroke-linecap="round" stroke-linejoin="round"/>
<path d="M102.904 25.1892C102.904 25.1892 110.235 19.6862 117.917 27.6155C121.657 31.4676 123.079 36.6527 123.682 41.3302" stroke="#36369E" stroke-width="0.68071" stroke-miterlimit="10" stroke-linecap="round" stroke-linejoin="round"/>
<path d="M117.063 27.0156C117.063 27.0156 118.168 34.4196 123.565 39.9226" stroke="#36369E" stroke-width="0.378172" stroke-miterlimit="10" stroke-linecap="round" stroke-linejoin="round"/>
</svg>
