<svg width="165" height="166" viewBox="0 0 165 166" fill="none" xmlns="http://www.w3.org/2000/svg">
<path d="M82.5 165C128.063 165 165 128.063 165 82.5C165 36.9365 128.063 0 82.5 0C36.9365 0 0 36.9365 0 82.5C0 128.063 36.9365 165 82.5 165Z" fill="white"/>
<path d="M91.7101 138.076L26.7695 73.1357C24.046 70.4122 24.046 65.9967 26.7695 63.2733L65.6753 24.3678C68.3988 21.6443 72.8143 21.6443 75.5378 24.3678L140.478 89.3084C143.202 92.0319 143.202 96.4474 140.478 99.1709L101.572 138.076C98.8491 140.8 94.4336 140.8 91.7101 138.076Z" fill="#E3E3E3"/>
<path d="M51.4864 38.5498L62.326 27.7102L137.118 102.502L126.278 113.342L51.4864 38.5498Z" fill="white"/>
<path d="M47.6543 57.65C45.399 59.9053 45.399 63.5619 47.6543 65.8172L73.2035 91.3664C75.4588 93.6217 79.1154 93.6217 81.3707 91.3664C83.6261 89.1111 83.6261 85.4545 81.3707 83.1992L55.8215 57.65C53.5662 55.3947 49.9096 55.3947 47.6543 57.65Z" fill="white"/>
<path d="M91.9979 137.789L27.0572 72.848C24.4926 70.2834 24.4926 66.1256 27.0572 63.561L65.963 24.6555C68.5276 22.091 72.6855 22.091 75.25 24.6555L140.191 89.5962C142.755 92.1608 142.755 96.3186 140.191 98.8832L101.285 137.789L101.55 138.054L101.284 137.789C98.7203 140.353 94.5624 140.353 91.9979 137.789Z" stroke="#002154" stroke-width="0.81383"/>
<ellipse cx="92.4108" cy="148.534" rx="20.3046" ry="2.06488" fill="#F0F0F0"/>
</svg>
