<svg width="214" height="184" viewBox="0 0 214 184" fill="none" xmlns="http://www.w3.org/2000/svg">
<path d="M139.965 183.116C99.0769 183.116 65.9304 149.969 65.9304 109.081C65.9304 68.1929 99.0769 35.0464 139.965 35.0464C180.853 35.0464 214 68.1929 214 109.081C214 149.969 180.853 183.116 139.965 183.116Z" fill="white"/>
<mask id="mask0_7463_41752" style="mask-type:alpha" maskUnits="userSpaceOnUse" x="0" y="0" width="214" height="184">
<path d="M0 106.233C0 129.627 78.8536 158.802 93.7482 166.907C106.409 177.026 122.486 183.116 139.965 183.116C180.838 183.116 214 149.953 214 109.081C214 68.2084 188.285 0 147.412 0C106.54 0 0 65.3609 0 106.233Z" fill="white"/>
</mask>
<g mask="url(#mask0_7463_41752)">
<path fill-rule="evenodd" clip-rule="evenodd" d="M163.358 199.149L162.482 123.888C161.824 114.294 159.327 93.5728 154.684 87.1331C152.45 85.6436 145.572 83.4094 135.759 86.2569C131.378 90.8567 121.521 105.401 117.053 126.779V126.823C108.949 135.453 100.844 137.906 97.6463 138.081C86.782 137.205 75.3044 120.208 70.9237 111.797C67.1562 106.671 58.0004 111.797 55.1091 116.046C55.0215 116.134 54.9777 116.265 54.8901 116.353C52.174 120.295 51.6045 121.128 62.2498 137.643C73.1579 154.553 83.8469 160.379 89.8486 162.351C95.8502 164.366 103.648 162.351 110.57 159.678C111.796 159.197 113.023 158.627 114.162 157.97L112.409 199.193H163.358V199.149Z" fill="#F0F0F0"/>
<path d="M144.346 15.1139C144.346 15.1139 130.985 14.851 120.778 38.6386C110.57 62.4261 135.891 72.1952 135.891 72.1952L135.541 87.3526C135.541 87.3526 139.571 89.3677 146.23 89.3677C149.778 89.3677 154.772 88.5354 155.123 87.7906C155.123 87.7906 153.37 83.6289 154.816 73.2903C154.816 73.2903 160.248 72.1075 163.884 69.3915C163.884 69.3915 154.203 64.0469 152.363 53.2703C152.363 53.2703 159.46 51.9561 157.926 45.3411C157.926 45.3411 155.079 39.6023 149.472 43.1069C149.472 43.1069 145.003 36.1415 152.407 29.439C152.407 29.3952 145.135 20.8527 144.346 15.1139Z" fill="white"/>
<path d="M58.4829 94.2744C64.5284 101.065 66.0616 107.504 66.0616 109.87C60.8924 109.87 55.4602 114.908 53.3574 117.449C51.0356 114.426 44.3769 109.081 41.3104 106.76C27.5986 99.0932 24.8825 91.8212 25.2768 89.1489L54.0146 100.933C52.4375 97.2095 49.7652 89.587 51.5613 88.667C53.3575 87.7909 56.9059 92.0402 58.4829 94.2744Z" fill="white"/>
<path d="M64.1338 103.736C64.2652 103.736 64.4405 103.693 64.5281 103.605C65.0538 103.167 65.4481 102.641 65.7109 101.984C66.5871 99.8813 65.5795 97.4281 63.4329 96.552L59.8407 95.0625C59.4902 94.9311 59.1398 95.1063 59.0083 95.413C58.8769 95.7634 59.0521 96.1139 59.3588 96.2453L62.951 97.7348C64.3967 98.3481 65.0976 100.013 64.5281 101.458C64.3529 101.896 64.09 102.247 63.7396 102.554C63.4767 102.773 63.4329 103.211 63.6519 103.474C63.7834 103.649 63.9586 103.736 64.1338 103.736ZM54.1895 101.677C54.4524 101.677 54.6714 101.546 54.8028 101.283C54.9342 100.933 54.759 100.582 54.4523 100.451L15.9017 84.6363C15.2008 84.3296 14.6313 83.804 14.3246 83.103C14.018 82.4021 14.018 81.6136 14.3246 80.9127C14.6313 80.2117 15.157 79.6422 15.8579 79.3356C16.5588 79.0289 17.3473 79.0289 18.0483 79.3356L50.5973 92.6969C50.9477 92.8283 51.2982 92.6531 51.4296 92.3464C51.5611 91.996 51.3858 91.6455 51.0792 91.5141L18.5301 78.1528C17.4788 77.7147 16.3836 77.7147 15.3322 78.1528C14.2808 78.5909 13.5361 79.3794 13.098 80.4308C12.6599 81.4383 12.6599 82.5773 13.098 83.6287C13.5361 84.6363 14.3246 85.4248 15.376 85.8629L53.9267 101.677C54.0581 101.677 54.1019 101.677 54.1895 101.677Z" fill="#002154"/>
<path d="M133.481 19.7568C133.481 19.7568 127.699 11.5647 136.11 6.0888C136.11 6.0888 140.271 3.1975 145.441 7.40303C145.441 7.40303 150.303 1.13855 156.305 3.85462C162.307 6.57068 168.089 19.6691 168.089 19.6691C168.089 19.6691 177.201 25.4079 179.26 35.6589C179.26 35.6589 184.736 27.2917 185.393 33.6C185.393 33.6 186.488 38.7693 180.092 39.3387C180.092 39.3387 182.108 58.176 163.752 69.4784C163.752 69.4784 154.202 63.8272 152.231 53.3572C152.231 53.3572 158.671 52.5686 158.233 46.6108C157.794 40.653 150.96 41.2663 149.383 43.1938C149.383 43.1938 144.74 36.5789 152.318 29.5259C152.318 29.5259 144.959 21.0272 144.214 15.2884C144.346 15.1132 140.052 14.8065 133.481 19.7568Z" fill="#F0F0F0"/>
<path d="M132.035 35.3091C132.692 35.6596 133.743 35.0463 134.357 33.8635C135.014 32.7245 134.97 31.4979 134.313 31.1474C133.656 30.7969 132.604 31.4103 131.991 32.5931C131.378 33.6883 131.378 34.9149 132.035 35.3091Z" fill="#002154"/>
<path d="M120.515 41.6611L130.153 43.8077C130.153 43.8077 127.875 53.4016 120.165 54.1025C120.209 54.0587 118.237 48.7142 120.515 41.6611Z" fill="white"/>
<path d="M120.251 54.6282C123.186 54.6282 125.902 52.7883 128.136 49.2837C129.844 46.6552 130.633 44.0268 130.677 43.8953C130.721 43.7639 130.721 43.6325 130.633 43.5011C130.545 43.3697 130.458 43.282 130.326 43.282L120.47 41.0479C120.207 41.004 119.944 41.1355 119.9 41.3983C119.856 41.6612 119.988 41.924 120.251 41.9678L129.582 44.0706C128.837 46.1295 125.683 53.7521 120.119 53.5768C119.856 53.5768 119.637 53.7959 119.637 54.0587C119.637 54.3215 119.856 54.5406 120.119 54.5406C120.119 54.6282 120.207 54.6282 120.251 54.6282Z" fill="#002154"/>
<path d="M152.406 53.7953C154.597 53.7953 156.787 52.5687 157.97 50.4221C158.802 48.9327 159.021 47.2242 158.627 45.6471C158.233 44.0262 157.182 42.712 155.78 41.9234C153.589 40.6968 150.742 41.0473 148.77 42.7996C148.508 43.0186 148.464 43.4567 148.727 43.7196C148.946 43.9824 149.384 44.0262 149.647 43.7634C151.224 42.3615 153.414 42.0987 155.166 43.0186C156.305 43.6319 157.094 44.6833 157.401 45.9537C157.707 47.2242 157.532 48.5822 156.875 49.765C155.517 52.2182 152.538 53.182 150.26 51.9116C149.953 51.7363 149.559 51.8678 149.384 52.1744C149.209 52.4811 149.34 52.8753 149.647 53.0506C150.479 53.5763 151.443 53.7953 152.406 53.7953Z" fill="#002154"/>
<path d="M149.208 43.939C149.296 43.939 149.427 43.8952 149.515 43.8514C149.821 43.6761 149.953 43.2819 149.777 42.9752C145.747 35.0898 152.669 30.2272 152.975 30.052C153.151 29.9644 153.238 29.7891 153.238 29.6139C153.238 29.4387 153.194 29.2634 153.063 29.0882C153.019 29.0006 146.536 21.8161 145.002 14.9822C144.915 14.6317 144.564 14.4127 144.214 14.5003C143.863 14.5879 143.644 14.9384 143.732 15.2888C145.134 21.4219 150.128 27.6425 151.661 29.4387C149.865 30.9281 144.783 36.0974 148.595 43.5885C148.726 43.8075 148.989 43.939 149.208 43.939Z" fill="#002154"/>
<path d="M133.612 20.0639C133.744 20.0639 133.875 20.0201 133.963 19.9325C134.27 19.7134 134.313 19.3192 134.138 19.0563C134.138 19.0563 133.218 17.6983 132.736 15.8146C132.123 13.3613 132.473 11.171 133.831 9.28724C135.365 7.18448 137.117 6.00167 139.045 5.78263C142.199 5.43217 144.827 7.75397 144.871 7.75397C145.134 7.97301 145.528 7.97301 145.791 7.71017C146.01 7.44732 146.01 7.05305 145.747 6.79021C145.616 6.65878 142.681 4.11795 138.957 4.51221C136.635 4.77506 134.576 6.08929 132.824 8.4987C129.013 13.7118 133.043 19.7134 133.087 19.7572C133.174 19.9325 133.393 20.0639 133.612 20.0639Z" fill="#002154"/>
<path d="M154.553 74.0351C154.597 74.0351 154.64 74.0351 154.684 74.0351C163.095 72.1076 170.411 67.0259 175.318 59.7538C178.954 54.3217 181.013 46.743 180.794 39.7776C182.677 39.6899 184.254 38.8138 185.218 37.2805C186.313 35.4844 186.357 33.075 185.306 31.3227C184.955 30.7532 184.43 30.4465 183.86 30.4465C182.327 30.4904 180.618 32.7245 179.611 34.1702C177.639 27.9057 173.697 22.4736 168.703 19.188C168.002 18.049 167.301 16.7786 166.6 15.4644C163.49 9.9008 159.985 3.5925 154.947 2.54112C152.45 2.01543 149.734 2.84778 146.93 4.99435C146.098 5.60765 145.441 6.35238 145.003 6.96569C144.784 7.22853 144.828 7.66661 145.09 7.88565C145.353 8.10468 145.791 8.06088 146.01 7.79803C146.448 7.27234 147.018 6.57142 147.719 6.04573C150.26 4.1182 152.538 3.37347 154.728 3.85535C159.196 4.77531 162.57 10.8208 165.505 16.1215C166.249 17.4795 166.994 18.7937 167.739 19.9765C167.783 20.0642 167.87 20.1518 167.958 20.1956C173.127 23.5688 177.114 29.3076 178.866 35.9225C178.954 36.1853 179.129 36.3606 179.392 36.4044C179.655 36.4482 179.917 36.3168 180.049 36.0977C181.188 34.0826 183.072 31.8046 183.948 31.7608C183.991 31.7608 184.123 31.7608 184.254 31.9798C185.043 33.294 184.999 35.2216 184.167 36.5796C183.334 37.8938 181.976 38.5509 180.224 38.4195C180.049 38.4195 179.874 38.4633 179.742 38.5948C179.611 38.7262 179.523 38.9014 179.567 39.0766C179.961 45.9544 177.99 53.5331 174.398 58.9215C169.666 65.9307 162.613 70.8371 154.553 72.677C154.202 72.7647 153.983 73.1151 154.071 73.4656C154.027 73.816 154.29 74.0351 154.553 74.0351Z" fill="#002154"/>
<path d="M135.76 86.8701C136.11 86.8701 136.417 86.6072 136.417 86.2568L136.68 72.1069C136.68 71.8441 136.504 71.5812 136.285 71.4936C136.066 71.406 135.891 71.3184 135.672 71.2308C135.453 71.0994 135.19 71.0117 134.971 70.9241C127.655 67.7262 122.749 62.5569 120.734 56.0734C118.456 48.6699 120.033 39.4703 125.027 31.4973C131.51 21.0711 137.118 16.4713 144.258 15.639C144.609 15.5952 144.872 15.2885 144.828 14.938C144.784 14.5876 144.477 14.3247 144.127 14.3685C136.504 15.2447 130.678 20.0197 123.932 30.8402C118.675 39.2512 117.054 48.5823 119.507 56.4676C121.61 63.3454 126.823 68.7776 134.489 72.1507C134.708 72.2384 134.927 72.326 135.146 72.4136C135.234 72.4574 135.321 72.5012 135.409 72.545L135.146 86.2568C135.102 86.6072 135.409 86.8701 135.76 86.8701Z" fill="#002154"/>
<path d="M163.797 69.8724C164.016 69.8724 164.235 69.741 164.366 69.5657C164.542 69.2591 164.454 68.8648 164.104 68.6896C154.992 63.5203 152.933 53.4445 152.889 53.3569C152.801 53.0065 152.495 52.7874 152.144 52.8312C151.794 52.9189 151.575 53.2255 151.618 53.576C151.706 54.014 153.853 64.3088 163.447 69.7848C163.578 69.8286 163.666 69.8724 163.797 69.8724Z" fill="#002154"/>
<path d="M155.209 88.6667C155.253 88.6667 155.297 88.6667 155.385 88.6667C155.735 88.5791 155.954 88.2287 155.866 87.8782C154.99 84.3298 155.122 73.6845 155.122 73.5531C155.122 73.2026 154.859 72.896 154.508 72.896C154.158 72.896 153.851 73.1588 153.851 73.5093C153.851 73.9474 153.676 84.4174 154.64 88.141C154.684 88.4915 154.946 88.6667 155.209 88.6667Z" fill="#002154"/>
<path d="M142.155 22.9553C142.462 23.043 142.768 22.5611 142.637 22.2106C142.243 21.0278 141.586 19.4945 140.534 20.5459C139.877 21.2469 141.016 22.6925 142.155 22.9553Z" fill="#002154"/>
<path d="M163.315 199.588C163.666 199.588 163.972 199.281 163.972 198.931C163.753 181.977 163.447 152.057 163.271 131.029C163.009 104.701 156.043 88.1851 155.999 88.0098C155.868 87.7032 155.474 87.528 155.167 87.6594C154.86 87.7908 154.685 88.1851 154.817 88.4917C154.904 88.667 161.782 104.963 162.001 130.985C162.176 152.013 162.483 181.933 162.702 198.887C162.658 199.281 162.965 199.588 163.315 199.588Z" fill="#002154"/>
<path d="M112.366 199.587C112.717 199.587 112.98 199.325 113.023 198.974C113.549 181.714 114.425 164.498 114.82 157.795C114.82 157.444 114.557 157.138 114.206 157.094C113.856 157.05 113.549 157.357 113.505 157.707C113.111 164.41 112.235 181.67 111.709 198.93C111.709 199.281 112.016 199.587 112.366 199.587Z" fill="#002154"/>
<path d="M94.9742 163.797C95.2809 163.797 95.5875 163.797 95.8942 163.797C106.32 163.315 117.272 158.189 128.487 148.464C138.519 139.79 145.922 129.934 149.471 124.852C149.69 124.545 149.602 124.151 149.296 123.976C148.989 123.757 148.595 123.844 148.419 124.151C144.915 129.189 137.599 138.958 127.655 147.544C116.659 157.05 105.97 162.088 95.8504 162.57C73.0266 163.578 54.3208 123.757 54.1018 123.319C54.1018 123.275 54.058 123.231 54.058 123.187C54.0142 123.143 53.0942 121.829 53.4885 119.814C53.8827 117.58 55.635 115.433 58.7454 113.331C62.2938 110.965 65.3603 109.957 67.6821 110.483C69.522 110.921 70.223 112.104 70.2668 112.148C70.661 112.98 80.912 133.175 93.879 138.257C107.109 143.426 130.634 112.498 131.597 111.184C131.816 110.921 131.773 110.483 131.466 110.264C131.203 110.045 130.765 110.089 130.546 110.395C130.327 110.702 106.627 141.849 94.3171 137.03C87.7898 134.49 81.9196 127.699 78.1083 122.442C73.9904 116.748 71.362 111.578 71.362 111.534C71.3181 111.447 70.3544 109.782 67.9888 109.213C65.2727 108.555 61.8995 109.563 58.0006 112.235C54.5836 114.513 52.6561 117.01 52.218 119.595C51.8238 121.917 52.7875 123.538 53.0066 123.844C53.357 124.633 58.0882 134.49 65.4041 144.127C75.1732 157.007 85.3804 163.797 94.9742 163.797Z" fill="#002154"/>
<path d="M116.923 127.261C117.185 127.261 117.448 127.086 117.536 126.779C121.785 110.921 126.648 100.932 129.977 95.3689C133.569 89.3235 136.198 87.0017 136.198 87.0017C136.461 86.7827 136.505 86.3446 136.242 86.0817C136.023 85.8189 135.585 85.7751 135.322 86.0379C134.884 86.4322 124.545 95.6756 116.265 126.472C116.178 126.823 116.397 127.173 116.704 127.261C116.791 127.217 116.835 127.261 116.923 127.261Z" fill="#002154"/>
<path d="M146.668 89.8493C150.699 89.8493 153.896 89.1045 155.561 88.4036C155.78 88.316 155.912 88.0532 155.824 87.8341C155.736 87.6151 155.474 87.4837 155.254 87.5713C152.319 88.7979 144.346 90.1997 135.322 86.9142C135.103 86.8265 134.84 86.958 134.753 87.177C134.665 87.396 134.796 87.6589 135.015 87.7465C139.177 89.3236 143.251 89.8493 146.668 89.8493Z" fill="#002154"/>
<path d="M65.8871 110.308C66.1499 110.308 66.4128 110.133 66.5004 109.826C66.5442 109.651 67.5518 105.445 59.8417 95.1066C56.1618 90.1564 53.5772 87.7908 51.9125 87.9222C51.343 87.966 51.0801 88.2726 50.9487 88.4479C50.5106 88.9736 48.7145 91.8649 53.7962 101.59C53.9714 101.897 54.3657 102.028 54.6724 101.853C54.979 101.678 55.1104 101.283 54.9352 100.977C50.1164 91.6458 51.8687 89.2802 51.9125 89.2802C51.9563 89.2364 51.9563 89.2364 52.0001 89.1926C52.1753 89.1488 53.7524 89.0174 58.8341 95.8514C66.0623 105.533 65.2738 109.476 65.2738 109.476C65.1862 109.826 65.4052 110.176 65.7557 110.264C65.7995 110.308 65.8433 110.308 65.8871 110.308Z" fill="#002154"/>
<path d="M53.7519 117.93C53.9271 117.93 54.1023 117.886 54.19 117.755C54.4528 117.492 54.4528 117.098 54.19 116.835C54.1461 116.791 47.794 110.483 42.9314 107.11C42.3181 106.672 41.4419 106.146 40.3906 105.533C35.4403 102.554 26.2407 96.9464 25.8903 89.6743C25.8903 89.3239 25.5836 89.061 25.2331 89.061C24.8827 89.061 24.6198 89.3677 24.6198 89.7181C25.0141 97.6911 34.608 103.474 39.7772 106.628C40.7848 107.241 41.661 107.767 42.2305 108.161C47.0055 111.491 53.2262 117.667 53.3138 117.755C53.4452 117.843 53.5766 117.93 53.7519 117.93Z" fill="#002154"/>
</g>
<path d="M18.1793 57.9133C12.8786 53.0069 9.33015 46.4796 8.05972 39.3389C6.78931 32.1983 7.92831 24.8824 11.2139 18.4427C14.4994 12.003 19.844 6.83371 26.3713 3.67957C32.8986 0.569231 40.2583 -0.350728 47.3551 1.09492C54.452 2.54057 60.8479 6.30802 65.6229 11.7402C70.3979 17.1723 73.2454 24.0501 73.7273 31.2783C74.2092 38.5066 72.3693 45.691 68.3828 51.7365C64.3963 57.7819 58.5699 62.3817 51.7797 64.7911C51.3416 66.5872 49.9836 71.8441 49.8522 71.7127C49.7207 71.6251 46.2161 67.5948 45.1647 66.3682C40.3021 67.0253 35.3957 66.631 30.7082 65.1416C26.0646 63.6959 21.7715 61.2427 18.1793 57.9133Z" fill="white"/>
<path d="M40.6099 50.1156C60.8052 36.9295 59.3158 23.4805 52.1751 20.3702C45.9545 17.6541 41.2671 22.5168 41.2671 22.5168C41.1356 22.5168 41.0042 22.4292 40.9166 22.3416C40.0842 21.5092 35.8787 17.6979 30.2714 19.9321C22.9117 22.8234 20.9403 36.2286 40.6099 50.1156Z" fill="#FFA733"/>
</svg>
