<svg width="321" height="212" viewBox="0 0 321 212" fill="none" xmlns="http://www.w3.org/2000/svg">
<g clip-path="url(#clip0)">
<path d="M183.211 127.828C183.152 127.69 183.129 127.539 183.146 127.39C183.162 127.24 183.218 127.098 183.306 126.977C183.394 126.855 183.513 126.759 183.65 126.698C183.786 126.637 183.937 126.612 184.086 126.627C186.606 126.93 191.729 127.213 194.414 125.074C196.571 123.43 198.313 121.303 199.503 118.863C199.503 118.863 187.756 115.55 180.491 109.201L182.261 105.061C182.261 105.061 177.765 100.789 179.665 98.0769C181.566 95.3647 184.526 98.0769 184.526 98.0769L186.551 99.4019C186.551 99.4019 197.141 80.2927 212.909 80.8447C212.909 80.8447 222.005 95.5717 230.392 98.8843C230.392 98.8843 222.515 102.659 221.613 115.557C221.613 115.557 226.488 108.829 231.37 112.983C236.252 117.138 233.188 122.265 231.845 123.763C230.502 125.26 227.025 129.863 221.406 125.24C221.406 125.24 219.196 133.39 223.906 136.723C220.735 139.829 216.699 141.899 212.331 142.658L211.374 151.402C211.374 151.402 204.144 151.747 201.135 149.608L202.25 142.907C202.25 142.907 189.126 140.954 183.211 127.828Z" fill="#FFD6D6"/>
<path d="M152.26 167.544C152.26 167.544 144.534 149.421 140.272 149.649C136.01 149.877 139.232 159.732 139.232 159.732L120.854 151.878C120.854 151.878 115.394 159.076 133.462 165.204C133.462 165.204 142.606 172.795 145.656 174.114C146.009 172.498 146.82 171.018 147.992 169.853C149.163 168.687 150.645 167.885 152.26 167.544Z" fill="#FFD6D6"/>
<path d="M147.55 170.325C147.55 170.325 151.888 165.667 155.262 168.075C158.636 170.484 163.793 177.233 170.411 178.544C177.028 179.856 180.223 177.702 181.841 175.998C185.843 171.581 189.3 166.697 192.135 161.45C194.413 157.19 197.187 153.215 200.398 149.608C200.398 149.608 206.946 152.092 211.415 151.402C211.415 151.402 215.457 156.233 215.546 167.965C215.636 179.697 215.236 207.488 215.236 207.488H180.65L182.089 196.287C182.089 196.287 174.618 198.357 163.911 192.478C157.286 188.754 151.372 183.885 146.442 178.096C146.442 178.096 144.149 173.458 147.55 170.325Z" fill="#CBDBFF"/>
<path d="M218.548 64.2613C218.548 64.2613 224.14 62.2461 225.985 66.9734C225.985 66.9734 227.362 73.3569 227.858 73.9642C227.858 73.9642 235.281 73.6606 237.663 85.9239C238.067 86.9812 238.684 87.9442 239.474 88.7533C240.638 89.8299 247.875 96.8001 248.99 106.883C250.105 116.965 247.475 126.44 244.969 131.092C242.462 135.743 239.674 137.089 237.277 135.536C237.277 135.536 235.026 142.313 227.183 141.236C227.183 141.236 223.052 145.681 215.746 141.864C215.746 141.864 221.764 139.394 223.947 136.723C223.947 136.723 219.003 134.335 221.447 125.24C221.447 125.24 227.362 130.567 232.237 123.211C237.112 115.854 230.24 112.169 230.24 112.169C230.24 112.169 226.577 109.526 221.654 115.53C221.654 115.53 221.654 104.198 230.433 98.8566C230.433 98.8566 223.733 97.0416 213.219 80.8171C213.24 80.8447 208.186 67.1873 218.548 64.2613Z" fill="#92B0F5"/>
<path fill-rule="evenodd" clip-rule="evenodd" d="M186.978 126.813C186.978 126.813 190.634 119.139 198.924 120.036C198.924 120.036 196.48 126.868 186.978 126.813Z" fill="#FCACAC"/>
<path d="M188.52 76.2004C194.85 70.3307 199.089 62.5456 200.589 54.0343C202.089 45.523 200.768 36.7535 196.828 29.0655C192.888 21.3774 186.545 15.1934 178.768 11.4581C170.991 7.72289 162.208 6.64176 153.761 8.37989C145.313 10.118 137.665 14.5799 131.986 21.0838C126.306 27.5878 122.908 35.7763 122.308 44.3984C121.709 53.0206 123.942 61.6024 128.667 68.8328C133.391 76.0633 140.348 81.5449 148.473 84.4403C149.01 86.6004 150.594 92.8459 150.759 92.7217C150.924 92.5975 155.097 87.7874 156.343 86.3313C162.121 87.1354 168.004 86.6437 173.568 84.8917C179.133 83.1397 184.24 80.1712 188.52 76.2004Z" fill="#D7E4FE"/>
<path d="M71.9524 73.9505C73.519 73.3372 74.8598 72.2563 75.7933 70.8541C76.7268 69.4519 77.2081 67.7961 77.1718 66.1108C77.1718 66.1108 77.826 72.9084 82.7699 73.4053C82.7699 73.4053 77.3577 75.6344 77.3577 81.7902C77.3577 81.7695 76.5176 74.7441 71.9524 73.9505Z" fill="#FFDE99"/>
<path d="M130.377 125.468C131.945 124.855 133.288 123.775 134.222 122.373C135.157 120.97 135.639 119.314 135.604 117.628C135.604 117.628 136.258 124.426 141.202 124.922C141.202 124.922 135.79 127.158 135.79 133.307C135.776 133.307 134.936 126.261 130.377 125.468Z" fill="#FFDE99"/>
<path d="M103.867 132.093C118.505 132.093 130.37 120.2 130.37 105.53C130.37 90.8602 118.505 78.9678 103.867 78.9678C89.2303 78.9678 77.3645 90.8602 77.3645 105.53C77.3645 120.2 89.2303 132.093 103.867 132.093Z" fill="#FFBD32"/>
<path d="M103.867 129.415C118.505 129.415 130.37 117.523 130.37 102.853C130.37 88.1829 118.505 76.2905 103.867 76.2905C89.2303 76.2905 77.3645 88.1829 77.3645 102.853C77.3645 117.523 89.2303 129.415 103.867 129.415Z" fill="#FFDE99"/>
<path d="M103.868 122.928C114.93 122.928 123.898 113.94 123.898 102.853C123.898 91.7654 114.93 82.7773 103.868 82.7773C92.8051 82.7773 83.8372 91.7654 83.8372 102.853C83.8372 113.94 92.8051 122.928 103.868 122.928Z" fill="#FFBD32"/>
<path d="M103.868 121.631C114.215 121.631 122.603 113.223 122.603 102.853C122.603 92.4819 114.215 84.0747 103.868 84.0747C93.52 84.0747 85.1316 92.4819 85.1316 102.853C85.1316 113.223 93.52 121.631 103.868 121.631Z" fill="#FFE4AB"/>
<path d="M110.657 96.1103L99.8599 102.363L99.4812 102.584L96.6375 104.233V106.476L113.363 96.8143C113.671 96.6299 114.034 96.5591 114.389 96.6141C114.452 96.6213 114.514 96.6352 114.575 96.6555H114.616C114.107 96.1394 113.441 95.8072 112.723 95.711C112.006 95.6149 111.276 95.7602 110.65 96.1241L110.657 96.1103Z" fill="#FFBD32"/>
<path d="M93.5803 96.8418H93.3323H93.1946H93.1395H93.1052H93.0707H93.0018H92.9605L92.871 96.897H92.8366L92.7196 97.0074V97.0488L92.6506 97.1386C92.4884 97.366 92.4018 97.6388 92.4028 97.9184V107.994C92.4031 108.338 92.4888 108.676 92.6523 108.979C92.8158 109.281 93.0518 109.538 93.3392 109.726L93.5251 109.83C93.7765 109.962 94.0539 110.038 94.3376 110.051V99.5608C94.3372 99.5271 94.346 99.4938 94.363 99.4646C94.38 99.4355 94.4045 99.4115 94.4341 99.3952C94.4622 99.375 94.4958 99.3641 94.5304 99.3641C94.565 99.3641 94.5988 99.375 94.6269 99.3952L96.782 100.644L99.6259 102.294L101.561 101.169L98.6618 99.4849L94.3996 97.0212H94.3376H94.2964H94.2482H94.1792H94.1105H93.8281L93.5803 96.8418Z" fill="#FFBD32"/>
<path d="M93.1948 96.6347C93.3404 96.5941 93.4915 96.5778 93.6423 96.5864H94.0349H94.0762H94.1176H94.1656H94.2139H94.2759H94.3171L101.602 100.81L103.083 99.9542L103.537 99.6919L97.6429 96.2414C96.9094 95.8016 96.0797 95.5481 95.2261 95.5029C94.426 95.5953 93.6954 96.0024 93.1948 96.6347Z" fill="#FFBD32"/>
<path d="M106.278 103.708L111.056 106.468V104.226L108.213 102.577L106.278 103.708Z" fill="#FFBD32"/>
<path d="M113.494 97.0074L96.3827 106.917V100.789L94.448 99.6712V110.023C94.727 110.013 95.0001 109.94 95.2467 109.809C97.3743 108.663 103.606 104.978 103.606 104.978L108.178 102.328L113.232 99.3952C113.262 99.3769 113.297 99.3672 113.332 99.3672C113.367 99.3672 113.402 99.3769 113.432 99.3952C113.46 99.4125 113.484 99.4367 113.501 99.4656C113.518 99.4946 113.527 99.5273 113.528 99.5608V110.064C113.807 110.046 114.078 109.97 114.327 109.843L114.561 109.712C114.84 109.523 115.069 109.268 115.228 108.97C115.386 108.671 115.469 108.339 115.47 108.001V98.1461C115.471 97.8064 115.34 97.4795 115.105 97.2351H115.071C114.968 97.1347 114.85 97.0529 114.719 96.9936L114.644 96.9591H114.561C114.444 96.929 114.324 96.9128 114.203 96.9108C113.962 96.8744 113.716 96.9079 113.494 97.0074Z" fill="#FFBD32"/>
<path d="M111.339 100.783V106.918L106.05 103.854L104.115 104.972C104.115 104.972 110.354 108.664 112.475 109.802C112.719 109.933 112.99 110.006 113.266 110.016V99.6646L111.339 100.783Z" fill="#FFBD32"/>
<path d="M201.231 100.041C201.801 98.8955 201.5 97.5845 200.558 97.113C199.615 96.6414 198.389 97.1879 197.818 98.3334C197.247 99.479 197.549 100.79 198.491 101.262C199.434 101.733 200.66 101.187 201.231 100.041Z" fill="#324AB1"/>
<path d="M225.138 121.927C225.018 121.925 224.902 121.883 224.81 121.806C224.717 121.73 224.653 121.624 224.628 121.506C224.514 121.105 224.322 120.731 224.062 120.405C223.801 120.079 223.479 119.808 223.113 119.609C222.993 119.547 222.901 119.439 222.859 119.31C222.816 119.181 222.826 119.04 222.886 118.918C224.174 116.262 225.675 114.778 227.355 114.495C228.285 114.336 229.724 114.495 231.308 116.068C231.379 116.119 231.438 116.185 231.48 116.262C231.551 116.381 231.572 116.525 231.537 116.66C231.503 116.795 231.417 116.911 231.297 116.983C231.177 117.054 231.034 117.075 230.9 117.041C230.765 117.006 230.649 116.92 230.578 116.8C229.304 115.53 228.216 115.42 227.527 115.516C226.281 115.723 225.097 116.896 224.022 118.967C224.835 119.519 225.412 120.356 225.641 121.313C225.655 121.379 225.655 121.448 225.643 121.514C225.63 121.581 225.605 121.644 225.568 121.701C225.53 121.757 225.482 121.806 225.426 121.843C225.37 121.881 225.307 121.907 225.241 121.92L225.138 121.927Z" fill="#324AB1"/>
<path d="M202.291 143.424H202.209L201.761 143.342C197.596 142.469 193.695 140.621 190.377 137.951C187.059 135.28 184.417 131.861 182.667 127.973C182.571 127.758 182.536 127.522 182.564 127.288C182.591 127.055 182.682 126.834 182.826 126.648C182.974 126.461 183.168 126.315 183.388 126.226C183.609 126.136 183.85 126.106 184.086 126.137C194.69 127.731 198.105 121.168 198.869 119.236C190.662 117.062 180.595 110.12 180.154 109.816C180.057 109.748 179.986 109.648 179.953 109.534C179.921 109.42 179.928 109.297 179.975 109.188L181.827 104.854C177.84 100.831 178.598 98.581 179.424 97.5941C180.491 96.3105 182.598 96.069 183.556 96.766C184.513 97.463 185.725 98.2497 186.393 98.6776C188.073 95.7308 197.41 80.6795 212.489 80.3413C211.801 78.3538 210.258 72.6397 212.544 68.2781C213.818 65.8559 216.077 64.2617 219.251 63.544C220.993 63.1708 222.81 63.4507 224.36 64.3307C225.066 64.8078 225.665 65.4263 226.12 66.1474C226.575 66.8684 226.876 67.6762 227.004 68.5197C228.216 74.3511 229.359 76.6906 229.373 76.7113C229.434 76.8349 229.444 76.9777 229.4 77.1084C229.356 77.2391 229.262 77.347 229.139 77.4083C229.015 77.4697 228.873 77.4794 228.742 77.4354C228.612 77.3914 228.504 77.2972 228.443 77.1737C228.395 77.0771 227.238 74.7169 225.999 68.7336C225.894 68.0262 225.645 67.348 225.267 66.7413C224.889 66.1346 224.39 65.6124 223.802 65.2071C222.488 64.4763 220.956 64.2436 219.485 64.5515C216.614 65.2002 214.589 66.6219 213.46 68.7543C210.926 73.5851 213.673 80.5898 213.701 80.6657C213.731 80.7447 213.742 80.8299 213.733 80.914C213.723 80.9981 213.693 81.0787 213.646 81.1488C213.6 81.2208 213.535 81.2792 213.459 81.318C213.383 81.3569 213.298 81.3746 213.212 81.3696C204.674 81.2799 198.009 86.2418 193.932 90.4101C191.242 93.1737 188.927 96.2807 187.047 99.6507C187.013 99.713 186.967 99.7677 186.911 99.8116C186.855 99.8555 186.791 99.8876 186.723 99.906C186.654 99.9255 186.581 99.93 186.51 99.9193C186.438 99.9086 186.37 99.8829 186.31 99.8439C186.31 99.8439 184.313 98.5741 182.963 97.6079C182.447 97.2353 180.939 97.3871 180.209 98.2566C179.169 99.5057 180.106 101.707 182.798 104.364C182.873 104.436 182.925 104.53 182.944 104.633C182.964 104.736 182.952 104.842 182.908 104.937L181.084 109.202C182.998 110.485 192.376 116.621 199.675 118.373C199.743 118.39 199.808 118.419 199.864 118.461C199.921 118.502 199.969 118.555 200.005 118.615C200.04 118.676 200.063 118.744 200.071 118.814C200.079 118.884 200.073 118.954 200.054 119.022C199.423 120.865 198.349 122.524 196.927 123.853C194.752 125.923 190.73 128.18 183.941 127.159C183.888 127.152 183.834 127.159 183.784 127.18C183.735 127.2 183.692 127.234 183.659 127.276C183.629 127.315 183.61 127.361 183.604 127.409C183.598 127.458 183.605 127.507 183.624 127.552C185.308 131.29 187.849 134.577 191.04 137.145C194.231 139.712 197.983 141.488 201.988 142.327L202.381 142.396C202.448 142.405 202.512 142.428 202.57 142.463C202.629 142.498 202.679 142.544 202.719 142.598C202.759 142.653 202.787 142.716 202.802 142.782C202.818 142.848 202.82 142.916 202.808 142.983C202.788 143.106 202.725 143.218 202.631 143.299C202.536 143.38 202.416 143.424 202.291 143.424Z" fill="#324AB1"/>
<path d="M212.372 143.189C212.24 143.195 212.112 143.15 212.012 143.064C211.912 142.977 211.849 142.856 211.836 142.724C211.823 142.593 211.86 142.461 211.941 142.357C212.021 142.252 212.139 142.182 212.269 142.161C216.529 141.388 220.467 139.371 223.589 136.364C223.686 136.267 223.817 136.213 223.954 136.213C224.091 136.213 224.222 136.267 224.319 136.364C224.415 136.461 224.47 136.593 224.47 136.73C224.47 136.867 224.415 136.999 224.319 137.096C221.055 140.246 216.934 142.359 212.475 143.169L212.372 143.189Z" fill="#324AB1"/>
<path d="M226.088 127.78C222.542 127.78 220.043 124.564 219.933 124.426C219.858 124.316 219.827 124.182 219.848 124.051C219.869 123.92 219.939 123.802 220.045 123.721C220.15 123.641 220.282 123.604 220.413 123.618C220.545 123.632 220.666 123.696 220.752 123.798C220.752 123.798 223.059 126.744 226.088 126.744H226.212C228.237 126.689 230.185 125.364 231.989 122.714C232.155 122.486 235.783 117.193 231.067 113.391C230.576 112.945 229.994 112.613 229.36 112.418C228.727 112.224 228.059 112.172 227.403 112.266C224.374 112.763 222.067 116.406 222.04 116.406C221.967 116.523 221.85 116.605 221.717 116.635C221.583 116.666 221.443 116.642 221.327 116.569C221.211 116.495 221.129 116.379 221.098 116.245C221.068 116.111 221.092 115.971 221.165 115.854C221.268 115.689 223.754 111.79 227.231 111.217C228.031 111.097 228.847 111.154 229.621 111.386C230.396 111.617 231.111 112.017 231.714 112.556C237.222 117.014 232.878 123.218 232.836 123.28C230.833 126.185 228.609 127.697 226.233 127.752L226.088 127.78Z" fill="#2F50A9"/>
<path d="M239.288 136.689C238.864 136.689 238.445 136.601 238.056 136.431C237.668 136.262 237.318 136.013 237.029 135.702C236.933 135.605 236.878 135.473 236.878 135.336C236.878 135.199 236.933 135.068 237.029 134.971C237.126 134.874 237.258 134.819 237.394 134.819C237.531 134.819 237.663 134.874 237.759 134.971C238.057 135.292 238.445 135.515 238.872 135.608C239.299 135.702 239.745 135.663 240.149 135.495C243.385 134.377 247.248 127.855 248.584 115.813C250.381 99.5816 241.009 90.7481 239.13 89.1402C238.329 88.3775 237.687 87.4626 237.243 86.4487C237.239 86.412 237.239 86.375 237.243 86.3383C234.957 73.73 228.23 74.4339 227.947 74.4753C227.812 74.491 227.675 74.4529 227.567 74.3691C227.459 74.2853 227.388 74.1624 227.369 74.0267C227.359 73.9596 227.363 73.8912 227.38 73.8255C227.397 73.7598 227.427 73.6982 227.468 73.6442C227.509 73.5902 227.56 73.545 227.619 73.5112C227.678 73.4773 227.742 73.4555 227.81 73.447C228.126 73.3987 235.769 72.5154 238.248 86.0968C238.621 86.9452 239.157 87.712 239.825 88.3534C241.787 90.0166 251.489 99.1744 249.637 115.923C248.157 129.27 243.798 135.336 240.514 136.468C240.121 136.612 239.706 136.687 239.288 136.689Z" fill="#2F50A9"/>
<path d="M228.726 141.872C228.184 141.87 227.643 141.828 227.108 141.748C227.041 141.739 226.976 141.717 226.918 141.684C226.859 141.65 226.808 141.604 226.768 141.55C226.728 141.496 226.698 141.434 226.682 141.369C226.666 141.303 226.663 141.235 226.674 141.168C226.683 141.1 226.706 141.035 226.74 140.976C226.775 140.918 226.82 140.866 226.875 140.825C226.929 140.784 226.991 140.754 227.057 140.737C227.123 140.72 227.192 140.717 227.259 140.726C230.812 141.237 233.711 139.947 235.866 136.889C236.886 135.396 237.639 133.735 238.09 131.983C238.12 131.848 238.203 131.731 238.319 131.657C238.435 131.584 238.576 131.559 238.71 131.589C238.844 131.619 238.961 131.702 239.035 131.818C239.108 131.935 239.132 132.076 239.102 132.21C239.075 132.314 236.872 141.872 228.726 141.872Z" fill="#2F50A9"/>
<path d="M221.537 143.963C219.363 143.903 217.237 143.316 215.34 142.251C215.276 142.222 215.219 142.18 215.172 142.128C215.126 142.076 215.09 142.015 215.067 141.949C215.044 141.883 215.035 141.813 215.04 141.743C215.046 141.673 215.065 141.605 215.097 141.543C215.129 141.481 215.174 141.426 215.228 141.381C215.282 141.337 215.344 141.304 215.411 141.284C215.478 141.264 215.549 141.259 215.618 141.267C215.687 141.276 215.754 141.298 215.815 141.333C221.971 144.529 225.661 142.348 227.679 139.953C227.77 139.849 227.899 139.785 228.037 139.776C228.175 139.767 228.311 139.813 228.415 139.905C228.52 139.996 228.583 140.126 228.592 140.264C228.601 140.402 228.555 140.539 228.464 140.643C227.627 141.677 226.571 142.511 225.373 143.085C224.175 143.659 222.865 143.959 221.537 143.963Z" fill="#2F50A9"/>
<path d="M221.626 116.675C221.49 116.668 221.362 116.608 221.269 116.507C221.176 116.407 221.127 116.274 221.13 116.137C221.585 104.695 227.121 100.34 229.476 99.0015C220.276 94.4882 213.122 81.659 212.806 81.1C212.739 80.9792 212.723 80.8368 212.761 80.7042C212.799 80.5715 212.888 80.4595 213.009 80.3926C213.129 80.3258 213.271 80.3098 213.404 80.3479C213.536 80.3861 213.648 80.4754 213.715 80.5962C213.79 80.7343 221.543 94.6262 230.887 98.5392C230.985 98.5767 231.069 98.643 231.128 98.7292C231.187 98.8155 231.218 98.9176 231.218 99.0222C231.218 99.1269 231.187 99.229 231.128 99.3153C231.069 99.4015 230.985 99.4678 230.887 99.5053C229.282 100.246 227.869 101.346 226.756 102.721C224.835 104.964 222.48 109.132 222.198 116.213C222.182 116.35 222.113 116.475 222.006 116.562C221.899 116.648 221.763 116.689 221.626 116.675Z" fill="#2F50A9"/>
<path d="M223.947 137.241C223.87 137.24 223.795 137.221 223.727 137.186C218.597 134.715 220.545 125.737 220.628 125.357C220.658 125.223 220.74 125.106 220.856 125.032C220.973 124.958 221.113 124.934 221.248 124.964C221.382 124.994 221.499 125.076 221.572 125.193C221.646 125.309 221.67 125.45 221.64 125.585C221.64 125.668 219.788 134.135 224.174 136.254C224.281 136.304 224.368 136.39 224.42 136.496C224.472 136.603 224.486 136.724 224.46 136.84C224.433 136.955 224.367 137.058 224.274 137.131C224.181 137.204 224.065 137.243 223.947 137.241Z" fill="#2F50A9"/>
<path d="M212.214 92.2665C212.083 92.2667 211.957 92.2167 211.863 92.1268C211.768 92.037 211.711 91.9141 211.704 91.7834C211.641 90.7302 211.357 89.7021 210.87 88.7663C210.384 87.8305 209.706 87.0079 208.881 86.3523C208.775 86.2759 208.703 86.1617 208.678 86.0333C208.654 85.905 208.68 85.7721 208.75 85.6622C208.826 85.5564 208.94 85.4834 209.067 85.4578C209.195 85.4322 209.328 85.4559 209.439 85.5241C210.395 86.265 211.181 87.2029 211.744 88.2744C212.307 89.3459 212.634 90.5261 212.703 91.7351C212.712 91.8714 212.667 92.0058 212.578 92.1093C212.489 92.2127 212.363 92.2766 212.227 92.2872L212.214 92.2665Z" fill="#2F50A9"/>
<path d="M186.978 127.407C186.901 127.408 186.826 127.392 186.757 127.359C186.635 127.298 186.542 127.192 186.495 127.063C186.449 126.935 186.454 126.794 186.509 126.669C186.551 126.593 190.241 119.022 199.096 119.526C199.164 119.53 199.23 119.546 199.291 119.576C199.352 119.605 199.407 119.647 199.451 119.697C199.496 119.748 199.531 119.807 199.552 119.871C199.574 119.936 199.583 120.004 199.578 120.071C199.569 120.208 199.508 120.336 199.406 120.427C199.304 120.519 199.171 120.567 199.034 120.561C196.677 120.406 194.325 120.943 192.267 122.107C190.209 123.27 188.534 125.008 187.446 127.11C187.403 127.199 187.337 127.273 187.254 127.326C187.171 127.378 187.075 127.406 186.978 127.407Z" fill="#2F50A9"/>
<path d="M152.26 168.034C152.158 168.033 152.06 168.002 151.975 167.946C151.891 167.889 151.825 167.81 151.785 167.716C148.5 160.015 142.799 149.47 140.41 150.125C140.02 150.233 139.663 150.437 139.373 150.72C139.083 151.002 138.869 151.353 138.75 151.74C137.814 154.218 139.026 158.821 140.706 161.402C140.774 161.514 140.796 161.649 140.768 161.777C140.74 161.906 140.663 162.019 140.554 162.092C140.442 162.159 140.308 162.18 140.18 162.152C140.052 162.124 139.94 162.048 139.866 161.94C138.02 159.097 136.746 154.156 137.8 151.34C137.978 150.801 138.286 150.314 138.697 149.923C139.108 149.531 139.608 149.248 140.155 149.097C144.286 147.958 151.372 164.045 152.756 167.282C152.783 167.345 152.797 167.413 152.798 167.482C152.799 167.551 152.787 167.62 152.761 167.684C152.735 167.748 152.697 167.807 152.649 167.856C152.601 167.905 152.544 167.945 152.48 167.972C152.413 168.009 152.337 168.031 152.26 168.034Z" fill="#324AB1"/>
<path d="M139.404 160.636C139.329 160.634 139.254 160.617 139.184 160.587C135.913 159.062 132.092 157.392 128.394 155.757C118.217 151.305 111.972 148.504 111.035 147.096C109.507 144.811 111.724 142.023 111.813 141.906C112.215 141.484 112.736 141.195 113.306 141.08C113.877 140.966 114.469 141.03 115.001 141.264L118.637 142.817C123.801 145.012 133.414 149.097 138.385 151.381C138.51 151.439 138.608 151.544 138.655 151.673C138.703 151.803 138.698 151.946 138.64 152.071C138.583 152.197 138.478 152.294 138.349 152.342C138.219 152.39 138.077 152.384 137.951 152.327C133.001 150.049 123.395 145.964 118.238 143.769L114.582 142.21C114.25 142.065 113.883 142.024 113.528 142.092C113.173 142.159 112.847 142.333 112.591 142.589C112.591 142.589 110.787 144.874 111.903 146.523C112.743 147.772 121.281 151.512 128.821 154.804C132.519 156.426 136.347 158.103 139.632 159.635C139.738 159.685 139.824 159.769 139.876 159.874C139.928 159.979 139.943 160.099 139.919 160.214C139.894 160.329 139.831 160.432 139.74 160.506C139.649 160.58 139.535 160.621 139.418 160.622L139.404 160.636Z" fill="#324AB1"/>
<path d="M151.076 164.038C150.766 164.036 150.46 163.975 150.174 163.859C150.046 163.808 149.943 163.709 149.888 163.583C149.833 163.457 149.831 163.314 149.881 163.186C149.931 163.058 150.03 162.955 150.156 162.9C150.282 162.845 150.425 162.842 150.552 162.892C150.76 162.991 150.992 163.027 151.219 162.995C151.447 162.963 151.66 162.865 151.833 162.713C152.255 161.847 152.59 160.941 152.832 160.008C152.942 159.649 152.923 159.262 152.778 158.915C152.633 158.569 152.372 158.284 152.04 158.11L145.443 155.108C145.376 155.084 145.314 155.046 145.262 154.997C145.21 154.948 145.169 154.888 145.141 154.822C145.113 154.756 145.1 154.685 145.101 154.613C145.102 154.542 145.117 154.471 145.147 154.406C145.177 154.341 145.22 154.282 145.273 154.235C145.326 154.187 145.389 154.151 145.457 154.129C145.525 154.106 145.597 154.098 145.668 154.106C145.739 154.113 145.808 154.134 145.87 154.169L152.473 157.165C153.019 157.438 153.453 157.891 153.704 158.448C153.955 159.005 154.007 159.631 153.851 160.222C153.587 161.268 153.213 162.284 152.735 163.251C152.714 163.291 152.689 163.328 152.659 163.362C152.455 163.576 152.209 163.746 151.937 163.862C151.664 163.979 151.372 164.038 151.076 164.038Z" fill="#324AB1"/>
<path d="M145.657 174.632C145.576 174.63 145.496 174.612 145.423 174.576C140.899 172.271 134.254 166.447 133.517 165.791C133.118 165.612 132.56 165.405 131.927 165.163C129.055 164.094 124.256 162.299 120.999 158.379C120.26 157.531 119.789 156.482 119.646 155.365C119.502 154.249 119.693 153.114 120.193 152.106C120.226 152.045 120.27 151.992 120.323 151.948C120.376 151.904 120.437 151.872 120.503 151.852C120.569 151.833 120.638 151.827 120.707 151.834C120.775 151.842 120.841 151.863 120.901 151.897C120.961 151.93 121.014 151.975 121.056 152.029C121.099 152.084 121.13 152.146 121.148 152.212C121.166 152.279 121.171 152.348 121.162 152.417C121.153 152.485 121.13 152.551 121.096 152.61C120.696 153.435 120.549 154.359 120.671 155.268C120.794 156.176 121.181 157.028 121.784 157.717C124.869 161.423 129.51 163.162 132.285 164.197C132.973 164.452 133.572 164.673 134.006 164.887C134.054 164.908 134.098 164.936 134.137 164.97C134.206 165.032 141.305 171.333 145.884 173.658C145.988 173.711 146.071 173.797 146.12 173.903C146.169 174.009 146.181 174.128 146.154 174.241C146.127 174.355 146.062 174.456 145.971 174.528C145.879 174.6 145.766 174.639 145.65 174.638L145.657 174.632Z" fill="#324AB1"/>
<path d="M215.071 207.411C214.934 207.406 214.804 207.346 214.71 207.246C214.616 207.145 214.565 207.011 214.569 206.873C214.569 206.638 215.457 183.016 215.092 168.965C214.768 156.826 211.897 152.741 211.215 151.94C207.084 152.368 201.796 150.65 200.487 150.194C198.201 152.264 195.592 156.661 192.837 161.277C189.649 166.619 186.034 172.678 182.192 176.37C177.73 180.656 169.571 182.912 156.027 169.317C155.629 168.887 155.144 168.546 154.606 168.318C154.067 168.09 153.485 167.979 152.9 167.992C150.077 168.109 147.516 171.132 147.488 171.167C146.65 172.244 146.195 173.572 146.195 174.938C146.195 176.305 146.65 177.632 147.488 178.71C151.186 183.596 170.459 200.697 184.065 194.989C191.769 191.069 198.061 184.838 202.064 177.164C202.127 177.041 202.236 176.949 202.367 176.907C202.498 176.864 202.641 176.876 202.763 176.939C202.885 177.003 202.978 177.112 203.02 177.243C203.062 177.375 203.05 177.517 202.987 177.64C198.868 185.525 192.395 191.923 184.471 195.942C182.468 196.764 180.321 197.177 178.157 197.156C164.992 197.156 149.926 183.637 146.662 179.338C143.219 174.824 146.662 170.552 146.662 170.504C146.662 170.456 149.54 167.102 152.818 166.957C153.547 166.93 154.274 167.061 154.948 167.342C155.622 167.624 156.227 168.048 156.722 168.586C166.989 178.875 175.541 181.304 181.455 175.618C185.201 172.022 188.775 166.032 191.928 160.746C194.82 155.915 197.547 151.333 200.019 149.214C200.087 149.153 200.171 149.112 200.261 149.096C200.351 149.08 200.444 149.09 200.529 149.124C200.591 149.124 206.946 151.443 211.325 150.884C211.398 150.874 211.472 150.88 211.542 150.902C211.612 150.923 211.677 150.96 211.732 151.008C211.897 151.153 215.725 154.652 216.097 168.951C216.469 183.037 215.595 206.687 215.581 206.908C215.579 207.042 215.525 207.17 215.429 207.264C215.334 207.359 215.205 207.411 215.071 207.411Z" fill="#324AB1"/>
<path d="M180.863 207.163H180.801C180.734 207.155 180.669 207.134 180.61 207.101C180.551 207.068 180.499 207.024 180.458 206.97C180.416 206.917 180.385 206.856 180.368 206.791C180.35 206.725 180.345 206.657 180.354 206.59L180.526 205.141C180.542 205.005 180.612 204.881 180.72 204.796C180.828 204.711 180.965 204.673 181.101 204.689C181.237 204.706 181.361 204.776 181.445 204.884C181.53 204.992 181.568 205.129 181.552 205.265L181.38 206.707C181.363 206.833 181.301 206.948 181.206 207.032C181.111 207.116 180.99 207.162 180.863 207.163Z" fill="#324AB1"/>
<path d="M181.373 202.905H181.331C181.264 202.897 181.199 202.875 181.14 202.841C181.081 202.807 181.029 202.762 180.988 202.708C180.946 202.655 180.915 202.593 180.898 202.527C180.88 202.462 180.875 202.393 180.884 202.326L181.627 196.115C181.635 196.047 181.656 195.983 181.689 195.924C181.721 195.865 181.765 195.813 181.818 195.771C181.871 195.729 181.931 195.698 181.996 195.679C182.061 195.66 182.129 195.655 182.195 195.663C182.262 195.67 182.327 195.691 182.386 195.724C182.445 195.757 182.497 195.801 182.539 195.854C182.581 195.906 182.612 195.967 182.63 196.032C182.649 196.097 182.654 196.165 182.646 196.232L181.91 202.443C181.894 202.573 181.831 202.693 181.731 202.779C181.632 202.865 181.504 202.91 181.373 202.905Z" fill="#324AB1"/>
<path d="M201.176 150.125H201.086C200.952 150.1 200.833 150.023 200.754 149.911C200.676 149.799 200.644 149.66 200.666 149.525L201.878 142.831C201.912 142.706 201.992 142.598 202.101 142.529C202.211 142.46 202.342 142.435 202.47 142.458C202.597 142.482 202.711 142.552 202.789 142.656C202.867 142.759 202.903 142.888 202.89 143.017L201.685 149.704C201.663 149.823 201.6 149.93 201.507 150.007C201.413 150.084 201.296 150.126 201.176 150.125Z" fill="#324AB1"/>
<path d="M211.415 151.919H211.367C211.299 151.913 211.233 151.894 211.172 151.862C211.112 151.83 211.058 151.787 211.015 151.734C210.971 151.682 210.939 151.621 210.919 151.556C210.899 151.49 210.892 151.422 210.898 151.354L211.738 142.637C211.74 142.567 211.757 142.497 211.787 142.432C211.816 142.368 211.859 142.311 211.912 142.264C211.965 142.217 212.027 142.181 212.094 142.159C212.162 142.137 212.233 142.129 212.303 142.136C212.374 142.142 212.442 142.163 212.504 142.197C212.566 142.232 212.62 142.278 212.663 142.334C212.707 142.391 212.738 142.455 212.755 142.524C212.773 142.592 212.776 142.664 212.764 142.734L211.931 151.471C211.913 151.595 211.851 151.709 211.756 151.791C211.661 151.874 211.54 151.919 211.415 151.919Z" fill="#324AB1"/>
<path d="M159.373 63.7508C159.497 64.02 170.011 34.2692 172.655 26.7746C172.734 26.5537 172.768 26.3192 172.754 26.085C172.741 25.8509 172.681 25.6218 172.577 25.4113C172.474 25.2009 172.329 25.0134 172.152 24.8599C171.975 24.7065 171.77 24.5902 171.547 24.5179C171.113 24.3761 170.641 24.4091 170.231 24.6101C169.821 24.811 169.505 25.1641 169.35 25.5945L156.226 62.1015C156.226 62.1015 154.388 66.042 151.234 64.7101C150.677 64.3954 150.201 63.9555 149.842 63.425C149.484 62.8945 149.253 62.2879 149.168 61.6529C149.093 61.1146 148.962 58.9822 147.103 59.2444C145.526 59.4652 144.734 61.4252 145.553 63.5783C145.951 64.6473 146.579 65.6157 147.392 66.4147C148.204 67.2137 149.182 67.8239 150.256 68.2021C157.039 70.7831 159.373 63.7508 159.373 63.7508Z" fill="#FFDE99"/>
<path d="M153.1 69.2928C152.06 69.2749 151.031 69.0692 150.063 68.6855C148.921 68.2825 147.881 67.6328 147.018 66.7826C146.154 65.9323 145.487 64.9021 145.064 63.765C144.805 63.1671 144.681 62.5193 144.702 61.8678C144.722 61.2163 144.886 60.5774 145.181 59.9969C145.371 59.6596 145.635 59.3703 145.954 59.1514C146.273 58.9324 146.637 58.7897 147.02 58.734C147.298 58.6816 147.584 58.687 147.86 58.7499C148.136 58.8128 148.396 58.9319 148.624 59.0998C149.264 59.7239 149.637 60.5726 149.664 61.4669V61.5773C149.735 62.1311 149.935 62.6606 150.247 63.1232C150.559 63.5858 150.975 63.9687 151.461 64.2411C154.085 65.3522 155.696 62.0259 155.765 61.881L168.848 25.4154C169.047 24.8567 169.458 24.3991 169.991 24.1409C170.524 23.8828 171.137 23.8448 171.698 24.0352C171.985 24.13 172.25 24.2812 172.478 24.4801C172.707 24.6789 172.893 24.9214 173.026 25.1932C173.159 25.4651 173.237 25.7609 173.255 26.0633C173.273 26.3657 173.231 26.6686 173.13 26.9544C171.815 30.681 168.545 39.9285 165.556 48.2374C161.425 59.7554 160.295 62.992 159.786 63.9099H159.827C159.779 64.0479 158.67 67.2914 155.765 68.6786C154.932 69.0761 154.022 69.2858 153.1 69.2928ZM147.399 59.7416H147.164C146.936 59.777 146.718 59.8644 146.528 59.9972C146.338 60.13 146.182 60.3046 146.07 60.5076C145.853 60.955 145.737 61.4446 145.73 61.9419C145.723 62.4392 145.824 62.932 146.028 63.3854C146.404 64.3829 146.992 65.2863 147.752 66.0324C148.512 66.7785 149.426 67.3495 150.428 67.7055C151.208 68.0455 152.05 68.221 152.9 68.221C153.751 68.221 154.592 68.0455 155.372 67.7055C157.879 66.5116 158.891 63.5648 158.898 63.5648L159.325 62.295L159.38 62.4123C160.998 58.1405 166.816 41.7849 172.187 26.5817C172.24 26.4254 172.262 26.2601 172.251 26.0953C172.24 25.9306 172.197 25.7696 172.124 25.6215C172.051 25.4734 171.95 25.3412 171.826 25.2324C171.702 25.1237 171.558 25.0404 171.402 24.9875C171.095 24.8856 170.761 24.908 170.47 25.0498C170.179 25.1916 169.955 25.4417 169.846 25.7467L156.729 62.2536C155.999 63.8202 153.899 66.3943 151.041 65.1659C150.402 64.818 149.853 64.3245 149.44 63.7252C149.026 63.1258 148.758 62.4373 148.659 61.7153V61.5842C148.643 60.9704 148.417 60.3808 148.018 59.9141C147.833 59.7857 147.609 59.7248 147.385 59.7416H147.399Z" fill="#324AB1"/>
<path d="M146.166 35.1871C148.542 34.9939 152.921 35.2768 155.992 39.2243C156.186 39.483 156.453 39.6773 156.759 39.7819C157.065 39.8866 157.395 39.8966 157.706 39.8109C160.233 39.0586 166.775 37.92 171.299 44.269C171.495 44.5632 171.779 44.7882 172.111 44.912C172.442 45.0358 172.803 45.0523 173.144 44.9591C175.513 44.269 180.973 43.2545 184.485 46.9742C184.583 47.0767 184.71 47.1464 184.848 47.174C184.987 47.2015 185.131 47.1855 185.261 47.1282C185.39 47.0709 185.499 46.975 185.572 46.8536C185.645 46.7322 185.679 46.5912 185.669 46.4497C185.332 41.9295 183.211 31.5571 170.989 27.4302C155.84 22.3096 148.018 30.4253 145.45 33.9587C145.369 34.0823 145.324 34.2261 145.32 34.374C145.316 34.5219 145.353 34.668 145.428 34.7958C145.502 34.9235 145.611 35.0279 145.741 35.097C145.872 35.1662 146.019 35.1974 146.166 35.1871Z" fill="#FFBD32"/>
<path d="M184.981 47.692C184.816 47.6916 184.653 47.657 184.503 47.5905C184.352 47.524 184.217 47.427 184.106 47.3056C180.767 43.7653 175.43 44.8142 173.289 45.4354C172.847 45.5588 172.378 45.5422 171.947 45.3877C171.515 45.2332 171.142 44.9485 170.879 44.5727C166.568 38.5135 160.337 39.5694 157.851 40.3078C157.44 40.4252 157.004 40.4148 156.599 40.278C156.195 40.1412 155.841 39.8845 155.586 39.5418C152.652 35.7738 148.452 35.5115 146.207 35.7048C145.954 35.7258 145.7 35.6716 145.477 35.5489C145.254 35.4261 145.072 35.2403 144.954 35.0147C144.834 34.8009 144.778 34.5571 144.793 34.3124C144.807 34.0676 144.892 33.8322 145.037 33.6344C147.757 29.8802 155.765 21.7162 171.154 26.9196C183.734 31.1707 185.855 41.9572 186.186 46.3946C186.208 46.6405 186.154 46.8874 186.031 47.1013C185.907 47.3151 185.721 47.4853 185.497 47.5885C185.334 47.6601 185.158 47.6954 184.981 47.692ZM177.62 43.7584C178.955 43.6993 180.288 43.9191 181.534 44.4038C182.779 44.8885 183.911 45.6276 184.857 46.574C184.88 46.6034 184.912 46.6237 184.949 46.6312C184.985 46.6388 185.023 46.6332 185.056 46.6154C185.088 46.6021 185.115 46.5788 185.132 46.5489C185.15 46.519 185.157 46.4842 185.153 46.4498C184.843 42.2194 182.818 31.9575 170.824 27.8789C156.081 22.8963 148.459 30.6393 145.87 34.221C145.841 34.264 145.826 34.3144 145.826 34.3659C145.826 34.4175 145.841 34.4679 145.87 34.5109C145.899 34.5564 145.94 34.5933 145.989 34.6176C146.037 34.6418 146.091 34.6527 146.145 34.6489C148.597 34.4488 153.189 34.7317 156.419 38.8862C156.549 39.064 156.73 39.1982 156.938 39.2709C157.145 39.3436 157.37 39.3514 157.582 39.2933C160.275 38.4928 167.043 37.3541 171.739 43.9516C171.878 44.1547 172.077 44.3091 172.308 44.3933C172.539 44.4774 172.79 44.4871 173.027 44.4209C174.52 43.9903 176.066 43.7674 177.62 43.7584Z" fill="#324AB1"/>
</g>
<defs>
<clipPath id="clip0">
<rect width="177.898" height="199.863" fill="white" transform="translate(71.9524 7.61035)"/>
</clipPath>
</defs>
</svg>
