<?xml version="1.0" encoding="UTF-8"?>
<svg width="407px" height="380px" viewBox="0 0 407 380" version="1.1" xmlns="http://www.w3.org/2000/svg" xmlns:xlink="http://www.w3.org/1999/xlink">
    <title>worldHeartExample</title>
    <g id="Page-1" stroke="none" stroke-width="1" fill="none" fill-rule="evenodd">
        <g id="worldHeartExample" fill-rule="nonzero">
            <path d="M39.8909,109.688 C89.6661,78.9228 85.3126,48.4482 67.318,41.7002 C51.6454,35.8229 40.1811,47.0695 40.1811,47.0695 C39.8183,47.0695 39.4555,46.9244 39.2378,46.7067 C37.1336,44.8202 26.4675,36.476 12.4637,41.7002 C-5.53089,48.4482 -9.88438,78.9228 39.8909,109.688 Z" id="Path" fill="#FFA733"></path>
            <path d="M292.284,316.754 C378.019,290.38 426.127,199.654 399.798,114.202 C373.387,28.751 282.533,-19.1278 196.717,7.24613 C110.983,33.62 62.8741,124.265 89.2039,209.798 C115.615,295.249 206.55,343.128 292.284,316.754 Z" id="Path" fill="#FFFFFF"></path>
            <path d="M287.453,300.403 C364.002,276.821 406.957,195.701 383.448,119.297 C359.866,42.8923 278.746,0.0826864 202.124,23.6643 C125.574,47.2458 82.6195,128.294 106.128,204.771 C129.71,281.175 210.903,323.985 287.453,300.403 Z" id="Path" fill="#FFE7C7"></path>
            <path d="M345.065,266.881 C345.065,266.881 337.228,258.972 337.809,248.451 C338.389,237.858 341.146,225.885 333.455,217.469 C333.455,217.469 329.174,213.043 322.136,212.752 C315.098,212.462 299.207,207.528 292.895,193.887 C286.582,180.246 295.362,159.93 300.151,157.245 C304.94,154.56 309.003,149.917 311.107,145.345 C313.211,140.774 318.073,133.663 328.304,134.534 C338.534,135.405 342.09,142.225 343.178,142.516 C344.339,142.806 347.677,145.2 352.393,140.847 C357.109,136.566 354.787,127.133 348.257,120.24 C348.257,120.24 345.427,115.596 340.421,118.063 C335.414,120.53 313.429,127.931 311.76,113.927 C311.76,113.927 311.252,105.438 319.306,102.318 C327.36,99.198 327.941,95.9329 327.288,91.5794 C326.635,87.2259 325.836,76.4146 340.421,71.263 C340.421,71.263 350.361,69.449 350.144,63.4266 C350.144,62.9913 350.071,62.6285 349.926,62.1931 C348.185,55.1549 383.23,98.3999 388.237,139.686 C388.237,139.686 391.647,172.12 383.23,203.392 C382.505,206.512 369.735,248.887 345.065,266.881 Z" id="Path" fill="#FFA733"></path>
            <path d="M233.831,17.7873 C233.831,17.7873 238.403,21.778 236.516,28.018 C234.629,34.2581 235.428,41.5139 245.731,50.6563 C255.962,59.7987 267.644,52.0349 270.909,47.4638 C274.174,42.8926 279.471,36.7251 279.471,36.7251 C279.471,36.7251 281.865,34.5483 283.461,34.6209 C285.058,34.6209 292.096,33.3148 293.62,25.1882 C293.62,25.1157 260.678,15.3203 233.831,17.7873 Z" id="Path" fill="#FFA733"></path>
            <path d="M202.414,282.336 C202.414,282.336 208.944,281.683 206.478,268.187 C204.011,254.691 212.935,244.025 212.935,244.025 C212.935,244.025 228.173,226.031 223.093,210.938 C223.093,210.938 218.45,199.619 207.711,198.241 C207.711,198.241 204.446,195.483 201.253,190.694 C198.061,185.906 193.489,180.754 184.565,183.293 C175.64,185.833 156.267,192.363 150.39,181.262 C150.39,181.262 147.632,174.224 146.544,170.088 C145.456,165.879 138.635,160.728 138.635,160.728 C138.635,160.728 132.032,152.601 138.055,147.377 C144.15,142.153 153.219,139.541 157.065,131.994 C160.911,124.448 166.425,106.962 166.425,106.962 C166.425,106.962 170.851,102.391 174.334,101.157 C177.817,99.9236 186.524,97.384 183.404,78.0108 C180.356,58.6377 168.021,51.5995 163.16,55.7353 C158.226,59.8712 149.084,65.0954 146.254,56.4609 C146.254,56.4609 128.114,69.3038 114.546,99.2705 C100.977,129.237 100.832,144.184 100.832,144.184 C100.832,144.184 105.113,179.738 134.282,181.77 C134.282,181.77 146.254,182.35 147.705,190.694 C149.229,199.039 142.336,216.888 149.737,227.409 C149.737,227.409 156.63,235.028 164.103,235.536 C171.577,236.044 181.808,263.253 181.808,263.253 C181.808,263.253 191.458,286.835 202.414,282.336 Z" id="Path" fill="#FFA733"></path>
            <path d="M162.505,121.982 C162.433,121.982 162.288,121.982 162.215,121.91 C161.707,121.765 161.417,121.184 161.562,120.676 C162.215,118.717 162.65,116.903 163.086,115.089 C164.464,109.43 165.698,104.568 171.648,101.303 L172.809,100.65 C181.371,96.0064 183.91,94.6278 183.257,82.7282 C182.604,72.6425 177.09,59.2192 170.124,56.0992 C167.439,54.9382 164.755,55.3736 162.143,57.4778 C156.846,61.6862 152.855,63.2825 149.88,62.2667 C147.631,61.5411 146.107,59.3643 145.236,55.7364 C145.091,55.2285 145.454,54.648 145.962,54.5754 C146.47,54.4303 147.05,54.7931 147.123,55.301 C147.848,58.2759 148.937,59.9448 150.461,60.4527 C152.71,61.1783 156.193,59.7271 160.836,55.9541 C164.029,53.4145 167.512,52.834 170.85,54.3578 C178.541,57.768 184.491,71.7718 185.144,82.6556 C185.942,95.8613 182.314,97.7478 173.679,102.464 L172.518,103.117 C167.367,105.947 166.351,110.01 164.972,115.597 C164.537,117.411 164.029,119.298 163.376,121.329 C163.303,121.765 162.868,121.982 162.505,121.982 Z" id="Path" fill="#002154"></path>
            <path d="M198.713,284.077 C190.006,284.077 184.201,271.089 178.687,258.537 C174.115,248.161 169.327,237.422 163.667,236.624 C150.244,234.665 146.471,223.2 146.108,222.112 C144.221,217.831 145.165,212.026 146.18,205.859 C147.341,198.676 148.575,191.275 144.947,186.921 C142.698,184.236 138.779,182.785 132.975,182.64 C105.185,181.842 99.8154,144.692 99.7428,144.329 C99.6703,143.821 100.033,143.313 100.614,143.241 C101.121,143.168 101.629,143.531 101.702,144.112 C101.702,144.184 103.008,153.254 107.507,162.251 C113.529,174.151 122.091,180.391 132.975,180.681 C139.432,180.899 143.786,182.495 146.398,185.688 C150.534,190.767 149.3,198.603 147.994,206.149 C147.051,212.026 146.108,217.613 147.777,221.387 C147.777,221.459 147.849,221.459 147.849,221.532 C147.994,221.967 151.114,232.851 163.812,234.665 C170.56,235.608 175.349,246.419 180.356,257.738 C185.943,270.364 191.747,283.352 199.801,282.046 C206.477,280.957 206.186,278.345 205.533,272.178 C204.808,264.922 203.647,253.965 214.386,238.873 C222.222,227.844 224.834,218.484 222.077,210.938 C219.682,204.335 213.442,200.635 208.871,199.474 C205.171,198.531 203.357,195.483 201.398,192.29 C198.785,188.01 196.173,183.656 188.555,183.511 C183.693,183.438 178.542,184.817 173.608,186.123 C164.538,188.59 155.976,190.839 150.897,183.656 C147.269,178.504 146.543,175.312 145.89,172.772 C145.237,170.16 144.802,168.274 141.392,165.154 C136.53,160.727 134.208,157.027 134.063,153.544 C133.991,151.005 135.079,148.61 137.401,146.288 C139.432,144.184 141.754,142.951 144.221,141.572 C148.502,139.25 153.291,136.638 157.79,128.874 C159.168,126.407 160.329,123.868 161.345,120.893 C161.49,120.385 162.071,120.095 162.579,120.24 C163.087,120.385 163.377,120.965 163.232,121.473 C162.216,124.666 161.055,127.278 159.531,129.817 C154.742,138.089 149.663,140.846 145.237,143.241 C142.915,144.547 140.666,145.708 138.852,147.594 C136.965,149.553 136.022,151.44 136.095,153.399 C136.167,156.301 138.271,159.567 142.77,163.63 C146.688,167.185 147.269,169.507 147.922,172.264 C148.502,174.804 149.155,177.634 152.566,182.495 C156.847,188.59 164.393,186.558 173.172,184.237 C178.251,182.858 183.548,181.479 188.7,181.552 C197.334,181.697 200.454,186.776 203.139,191.275 C204.953,194.25 206.477,196.789 209.379,197.587 C214.386,198.893 221.206,202.957 223.891,210.285 C226.866,218.412 224.181,228.425 215.982,240.034 C205.679,254.546 206.767,265.067 207.493,272.032 C208.146,278.2 208.581,282.626 200.091,284.077 C199.729,284.005 199.221,284.077 198.713,284.077 Z" id="Path" fill="#002154"></path>
            <path d="M256.397,55.7367 C256.179,55.7367 255.962,55.7367 255.671,55.7367 C249.794,55.519 242.538,50.6576 238.04,43.9822 C234.557,38.8305 233.541,33.7514 234.992,29.6156 C236.153,26.423 236.226,23.8109 235.21,21.7067 C234.049,19.3122 231.8,18.4415 231.8,18.4415 C231.292,18.2964 231.001,17.7159 231.219,17.208 C231.364,16.7001 231.945,16.4099 232.453,16.6276 C232.598,16.7001 235.5,17.7159 237.024,20.836 C238.257,23.4481 238.257,26.6407 236.879,30.3412 C235.645,33.824 236.661,38.3952 239.708,42.9664 C243.772,49.0613 250.592,53.6325 255.744,53.8502 C264.741,54.213 271.054,46.5217 276.641,38.1049 C278.89,34.6947 281.793,33.8965 284.405,33.1709 C287.815,32.2277 290.717,31.357 292.749,25.262 C292.894,24.7541 293.474,24.4639 293.982,24.609 C294.49,24.7541 294.781,25.3346 294.635,25.8425 C292.314,32.9533 288.395,34.0416 284.985,35.0575 C282.518,35.7831 280.196,36.4361 278.31,39.1933 C274.464,44.9255 267.353,55.7367 256.397,55.7367 Z" id="Path" fill="#002154"></path>
            <path d="M345.064,267.897 C344.846,267.897 344.629,267.824 344.411,267.679 C343.976,267.316 334.398,258.972 337.155,244.243 C339.114,233.576 337.953,224.434 333.89,219.065 C331.35,215.727 327.65,213.768 322.934,213.333 C307.914,211.881 290.21,203.319 289.774,184.091 C289.411,165.008 296.595,157.68 303.705,153.109 C306.172,151.513 307.551,148.828 309.002,145.998 C311.687,140.846 314.662,135.042 324.82,133.518 C332.874,132.357 337.3,136.058 340.783,139.032 C344.266,142.007 346.442,143.749 350.723,140.629 C355.44,137.146 353.989,130.325 351.304,125.609 C348.402,120.53 344.121,117.41 341.581,118.498 C333.89,121.691 323.296,125.029 316.766,122.271 C314.444,121.328 312.848,119.659 311.905,117.41 C310.453,113.927 310.453,110.807 311.687,107.977 C313.864,103.261 319.233,100.867 322.208,99.8508 C326.561,98.3996 326.561,95.7149 326.199,90.6358 C325.836,85.9921 325.401,80.1874 330.988,75.2534 C334.833,71.8431 339.114,70.392 342.524,69.1585 C347.676,67.3445 349.925,66.4012 349.055,62.338 C348.91,61.83 349.272,61.2496 349.853,61.177 C350.361,61.0319 350.941,61.3947 351.014,61.9752 C352.247,67.925 348.039,69.3761 343.25,71.045 C339.84,72.2785 335.922,73.5846 332.366,76.7046 C327.505,80.9855 327.867,85.7744 328.23,90.4907 C328.593,95.0619 328.956,99.7057 322.934,101.737 C320.249,102.608 315.46,104.785 313.573,108.776 C312.558,111.097 312.63,113.71 313.791,116.684 C314.517,118.498 315.75,119.732 317.564,120.457 C323.804,122.997 334.833,119.151 340.855,116.684 C344.919,115.016 350.07,119.442 353.045,124.666 C356.165,130.108 357.689,137.944 351.957,142.225 C346.443,146.288 343.105,143.531 339.622,140.556 C336.212,137.726 332.366,134.461 325.183,135.477 C316.04,136.856 313.356,141.935 310.816,146.869 C309.22,149.916 307.769,152.819 304.866,154.705 C298.191,158.986 291.516,165.879 291.878,184.019 C292.241,202.013 309.002,209.995 323.224,211.373 C328.521,211.881 332.656,214.058 335.559,217.904 C339.912,223.708 341.218,233.431 339.187,244.605 C336.647,258.174 345.717,266.083 345.79,266.155 C346.225,266.518 346.225,267.099 345.935,267.534 C345.572,267.752 345.354,267.897 345.064,267.897 Z" id="Path" fill="#002154"></path>
            <path d="M226.141,125.683 C225.706,125.683 225.271,125.683 224.835,125.61 C210.324,124.231 210.178,106.672 210.178,106.455 C210.178,105.729 210.759,105.076 211.557,105.076 C212.355,105.076 212.936,105.656 212.936,106.455 C212.936,106.527 213.008,110.445 214.532,114.436 C216.564,119.588 220.119,122.417 225.126,122.853 C230.35,123.361 234.486,119.95 237.025,116.976 C240,113.565 241.814,109.575 242.177,108.269 C242.395,107.543 243.12,107.108 243.846,107.253 C244.571,107.47 245.007,108.196 244.862,108.922 C243.846,112.622 236.953,125.683 226.141,125.683 Z" id="Path" fill="#002154"></path>
            <path d="M244.716,307.949 C182.315,307.949 124.341,267.679 105.04,205.061 C93.576,167.838 97.2765,128.294 115.561,93.8286 C133.846,59.3632 164.466,34.0403 201.761,22.5034 C278.818,-1.22326 360.737,42.0217 384.464,118.861 C408.19,195.774 364.8,277.62 287.743,301.419 C273.449,305.845 259.01,307.949 244.716,307.949 Z M244.861,18.295 C230.857,18.295 216.563,20.3267 202.487,24.6802 C165.772,35.9993 135.588,60.9595 117.593,94.8444 C99.5985,128.802 95.8979,167.693 107.217,204.335 C126.227,265.938 183.259,305.627 244.716,305.627 C258.72,305.627 273.014,303.596 287.09,299.242 C362.914,275.878 405.651,195.266 382.287,119.514 C363.349,57.9846 306.318,18.295 244.861,18.295 Z" id="Shape" fill="#002154"></path>
            <path d="M206.187,90.0558 C205.679,90.1284 205.098,90.1284 204.445,90.0558 C198.496,89.5479 197.044,82.8725 197.044,79.3897 C197.044,78.6641 197.625,78.3013 198.205,78.3739 C198.641,78.4464 198.786,78.6641 199.076,79.4622 C199.076,79.4622 199.511,84.9767 204.808,85.9925 C209.234,86.8632 213.443,81.2036 213.443,81.2036 C213.443,81.2036 213.951,80.1153 214.676,80.4055 C215.329,80.6957 215.619,81.4213 215.402,82.1469 C215.111,82.4371 212.209,89.4028 206.187,90.0558 Z" id="Path" fill="#002154"></path>
            <path d="M256.761,94.6265 C256.253,94.699 255.672,94.699 255.019,94.6265 C249.069,94.1186 247.618,87.8785 247.618,84.3957 C247.618,83.6701 248.344,83.0171 248.924,83.1622 C249.214,83.2348 249.432,83.525 249.577,84.4683 C249.577,84.4683 250.013,89.4023 255.309,90.4906 C259.735,91.3614 263.944,85.7018 263.944,85.7018 C263.944,85.7018 264.452,84.6134 265.177,84.9036 C265.83,85.1939 266.121,85.9194 265.903,86.645 C265.758,86.9353 262.783,93.9009 256.761,94.6265 Z" id="Path" fill="#002154"></path>
            <path d="M269.386,49.5679 C269.386,49.5679 267.354,49.9307 263.363,47.1735 C259.373,44.4163 260.098,43.0377 261.332,42.6023 C262.565,42.167 265.032,42.7474 266.411,43.9084 C267.789,45.0693 270.982,48.6247 269.386,49.5679 Z" id="Path" fill="#002154"></path>
            <path d="M203.575,46.1577 C203.575,46.1577 205.534,46.8833 210.105,44.9242 C214.676,42.9651 214.168,41.514 213.08,40.8609 C211.919,40.2079 209.307,40.353 207.71,41.2963 C206.042,42.0944 202.196,44.9968 203.575,46.1577 Z" id="Path" fill="#002154"></path>
            <path d="M173.39,380 C179.413,340.238 188.337,294.743 193.199,264.849 C196.246,246.057 199.366,233.939 195.956,232.343 C188.628,228.933 179.123,253.312 179.123,253.312 C179.123,253.312 187.684,224.797 179.993,223.056 C172.302,221.314 161.563,247.58 161.563,247.58 C170.633,219.21 164.901,216.017 164.901,216.017 C157.21,213.913 145.093,240.687 145.093,240.687 C155.759,214.494 148.14,212.97 148.14,212.97 C130.871,211.374 87.9163,335.304 73.0417,380 L173.39,380 Z" id="Path" fill="#FFFFFF"></path>
            <path d="M298.263,380 L398.177,380 C382.577,333.345 340.855,213.913 323.949,215.437 C323.949,215.437 316.331,216.961 326.997,243.154 C326.997,243.154 314.807,216.38 307.188,218.484 C307.188,218.484 301.529,221.677 310.526,250.047 C310.526,250.047 299.715,223.781 292.096,225.522 C284.405,227.264 292.967,255.779 292.967,255.779 C292.967,255.779 283.461,231.4 276.133,234.81 C272.723,236.406 275.843,248.524 278.89,267.316 C283.607,296.63 292.241,340.818 298.263,380 Z" id="Path" fill="#FFFFFF"></path>
            <path d="M74.0569,380 C79.9341,362.441 89.9472,333.055 100.976,304.031 C130.58,226.03 142.915,213.913 147.704,213.913 C147.776,213.913 147.776,213.913 147.849,213.913 C147.994,213.986 148.502,214.276 148.937,215.147 C150.026,217.396 150.824,223.636 144.076,240.252 C143.858,240.76 144.076,241.34 144.584,241.558 C145.092,241.776 145.672,241.558 145.89,241.05 C150.389,231.11 159.313,216.017 164.32,216.888 C164.9,217.541 168.311,222.765 160.474,247.218 C160.329,247.726 160.547,248.306 161.055,248.451 C161.563,248.669 162.143,248.379 162.361,247.871 C166.424,238.003 174.696,222.838 179.63,223.926 C180.21,224.071 180.646,224.434 181.081,225.087 C183.983,230.021 179.847,246.855 178.033,252.95 C177.888,253.458 178.179,254.038 178.686,254.183 C179.194,254.328 179.775,254.111 179.92,253.603 C181.879,248.669 188.047,235.318 193.198,233.214 C193.996,232.851 194.722,232.851 195.447,233.214 C197.479,234.157 195.738,243.807 193.924,254.038 C193.343,257.231 192.763,260.786 192.11,264.632 C190.223,276.314 187.611,290.463 184.926,305.482 C180.645,329.499 175.857,355.765 172.229,379.927 L174.26,379.927 C177.888,355.838 182.605,329.717 186.886,305.845 C189.57,290.825 192.11,276.676 194.069,264.994 C194.722,261.221 195.302,257.594 195.883,254.473 C198.422,240.179 199.656,233.069 196.246,231.472 C195.085,230.892 193.779,230.892 192.4,231.472 C188.772,232.924 185.144,238.365 182.459,243.445 C183.911,236.551 184.999,227.99 182.75,224.217 C182.097,223.056 181.153,222.403 180.065,222.112 C175.131,221.024 169.544,229.151 165.553,236.479 C167.077,230.094 167.73,224.942 167.44,221.096 C167.15,216.453 165.553,215.292 165.191,215.147 C165.118,215.074 165.045,215.074 164.973,215.074 C161.272,214.058 156.701,217.976 151.042,227.046 C150.679,227.554 150.389,228.135 150.026,228.643 C152.203,220.371 151.622,216.163 150.461,214.058 C149.518,212.244 148.212,211.954 148.067,211.954 L147.994,211.954 C147.849,211.954 147.704,211.954 147.631,211.954 C138.199,211.954 122.308,241.848 98.9445,303.378 C87.9881,332.764 77.7573,362.513 71.9526,380 L74.0569,380 Z" id="Path" fill="#002154"></path>
            <path d="M277.802,267.534 C279.688,279.216 282.3,293.365 284.985,308.384 C289.121,331.458 293.62,356.636 297.247,380 L299.279,380 C295.651,356.491 291.153,331.24 286.944,308.022 C284.259,293.002 281.72,278.853 279.761,267.171 C279.108,263.398 278.527,259.77 277.947,256.577 C276.133,246.347 274.391,236.696 276.423,235.753 C277.076,235.463 277.874,235.463 278.672,235.753 C283.824,237.785 289.992,251.136 291.951,256.142 C292.168,256.65 292.676,256.868 293.184,256.723 C293.692,256.577 293.982,255.997 293.837,255.489 C292.023,249.394 287.96,232.561 290.79,227.627 C291.152,226.974 291.588,226.611 292.168,226.466 C297.102,225.377 305.447,240.542 309.51,250.41 C309.728,250.918 310.308,251.136 310.816,250.99 C311.324,250.773 311.614,250.265 311.396,249.757 C303.487,224.942 307.043,219.935 307.551,219.427 C312.557,218.484 321.482,233.649 326.053,243.589 C326.271,244.097 326.851,244.315 327.359,244.097 C327.867,243.88 328.085,243.299 327.867,242.791 C321.119,226.175 321.917,219.935 323.006,217.686 C323.441,216.743 324.022,216.453 324.094,216.453 C328.81,216.162 341.073,227.627 370.967,306.57 C381.488,334.288 391.138,362.295 397.088,380 L399.192,380 C393.243,362.295 383.52,333.925 372.854,305.845 C349.49,244.388 333.599,214.421 324.167,214.421 C324.022,214.421 323.876,214.421 323.804,214.421 L323.731,214.421 C323.586,214.421 322.28,214.784 321.337,216.525 C320.176,218.629 319.596,222.838 321.772,231.109 C321.482,230.601 321.119,230.021 320.756,229.513 C315.097,220.443 310.526,216.525 306.825,217.541 C306.753,217.541 306.68,217.613 306.608,217.613 C306.317,217.759 304.721,218.92 304.358,223.563 C304.068,227.409 304.721,232.561 306.245,239.018 C305.809,238.22 305.374,237.422 304.939,236.624 C299.787,227.627 295.433,223.708 291.733,224.507 C290.572,224.724 289.701,225.45 289.048,226.611 C286.872,230.384 287.96,238.946 289.339,245.839 C286.654,240.76 283.026,235.318 279.398,233.867 C278.019,233.359 276.786,233.359 275.552,233.867 C272.142,235.463 273.448,242.646 275.915,256.868 C276.568,260.133 277.149,263.761 277.802,267.534 Z" id="Path" fill="#002154"></path>
        </g>
    </g>
</svg>