<?xml version="1.0" encoding="UTF-8"?>
<svg width="65px" height="64px" viewBox="0 0 65 64" version="1.1" xmlns="http://www.w3.org/2000/svg" xmlns:xlink="http://www.w3.org/1999/xlink">
    <title>Group 2</title>
    <defs>
        <ellipse id="path-1" cx="32.5" cy="32" rx="32.5" ry="32"></ellipse>
        <path d="M25.8466813,9.38928 C26.2774688,12.92336 23.4060125,22.67744 12.6381125,22.67744 C5.9775625,22.67744 0.00381875,18.0124 0.00381875,9.38928 C0.00381875,3.29968 5.9775625,0.6248 12.6381125,0.6248 C19.2986625,0.6248 25.8466813,3.29968 25.8466813,9.38928 Z" id="path-3"></path>
    </defs>
    <g id="Page-1" stroke="none" stroke-width="1" fill="none" fill-rule="evenodd">
        <g id="Group-2">
            <ellipse id="Oval" fill="#FFE7C7" fill-rule="nonzero" cx="32.5" cy="32" rx="32.5" ry="32"></ellipse>
            <g id="Clipped">
                <mask id="mask-2" fill="white">
                    <use xlink:href="#path-1"></use>
                </mask>
                <g id="Oval"></g>
                <g id="Group" mask="url(#mask-2)">
                    <g transform="translate(5.687500, 6.400000)">
                        <path d="M40.4716813,22.98928 C40.9024687,26.52336 38.0310125,36.27744 27.2631125,36.27744 C20.6025625,36.27744 14.6288188,31.6124 14.6288188,22.98928 C14.6288188,16.89968 20.6025625,14.2248 27.2631125,14.2248 C33.9236625,14.2248 40.4716813,16.89968 40.4716813,22.98928 Z" id="Path" stroke="none" fill="#E3E3E3" fill-rule="nonzero"></path>
                        <g id="Clipped" stroke="none" stroke-width="1" fill="none" fill-rule="evenodd" transform="translate(14.625000, 13.600000)">
                            <mask id="mask-4" fill="white">
                                <use xlink:href="#path-3"></use>
                            </mask>
                            <g id="Path"></g>
                            <path d="M25.8466812,9.38928 L25.2724062,9.38928 L25.2724062,9.42312 L25.27655,9.45664 L25.8466812,9.38928 Z M25.27655,9.45664 C25.4737438,11.07488 24.9069438,14.26072 22.9685625,17.0384 C21.0548,19.78072 17.8144687,22.112 12.6381125,22.112 L12.6381125,23.24288 C18.2296563,23.24288 21.8089625,20.69704 23.9152063,17.67888 C25.9968312,14.696 26.6504063,11.23784 26.4168937,9.32192 L25.27655,9.45664 Z M12.6381125,22.112 C9.443525,22.112 6.4338625,20.99408 4.2251625,18.86312 C2.02125625,16.7368 0.57809375,13.56608 0.57809375,9.38928 L-0.57045625,9.38928 C-0.57045625,13.83568 0.9732125,17.30896 3.42135625,19.67088 C5.86470625,22.02824 9.17215,23.24288 12.6381125,23.24288 L12.6381125,22.112 Z M0.57809375,9.38928 C0.57809375,6.5624 1.94878125,4.5424 4.12741875,3.20304 C6.33221875,1.84768 9.3734875,1.19024 12.6381125,1.19024 L12.6381125,0.05936 C9.2421875,0.05936 5.96635,0.73936 3.5191,2.24376 C1.04576875,3.76432 -0.57045625,6.12656 -0.57045625,9.38928 L0.57809375,9.38928 Z M12.6381125,1.19024 C15.9028187,1.19024 19.094725,1.84768 21.449025,3.21088 C23.7817125,4.56152 25.2724062,6.58528 25.2724062,9.38928 L26.4210375,9.38928 C26.4210375,6.1036 24.6376812,3.7452 22.0312625,2.236 C19.446375,0.73936 16.0339562,0.05936 12.6381125,0.05936 L12.6381125,1.19024 Z" id="Shape" fill="#002154" fill-rule="nonzero" mask="url(#mask-4)"></path>
                        </g>
                        <path d="M53.9315563,54.74472 C52.2295313,48.19944 44.2975,45.38528 44.2975,45.38528 C44.2975,45.38528 17.3220125,43.17192 9.8717125,45.63824 C3.481075,47.7568 1.104675,53.25856 0.55875625,54.74472 C0.55875625,54.74472 6.14420625,59.07464 26.8124187,59.51704 C47.4806313,59.95944 53.9315563,54.74472 53.9315563,54.74472 Z" id="Path" stroke="none" fill="#FFA733" fill-rule="nonzero"></path>
                        <path d="M22.2675375,2.60416 C22.2675375,2.60416 21.4647062,0.106184 23.2630937,0.106184 C25.0614,0.074568 23.5200062,2.3512 23.5200062,2.3512 C23.5200062,2.3512 29.9748312,-1.696128 36.2369312,3.14168 C36.2369312,3.14168 41.0540004,5.38664 42.2742937,15.53648 C43.4946687,25.6864 37.7437937,21.38616 37.7437937,21.38616 L14.3416812,22.42384 L12.0553875,21.38616 C12.0553875,21.41776 11.7021937,3.61592 22.2675375,2.60416 Z" id="Path" stroke="none" fill="#E3E3E3" fill-rule="nonzero"></path>
                        <path d="M15.0740688,17.9712 C15.0740688,17.9712 12.2160188,16.89608 11.7985562,20.12128 C11.7985562,20.12128 12.0875625,23.7892 15.2988875,23.1568 C15.2988875,23.1568 17.0009125,29.79688 22.6208125,31.69408 C22.6208125,31.69408 23.231,38.1128 21.2398875,40.45264 C19.28095,42.76088 17.77165,43.55136 14.4318688,44.08888 C11.1241,44.62648 9.90380625,45.63832 9.90380625,45.63832 C9.90380625,45.63832 14.014325,52.2784 26.8276938,51.86736 C39.6409813,51.45624 44.2332313,46.96632 45.2287875,45.73312 C45.2287875,45.73312 40.1869,43.99408 38.3565,43.77272 C36.5260188,43.58304 32.9935125,41.2432 32.543875,38.42904 C32.0943188,35.61488 32.1906813,31.91536 32.1906813,31.91536 C32.1906813,31.91536 38.3565,28.87992 39.7373438,23.1884 C39.7373438,23.1884 43.077125,23.63104 43.0450313,19.9 C43.0450313,19.9 42.2742938,17.08584 40.058525,17.9712 C40.058525,17.9712 37.2003938,17.11744 34.599175,10.79352 C31.70895,3.83728 26.8918813,3.1416 23.8411063,6.17712 C23.8411063,6.17712 20.7903313,4.62776 19.8911375,8.2956 C18.0285625,15.82104 15.0740688,17.9712 15.0740688,17.9712 Z" id="Path" stroke="none" fill="#FFFFFF" fill-rule="nonzero"></path>
                        <path d="M39.80145,23.09352 C38.6775187,27.1092 35.8193875,30.3344 32.158425,31.85216" id="Path" stroke="#002154" stroke-width="0.83358" fill="none" stroke-linecap="round" stroke-linejoin="round"></path>
                        <path d="M22.5887187,31.69408 C19.0883062,30.14472 16.3586312,26.95112 15.2667937,23.06192" id="Path" stroke="#002154" stroke-width="0.83358" fill="none" stroke-linecap="round" stroke-linejoin="round"></path>
                        <path d="M0.68705,54.68136 C0.68705,54.68136 2.549625,46.0176 16.13365,43.77264 C16.13365,43.77264 22.1710125,42.82408 22.5563812,36.12072 C22.62065,34.85592 22.62065,33.43304 22.588475,31.7256" id="Path" stroke="#002154" stroke-width="0.83358" fill="none" stroke-linecap="round" stroke-linejoin="round"></path>
                        <path d="M54.028,54.68144 C54.028,54.68144 52.1653437,46.01768 38.5813187,43.77272 C38.5813187,43.77272 32.5439562,42.82416 32.1585875,36.1208 C32.0944,34.8876 32.0944,33.528 32.1264938,31.85216" id="Path" stroke="#002154" stroke-width="0.83358" fill="none" stroke-linecap="round" stroke-linejoin="round"></path>
                        <path d="M15.2988875,23.06208 C15.202525,23.09368 15.1062438,23.12528 15.041975,23.15688 C13.7895875,23.50472 12.4086625,22.58776 11.9912,21.1016 C11.5737375,19.61552 12.2802062,18.16104 13.532675,17.8132 C13.9822312,17.68672 14.4317875,17.71832 14.8493313,17.8764" id="Path" stroke="#002154" stroke-width="0.83358" fill="none" stroke-linecap="round" stroke-linejoin="round"></path>
                        <path d="M39.8657187,23.1568 C41.1181062,23.50464 42.4990312,22.58768 42.9164937,21.1016 C43.3339562,19.61544 42.6274875,18.16096 41.3750187,17.81312 C41.021825,17.71824 40.6364562,17.71824 40.2831812,17.81312" id="Path" stroke="#002154" stroke-width="0.83358" fill="none" stroke-linecap="round" stroke-linejoin="round"></path>
                        <path d="M22.8776437,17.81312 C23.40975,17.81312 23.841025,17.28928 23.841025,16.6432 C23.841025,15.99704 23.40975,15.47328 22.8776437,15.47328 C22.3455375,15.47328 21.9142625,15.99704 21.9142625,16.6432 C21.9142625,17.28928 22.3455375,17.81312 22.8776437,17.81312 Z" id="Path" stroke="none" fill="#002154" fill-rule="nonzero"></path>
                        <path d="M31.8052312,17.81312 C32.3373375,17.81312 32.7686125,17.28928 32.7686125,16.6432 C32.7686125,15.99704 32.3373375,15.47328 31.8052312,15.47328 C31.2732062,15.47328 30.84185,15.99704 30.84185,16.6432 C30.84185,17.28928 31.2732062,17.81312 31.8052312,17.81312 Z" id="Path" stroke="none" fill="#002154" fill-rule="nonzero"></path>
                        <path d="M22.843925,22.90104 C22.7361875,22.75056 22.5248562,22.71456 22.372025,22.82064 C22.2191937,22.9268 22.1826312,23.1348 22.2903687,23.28528 L22.843925,22.90104 Z M32.1763812,23.33304 C32.2879375,23.18528 32.2568187,22.9764 32.10675,22.86656 C31.9566,22.75664 31.7445375,22.78736 31.6329,22.93512 L32.1763812,23.33304 Z M22.2903687,23.28528 C23.3144437,24.71536 25.3734,25.63856 27.2618125,25.63856 L27.2618125,24.97168 C25.5556437,24.97168 23.7206937,24.12536 22.843925,22.90104 L22.2903687,23.28528 Z M27.2618125,25.63856 C29.9394062,25.63856 31.3798062,24.3876 32.1763812,23.33304 L31.6329,22.93512 C30.9317937,23.8632 29.6764,24.97168 27.2618125,24.97168 L27.2618125,25.63856 Z" id="Shape" stroke="none" fill="#002154" fill-rule="nonzero"></path>
                        <path d="M33.0574563,10.35096 C33.1538187,10.50904 33.0574563,10.60392 32.8648125,10.54064 C32.44735,10.38256 32.3188937,10.35096 31.9014312,10.25608 C31.3233375,10.098 30.8416875,10.1296 30.9379687,9.65528 C31.0986,8.99128 32.3830812,9.37072 33.0574563,10.35096 Z" id="Path" stroke="none" fill="#002154" fill-rule="nonzero"></path>
                        <path d="M21.7537125,10.35096 C21.6574312,10.50904 21.7537125,10.60392 21.9464375,10.54064 C22.3639,10.38256 22.4923562,10.35096 22.9098187,10.25608 C23.4878312,10.098 23.9695625,10.1296 23.8732,9.65528 C23.7447437,8.99128 22.4602625,9.37072 21.7537125,10.35096 Z" id="Path" stroke="none" fill="#002154" fill-rule="nonzero"></path>
                        <path d="M14.8491688,17.87632 C14.8491688,17.87632 17.6109375,16.8012 19.730425,8.51688 C19.730425,8.51688 20.6938875,4.65936 23.8409437,6.17704 C23.8409437,6.17704 28.5295562,1.497384 32.5758875,7.34696 C36.6222187,13.19664 36.9754125,16.61152 40.2831812,17.81304" id="Path" stroke="#002154" stroke-width="0.83358" fill="none" stroke-linecap="round" stroke-linejoin="round"></path>
                        <path d="M42.7561875,19.01464 C42.499275,16.26368 42.1139062,13.4812 41.5037188,11.26784 C39.9944188,5.48144 37.4252938,3.39456 33.8927875,1.75032 C27.4379625,-1.285128 23.29535,2.5408 23.29535,2.5408 C23.29535,2.5408 24.2587313,1.276056 24.0339125,0.517192 C23.8412688,-0.146824 22.5246125,0.011272 22.2677,0.643664 C22.0107875,1.30768 22.3318875,2.63568 22.3318875,2.63568 C22.3318875,2.63568 17.5149,2.38272 14.3355875,8.9912 C13.24375,11.29944 12.5372812,14.46144 12.2161,18.73008" id="Path" stroke="#002154" stroke-width="0.83358" fill="none" stroke-linecap="round" stroke-linejoin="round"></path>
                        <path d="M9.8076875,45.60664 C9.8076875,45.60664 13.1474687,51.89896 26.7957625,51.83568 C40.4440562,51.77248 45.22895,45.70152 45.22895,45.70152" id="Path" stroke="#002154" stroke-width="0.83358" fill="none" stroke-linecap="round" stroke-linejoin="round"></path>
                    </g>
                </g>
            </g>
        </g>
    </g>
</svg>