<?xml version="1.0" encoding="UTF-8"?>
<svg width="146px" height="146px" viewBox="0 0 146 146" version="1.1" xmlns="http://www.w3.org/2000/svg" xmlns:xlink="http://www.w3.org/1999/xlink">
    <title>Group</title>
    <g id="Page-1" stroke="none" stroke-width="1" fill="none" fill-rule="evenodd">
        <g id="Group" transform="translate(0.781225, 0.462925)">
            <path d="M82.305775,142.230075 L2.509875,62.433775 C-0.836625,59.087275 -0.836625,53.661775 2.509875,50.315275 L50.315775,2.509875 C53.662275,-0.836625 59.087775,-0.836625 62.434275,2.509875 L142.230775,82.306175 C145.576775,85.652675 145.576775,91.078075 142.230775,94.425075 L94.424775,142.230075 C91.078775,145.577075 85.652775,145.577075 82.305775,142.230075 Z" id="Path" fill="#FFA733" fill-rule="nonzero"></path>
            <polygon id="Path" fill="#FFE7C7" fill-rule="nonzero" points="32.880875 19.937175 46.200175 6.617975 138.100775 98.519075 124.781775 111.838075"></polygon>
            <path d="M28.172175,43.404275 C25.400975,46.175575 25.400975,50.668675 28.172175,53.439875 L59.565975,84.833675 C62.337275,87.604875 66.830275,87.604875 69.601575,84.833675 C72.372775,82.062475 72.372775,77.569375 69.601575,74.798075 L38.207775,43.404275 C35.436575,40.633075 30.943475,40.633075 28.172175,43.404275 Z" id="Path" fill="#FFFFFF" fill-rule="nonzero"></path>
            <path d="M82.659775,141.877075 L2.863475,62.080275 C-0.287825,58.928975 -0.287825,53.819975 2.863475,50.668775 L50.669275,2.863375 L50.315775,2.509875 L50.669275,2.863375 C53.820575,-0.287825 58.929575,-0.287825 62.080775,2.863375 L141.876775,82.659775 C145.028775,85.810975 145.028775,90.920075 141.876775,94.071075 L94.070775,141.877075 L94.424775,142.230075 L94.070775,141.877075 C90.919775,145.028075 85.810775,145.028075 82.659775,141.877075 Z" id="Path" stroke="#002154"></path>
        </g>
    </g>
</svg>