<?xml version="1.0" encoding="UTF-8"?>
<svg width="29px" height="32px" viewBox="0 0 29 32" version="1.1" xmlns="http://www.w3.org/2000/svg" xmlns:xlink="http://www.w3.org/1999/xlink">
    <title>bf-loader-star</title>
    <g id="Page-1" stroke="none" stroke-width="1" fill="none" fill-rule="evenodd">
        <g id="bf-loader-star" fill="#FFA733" fill-rule="nonzero">
            <path d="M28.123,16.1539996 C28.025,17.1649996 27.288,17.6469996 26.404,18.0329996 C24.341,18.8999996 22.278,19.8149996 20.165,20.6829996 C19.232,21.0679996 18.642,21.5979996 18.299,22.5139996 C17.414,25.0189996 16.481,27.4759996 15.499,29.9339996 C15.253,30.5599996 15.056,31.4759996 14.172,31.4759996 C13.19,31.4759996 12.895,30.6559996 12.6,29.9339996 C11.716,27.6209996 10.783,25.3559996 10.046,22.9949996 C9.653,21.7909996 8.965,21.0679996 7.835,20.5859996 C5.625,19.6709996 3.463,18.7069996 1.302,17.7439996 C0.614,17.4549996 0.024,17.0689996 0.024,16.2019996 C0.024,15.2859996 0.663,14.9489996 1.351,14.6599996 C3.66,13.6479996 5.919,12.6359996 8.228,11.6729996 C9.161,11.2869996 9.653,10.6609996 9.997,9.74499955 C10.783,7.43299955 11.667,5.11999955 12.551,2.80699955 C12.797,1.98799955 13.091,0.927999555 14.221,0.975999555 C15.253,1.02399956 15.4,2.08399955 15.695,2.85499955 C16.579,5.21599955 17.513,7.57699955 18.348,9.93799955 C18.692,10.8539996 19.281,11.3839996 20.214,11.7689996 C22.327,12.5879996 24.341,13.5039996 26.453,14.4189996 C27.239,14.7559996 27.927,15.1899996 28.123,16.1539996 Z" id="Path"></path>
        </g>
    </g>
</svg>