<?xml version="1.0" encoding="UTF-8"?>
<svg width="40px" height="40px" viewBox="0 0 40 40" version="1.1" xmlns="http://www.w3.org/2000/svg" xmlns:xlink="http://www.w3.org/1999/xlink">
    <title>Group 2</title>
    <g id="Page-1" stroke="none" stroke-width="1" fill="none" fill-rule="evenodd">
        <g id="Group-2">
            <g id="visa" transform="translate(3.000000, 9.000000)" fill-rule="nonzero">
                <g id="g4145" transform="translate(17.500000, 11.000000) scale(-1, 1) rotate(-180.000000) translate(-17.500000, -11.000000) ">
                    <polygon id="path4147" fill="#FFFFFF" points="34.6525443 0.146561151 0.145502044 0.146561151 0.145502044 21.963792 34.6525443 21.963792"></polygon>
                    <polygon id="path4149" fill="#F7B600" points="0.717492049 3.67526619 33.9208996 3.67526619 33.9208996 0.712388488 0.717492049 0.712388488"></polygon>
                    <polygon id="path4151" fill="#1A1F71" points="0.717492049 18.3307482 33.9208996 18.3307482 33.9208996 21.2936259 0.717492049 21.2936259"></polygon>
                    <g id="g4153" transform="translate(3.975466, 6.647482)" fill="#1A1F71">
                        <g id="g4161" transform="translate(0.017858, 0.030452)">
                            <path d="M13.0395275,8.38848922 L11.2893685,0.244532374 L9.17251251,0.244532374 L10.9228305,8.38848922 L13.0395275,8.38848922 L13.0395275,8.38848922 Z M21.9452067,3.12969784 L23.0596093,6.18817266 L23.7006134,3.12969784 L21.9452067,3.12969784 L21.9452067,3.12969784 Z M24.3080645,0.244532374 L26.2654248,0.244532374 L24.5553385,8.38848922 L22.7496819,8.38848922 C22.3427533,8.38848922 21.9999091,8.1536115 21.8480464,7.79148201 L18.6716493,0.244532374 L20.8947297,0.244532374 L21.3361654,1.46070504 L24.0515675,1.46070504 L24.3080645,0.244532374 L24.3080645,0.244532374 Z M18.7818492,2.90336691 C18.7912312,5.05256116 15.7969105,5.17174103 15.8167878,6.13198559 C15.8233076,6.42384175 16.1028624,6.73469065 16.7142889,6.81414389 C17.0175375,6.85307915 17.8538164,6.88441727 18.8020445,6.44964027 L19.172876,8.17735253 C18.6635393,8.36063311 18.0082235,8.53726617 17.192935,8.53726617 C15.1002499,8.53726617 13.6280554,7.43093526 13.616288,5.84535253 C13.6029305,4.67286331 14.6678782,4.01919425 15.468537,3.62873381 C16.2941618,3.22956834 16.5708542,2.97348201 16.5668787,2.61689208 C16.561154,2.07053238 15.9083825,1.82869065 15.3009314,1.81951079 C14.2358246,1.80305036 13.6188324,2.10598561 13.1268287,2.33421583 L12.7426397,0.548892085 C13.2379827,0.323194245 14.1507497,0.126776979 15.0959564,0.116647482 C17.320627,0.116647482 18.7753294,1.21015827 18.7818492,2.90336691 L18.7818492,2.90336691 Z M10.0148342,8.38848922 L6.58496137,0.244532374 L4.34756929,0.244532374 L2.65958655,6.74402877 C2.55733758,7.14366908 2.46812812,7.29054676 2.15692867,7.45942448 C1.64791004,7.73466188 0.807496594,7.99201441 0.0686960474,8.15218707 L0.118627896,8.38848922 L3.72071786,8.38848922 C4.1794866,8.38848922 4.59229895,8.08460429 4.69725125,7.55866188 L5.58886872,2.84559712 L7.79095864,8.38848922 L10.0148342,8.38848922 L10.0148342,8.38848922 Z" id="path4163"></path>
                        </g>
                    </g>
                </g>
            </g>
            <rect id="Rectangle" x="0" y="0" width="40" height="40"></rect>
        </g>
    </g>
</svg>