<?xml version="1.0" encoding="UTF-8"?>
<svg width="40px" height="33px" viewBox="0 0 40 33" version="1.1" xmlns="http://www.w3.org/2000/svg" xmlns:xlink="http://www.w3.org/1999/xlink">
    <title>mc_vrt_pos 2</title>
    <g id="Page-1" stroke="none" stroke-width="1" fill="none" fill-rule="evenodd">
        <g id="mc_vrt_pos">
            <rect id="Rectangle" x="0" y="0" width="39.9462313" height="32.7658776"></rect>
            <g id="Group" transform="translate(4.081633, 4.081633)" fill-rule="nonzero">
                <path d="M5.80821769,24.5601633 L5.80821769,22.9277007 C5.82759419,22.6499411 5.72644796,22.377285 5.53060956,22.1793629 C5.33477117,21.9814408 5.06320081,21.8774146 4.7852517,21.8938503 C4.4190352,21.8699841 4.06881716,22.0471728 3.87110204,22.3563537 C3.69086608,22.0563449 3.36101366,21.8789015 3.01134694,21.8938503 C2.70689715,21.8785487 2.41708796,22.0255237 2.24955102,22.2801905 L2.24955102,21.9591565 L1.68361905,21.9591565 L1.68361905,24.5601633 L2.25496599,24.5601633 L2.25496599,23.1181497 C2.22995116,22.9379813 2.28686992,22.7560723 2.41011739,22.6222948 C2.53336485,22.4885172 2.7100083,22.4169089 2.89161905,22.427102 C3.26707483,22.427102 3.45755102,22.6719728 3.45755102,23.1127075 L3.45755102,24.5601633 L4.02889796,24.5601633 L4.02889796,23.1181497 C4.00577149,22.9383646 4.06334271,22.7575563 4.18616321,22.6242422 C4.30898371,22.4909281 4.48447667,22.4187596 4.66555102,22.427102 C5.05186667,22.427102 5.23687075,22.6719728 5.23687075,23.1127075 L5.23687075,24.5601633 L5.80821769,24.5601633 Z M14.2642177,21.9591565 L13.3391837,21.9591565 L13.3391837,21.1701497 L12.7678367,21.1701497 L12.7678367,21.9591565 L12.24,21.9591565 L12.24,22.4760816 L12.7678367,22.4760816 L12.7678367,23.6623129 C12.7678367,24.2662857 13.0018231,24.6254754 13.671102,24.6254754 C13.9211395,24.6262202 14.1663182,24.5564278 14.3784762,24.4241088 L14.2152653,23.9398095 C14.0635066,24.0303494 13.8912578,24.0809062 13.7146395,24.0867483 C13.4316735,24.0867483 13.3391837,23.9125714 13.3391837,23.6514558 L13.3391837,22.4760816 L14.2642177,22.4760816 L14.2642177,21.9591565 Z M19.0907782,21.8938503 C18.8097041,21.8855617 18.546622,22.0317201 18.4051701,22.2747483 L18.4051701,21.9591565 L17.8446803,21.9591565 L17.8446803,24.5601633 L18.410585,24.5601633 L18.410585,23.1018231 C18.410585,22.6719728 18.5955918,22.4325442 18.9656599,22.4325442 C19.0866904,22.4308871 19.2068628,22.4530779 19.3193197,22.4978503 L19.4934422,21.9645714 C19.3642045,21.9183262 19.2280396,21.8944112 19.0907782,21.8938503 L19.0907782,21.8938503 Z M11.7938231,22.1659048 C11.473494,21.9754391 11.1051901,21.881009 10.7327347,21.8938503 C10.0743129,21.8938503 9.64990476,22.2094422 9.64990476,22.7263673 C9.64990476,23.1508299 9.9654966,23.4120272 10.5477007,23.4936327 L10.8143401,23.5317007 C11.1244898,23.5751837 11.2714286,23.6568435 11.2714286,23.8037551 C11.2714286,24.0050884 11.0646259,24.1194014 10.6783129,24.1194014 C10.3675525,24.1283395 10.0628167,24.0324985 9.81311565,23.8472925 L9.5465034,24.2880544 C9.87612646,24.518269 10.270966,24.6365473 10.6728707,24.6254694 C11.4237823,24.6254694 11.8590748,24.2717279 11.8590748,23.7765714 C11.8590748,23.319483 11.5162993,23.0800544 10.9503946,22.9984218 L10.6837823,22.9603265 C10.4388844,22.9277007 10.2430204,22.8787755 10.2430204,22.7046531 C10.2430204,22.5141769 10.4279728,22.3998912 10.7381769,22.3998912 C11.0229973,22.4041922 11.3020282,22.4809735 11.5489524,22.6229932 L11.7938231,22.1659048 Z M26.9536354,21.8938503 C26.6725613,21.8855617 26.4094792,22.0317201 26.2680272,22.2747483 L26.2680272,21.9591565 L25.7075646,21.9591565 L25.7075646,24.5601633 L26.2734422,24.5601633 L26.2734422,23.1018231 C26.2734422,22.6719728 26.4584762,22.4325442 26.8284653,22.4325442 C26.9495229,22.4308805 27.0697233,22.4530713 27.1822068,22.4978503 L27.3563265,21.9645714 C27.2270795,21.9183261 27.0909056,21.894411 26.9536354,21.8938503 L26.9536354,21.8938503 Z M19.6620952,23.2595918 C19.6468942,23.6301311 19.7889631,23.9898436 20.0532567,24.2499961 C20.3175502,24.5101487 20.6794613,24.6465197 21.0497143,24.6254694 C21.3894652,24.6425356 21.7233095,24.5318819 21.9856054,24.3152653 L21.713551,23.8581769 C21.5178993,24.0073182 21.2793611,24.089376 21.0333633,24.0921633 C20.5931565,24.0654457 20.2498296,23.7006495 20.2498296,23.2596327 C20.2498296,22.8186158 20.5931565,22.4538196 21.0333633,22.427102 C21.2793661,22.4298865 21.5179079,22.511955 21.713551,22.6611156 L21.9856054,22.204 C21.7232907,21.9874227 21.389455,21.8767912 21.0497143,21.8938503 C20.6794829,21.8727918 20.3175882,22.0091411 20.0532968,22.2692657 C19.7890053,22.5293902 19.6469226,22.8890726 19.6620952,23.2595918 Z M24.9620707,23.2595918 L24.9620707,21.9591565 L24.3961633,21.9591565 L24.3961633,22.2747483 C24.20016,22.0221642 23.8939244,21.8802021 23.5745034,21.8938503 C22.8461889,21.9295611 22.2740215,22.5304704 22.2740215,23.2596599 C22.2740215,23.9888493 22.8461889,24.5897586 23.5745034,24.6254694 C23.8939328,24.6390988 24.2001677,24.4971168 24.3961633,24.244517 L24.3961633,24.5601633 L24.9620707,24.5601633 L24.9620707,23.2595918 Z M22.8562204,23.2595918 C22.8807146,22.8315282 23.2431309,22.5017043 23.6716023,22.517538 C24.1000737,22.5333717 24.4371583,22.8890448 24.4299915,23.3177488 C24.4228248,23.7464528 24.0740402,24.0906601 23.6452789,24.0921633 C23.4274266,24.0951112 23.2182639,24.0068397 23.0683928,23.8487039 C22.9185216,23.690568 22.8415939,23.4769726 22.8562204,23.2595918 L22.8562204,23.2595918 Z M16.0272653,21.8938503 C15.2938795,21.9324592 14.7220579,22.5436551 14.7322988,23.2779851 C14.7425398,24.0123151 15.3311833,24.6073272 16.0653605,24.6254694 C16.453588,24.6390952 16.8332408,24.5092964 17.1318667,24.2608435 L16.8543401,23.8418776 C16.6394583,24.0140908 16.373331,24.1098147 16.0979864,24.113932 C15.7092446,24.1466339 15.3647675,23.8647736 15.3198639,23.4772517 L17.2515946,23.4772517 C17.2570367,23.4065578 17.262449,23.3358095 17.262449,23.2595918 C17.2570367,22.4488707 16.7564082,21.8938503 16.0272653,21.8938503 L16.0272653,21.8938503 Z M16.0163537,22.3998912 C16.3722459,22.3929667 16.666682,22.6752345 16.6747755,23.031102 L15.3253061,23.031102 C15.3459712,22.6679244 15.652794,22.3876689 16.0163537,22.3998912 L16.0163537,22.3998912 Z M30.2130612,23.2595918 L30.2130612,20.9144218 L29.6471293,20.9144218 L29.6471293,22.2747483 C29.4511334,22.02217 29.1449087,21.8802083 28.8254966,21.8938503 C28.0971607,21.9295325 27.5249619,22.5304504 27.5249619,23.2596599 C27.5249619,23.9888693 28.0971607,24.5897872 28.8254966,24.6254694 C29.1449171,24.6390926 29.4511411,24.4971109 29.6471293,24.244517 L29.6471293,24.5601633 L30.2130612,24.5601633 L30.2130612,23.2595918 Z M31.1564082,24.1832031 C31.191553,24.1829773 31.2263792,24.1898833 31.2587755,24.2035102 C31.2899267,24.2165029 31.3183155,24.2353148 31.3424218,24.2589388 C31.3663397,24.2825057 31.3854754,24.3104748 31.3987755,24.3413061 C31.4262767,24.4053352 31.4262767,24.4778485 31.3987755,24.5418776 C31.3853958,24.5725686 31.3662673,24.6004162 31.3424218,24.6239184 C31.3182501,24.6475372 31.2898823,24.6664369 31.2587755,24.6796463 C31.2264365,24.6934944 31.1915866,24.7005162 31.1564082,24.7002721 C31.0505644,24.70134 30.9543613,24.6389516 30.9121633,24.5418776 C30.8847382,24.4778329 30.8847382,24.4053508 30.9121633,24.3413061 C30.9254259,24.3105144 30.9444731,24.2825532 30.9682721,24.2589388 C30.9923505,24.2351391 31.0208733,24.2163057 31.0522177,24.2035102 C31.0852399,24.1898411 31.1206697,24.1829384 31.1564082,24.1832031 L31.1564082,24.1832031 Z M31.1564082,24.6432381 C31.183223,24.6434491 31.209786,24.6380549 31.2343946,24.6274014 C31.2580191,24.6171351 31.2794997,24.6025131 31.2977143,24.5842993 C31.3759131,24.5053253 31.3759131,24.3781033 31.2977143,24.2991293 C31.2795339,24.2809707 31.2580389,24.2664683 31.2343946,24.2564082 C31.2097417,24.2459291 31.1831947,24.2406401 31.1564082,24.2408635 C31.1291318,24.2406651 31.1020929,24.2459491 31.0769007,24.2564082 C31.0528787,24.2663057 31.0310321,24.2808202 31.0125986,24.2991293 C30.9343614,24.3780875 30.9343614,24.5053411 31.0125986,24.5842993 C31.031065,24.6026637 31.052897,24.6172978 31.0769007,24.6274014 C31.1020496,24.638035 31.1291042,24.6434239 31.1564082,24.6432381 L31.1564082,24.6432381 Z M31.171619,24.3206803 C31.1970705,24.3190253 31.2222995,24.3263216 31.2429388,24.3413061 C31.2596114,24.3550414 31.2688702,24.3758059 31.2679456,24.3973878 C31.2685279,24.4158251 31.261282,24.4336481 31.248,24.446449 C31.2322444,24.4604412 31.2122889,24.4688062 31.1912653,24.4702313 L31.2698503,24.5608435 L31.2084082,24.5608435 L31.1355374,24.4708571 L31.1120816,24.4708571 L31.1120816,24.5608435 L31.0607619,24.5608435 L31.0607619,24.3206803 L31.171619,24.3206803 Z M31.1120816,24.3657143 L31.1120816,24.4297143 L31.1710204,24.4297143 C31.1823435,24.4302727 31.193582,24.4275009 31.2033469,24.4217415 C31.2114178,24.4163567 31.2159945,24.4070684 31.2153469,24.3973878 C31.2158825,24.3878785 31.2113092,24.3788046 31.2033469,24.3735782 C31.19356,24.3678825 31.18233,24.3651507 31.1710204,24.3657143 L31.1120816,24.3657143 Z M28.1072381,23.2595918 C28.1317529,22.8315507 28.4941676,22.5017615 28.922617,22.5176154 C29.3510663,22.5334694 29.6881168,22.889141 29.6809302,23.3178234 C29.6737435,23.7465057 29.3249604,24.0906797 28.8962204,24.0921633 C28.6783785,24.0950989 28.4692307,24.0068208 28.3193743,23.8486853 C28.169518,23.6905498 28.0926035,23.4769615 28.1072381,23.2595918 L28.1072381,23.2595918 Z M8.99692517,23.2595918 L8.99692517,21.9591565 L8.4309932,21.9591565 L8.4309932,22.2747483 C8.2349899,22.0221642 7.92875429,21.8802021 7.60933333,21.8938503 C6.88101884,21.9295611 6.30885147,22.5304704 6.30885147,23.2596599 C6.30885147,23.9888493 6.88101884,24.5897586 7.60933333,24.6254694 C7.92876276,24.6390988 8.2349976,24.4971168 8.4309932,24.244517 L8.4309932,24.5601633 L8.99692517,24.5601633 L8.99692517,23.2595918 Z M6.89110204,23.2595918 C6.91561685,22.8315503 7.27803212,22.501761 7.7064818,22.5176155 C8.13493148,22.5334699 8.47198173,22.8891425 8.46479408,23.3178252 C8.45760643,23.7465078 8.10882199,24.0906812 7.68008163,24.0921633 C7.46224015,24.0950981 7.25309307,24.0068197 7.10323737,23.8486843 C6.95338166,23.6905489 6.87646752,23.476961 6.89110204,23.2595918 L6.89110204,23.2595918 Z" id="Shape" fill="#231F20"></path>
                <g>
                    <rect id="Rectangle" fill="#FF5F00" x="11.6058503" y="2.13706122" width="8.57142857" height="15.403102"></rect>
                    <path d="M12.1501224,9.83861224 C12.1473794,6.83284579 13.5270939,3.99280266 15.8915946,2.13706122 C11.8753067,-1.01983774 6.10731815,-0.56036287 2.64146298,3.19255959 C-0.824392192,6.94548204 -0.824392192,12.7317424 2.64146298,16.4846649 C6.10731815,20.2375874 11.8753067,20.6970622 15.8915946,17.5401633 C13.5271099,15.684409 12.1473993,12.8443741 12.1501224,9.83861224 Z" id="Path" fill="#EB001B"></path>
                    <path d="M31.7406259,9.83861224 C31.7406259,13.5889942 29.5995507,17.010252 26.2263401,18.6494028 C22.8531295,20.2885537 18.8401153,19.8578325 15.8915946,17.5401633 C18.2538855,15.6826435 19.6330339,12.8437409 19.6330339,9.83861224 C19.6330339,6.83348359 18.2538855,3.99458102 15.8915946,2.13706122 C18.8401153,-0.180607971 22.8531295,-0.611329182 26.2263401,1.02782167 C29.5995507,2.66697253 31.7406259,6.08823027 31.7406259,9.83861224 L31.7406259,9.83861224 Z" id="Path" fill="#F79E1B"></path>
                    <path d="M30.84754,16.5282993 L30.84754,15.6989141 L31.0015967,15.6989141 L31.0015967,15.5299454 L30.6092517,15.5299454 L30.6092517,15.6989141 L30.7633743,15.6989141 L30.7633743,16.5282993 L30.84754,16.5282993 Z M31.6092517,16.5282993 L31.6092517,15.5282993 L31.4889866,15.5282993 L31.3506555,16.2161258 L31.2122913,15.5282993 L31.0919603,15.5282993 L31.0919603,16.5282993 L31.1768843,16.5282993 L31.1768843,15.7739874 L31.306611,16.4243131 L31.3946669,16.4243131 L31.5243936,15.7723414 L31.5243936,16.5282993 L31.6092517,16.5282993 Z" id="Shape" fill="#F79E1B"></path>
                </g>
            </g>
        </g>
    </g>
</svg>