<?xml version="1.0" encoding="UTF-8"?>
<svg width="30px" height="32px" viewBox="0 0 30 32" version="1.1" xmlns="http://www.w3.org/2000/svg" xmlns:xlink="http://www.w3.org/1999/xlink">
    <title>Path 2</title>
    <g id="Page-1" stroke="none" stroke-width="1" fill="none" fill-rule="evenodd">
        <g id="Path-2" transform="translate(0.024000, 0.974426)" fill="#FFD680" fill-rule="nonzero">
            <path d="M28.099,15.1795736 C28.001,16.1905736 27.264,16.6725736 26.38,17.0585736 C24.317,17.9255736 22.254,18.8405736 20.141,19.7085736 C19.208,20.0935736 18.618,20.6235736 18.275,21.5395736 C17.39,24.0445736 16.457,26.5015736 15.475,28.9595736 C15.229,29.5855736 15.032,30.5015736 14.148,30.5015736 C13.166,30.5015736 12.871,29.6815736 12.576,28.9595736 C11.692,26.6465736 10.759,24.3815736 10.022,22.0205736 C9.629,20.8165736 8.941,20.0935736 7.811,19.6115736 C5.601,18.6965736 3.439,17.7325736 1.278,16.7695736 C0.59,16.4805736 0,16.0945736 0,15.2275736 C0,14.3115736 0.639,13.9745736 1.327,13.6855736 C3.636,12.6735736 5.895,11.6615736 8.204,10.6985736 C9.137,10.3125736 9.629,9.68657355 9.973,8.77057355 C10.759,6.45857355 11.643,4.14557355 12.527,1.83257355 C12.773,1.01357355 13.067,-0.046426445 14.197,0.00157355498 C15.229,0.049573555 15.376,1.10957355 15.671,1.88057355 C16.555,4.24157355 17.489,6.60257355 18.324,8.96357355 C18.668,9.87957355 19.257,10.4095736 20.19,10.7945736 C22.303,11.6135736 24.317,12.5295736 26.429,13.4445736 C27.215,13.7815736 27.903,14.2155736 28.099,15.1795736 Z" id="Path"></path>
        </g>
    </g>
</svg>